<?xml version="1.0" encoding="us-ascii" standalone="no"?><svg xmlns="http://www.w3.org/2000/svg" xmlns:xlink="http://www.w3.org/1999/xlink" contentStyleType="text/css" height="667px" preserveAspectRatio="none" style="width:2240px;height:667px;background:#FFFFFF;" version="1.1" viewBox="0 0 2240 667" width="2240px" zoomAndPan="magnify"><defs/><g><line style="stroke:#181818;stroke-width:0.5;stroke-dasharray:5.0,5.0;" x1="55.5" x2="55.5" y1="82.6094" y2="660.9375"/><line style="stroke:#181818;stroke-width:0.5;stroke-dasharray:5.0,5.0;" x1="176" x2="176" y1="82.6094" y2="660.9375"/><line style="stroke:#181818;stroke-width:0.5;stroke-dasharray:5.0,5.0;" x1="731" x2="731" y1="82.6094" y2="660.9375"/><line style="stroke:#181818;stroke-width:0.5;stroke-dasharray:5.0,5.0;" x1="893" x2="893" y1="82.6094" y2="660.9375"/><line style="stroke:#181818;stroke-width:0.5;stroke-dasharray:5.0,5.0;" x1="1028" x2="1028" y1="82.6094" y2="660.9375"/><line style="stroke:#181818;stroke-width:0.5;stroke-dasharray:5.0,5.0;" x1="1198" x2="1198" y1="82.6094" y2="660.9375"/><line style="stroke:#181818;stroke-width:0.5;stroke-dasharray:5.0,5.0;" x1="1395" x2="1395" y1="82.6094" y2="660.9375"/><line style="stroke:#181818;stroke-width:0.5;stroke-dasharray:5.0,5.0;" x1="1549.5" x2="1549.5" y1="82.6094" y2="660.9375"/><line style="stroke:#181818;stroke-width:0.5;stroke-dasharray:5.0,5.0;" x1="1649.5" x2="1649.5" y1="82.6094" y2="660.9375"/><line style="stroke:#181818;stroke-width:0.5;stroke-dasharray:5.0,5.0;" x1="1896.5" x2="1896.5" y1="82.6094" y2="660.9375"/><line style="stroke:#181818;stroke-width:0.5;stroke-dasharray:5.0,5.0;" x1="2157.5" x2="2157.5" y1="82.6094" y2="660.9375"/><text fill="#000000" font-family="sans-serif" font-size="14" lengthAdjust="spacing" textLength="95" x="5" y="79.5332">Sales Manager</text><ellipse cx="55.5" cy="13.5" fill="#E2E2F0" rx="8" ry="8" style="stroke:#181818;stroke-width:0.5;"/><path d="M55.5,21.5 L55.5,48.5 M42.5,29.5 L68.5,29.5 M55.5,48.5 L42.5,63.5 M55.5,48.5 L68.5,63.5 " fill="none" style="stroke:#181818;stroke-width:0.5;"/><text fill="#000000" font-family="sans-serif" font-size="14" lengthAdjust="spacing" textLength="114" x="116" y="79.5332">Web/Mobile Client</text><path d="M155.5,37 L155.5,61 M155.5,49 L172.5,49 " fill="none" style="stroke:#181818;stroke-width:0.5;"/><ellipse cx="184.5" cy="49" fill="#E2E2F0" rx="12" ry="12" style="stroke:#181818;stroke-width:0.5;"/><text fill="#000000" font-family="sans-serif" font-size="14" lengthAdjust="spacing" textLength="115" x="670.5" y="61.9238">Express API Layer</text><text fill="#000000" font-family="sans-serif" font-size="14" lengthAdjust="spacing" textLength="172" x="642" y="79.5332">(app.js route orchestration)</text><ellipse cx="731" cy="31.3906" fill="#E2E2F0" rx="12" ry="12" style="stroke:#181818;stroke-width:0.5;"/><polygon fill="#181818" points="727,19.3906,733,14.3906,731,19.3906,733,24.3906,727,19.3906" style="stroke:#181818;stroke-width:1.0;"/><text fill="#000000" font-family="sans-serif" font-size="14" lengthAdjust="spacing" textLength="120" x="830" y="79.5332">Notification Service</text><ellipse cx="893" cy="49" fill="#E2E2F0" rx="12" ry="12" style="stroke:#181818;stroke-width:0.5;"/><polygon fill="#181818" points="889,37,895,32,893,37,895,42,889,37" style="stroke:#181818;stroke-width:1.0;"/><text fill="#000000" font-family="sans-serif" font-size="14" lengthAdjust="spacing" textLength="118" x="966" y="79.5332">Integration Service</text><ellipse cx="1028" cy="49" fill="#E2E2F0" rx="12" ry="12" style="stroke:#181818;stroke-width:0.5;"/><polygon fill="#181818" points="1024,37,1030,32,1028,37,1030,42,1024,37" style="stroke:#181818;stroke-width:1.0;"/><text fill="#000000" font-family="sans-serif" font-size="14" lengthAdjust="spacing" textLength="167" x="1111.5" y="79.5332">Integration Event Manager</text><ellipse cx="1198" cy="49" fill="#E2E2F0" rx="12" ry="12" style="stroke:#181818;stroke-width:0.5;"/><polygon fill="#181818" points="1194,37,1200,32,1198,37,1200,42,1194,37" style="stroke:#181818;stroke-width:1.0;"/><text fill="#000000" font-family="sans-serif" font-size="14" lengthAdjust="spacing" textLength="195" x="1294.5" y="79.5332">Finance + Accounting Services</text><ellipse cx="1395" cy="49" fill="#E2E2F0" rx="12" ry="12" style="stroke:#181818;stroke-width:0.5;"/><polygon fill="#181818" points="1391,37,1397,32,1395,37,1397,42,1391,37" style="stroke:#181818;stroke-width:1.0;"/><text fill="#000000" font-family="sans-serif" font-size="14" lengthAdjust="spacing" textLength="82" x="1505.5" y="79.5332">CRM Service</text><ellipse cx="1549.5" cy="49" fill="#E2E2F0" rx="12" ry="12" style="stroke:#181818;stroke-width:0.5;"/><polygon fill="#181818" points="1545.5,37,1551.5,32,1549.5,37,1551.5,42,1545.5,37" style="stroke:#181818;stroke-width:1.0;"/><text fill="#000000" font-family="sans-serif" font-size="14" lengthAdjust="spacing" textLength="86" x="1603.5" y="79.5332">Sales Service</text><ellipse cx="1649.5" cy="49" fill="#E2E2F0" rx="12" ry="12" style="stroke:#181818;stroke-width:0.5;"/><polygon fill="#181818" points="1645.5,37,1651.5,32,1649.5,37,1651.5,42,1645.5,37" style="stroke:#181818;stroke-width:1.0;"/><text fill="#000000" font-family="sans-serif" font-size="14" lengthAdjust="spacing" textLength="186" x="1800.5" y="79.5332">Reports + Reporting Services</text><ellipse cx="1896.5" cy="49" fill="#E2E2F0" rx="12" ry="12" style="stroke:#181818;stroke-width:0.5;"/><polygon fill="#181818" points="1892.5,37,1898.5,32,1896.5,37,1898.5,42,1892.5,37" style="stroke:#181818;stroke-width:1.0;"/><text fill="#000000" font-family="sans-serif" font-size="14" lengthAdjust="spacing" textLength="146" x="2081.5" y="79.5332">PostgreSQL via Prisma</text><path d="M2139.5,29 C2139.5,19 2157.5,19 2157.5,19 C2157.5,19 2175.5,19 2175.5,29 L2175.5,55 C2175.5,65 2157.5,65 2157.5,65 C2157.5,65 2139.5,65 2139.5,55 L2139.5,29 " fill="#E2E2F0" style="stroke:#181818;stroke-width:1.5;"/><path d="M2139.5,29 C2139.5,39 2157.5,39 2157.5,39 C2157.5,39 2175.5,39 2175.5,29 " fill="none" style="stroke:#181818;stroke-width:1.5;"/><rect fill="#EEEEEE" height="3" style="stroke:#EEEEEE;stroke-width:1.0;" width="2228.5" x="5" y="111.7852"/><line style="stroke:#000000;stroke-width:1.0;" x1="5" x2="2233.5" y1="111.7852" y2="111.7852"/><line style="stroke:#000000;stroke-width:1.0;" x1="5" x2="2233.5" y1="114.7852" y2="114.7852"/><rect fill="#EEEEEE" height="24.3516" style="stroke:#000000;stroke-width:2.0;" width="129" x="1054.75" y="100.6094"/><text fill="#000000" font-family="sans-serif" font-size="13" font-weight="bold" lengthAdjust="spacing" textLength="111" x="1060.75" y="118.1045">8) CRM and Sales</text><polygon fill="#181818" points="164,153.3125,174,157.3125,164,161.3125,168,157.3125" style="stroke:#181818;stroke-width:1.0;"/><line style="stroke:#181818;stroke-width:1.0;" x1="55.5" x2="170" y1="157.3125" y2="157.3125"/><text fill="#000000" font-family="sans-serif" font-size="13" font-weight="bold" lengthAdjust="spacing" textLength="7" x="62.5" y="152.4561">1</text><text fill="#000000" font-family="sans-serif" font-size="13" lengthAdjust="spacing" textLength="80" x="73.5" y="152.4561">CRM lifecycle</text><polygon fill="#181818" points="719,183.6641,729,187.6641,719,191.6641,723,187.6641" style="stroke:#181818;stroke-width:1.0;"/><line style="stroke:#181818;stroke-width:1.0;" x1="176" x2="725" y1="187.6641" y2="187.6641"/><text fill="#000000" font-family="sans-serif" font-size="13" font-weight="bold" lengthAdjust="spacing" textLength="7" x="183" y="182.8076">2</text><text fill="#000000" font-family="sans-serif" font-size="13" lengthAdjust="spacing" textLength="520" x="194" y="182.8076">/api/crm/customers contacts leads deals pipelines activities attachments communications</text><polygon fill="#181818" points="1537.5,214.0156,1547.5,218.0156,1537.5,222.0156,1541.5,218.0156" style="stroke:#181818;stroke-width:1.0;"/><line style="stroke:#181818;stroke-width:1.0;" x1="731" x2="1543.5" y1="218.0156" y2="218.0156"/><text fill="#000000" font-family="sans-serif" font-size="13" font-weight="bold" lengthAdjust="spacing" textLength="7" x="738" y="213.1592">3</text><text fill="#000000" font-family="sans-serif" font-size="13" lengthAdjust="spacing" textLength="300" x="749" y="213.1592">customer lifecycle + pipeline + activity orchestration</text><polygon fill="#181818" points="2145.5,244.3672,2155.5,248.3672,2145.5,252.3672,2149.5,248.3672" style="stroke:#181818;stroke-width:1.0;"/><line style="stroke:#181818;stroke-width:1.0;" x1="1549.5" x2="2151.5" y1="248.3672" y2="248.3672"/><text fill="#000000" font-family="sans-serif" font-size="13" font-weight="bold" lengthAdjust="spacing" textLength="7" x="1556.5" y="243.5107">4</text><text fill="#000000" font-family="sans-serif" font-size="13" lengthAdjust="spacing" textLength="573" x="1567.5" y="243.5107">Customer, Contact, Lead, Deal, Pipeline, PipelineStage, Activity, Attachment, Communication, Tag</text><polygon fill="#181818" points="904,274.7188,894,278.7188,904,282.7188,900,278.7188" style="stroke:#181818;stroke-width:1.0;"/><line style="stroke:#181818;stroke-width:1.0;" x1="898" x2="1548.5" y1="278.7188" y2="278.7188"/><text fill="#000000" font-family="sans-serif" font-size="13" font-weight="bold" lengthAdjust="spacing" textLength="7" x="910" y="273.8623">5</text><text fill="#000000" font-family="sans-serif" font-size="13" lengthAdjust="spacing" textLength="282" x="921" y="273.8623">reminders/overdue/upcoming activity notifications</text><polygon fill="#181818" points="742,305.0703,732,309.0703,742,313.0703,738,309.0703" style="stroke:#181818;stroke-width:1.0;"/><line style="stroke:#181818;stroke-width:1.0;stroke-dasharray:2.0,2.0;" x1="736" x2="1548.5" y1="309.0703" y2="309.0703"/><text fill="#000000" font-family="sans-serif" font-size="13" font-weight="bold" lengthAdjust="spacing" textLength="7" x="748" y="304.2139">6</text><text fill="#000000" font-family="sans-serif" font-size="13" lengthAdjust="spacing" textLength="65" x="759" y="304.2139">CRM result</text><polygon fill="#181818" points="187,335.4219,177,339.4219,187,343.4219,183,339.4219" style="stroke:#181818;stroke-width:1.0;"/><line style="stroke:#181818;stroke-width:1.0;stroke-dasharray:2.0,2.0;" x1="181" x2="730" y1="339.4219" y2="339.4219"/><text fill="#000000" font-family="sans-serif" font-size="13" font-weight="bold" lengthAdjust="spacing" textLength="7" x="193" y="334.5654">7</text><text fill="#000000" font-family="sans-serif" font-size="13" lengthAdjust="spacing" textLength="79" x="204" y="334.5654">CRM updated</text><polygon fill="#181818" points="164,365.7734,174,369.7734,164,373.7734,168,369.7734" style="stroke:#181818;stroke-width:1.0;"/><line style="stroke:#181818;stroke-width:1.0;" x1="55.5" x2="170" y1="369.7734" y2="369.7734"/><text fill="#000000" font-family="sans-serif" font-size="13" font-weight="bold" lengthAdjust="spacing" textLength="7" x="62.5" y="364.917">8</text><text fill="#000000" font-family="sans-serif" font-size="13" lengthAdjust="spacing" textLength="84" x="73.5" y="364.917">Sales lifecycle</text><polygon fill="#181818" points="719,396.125,729,400.125,719,404.125,723,400.125" style="stroke:#181818;stroke-width:1.0;"/><line style="stroke:#181818;stroke-width:1.0;" x1="176" x2="725" y1="400.125" y2="400.125"/><text fill="#000000" font-family="sans-serif" font-size="13" font-weight="bold" lengthAdjust="spacing" textLength="7" x="183" y="395.2686">9</text><text fill="#000000" font-family="sans-serif" font-size="13" lengthAdjust="spacing" textLength="384" x="194" y="395.2686">/api/sales/quotations orders invoices trackings payments analytics</text><polygon fill="#181818" points="1637.5,426.4766,1647.5,430.4766,1637.5,434.4766,1641.5,430.4766" style="stroke:#181818;stroke-width:1.0;"/><line style="stroke:#181818;stroke-width:1.0;" x1="731" x2="1643.5" y1="430.4766" y2="430.4766"/><text fill="#000000" font-family="sans-serif" font-size="13" font-weight="bold" lengthAdjust="spacing" textLength="14" x="738" y="425.6201">10</text><text fill="#000000" font-family="sans-serif" font-size="13" lengthAdjust="spacing" textLength="292" x="756" y="425.6201">quotation-&gt;order-&gt;invoice conversions and tracking</text><polygon fill="#181818" points="2145.5,456.8281,2155.5,460.8281,2145.5,464.8281,2149.5,460.8281" style="stroke:#181818;stroke-width:1.0;"/><line style="stroke:#181818;stroke-width:1.0;" x1="1649.5" x2="2151.5" y1="460.8281" y2="460.8281"/><text fill="#000000" font-family="sans-serif" font-size="13" font-weight="bold" lengthAdjust="spacing" textLength="14" x="1656.5" y="455.9717">11</text><text fill="#000000" font-family="sans-serif" font-size="13" lengthAdjust="spacing" textLength="463" x="1674.5" y="455.9717">SalesQuotation, SalesOrder, SalesInvoice, InvoicePayment, SalesOrderTracking</text><polygon fill="#181818" points="1039,487.1797,1029,491.1797,1039,495.1797,1035,491.1797" style="stroke:#181818;stroke-width:1.0;"/><line style="stroke:#181818;stroke-width:1.0;" x1="1033" x2="1648.5" y1="491.1797" y2="491.1797"/><text fill="#000000" font-family="sans-serif" font-size="13" font-weight="bold" lengthAdjust="spacing" textLength="14" x="1045" y="486.3232">12</text><text fill="#000000" font-family="sans-serif" font-size="13" lengthAdjust="spacing" textLength="221" x="1063" y="486.3232">sync sales order completion to AR/GL</text><polygon fill="#181818" points="1186,517.5313,1196,521.5313,1186,525.5313,1190,521.5313" style="stroke:#181818;stroke-width:1.0;"/><line style="stroke:#181818;stroke-width:1.0;" x1="1028" x2="1192" y1="521.5313" y2="521.5313"/><text fill="#000000" font-family="sans-serif" font-size="13" font-weight="bold" lengthAdjust="spacing" textLength="14" x="1035" y="516.6748">13</text><text fill="#000000" font-family="sans-serif" font-size="13" lengthAdjust="spacing" textLength="128" x="1053" y="516.6748">sales:order:completed</text><polygon fill="#181818" points="1383,547.8828,1393,551.8828,1383,555.8828,1387,551.8828" style="stroke:#181818;stroke-width:1.0;"/><line style="stroke:#181818;stroke-width:1.0;" x1="1198" x2="1389" y1="551.8828" y2="551.8828"/><text fill="#000000" font-family="sans-serif" font-size="13" font-weight="bold" lengthAdjust="spacing" textLength="14" x="1205" y="547.0264">14</text><text fill="#000000" font-family="sans-serif" font-size="13" lengthAdjust="spacing" textLength="122" x="1223" y="547.0264">revenue posting sync</text><polygon fill="#181818" points="1884.5,578.2344,1894.5,582.2344,1884.5,586.2344,1888.5,582.2344" style="stroke:#181818;stroke-width:1.0;"/><line style="stroke:#181818;stroke-width:1.0;" x1="1649.5" x2="1890.5" y1="582.2344" y2="582.2344"/><text fill="#000000" font-family="sans-serif" font-size="13" font-weight="bold" lengthAdjust="spacing" textLength="14" x="1656.5" y="577.3779">15</text><text fill="#000000" font-family="sans-serif" font-size="13" lengthAdjust="spacing" textLength="205" x="1674.5" y="577.3779">sales analytics/forecast/export jobs</text><polygon fill="#181818" points="742,608.5859,732,612.5859,742,616.5859,738,612.5859" style="stroke:#181818;stroke-width:1.0;"/><line style="stroke:#181818;stroke-width:1.0;stroke-dasharray:2.0,2.0;" x1="736" x2="1648.5" y1="612.5859" y2="612.5859"/><text fill="#000000" font-family="sans-serif" font-size="13" font-weight="bold" lengthAdjust="spacing" textLength="14" x="748" y="607.7295">16</text><text fill="#000000" font-family="sans-serif" font-size="13" lengthAdjust="spacing" textLength="71" x="766" y="607.7295">sales output</text><polygon fill="#181818" points="187,638.9375,177,642.9375,187,646.9375,183,642.9375" style="stroke:#181818;stroke-width:1.0;"/><line style="stroke:#181818;stroke-width:1.0;stroke-dasharray:2.0,2.0;" x1="181" x2="730" y1="642.9375" y2="642.9375"/><text fill="#000000" font-family="sans-serif" font-size="13" font-weight="bold" lengthAdjust="spacing" textLength="14" x="193" y="638.0811">17</text><text fill="#000000" font-family="sans-serif" font-size="13" lengthAdjust="spacing" textLength="95" x="211" y="638.0811">sales completed</text><!--SRC=[XLJBRjim4BppAxO-DQXINGi33f1NYm1swyO1Ukc5ejOEKuba-J2YVdsN3qbE4w2t5JaxExkpr3jZ-Q7du57_0My3CXwyLg5lqB97sIBijVQDVcQC2wyjB7QyGmSRhlW1xGAuWtIoOOqEgkLsWCKFREgDRcI7SDr9L3x1SiY4Ljxg3XQtpyQYSt2vlOCr7z3-LE-vCH-V75WTF8AsuX6TjznBhSuI1s5dWg_QoxqKwHfsQ8zIO4AbYs46tYcF1_iQby_VnjqUIUoBDjF9LN0p_hDKN0c43t0f17NlfJgC1LpAAOWvvVf-yq82VS-NURIdr-ba1joZqTOxAfYZL_KAWBNSyuOxXCLMEt-mkFk-XgFaiBNIzJnXRwuOMwtWqraK0LorkHgiLYmx2kSNnJHO9amdzoW6qI4hnmI8xYsXvaRMmlQr2Cxh7gs3A9fMna67l7NG8kyS66cmauggq9KyIYzZw0dus1DXpEhxe8gfZaNsg8AABs7addNG84P62Wlby79nM4mcZfkhs4MXgE0wowjWJV8gk25v5MmBsHpjFFbVaR-Pcg99REGu4Ll10p-CnV86Ka6BlLGjpQFMHxHjm3eOwZ4QDybL9tliCiCqsFX5hoHqFi_YNqk28QknPMzPbktyZsakWkhVGVjSduONvO9KHntNYduANFmYlMGU7x99z2YwmKin-PChBM6YERz8DESNXIPk0_NlKeMuQYDhrZtvaxw-ZonL_luMgKfyb_agAC4sQpf5FhoYpk-QwDsW1AIESvjntKo7wS5x3PVtzPSrAsZA6rzyp8n9ovIqB4aqzGb0uF5d43sduu1WwEb5esFLMSpuXWldFCnwhoqAxdoDpn42JxfnOzvaMb4Vl0blh4I-dGMolm00]--></g></svg>