<?xml version="1.0" encoding="us-ascii" standalone="no"?><svg xmlns="http://www.w3.org/2000/svg" xmlns:xlink="http://www.w3.org/1999/xlink" contentStyleType="text/css" height="1469px" preserveAspectRatio="none" style="width:579px;height:1469px;background:#FFFFFF;" version="1.1" viewBox="0 0 579 1469" width="579px" zoomAndPan="magnify"><defs/><g><text fill="#000000" font-family="sans-serif" font-size="14" font-weight="bold" lengthAdjust="spacing" textLength="429" x="68" y="24.5332">UEORMS State Transition - 1) Access, Tenant, and Core Setup</text><ellipse cx="308" cy="54.6094" fill="#222222" rx="10" ry="10" style="stroke:#222222;stroke-width:1.0;"/><rect fill="#F1F1F1" height="40" rx="12.5" ry="12.5" style="stroke:#181818;stroke-width:0.5;" width="50" x="283" y="125.6094"/><text fill="#000000" font-family="sans-serif" font-size="14" lengthAdjust="spacing" textLength="38" x="289" y="151.3379">Guest</text><rect fill="#F1F1F1" height="40" rx="12.5" ry="12.5" style="stroke:#181818;stroke-width:0.5;" width="79" x="190.5" y="243.6094"/><text fill="#000000" font-family="sans-serif" font-size="14" lengthAdjust="spacing" textLength="69" x="195.5" y="269.3379">Registered</text><rect fill="#F1F1F1" height="40" rx="12.5" ry="12.5" style="stroke:#181818;stroke-width:0.5;" width="167" x="304.5" y="243.6094"/><text fill="#000000" font-family="sans-serif" font-size="14" lengthAdjust="spacing" textLength="157" x="309.5" y="269.3379">RegisteredWithCheckout</text><rect fill="#F1F1F1" height="40" rx="12.5" ry="12.5" style="stroke:#181818;stroke-width:0.5;" width="92" x="263" y="361.6094"/><text fill="#000000" font-family="sans-serif" font-size="14" lengthAdjust="spacing" textLength="82" x="268" y="387.3379">EmailVerified</text><rect fill="#F1F1F1" height="40" rx="12.5" ry="12.5" style="stroke:#181818;stroke-width:0.5;" width="97" x="260.5" y="479.6094"/><text fill="#000000" font-family="sans-serif" font-size="14" lengthAdjust="spacing" textLength="87" x="265.5" y="505.3379">Authenticated</text><rect fill="#F1F1F1" height="40" rx="12.5" ry="12.5" style="stroke:#181818;stroke-width:0.5;" width="160" x="7" y="597.6094"/><text fill="#000000" font-family="sans-serif" font-size="14" lengthAdjust="spacing" textLength="150" x="12" y="623.3379">PasswordResetPending</text><rect fill="#F1F1F1" height="40" rx="12.5" ry="12.5" style="stroke:#181818;stroke-width:0.5;" width="95" x="261.5" y="597.6094"/><text fill="#000000" font-family="sans-serif" font-size="14" lengthAdjust="spacing" textLength="85" x="266.5" y="623.3379">InvitePending</text><rect fill="#F1F1F1" height="40" rx="12.5" ry="12.5" style="stroke:#181818;stroke-width:0.5;" width="77" x="270.5" y="715.6094"/><text fill="#000000" font-family="sans-serif" font-size="14" lengthAdjust="spacing" textLength="67" x="275.5" y="741.3379">ActiveUser</text><rect fill="#F1F1F1" height="40" rx="12.5" ry="12.5" style="stroke:#181818;stroke-width:0.5;" width="97" x="266.5" y="833.6094"/><text fill="#000000" font-family="sans-serif" font-size="14" lengthAdjust="spacing" textLength="87" x="271.5" y="859.3379">RoleAssigned</text><rect fill="#F1F1F1" height="40" rx="12.5" ry="12.5" style="stroke:#181818;stroke-width:0.5;" width="142" x="257" y="951.6094"/><text fill="#000000" font-family="sans-serif" font-size="14" lengthAdjust="spacing" textLength="132" x="262" y="977.3379">DepartmentAssigned</text><rect fill="#F1F1F1" height="40" rx="12.5" ry="12.5" style="stroke:#181818;stroke-width:0.5;" width="113" x="271.5" y="1069.6094"/><text fill="#000000" font-family="sans-serif" font-size="14" lengthAdjust="spacing" textLength="103" x="276.5" y="1095.3379">BranchAssigned</text><rect fill="#F1F1F1" height="40" rx="12.5" ry="12.5" style="stroke:#181818;stroke-width:0.5;" width="140" x="258" y="1187.6094"/><text fill="#000000" font-family="sans-serif" font-size="14" lengthAdjust="spacing" textLength="130" x="263" y="1213.3379">CompanyConfigured</text><rect fill="#F1F1F1" height="40" rx="12.5" ry="12.5" style="stroke:#181818;stroke-width:0.5;" width="126" x="267" y="1305.6094"/><text fill="#000000" font-family="sans-serif" font-size="14" lengthAdjust="spacing" textLength="116" x="272" y="1331.3379">SystemConfigured</text><rect fill="#F1F1F1" height="40" rx="12.5" ry="12.5" style="stroke:#181818;stroke-width:0.5;" width="121" x="340.5" y="1423.6094"/><text fill="#000000" font-family="sans-serif" font-size="14" lengthAdjust="spacing" textLength="111" x="345.5" y="1449.3379">DashboardReady</text><ellipse cx="408" cy="617.6094" fill="none" rx="11" ry="11" style="stroke:#222222;stroke-width:1.0;"/><ellipse cx="408" cy="617.6094" fill="#222222" rx="6" ry="6" style="stroke:#222222;stroke-width:1.0;"/><!--link *start* to Guest--><g id="link_*start*_Guest"><path d="M308,64.7994 C308,79.0094 308,100.6294 308,119.3494 " fill="none" id="*start*-to-Guest" style="stroke:#181818;stroke-width:1.0;"/><polygon fill="#181818" points="308,125.3494,312,116.3494,308,120.3494,304,116.3494,308,125.3494" style="stroke:#181818;stroke-width:1.0;"/></g><!--link Guest to Registered--><g id="link_Guest_Registered"><path d="M282.84,159.9394 C269.29,168.3894 253.47,180.5694 244,195.6094 C234.95,209.9894 232.1295,223.2294 230.9695,237.3994 " fill="none" id="Guest-to-Registered" style="stroke:#181818;stroke-width:1.0;"/><polygon fill="#181818" points="230.48,243.3794,235.201,234.7357,230.888,238.396,227.2276,234.083,230.48,243.3794" style="stroke:#181818;stroke-width:1.0;"/><text fill="#000000" font-family="sans-serif" font-size="13" lengthAdjust="spacing" textLength="93" x="245" y="210.1045">register account</text></g><!--link Guest to RegisteredWithCheckout--><g id="link_Guest_RegisteredWithCheckout"><path d="M322.1,166.0694 C328.53,175.0194 336.21,185.8094 343,195.6094 C354.09,211.6194 363.0787,225.0025 372.0187,238.4525 " fill="none" id="Guest-to-RegisteredWithCheckout" style="stroke:#181818;stroke-width:1.0;"/><polygon fill="#181818" points="375.34,243.4494,373.6892,233.7398,372.5722,239.2853,367.0267,238.1683,375.34,243.4494" style="stroke:#181818;stroke-width:1.0;"/><text fill="#000000" font-family="sans-serif" font-size="13" lengthAdjust="spacing" textLength="112" x="356" y="210.1045">register + checkout</text></g><!--link Registered to EmailVerified--><g id="link_Registered_EmailVerified"><path d="M232.29,283.7994 C234.69,297.9494 239.51,317.1594 249,331.6094 C256.6,343.1894 263.0103,349.7657 273.6803,357.8157 " fill="none" id="Registered-to-EmailVerified" style="stroke:#181818;stroke-width:1.0;"/><polygon fill="#181818" points="278.47,361.4294,273.6945,352.8158,274.4785,358.418,268.8763,359.2021,278.47,361.4294" style="stroke:#181818;stroke-width:1.0;"/><text fill="#000000" font-family="sans-serif" font-size="13" lengthAdjust="spacing" textLength="86" x="250" y="328.1045">verify email/otp</text></g><!--link RegisteredWithCheckout to EmailVerified--><g id="link_RegisteredWithCheckout_EmailVerified"><path d="M374.95,283.7694 C360.32,305.2594 340.0875,334.9603 325.4375,356.4703 " fill="none" id="RegisteredWithCheckout-to-EmailVerified" style="stroke:#181818;stroke-width:1.0;"/><polygon fill="#181818" points="322.06,361.4294,330.4323,356.2424,324.8746,357.2968,323.8202,351.7391,322.06,361.4294" style="stroke:#181818;stroke-width:1.0;"/><text fill="#000000" font-family="sans-serif" font-size="13" lengthAdjust="spacing" textLength="103" x="355" y="328.1045">payment success</text></g><!--link EmailVerified to Authenticated--><g id="link_EmailVerified_Authenticated"><path d="M309,401.7694 C309,423.2594 309,451.9194 309,473.4294 " fill="none" id="EmailVerified-to-Authenticated" style="stroke:#181818;stroke-width:1.0;"/><polygon fill="#181818" points="309,479.4294,313,470.4294,309,474.4294,305,470.4294,309,479.4294" style="stroke:#181818;stroke-width:1.0;"/><text fill="#000000" font-family="sans-serif" font-size="13" lengthAdjust="spacing" textLength="27" x="310" y="446.1045">login</text></g><!--link Authenticated to PasswordResetPending--><g id="link_Authenticated_PasswordResetPending"><path d="M260.38,501.7394 C187.31,504.5694 54.53,514.5494 25,549.6094 C11.01,566.2194 24.7045,580.9925 45.1545,594.1525 " fill="none" id="Authenticated-to-PasswordResetPending" style="stroke:#181818;stroke-width:1.0;"/><polygon fill="#181818" points="50.2,597.3994,44.7963,589.1653,45.9954,594.6936,40.4671,595.8927,50.2,597.3994" style="stroke:#181818;stroke-width:1.0;"/><text fill="#000000" font-family="sans-serif" font-size="13" lengthAdjust="spacing" textLength="91" x="26" y="564.1045">forgot password</text></g><!--link PasswordResetPending to Authenticated--><g id="link_PasswordResetPending_Authenticated"><path d="M113.28,597.5594 C133.61,583.3094 162.8,563.8894 190,549.6094 C212.45,537.8194 232.791,529.0319 254.711,520.4719 " fill="none" id="PasswordResetPending-to-Authenticated" style="stroke:#181818;stroke-width:1.0;"/><polygon fill="#181818" points="260.3,518.2894,250.4615,517.8372,255.6425,520.1082,253.3716,525.2892,260.3,518.2894" style="stroke:#181818;stroke-width:1.0;"/><text fill="#000000" font-family="sans-serif" font-size="13" lengthAdjust="spacing" textLength="106" x="191" y="564.1045">otp verified + reset</text></g><!--link Authenticated to InvitePending--><g id="link_Authenticated_InvitePending"><path d="M307.56,519.6794 C306.95,528.7394 306.3,539.7294 306,549.6094 C305.51,565.7894 306.0057,578.1644 306.9557,591.5644 " fill="none" id="Authenticated-to-InvitePending" style="stroke:#181818;stroke-width:1.0;"/><polygon fill="#181818" points="307.38,597.5494,310.7335,588.289,307.0264,592.5619,302.7536,588.8548,307.38,597.5494" style="stroke:#181818;stroke-width:1.0;"/><text fill="#000000" font-family="sans-serif" font-size="13" lengthAdjust="spacing" textLength="58" x="307" y="564.1045">invite user</text></g><!--link InvitePending to ActiveUser--><g id="link_InvitePending_ActiveUser"><path d="M309,637.7694 C309,659.2594 309,687.9194 309,709.4294 " fill="none" id="InvitePending-to-ActiveUser" style="stroke:#181818;stroke-width:1.0;"/><polygon fill="#181818" points="309,715.4294,313,706.4294,309,710.4294,305,706.4294,309,715.4294" style="stroke:#181818;stroke-width:1.0;"/><text fill="#000000" font-family="sans-serif" font-size="13" lengthAdjust="spacing" textLength="72" x="310" y="682.1045">accept invite</text></g><!--link ActiveUser to RoleAssigned--><g id="link_ActiveUser_RoleAssigned"><path d="M307.31,755.6994 C306.39,769.1194 305.69,787.4894 307,803.6094 C307.79,813.3994 308.4089,818.284 310.0189,827.244 " fill="none" id="ActiveUser-to-RoleAssigned" style="stroke:#181818;stroke-width:1.0;"/><polygon fill="#181818" points="311.08,833.1494,313.4253,823.5838,310.1957,828.2282,305.5514,824.9987,311.08,833.1494" style="stroke:#181818;stroke-width:1.0;"/><text fill="#000000" font-family="sans-serif" font-size="13" lengthAdjust="spacing" textLength="137" x="308" y="800.1045">assign role/permissions</text></g><!--link RoleAssigned to DepartmentAssigned--><g id="link_RoleAssigned_DepartmentAssigned"><path d="M317.15,873.7694 C319.56,895.2594 322.7719,923.9567 325.1819,945.4667 " fill="none" id="RoleAssigned-to-DepartmentAssigned" style="stroke:#181818;stroke-width:1.0;"/><polygon fill="#181818" points="325.85,951.4294,328.823,942.04,325.2933,946.4605,320.8728,942.9307,325.85,951.4294" style="stroke:#181818;stroke-width:1.0;"/><text fill="#000000" font-family="sans-serif" font-size="13" lengthAdjust="spacing" textLength="107" x="324" y="918.1045">assign department</text></g><!--link DepartmentAssigned to BranchAssigned--><g id="link_DepartmentAssigned_BranchAssigned"><path d="M328,991.7694 C328,1013.2594 328,1041.9194 328,1063.4294 " fill="none" id="DepartmentAssigned-to-BranchAssigned" style="stroke:#181818;stroke-width:1.0;"/><polygon fill="#181818" points="328,1069.4294,332,1060.4294,328,1064.4294,324,1060.4294,328,1069.4294" style="stroke:#181818;stroke-width:1.0;"/><text fill="#000000" font-family="sans-serif" font-size="13" lengthAdjust="spacing" textLength="81" x="329" y="1036.1045">assign branch</text></g><!--link BranchAssigned to CompanyConfigured--><g id="link_BranchAssigned_CompanyConfigured"><path d="M328,1109.7694 C328,1131.2594 328,1159.9194 328,1181.4294 " fill="none" id="BranchAssigned-to-CompanyConfigured" style="stroke:#181818;stroke-width:1.0;"/><polygon fill="#181818" points="328,1187.4294,332,1178.4294,328,1182.4294,324,1178.4294,328,1187.4294" style="stroke:#181818;stroke-width:1.0;"/><text fill="#000000" font-family="sans-serif" font-size="13" lengthAdjust="spacing" textLength="109" x="329" y="1154.1045">configure company</text></g><!--link CompanyConfigured to SystemConfigured--><g id="link_CompanyConfigured_SystemConfigured"><path d="M328.33,1227.7694 C328.7,1249.2594 329.1968,1277.9203 329.5668,1299.4303 " fill="none" id="CompanyConfigured-to-SystemConfigured" style="stroke:#181818;stroke-width:1.0;"/><polygon fill="#181818" points="329.67,1305.4294,333.5146,1296.3619,329.584,1300.4301,325.5158,1296.4995,329.67,1305.4294" style="stroke:#181818;stroke-width:1.0;"/><text fill="#000000" font-family="sans-serif" font-size="13" lengthAdjust="spacing" textLength="98" x="331" y="1272.1045">configure options</text></g><!--link SystemConfigured to DashboardReady--><g id="link_SystemConfigured_DashboardReady"><path d="M325.86,1345.6594 C323.81,1359.7294 323.21,1378.9094 331,1393.6094 C337.53,1405.9294 343.6844,1412.5164 355.2144,1420.0864 " fill="none" id="SystemConfigured-to-DashboardReady" style="stroke:#181818;stroke-width:1.0;"/><polygon fill="#181818" points="360.23,1423.3794,354.9019,1415.0962,356.0503,1420.6352,350.5113,1421.7836,360.23,1423.3794" style="stroke:#181818;stroke-width:1.0;"/><text fill="#000000" font-family="sans-serif" font-size="13" lengthAdjust="spacing" textLength="113" x="332" y="1390.1045">load role dashboard</text></g><!--link DashboardReady to Authenticated--><g id="link_DashboardReady_Authenticated"><path d="M424.37,1423.5094 C433.41,1415.1294 443.19,1404.6794 450,1393.6094 C466.42,1366.9094 472,1357.9494 472,1326.6094 C472,616.6094 472,616.6094 472,616.6094 C472,559.9994 411.6315,530.2874 363.6215,514.8374 " fill="none" id="DashboardReady-to-Authenticated" style="stroke:#181818;stroke-width:1.0;"/><polygon fill="#181818" points="357.91,512.9994,365.252,519.5641,362.6696,514.5311,367.7027,511.9487,357.91,512.9994" style="stroke:#181818;stroke-width:1.0;"/><text fill="#000000" font-family="sans-serif" font-size="13" lengthAdjust="spacing" textLength="98" x="473" y="977.1045">continue session</text></g><!--link Authenticated to *end*--><g id="link_Authenticated_*end*"><path d="M337.37,519.8394 C348.38,528.1594 360.58,538.5394 370,549.6094 C385.6,567.9394 395.6259,588.1309 401.6459,601.7609 " fill="none" id="Authenticated-to-*end*" style="stroke:#181818;stroke-width:1.0;"/><polygon fill="#181818" points="404.07,607.2494,404.0928,597.4005,402.0499,602.6756,396.7748,600.6327,404.07,607.2494" style="stroke:#181818;stroke-width:1.0;"/><text fill="#000000" font-family="sans-serif" font-size="13" lengthAdjust="spacing" textLength="35" x="383" y="564.1045">logout</text></g><!--SRC=[TLDDRnCn4BtxLymLsgZYoW4fX0fnG5H92mV4mR4dkoEo7ikU3Tf_ptYIGj9iBolFlFVyTZuid44OjYp20qGg68GukPuY0WvP9eXOGw5iQI7P8ppTVrj_tS16l20y5fygDHGMyEuDB4F0Mc_X4PDFSWi-HLXnGTYWZDcvdsz_mMBn0JwFMCNPr-8rTbG52qPu3-KKW0-1npJF-q7IhteCltcKSyqDX5FMdLtQjFU3f_rtBBGZipcquwHrQlgE9RjNBf_JPZyDc0JgQ0MxIxmfbgFqog2WRMgAFNUKt6MsyHvyhN-un3LMb0TCaLAdz1sNZaLzZgYRfStvQ277ojgFt6XVb3zZ-oKTIF2_7raCOyNYBZ4pqRquu9E2IjMfO9QJmfr1DY3Uux9MwfBzZRSZ5CtUPIm3QSofkWjQqtt2x8kqdbwhup_CpT2Q-gEkOUYlbLlBknTmKwnuo3vDAquxwiRZteNdG4-6kcjMqsuctPBX5IdRMwdkYcHL-jflsRSn-ZZPLlXetO7u3BaNfBaXgvrG6X4gMaDd1jnUccrTUmb_0G00]--></g></svg>