<?xml version="1.0" encoding="us-ascii" standalone="no"?><svg xmlns="http://www.w3.org/2000/svg" xmlns:xlink="http://www.w3.org/1999/xlink" contentStyleType="text/css" height="2024px" preserveAspectRatio="none" style="width:541px;height:2024px;background:#FFFFFF;" version="1.1" viewBox="0 0 541 2024" width="541px" zoomAndPan="magnify"><defs/><g><text fill="#000000" font-family="sans-serif" font-size="14" font-weight="bold" lengthAdjust="spacing" textLength="307" x="110" y="24.5332">UEORMS State Transition - 4) HR and Payroll</text><ellipse cx="280" cy="54.6094" fill="#222222" rx="10" ry="10" style="stroke:#222222;stroke-width:1.0;"/><rect fill="#F1F1F1" height="40" rx="12.5" ry="12.5" style="stroke:#181818;stroke-width:0.5;" width="103" x="228.5" y="125.6094"/><text fill="#000000" font-family="sans-serif" font-size="14" lengthAdjust="spacing" textLength="93" x="233.5" y="151.3379">EmployeeDraft</text><rect fill="#F1F1F1" height="40" rx="12.5" ry="12.5" style="stroke:#181818;stroke-width:0.5;" width="110" x="225" y="243.6094"/><text fill="#000000" font-family="sans-serif" font-size="14" lengthAdjust="spacing" textLength="100" x="230" y="269.3379">EmployeeActive</text><rect fill="#F1F1F1" height="40" rx="12.5" ry="12.5" style="stroke:#181818;stroke-width:0.5;" width="118" x="150" y="361.6094"/><text fill="#000000" font-family="sans-serif" font-size="14" lengthAdjust="spacing" textLength="108" x="155" y="387.3379">LeaveRequested</text><rect fill="#F1F1F1" height="40" rx="12.5" ry="12.5" style="stroke:#181818;stroke-width:0.5;" width="110" x="7" y="479.6094"/><text fill="#000000" font-family="sans-serif" font-size="14" lengthAdjust="spacing" textLength="100" x="12" y="505.3379">LeaveApproved</text><rect fill="#F1F1F1" height="40" rx="12.5" ry="12.5" style="stroke:#181818;stroke-width:0.5;" width="105" x="178.5" y="479.6094"/><text fill="#000000" font-family="sans-serif" font-size="14" lengthAdjust="spacing" textLength="95" x="183.5" y="505.3379">LeaveRejected</text><rect fill="#F1F1F1" height="40" rx="12.5" ry="12.5" style="stroke:#181818;stroke-width:0.5;" width="96" x="317" y="361.6094"/><text fill="#000000" font-family="sans-serif" font-size="14" lengthAdjust="spacing" textLength="86" x="322" y="387.3379">ShiftAssigned</text><rect fill="#F1F1F1" height="40" rx="12.5" ry="12.5" style="stroke:#181818;stroke-width:0.5;" width="72" x="344" y="479.6094"/><text fill="#000000" font-family="sans-serif" font-size="14" lengthAdjust="spacing" textLength="62" x="349" y="505.3379">ClockedIn</text><rect fill="#F1F1F1" height="40" rx="12.5" ry="12.5" style="stroke:#181818;stroke-width:0.5;" width="84" x="338" y="597.6094"/><text fill="#000000" font-family="sans-serif" font-size="14" lengthAdjust="spacing" textLength="74" x="343" y="623.3379">ClockedOut</text><rect fill="#F1F1F1" height="40" rx="12.5" ry="12.5" style="stroke:#181818;stroke-width:0.5;" width="147" x="306.5" y="715.6094"/><text fill="#000000" font-family="sans-serif" font-size="14" lengthAdjust="spacing" textLength="137" x="311.5" y="741.3379">AttendanceComputed</text><rect fill="#F1F1F1" height="40" rx="12.5" ry="12.5" style="stroke:#181818;stroke-width:0.5;" width="119" x="257.5" y="833.6094"/><text fill="#000000" font-family="sans-serif" font-size="14" lengthAdjust="spacing" textLength="109" x="262.5" y="859.3379">OvertimePending</text><rect fill="#F1F1F1" height="40" rx="12.5" ry="12.5" style="stroke:#181818;stroke-width:0.5;" width="128" x="99" y="951.6094"/><text fill="#000000" font-family="sans-serif" font-size="14" lengthAdjust="spacing" textLength="118" x="104" y="977.3379">OvertimeApproved</text><rect fill="#F1F1F1" height="40" rx="12.5" ry="12.5" style="stroke:#181818;stroke-width:0.5;" width="123" x="262.5" y="951.6094"/><text fill="#000000" font-family="sans-serif" font-size="14" lengthAdjust="spacing" textLength="113" x="267.5" y="977.3379">OvertimeRejected</text><rect fill="#F1F1F1" height="40" rx="12.5" ry="12.5" style="stroke:#181818;stroke-width:0.5;" width="94" x="256" y="1069.6094"/><text fill="#000000" font-family="sans-serif" font-size="14" lengthAdjust="spacing" textLength="84" x="261" y="1095.3379">PayrollReady</text><rect fill="#F1F1F1" height="40" rx="12.5" ry="12.5" style="stroke:#181818;stroke-width:0.5;" width="120" x="243" y="1187.6094"/><text fill="#000000" font-family="sans-serif" font-size="14" lengthAdjust="spacing" textLength="110" x="248" y="1213.3379">PayrollCalculated</text><rect fill="#F1F1F1" height="40" rx="12.5" ry="12.5" style="stroke:#181818;stroke-width:0.5;" width="123" x="241.5" y="1305.6094"/><text fill="#000000" font-family="sans-serif" font-size="14" lengthAdjust="spacing" textLength="113" x="246.5" y="1331.3379">PayslipGenerated</text><rect fill="#F1F1F1" height="40" rx="12.5" ry="12.5" style="stroke:#181818;stroke-width:0.5;" width="116" x="245" y="1423.6094"/><text fill="#000000" font-family="sans-serif" font-size="14" lengthAdjust="spacing" textLength="106" x="250" y="1449.3379">PayslipApproved</text><rect fill="#F1F1F1" height="40" rx="12.5" ry="12.5" style="stroke:#181818;stroke-width:0.5;" width="156" x="225" y="1541.6094"/><text fill="#000000" font-family="sans-serif" font-size="14" lengthAdjust="spacing" textLength="146" x="230" y="1567.3379">DisbursementPrepared</text><rect fill="#F1F1F1" height="40" rx="12.5" ry="12.5" style="stroke:#181818;stroke-width:0.5;" width="156" x="225" y="1659.6094"/><text fill="#000000" font-family="sans-serif" font-size="14" lengthAdjust="spacing" textLength="146" x="230" y="1685.3379">PaymentFileGenerated</text><rect fill="#F1F1F1" height="40" rx="12.5" ry="12.5" style="stroke:#181818;stroke-width:0.5;" width="74" x="266" y="1777.6094"/><text fill="#000000" font-family="sans-serif" font-size="14" lengthAdjust="spacing" textLength="64" x="271" y="1803.3379">Disbursed</text><rect fill="#F1F1F1" height="40" rx="12.5" ry="12.5" style="stroke:#181818;stroke-width:0.5;" width="80" x="263" y="1895.6094"/><text fill="#000000" font-family="sans-serif" font-size="14" lengthAdjust="spacing" textLength="70" x="268" y="1921.3379">Reconciled</text><ellipse cx="303" cy="2007.6094" fill="none" rx="11" ry="11" style="stroke:#222222;stroke-width:1.0;"/><ellipse cx="303" cy="2007.6094" fill="#222222" rx="6" ry="6" style="stroke:#222222;stroke-width:1.0;"/><!--link *start* to EmployeeDraft--><g id="link_*start*_EmployeeDraft"><path d="M280,64.7994 C280,79.0094 280,100.6294 280,119.3494 " fill="none" id="*start*-to-EmployeeDraft" style="stroke:#181818;stroke-width:1.0;"/><polygon fill="#181818" points="280,125.3494,284,116.3494,280,120.3494,276,116.3494,280,125.3494" style="stroke:#181818;stroke-width:1.0;"/></g><!--link EmployeeDraft to EmployeeActive--><g id="link_EmployeeDraft_EmployeeActive"><path d="M280,165.7694 C280,187.2594 280,215.9194 280,237.4294 " fill="none" id="EmployeeDraft-to-EmployeeActive" style="stroke:#181818;stroke-width:1.0;"/><polygon fill="#181818" points="280,243.4294,284,234.4294,280,238.4294,276,234.4294,280,243.4294" style="stroke:#181818;stroke-width:1.0;"/><text fill="#000000" font-family="sans-serif" font-size="13" lengthAdjust="spacing" textLength="106" x="281" y="210.1045">onboard employee</text></g><!--link EmployeeActive to LeaveRequested--><g id="link_EmployeeActive_LeaveRequested"><path d="M253.81,283.6494 C244.14,291.8894 233.87,302.2394 227,313.6094 C218.09,328.3494 214.4886,341.6081 212.1886,355.6681 " fill="none" id="EmployeeActive-to-LeaveRequested" style="stroke:#181818;stroke-width:1.0;"/><polygon fill="#181818" points="211.22,361.5894,216.6205,353.3532,212.0272,356.655,208.7254,352.0617,211.22,361.5894" style="stroke:#181818;stroke-width:1.0;"/><text fill="#000000" font-family="sans-serif" font-size="13" lengthAdjust="spacing" textLength="72" x="228" y="328.1045">submit leave</text></g><!--link LeaveRequested to LeaveApproved--><g id="link_LeaveRequested_LeaveApproved"><path d="M149.78,396.3794 C128.41,403.8294 105.51,415.0194 89,431.6094 C76.08,444.5894 70.5408,458.72 66.9408,473.49 " fill="none" id="LeaveRequested-to-LeaveApproved" style="stroke:#181818;stroke-width:1.0;"/><polygon fill="#181818" points="65.52,479.3194,71.5375,471.5226,66.704,474.4616,63.765,469.6281,65.52,479.3194" style="stroke:#181818;stroke-width:1.0;"/><text fill="#000000" font-family="sans-serif" font-size="13" lengthAdjust="spacing" textLength="77" x="90" y="446.1045">approve leave</text></g><!--link LeaveRequested to LeaveRejected--><g id="link_LeaveRequested_LeaveRejected"><path d="M190.8,401.8594 C180.47,415.1994 170.91,433.4094 178,449.6094 C183.12,461.3194 187.9818,467.625 197.5018,475.605 " fill="none" id="LeaveRequested-to-LeaveRejected" style="stroke:#181818;stroke-width:1.0;"/><polygon fill="#181818" points="202.1,479.4594,197.7723,470.6123,198.2681,476.2474,192.6331,476.7433,202.1,479.4594" style="stroke:#181818;stroke-width:1.0;"/><text fill="#000000" font-family="sans-serif" font-size="13" lengthAdjust="spacing" textLength="65" x="179" y="446.1045">reject leave</text></g><!--link LeaveRejected to LeaveRequested--><g id="link_LeaveRejected_LeaveRequested"><path d="M242.22,479.5894 C248.75,466.0394 254.66,447.4894 249,431.6094 C245.09,420.6394 241.5794,414.8141 234.0994,406.5241 " fill="none" id="LeaveRejected-to-LeaveRequested" style="stroke:#181818;stroke-width:1.0;"/><polygon fill="#181818" points="230.08,402.0694,233.1393,411.431,233.4295,405.7816,239.0789,406.0718,230.08,402.0694" style="stroke:#181818;stroke-width:1.0;"/><text fill="#000000" font-family="sans-serif" font-size="13" lengthAdjust="spacing" textLength="50" x="253" y="446.1045">resubmit</text></g><!--link EmployeeActive to ShiftAssigned--><g id="link_EmployeeActive_ShiftAssigned"><path d="M294.04,283.7694 C309.79,305.2594 331.6453,335.0784 347.3953,356.5884 " fill="none" id="EmployeeActive-to-ShiftAssigned" style="stroke:#181818;stroke-width:1.0;"/><polygon fill="#181818" points="350.94,361.4294,348.8503,351.8048,347.9861,357.3952,342.3957,356.531,350.94,361.4294" style="stroke:#181818;stroke-width:1.0;"/><text fill="#000000" font-family="sans-serif" font-size="13" lengthAdjust="spacing" textLength="66" x="328" y="328.1045">assign shift</text></g><!--link ShiftAssigned to ClockedIn--><g id="link_ShiftAssigned_ClockedIn"><path d="M367.48,401.7694 C370.26,423.2594 373.9709,451.9689 376.7509,473.4789 " fill="none" id="ShiftAssigned-to-ClockedIn" style="stroke:#181818;stroke-width:1.0;"/><polygon fill="#181818" points="377.52,479.4294,380.3334,469.9909,376.8791,474.4706,372.3994,471.0163,377.52,479.4294" style="stroke:#181818;stroke-width:1.0;"/><text fill="#000000" font-family="sans-serif" font-size="13" lengthAdjust="spacing" textLength="45" x="374" y="446.1045">clock in</text></g><!--link ClockedIn to ClockedOut--><g id="link_ClockedIn_ClockedOut"><path d="M380,519.7694 C380,541.2594 380,569.9194 380,591.4294 " fill="none" id="ClockedIn-to-ClockedOut" style="stroke:#181818;stroke-width:1.0;"/><polygon fill="#181818" points="380,597.4294,384,588.4294,380,592.4294,376,588.4294,380,597.4294" style="stroke:#181818;stroke-width:1.0;"/><text fill="#000000" font-family="sans-serif" font-size="13" lengthAdjust="spacing" textLength="53" x="381" y="564.1045">clock out</text></g><!--link ClockedOut to AttendanceComputed--><g id="link_ClockedOut_AttendanceComputed"><path d="M380,637.7694 C380,659.2594 380,687.9194 380,709.4294 " fill="none" id="ClockedOut-to-AttendanceComputed" style="stroke:#181818;stroke-width:1.0;"/><polygon fill="#181818" points="380,715.4294,384,706.4294,380,710.4294,376,706.4294,380,715.4294" style="stroke:#181818;stroke-width:1.0;"/><text fill="#000000" font-family="sans-serif" font-size="13" lengthAdjust="spacing" textLength="118" x="381" y="682.1045">compute attendance</text></g><!--link AttendanceComputed to OvertimePending--><g id="link_AttendanceComputed_OvertimePending"><path d="M342.1,755.7594 C330.98,763.4194 320.16,773.3694 314,785.6094 C306.57,800.3794 307.048,813.5136 310.058,827.5036 " fill="none" id="AttendanceComputed-to-OvertimePending" style="stroke:#181818;stroke-width:1.0;"/><polygon fill="#181818" points="311.32,833.3694,313.3375,823.7294,310.2683,828.4812,305.5164,825.4121,311.32,833.3694" style="stroke:#181818;stroke-width:1.0;"/><text fill="#000000" font-family="sans-serif" font-size="13" lengthAdjust="spacing" textLength="102" x="315" y="800.1045">overtime detected</text></g><!--link OvertimePending to OvertimeApproved--><g id="link_OvertimePending_OvertimeApproved"><path d="M258.92,873.6494 C241.36,881.1894 222.83,891.0994 208,903.6094 C192.37,916.7994 182.7423,931.4393 174.9423,946.1393 " fill="none" id="OvertimePending-to-OvertimeApproved" style="stroke:#181818;stroke-width:1.0;"/><polygon fill="#181818" points="172.13,951.4394,179.8818,945.3641,174.4736,947.0226,172.815,941.6144,172.13,951.4394" style="stroke:#181818;stroke-width:1.0;"/><text fill="#000000" font-family="sans-serif" font-size="13" lengthAdjust="spacing" textLength="96" x="209" y="918.1045">approve overtime</text></g><!--link OvertimePending to OvertimeRejected--><g id="link_OvertimePending_OvertimeRejected"><path d="M315.21,873.7094 C314.25,887.1294 313.53,905.4994 315,921.6094 C315.89,931.4294 316.5907,936.3384 318.4007,945.2884 " fill="none" id="OvertimePending-to-OvertimeRejected" style="stroke:#181818;stroke-width:1.0;"/><polygon fill="#181818" points="319.59,951.1694,321.7266,941.5551,318.5989,946.2686,313.8854,943.1408,319.59,951.1694" style="stroke:#181818;stroke-width:1.0;"/><text fill="#000000" font-family="sans-serif" font-size="13" lengthAdjust="spacing" textLength="84" x="316" y="918.1045">reject overtime</text></g><!--link AttendanceComputed to PayrollReady--><g id="link_AttendanceComputed_PayrollReady"><path d="M402.12,755.8894 C409.97,764.1594 417.88,774.4694 422,785.6094 C428.87,804.1794 462.04,749.0894 403,991.6094 C397.57,1013.8994 398.81,1022.0894 384,1039.6094 C373.71,1051.7794 364.8094,1058.8099 351.2294,1066.5099 " fill="none" id="AttendanceComputed-to-PayrollReady" style="stroke:#181818;stroke-width:1.0;"/><polygon fill="#181818" points="346.01,1069.4694,355.812,1068.5098,350.3595,1067.0032,351.8661,1061.5506,346.01,1069.4694" style="stroke:#181818;stroke-width:1.0;"/><text fill="#000000" font-family="sans-serif" font-size="13" lengthAdjust="spacing" textLength="110" x="423" y="918.1045">normal payroll path</text></g><!--link OvertimeApproved to PayrollReady--><g id="link_OvertimeApproved_PayrollReady"><path d="M186.12,991.7694 C212.06,1013.2594 249.2699,1044.0912 275.2299,1065.6012 " fill="none" id="OvertimeApproved-to-PayrollReady" style="stroke:#181818;stroke-width:1.0;"/><polygon fill="#181818" points="279.85,1069.4294,275.4719,1060.6071,275.9999,1066.2393,270.3678,1066.7672,279.85,1069.4294" style="stroke:#181818;stroke-width:1.0;"/><text fill="#000000" font-family="sans-serif" font-size="13" lengthAdjust="spacing" textLength="132" x="243" y="1036.1045">approved overtime path</text></g><!--link PayrollReady to PayrollCalculated--><g id="link_PayrollReady_PayrollCalculated"><path d="M303,1109.7694 C303,1131.2594 303,1159.9194 303,1181.4294 " fill="none" id="PayrollReady-to-PayrollCalculated" style="stroke:#181818;stroke-width:1.0;"/><polygon fill="#181818" points="303,1187.4294,307,1178.4294,303,1182.4294,299,1178.4294,303,1187.4294" style="stroke:#181818;stroke-width:1.0;"/><text fill="#000000" font-family="sans-serif" font-size="13" lengthAdjust="spacing" textLength="95" x="304" y="1154.1045">run payroll cycle</text></g><!--link PayrollCalculated to PayslipGenerated--><g id="link_PayrollCalculated_PayslipGenerated"><path d="M303,1227.7694 C303,1249.2594 303,1277.9194 303,1299.4294 " fill="none" id="PayrollCalculated-to-PayslipGenerated" style="stroke:#181818;stroke-width:1.0;"/><polygon fill="#181818" points="303,1305.4294,307,1296.4294,303,1300.4294,299,1296.4294,303,1305.4294" style="stroke:#181818;stroke-width:1.0;"/><text fill="#000000" font-family="sans-serif" font-size="13" lengthAdjust="spacing" textLength="102" x="304" y="1272.1045">generate payslips</text></g><!--link PayslipGenerated to PayslipApproved--><g id="link_PayslipGenerated_PayslipApproved"><path d="M303,1345.7694 C303,1367.2594 303,1395.9194 303,1417.4294 " fill="none" id="PayslipGenerated-to-PayslipApproved" style="stroke:#181818;stroke-width:1.0;"/><polygon fill="#181818" points="303,1423.4294,307,1414.4294,303,1418.4294,299,1414.4294,303,1423.4294" style="stroke:#181818;stroke-width:1.0;"/><text fill="#000000" font-family="sans-serif" font-size="13" lengthAdjust="spacing" textLength="96" x="304" y="1390.1045">approve payslips</text></g><!--link PayslipApproved to DisbursementPrepared--><g id="link_PayslipApproved_DisbursementPrepared"><path d="M303,1463.7694 C303,1485.2594 303,1513.9194 303,1535.4294 " fill="none" id="PayslipApproved-to-DisbursementPrepared" style="stroke:#181818;stroke-width:1.0;"/><polygon fill="#181818" points="303,1541.4294,307,1532.4294,303,1536.4294,299,1532.4294,303,1541.4294" style="stroke:#181818;stroke-width:1.0;"/><text fill="#000000" font-family="sans-serif" font-size="13" lengthAdjust="spacing" textLength="79" x="304" y="1508.1045">prepare batch</text></g><!--link DisbursementPrepared to PaymentFileGenerated--><g id="link_DisbursementPrepared_PaymentFileGenerated"><path d="M303,1581.7694 C303,1603.2594 303,1631.9194 303,1653.4294 " fill="none" id="DisbursementPrepared-to-PaymentFileGenerated" style="stroke:#181818;stroke-width:1.0;"/><polygon fill="#181818" points="303,1659.4294,307,1650.4294,303,1654.4294,299,1650.4294,303,1659.4294" style="stroke:#181818;stroke-width:1.0;"/><text fill="#000000" font-family="sans-serif" font-size="13" lengthAdjust="spacing" textLength="70" x="304" y="1626.1045">generate file</text></g><!--link PaymentFileGenerated to Disbursed--><g id="link_PaymentFileGenerated_Disbursed"><path d="M303,1699.7694 C303,1721.2594 303,1749.9194 303,1771.4294 " fill="none" id="PaymentFileGenerated-to-Disbursed" style="stroke:#181818;stroke-width:1.0;"/><polygon fill="#181818" points="303,1777.4294,307,1768.4294,303,1772.4294,299,1768.4294,303,1777.4294" style="stroke:#181818;stroke-width:1.0;"/><text fill="#000000" font-family="sans-serif" font-size="13" lengthAdjust="spacing" textLength="92" x="304" y="1744.1045">bank processed</text></g><!--link Disbursed to Reconciled--><g id="link_Disbursed_Reconciled"><path d="M303,1817.7694 C303,1839.2594 303,1867.9194 303,1889.4294 " fill="none" id="Disbursed-to-Reconciled" style="stroke:#181818;stroke-width:1.0;"/><polygon fill="#181818" points="303,1895.4294,307,1886.4294,303,1890.4294,299,1886.4294,303,1895.4294" style="stroke:#181818;stroke-width:1.0;"/><text fill="#000000" font-family="sans-serif" font-size="13" lengthAdjust="spacing" textLength="113" x="304" y="1862.1045">reconcile payments</text></g><!--link Reconciled to *end*--><g id="link_Reconciled_*end*"><path d="M303,1935.6994 C303,1954.2694 303,1975.7794 303,1990.4794 " fill="none" id="Reconciled-to-*end*" style="stroke:#181818;stroke-width:1.0;"/><polygon fill="#181818" points="303,1996.4794,307,1987.4794,303,1991.4794,299,1987.4794,303,1996.4794" style="stroke:#181818;stroke-width:1.0;"/></g><!--SRC=[XPJDRjim48JlV8gzje1lEVLGm73IDa0B6t9xAdgWoBNDXY9PScL0Rr_-HP4i9JbvDJEVE2G5atL05bfBP3kGogCWPGsxA8c0dQC190RXbSioAT88lnxspOyZ78aJma_FJL39XGtSVO1l3N0ZuS07RxLcxFV7Fx3PV8Q7pcax8DvxVY8sUvhvsrZWYl09h6ajzpAro0QxIIJeE_8hDlYlnq0e8nJwjbC4EkdinXs1hNFUNdEUb_4TeC6_yLmouFCuprTpjP37Kccj_V6YJhGDGPrDAPD724bcSpF5TzgA9vIF9aP5ca4PzY9E8lkUnepjYKtabDeIeP7S2DpPplMbg2WZyD5aAxc4xw_eINLuYAOovtHLLOdV2kMpOBUPARTo_CylU9DRtiA8lTAqVeGDSZb4obZVSGskgF6NBcnHQeNZpzwupupEKXDinxNeDQzDUpCkA0QXaIrJbGrQkQzeq5VqNEV49o-mHMX2hfpgBJVRuxqARUy3TcZeuD5ndrbNHcWvYGjR3TL5a_P5QLojV59bfylGTEs4jDmynLMjm105zcAbO8F26X7vSkdr8MqilJYmYP_YyR-6_GS0]--></g></svg>