<?xml version="1.0" encoding="us-ascii" standalone="no"?><svg xmlns="http://www.w3.org/2000/svg" xmlns:xlink="http://www.w3.org/1999/xlink" contentStyleType="text/css" height="1316px" preserveAspectRatio="none" style="width:637px;height:1316px;background:#FFFFFF;" version="1.1" viewBox="0 0 637 1316" width="637px" zoomAndPan="magnify"><defs/><g><text fill="#000000" font-family="sans-serif" font-size="14" font-weight="bold" lengthAdjust="spacing" textLength="409" x="107.25" y="24.5332">UEORMS State Transition - 6) Inventory and Manufacturing</text><ellipse cx="352.5" cy="54.6094" fill="#222222" rx="10" ry="10" style="stroke:#222222;stroke-width:1.0;"/><rect fill="#F1F1F1" height="40" rx="12.5" ry="12.5" style="stroke:#181818;stroke-width:0.5;" width="85" x="310" y="125.6094"/><text fill="#000000" font-family="sans-serif" font-size="14" lengthAdjust="spacing" textLength="75" x="315" y="151.3379">ItemDefined</text><rect fill="#F1F1F1" height="40" rx="12.5" ry="12.5" style="stroke:#181818;stroke-width:0.5;" width="134" x="285.5" y="243.6094"/><text fill="#000000" font-family="sans-serif" font-size="14" lengthAdjust="spacing" textLength="124" x="290.5" y="269.3379">WarehouseMapped</text><rect fill="#F1F1F1" height="40" rx="12.5" ry="12.5" style="stroke:#181818;stroke-width:0.5;" width="102" x="301.5" y="361.6094"/><text fill="#000000" font-family="sans-serif" font-size="14" lengthAdjust="spacing" textLength="92" x="306.5" y="387.3379">StockAvailable</text><rect fill="#F1F1F1" height="40" rx="12.5" ry="12.5" style="stroke:#181818;stroke-width:0.5;" width="133" x="159" y="479.6094"/><text fill="#000000" font-family="sans-serif" font-size="14" lengthAdjust="spacing" textLength="123" x="164" y="505.3379">TransferRequested</text><rect fill="#F1F1F1" height="40" rx="12.5" ry="12.5" style="stroke:#181818;stroke-width:0.5;" width="125" x="7" y="597.6094"/><text fill="#000000" font-family="sans-serif" font-size="14" lengthAdjust="spacing" textLength="115" x="12" y="623.3379">TransferApproved</text><rect fill="#F1F1F1" height="40" rx="12.5" ry="12.5" style="stroke:#181818;stroke-width:0.5;" width="127" x="167" y="597.6094"/><text fill="#000000" font-family="sans-serif" font-size="14" lengthAdjust="spacing" textLength="117" x="172" y="623.3379">TransferCancelled</text><rect fill="#F1F1F1" height="40" rx="12.5" ry="12.5" style="stroke:#181818;stroke-width:0.5;" width="100" x="196.5" y="715.6094"/><text fill="#000000" font-family="sans-serif" font-size="14" lengthAdjust="spacing" textLength="90" x="201.5" y="741.3379">StockInTransit</text><rect fill="#F1F1F1" height="40" rx="12.5" ry="12.5" style="stroke:#181818;stroke-width:0.5;" width="72" x="431.5" y="479.6094"/><text fill="#000000" font-family="sans-serif" font-size="14" lengthAdjust="spacing" textLength="62" x="436.5" y="505.3379">BOMDraft</text><rect fill="#F1F1F1" height="40" rx="12.5" ry="12.5" style="stroke:#181818;stroke-width:0.5;" width="101" x="443" y="597.6094"/><text fill="#000000" font-family="sans-serif" font-size="14" lengthAdjust="spacing" textLength="91" x="448" y="623.3379">BOMReleased</text><rect fill="#F1F1F1" height="40" rx="12.5" ry="12.5" style="stroke:#181818;stroke-width:0.5;" width="131" x="428" y="715.6094"/><text fill="#000000" font-family="sans-serif" font-size="14" lengthAdjust="spacing" textLength="121" x="433" y="741.3379">WorkOrderCreated</text><rect fill="#F1F1F1" height="40" rx="12.5" ry="12.5" style="stroke:#181818;stroke-width:0.5;" width="132" x="427.5" y="833.6094"/><text fill="#000000" font-family="sans-serif" font-size="14" lengthAdjust="spacing" textLength="122" x="432.5" y="859.3379">OperationsPlanned</text><rect fill="#F1F1F1" height="40" rx="12.5" ry="12.5" style="stroke:#181818;stroke-width:0.5;" width="108" x="439.5" y="951.6094"/><text fill="#000000" font-family="sans-serif" font-size="14" lengthAdjust="spacing" textLength="98" x="444.5" y="977.3379">MaterialsIssued</text><rect fill="#F1F1F1" height="40" rx="12.5" ry="12.5" style="stroke:#181818;stroke-width:0.5;" width="146" x="420.5" y="1069.6094"/><text fill="#000000" font-family="sans-serif" font-size="14" lengthAdjust="spacing" textLength="136" x="425.5" y="1095.3379">ProductionCompleted</text><rect fill="#F1F1F1" height="40" rx="12.5" ry="12.5" style="stroke:#181818;stroke-width:0.5;" width="153" x="417" y="1187.6094"/><text fill="#000000" font-family="sans-serif" font-size="14" lengthAdjust="spacing" textLength="143" x="422" y="1213.3379">InventoryStatsUpdated</text><ellipse cx="493.5" cy="1299.6094" fill="none" rx="11" ry="11" style="stroke:#222222;stroke-width:1.0;"/><ellipse cx="493.5" cy="1299.6094" fill="#222222" rx="6" ry="6" style="stroke:#222222;stroke-width:1.0;"/><!--link *start* to ItemDefined--><g id="link_*start*_ItemDefined"><path d="M352.5,64.7994 C352.5,79.0094 352.5,100.6294 352.5,119.3494 " fill="none" id="*start*-to-ItemDefined" style="stroke:#181818;stroke-width:1.0;"/><polygon fill="#181818" points="352.5,125.3494,356.5,116.3494,352.5,120.3494,348.5,116.3494,352.5,125.3494" style="stroke:#181818;stroke-width:1.0;"/></g><!--link ItemDefined to WarehouseMapped--><g id="link_ItemDefined_WarehouseMapped"><path d="M352.5,165.7694 C352.5,187.2594 352.5,215.9194 352.5,237.4294 " fill="none" id="ItemDefined-to-WarehouseMapped" style="stroke:#181818;stroke-width:1.0;"/><polygon fill="#181818" points="352.5,243.4294,356.5,234.4294,352.5,238.4294,348.5,234.4294,352.5,243.4294" style="stroke:#181818;stroke-width:1.0;"/><text fill="#000000" font-family="sans-serif" font-size="13" lengthAdjust="spacing" textLength="104" x="353.5" y="210.1045">assign warehouse</text></g><!--link WarehouseMapped to StockAvailable--><g id="link_WarehouseMapped_StockAvailable"><path d="M352.5,283.7694 C352.5,305.2594 352.5,333.9194 352.5,355.4294 " fill="none" id="WarehouseMapped-to-StockAvailable" style="stroke:#181818;stroke-width:1.0;"/><polygon fill="#181818" points="352.5,361.4294,356.5,352.4294,352.5,356.4294,348.5,352.4294,352.5,361.4294" style="stroke:#181818;stroke-width:1.0;"/><text fill="#000000" font-family="sans-serif" font-size="13" lengthAdjust="spacing" textLength="75" x="353.5" y="328.1045">stock posted</text></g><!--link StockAvailable to TransferRequested--><g id="link_StockAvailable_TransferRequested"><path d="M301.41,391.6194 C277.44,398.5194 250.66,410.5894 234.5,431.6094 C224.13,445.0994 222.3563,458.8052 222.9963,473.3552 " fill="none" id="StockAvailable-to-TransferRequested" style="stroke:#181818;stroke-width:1.0;"/><polygon fill="#181818" points="223.26,479.3494,226.8606,470.1823,223.0403,474.3542,218.8684,470.5338,223.26,479.3494" style="stroke:#181818;stroke-width:1.0;"/><text fill="#000000" font-family="sans-serif" font-size="13" lengthAdjust="spacing" textLength="90" x="235.5" y="446.1045">request transfer</text></g><!--link TransferRequested to TransferApproved--><g id="link_TransferRequested_TransferApproved"><path d="M172.73,519.7094 C155.39,527.4294 136.69,537.4394 121.5,549.6094 C104.72,563.0494 93.4158,577.9031 84.0058,592.5331 " fill="none" id="TransferRequested-to-TransferApproved" style="stroke:#181818;stroke-width:1.0;"/><polygon fill="#181818" points="80.76,597.5794,88.9928,592.1738,83.4648,593.3741,82.2645,587.8461,80.76,597.5794" style="stroke:#181818;stroke-width:1.0;"/><text fill="#000000" font-family="sans-serif" font-size="13" lengthAdjust="spacing" textLength="91" x="122.5" y="564.1045">approve transfer</text></g><!--link TransferRequested to TransferCancelled--><g id="link_TransferRequested_TransferCancelled"><path d="M223.37,519.6894 C222.19,533.1094 221.19,551.4794 222.5,567.6094 C223.29,577.3994 223.9089,582.284 225.5189,591.244 " fill="none" id="TransferRequested-to-TransferCancelled" style="stroke:#181818;stroke-width:1.0;"/><polygon fill="#181818" points="226.58,597.1494,228.9253,587.5838,225.6957,592.2282,221.0514,588.9987,226.58,597.1494" style="stroke:#181818;stroke-width:1.0;"/><text fill="#000000" font-family="sans-serif" font-size="13" lengthAdjust="spacing" textLength="85" x="223.5" y="564.1045">cancel transfer</text></g><!--link TransferApproved to StockInTransit--><g id="link_TransferApproved_StockInTransit"><path d="M98.73,637.7694 C131.52,659.2594 179.4022,690.6297 212.2122,712.1397 " fill="none" id="TransferApproved-to-StockInTransit" style="stroke:#181818;stroke-width:1.0;"/><polygon fill="#181818" points="217.23,715.4294,211.8964,707.1497,213.0485,712.688,207.5102,713.8401,217.23,715.4294" style="stroke:#181818;stroke-width:1.0;"/><text fill="#000000" font-family="sans-serif" font-size="13" lengthAdjust="spacing" textLength="96" x="170.5" y="682.1045">dispatch transfer</text></g><!--link StockInTransit to StockAvailable--><g id="link_StockInTransit_StockAvailable"><path d="M262.92,715.5994 C278.04,696.9994 299.85,667.2294 311.5,637.6094 C344.34,554.1594 350.711,451.4567 352.011,407.8967 " fill="none" id="StockInTransit-to-StockAvailable" style="stroke:#181818;stroke-width:1.0;"/><polygon fill="#181818" points="352.19,401.8994,347.9233,410.776,352.0408,406.8971,355.9197,411.0147,352.19,401.8994" style="stroke:#181818;stroke-width:1.0;"/><text fill="#000000" font-family="sans-serif" font-size="13" lengthAdjust="spacing" textLength="99" x="337.5" y="564.1045">receipt confirmed</text></g><!--link StockAvailable to BOMDraft--><g id="link_StockAvailable_BOMDraft"><path d="M371.49,401.7694 C392.8,423.2594 422.9362,453.658 444.2562,475.168 " fill="none" id="StockAvailable-to-BOMDraft" style="stroke:#181818;stroke-width:1.0;"/><polygon fill="#181818" points="448.48,479.4294,444.9853,470.2214,444.9602,475.8782,439.3034,475.8531,448.48,479.4294" style="stroke:#181818;stroke-width:1.0;"/><text fill="#000000" font-family="sans-serif" font-size="13" lengthAdjust="spacing" textLength="70" x="418.5" y="446.1045">create BOM</text></g><!--link BOMDraft to BOMReleased--><g id="link_BOMDraft_BOMReleased"><path d="M471.79,519.7694 C476.61,541.2594 483.068,570.0646 487.888,591.5746 " fill="none" id="BOMDraft-to-BOMReleased" style="stroke:#181818;stroke-width:1.0;"/><polygon fill="#181818" points="489.2,597.4294,491.1353,587.7725,488.1067,592.5504,483.3289,589.5218,489.2,597.4294" style="stroke:#181818;stroke-width:1.0;"/><text fill="#000000" font-family="sans-serif" font-size="13" lengthAdjust="spacing" textLength="76" x="483.5" y="564.1045">release BOM</text></g><!--link BOMReleased to WorkOrderCreated--><g id="link_BOMReleased_WorkOrderCreated"><path d="M493.5,637.7694 C493.5,659.2594 493.5,687.9194 493.5,709.4294 " fill="none" id="BOMReleased-to-WorkOrderCreated" style="stroke:#181818;stroke-width:1.0;"/><polygon fill="#181818" points="493.5,715.4294,497.5,706.4294,493.5,710.4294,489.5,706.4294,493.5,715.4294" style="stroke:#181818;stroke-width:1.0;"/><text fill="#000000" font-family="sans-serif" font-size="13" lengthAdjust="spacing" textLength="100" x="494.5" y="682.1045">create work order</text></g><!--link WorkOrderCreated to OperationsPlanned--><g id="link_WorkOrderCreated_OperationsPlanned"><path d="M493.5,755.7694 C493.5,777.2594 493.5,805.9194 493.5,827.4294 " fill="none" id="WorkOrderCreated-to-OperationsPlanned" style="stroke:#181818;stroke-width:1.0;"/><polygon fill="#181818" points="493.5,833.4294,497.5,824.4294,493.5,828.4294,489.5,824.4294,493.5,833.4294" style="stroke:#181818;stroke-width:1.0;"/><text fill="#000000" font-family="sans-serif" font-size="13" lengthAdjust="spacing" textLength="98" x="494.5" y="800.1045">define operations</text></g><!--link OperationsPlanned to MaterialsIssued--><g id="link_OperationsPlanned_MaterialsIssued"><path d="M493.5,873.7694 C493.5,895.2594 493.5,923.9194 493.5,945.4294 " fill="none" id="OperationsPlanned-to-MaterialsIssued" style="stroke:#181818;stroke-width:1.0;"/><polygon fill="#181818" points="493.5,951.4294,497.5,942.4294,493.5,946.4294,489.5,942.4294,493.5,951.4294" style="stroke:#181818;stroke-width:1.0;"/><text fill="#000000" font-family="sans-serif" font-size="13" lengthAdjust="spacing" textLength="88" x="494.5" y="918.1045">issue materials</text></g><!--link MaterialsIssued to ProductionCompleted--><g id="link_MaterialsIssued_ProductionCompleted"><path d="M493.5,991.7694 C493.5,1013.2594 493.5,1041.9194 493.5,1063.4294 " fill="none" id="MaterialsIssued-to-ProductionCompleted" style="stroke:#181818;stroke-width:1.0;"/><polygon fill="#181818" points="493.5,1069.4294,497.5,1060.4294,493.5,1064.4294,489.5,1060.4294,493.5,1069.4294" style="stroke:#181818;stroke-width:1.0;"/><text fill="#000000" font-family="sans-serif" font-size="13" lengthAdjust="spacing" textLength="135" x="494.5" y="1036.1045">consume and complete</text></g><!--link ProductionCompleted to InventoryStatsUpdated--><g id="link_ProductionCompleted_InventoryStatsUpdated"><path d="M493.5,1109.7694 C493.5,1131.2594 493.5,1159.9194 493.5,1181.4294 " fill="none" id="ProductionCompleted-to-InventoryStatsUpdated" style="stroke:#181818;stroke-width:1.0;"/><polygon fill="#181818" points="493.5,1187.4294,497.5,1178.4294,493.5,1182.4294,489.5,1178.4294,493.5,1187.4294" style="stroke:#181818;stroke-width:1.0;"/><text fill="#000000" font-family="sans-serif" font-size="13" lengthAdjust="spacing" textLength="71" x="494.5" y="1154.1045">update KPIs</text></g><!--link InventoryStatsUpdated to *end*--><g id="link_InventoryStatsUpdated_*end*"><path d="M493.5,1227.6994 C493.5,1246.2694 493.5,1267.7794 493.5,1282.4794 " fill="none" id="InventoryStatsUpdated-to-*end*" style="stroke:#181818;stroke-width:1.0;"/><polygon fill="#181818" points="493.5,1288.4794,497.5,1279.4794,493.5,1283.4794,489.5,1279.4794,493.5,1288.4794" style="stroke:#181818;stroke-width:1.0;"/></g><!--SRC=[ZPEnJWCn38RtF8LNaBeoT422md12frOjY04ncCJNHhrBWkDhnTkJfDUZQZkmMVx_pt4SHtm0yV3bHNm7nZ9fiTwfZJK4r0Nv0KDHimqbBLPQWhVd-R9UmKfG25uPNRHPXGdStK3bTkJ4ym-WCr2ZwnlKqhDrQwK-RZzXChc7IgXxeiOwCkeaBjexCcry7wd6459k2XYZNJlO7mLrRidOIhpUFkpGjlYLUfn2p0a8Faewv4pDG6cy8LxITq_Pb1W-n223fYvDf-X32EntXnuFuN_96JfDRLjGNU9BSgm-NgzomxGJPMmCA7hpnvrPhWublI-bjmJjNMEvkpwPntdznDZaKpHJVkIKKMDsi2of9Op3s4fuj8rAUKxFspcRTELIolmLtIS5V9RKXIcJyq2CUR7YeaNd2chAee0V9NNfocoTgh35DbOnzeMqEO3kc5VdZamjs9k-V82Pxq9BGxkfTjzHsMSzvDKrQzdiu_hdtn7VWXdkt9S8NXPLLDSzcKx_G_q2]--></g></svg>