<?xml version="1.0" encoding="us-ascii" standalone="no"?><svg xmlns="http://www.w3.org/2000/svg" xmlns:xlink="http://www.w3.org/1999/xlink" contentStyleType="text/css" height="1097px" preserveAspectRatio="none" style="width:1430px;height:1097px;background:#FFFFFF;" version="1.1" viewBox="0 0 1430 1097" width="1430px" zoomAndPan="magnify"><defs/><g><text fill="#000000" font-family="Courier" font-size="14" font-weight="bold" lengthAdjust="spacing" textLength="469" x="479" y="34.5332">UEORMS&#160;Navigation&#160;Chart&#160;-&#160;Part&#160;3:&#160;Backend&#160;Alignment&#160;and&#160;Session</text><rect fill="#F1F1F1" height="37.6094" rx="12.5" ry="12.5" style="stroke:#181818;stroke-width:1.5;" width="188" x="10" y="548.2891"/><text fill="#000000" font-family="Courier" font-size="14" lengthAdjust="spacing" textLength="168" x="20" y="572.8223">UEORMS&#160;Navigation&#160;Chart</text><rect fill="#F1F1F1" height="37.6094" rx="12.5" ry="12.5" style="stroke:#181818;stroke-width:1.5;" width="344" x="248" y="490.6797"/><text fill="#000000" font-family="Courier" font-size="14" lengthAdjust="spacing" textLength="324" x="258" y="515.2129">Backend&#160;API&#160;Alignment&#160;(Navigation&#160;Target&#160;Context)</text><rect fill="#F1F1F1" height="37.6094" rx="12.5" ry="12.5" style="stroke:#181818;stroke-width:1.5;" width="83" x="642" y="116.2188"/><text fill="#000000" font-family="Courier" font-size="14" lengthAdjust="spacing" textLength="63" x="652" y="140.752">Core&#160;APIs</text><rect fill="#F1F1F1" height="37.6094" rx="12.5" ry="12.5" style="stroke:#181818;stroke-width:1.5;" width="271" x="775" y="58.6094"/><text fill="#000000" font-family="Courier" font-size="14" lengthAdjust="spacing" textLength="251" x="785" y="83.1426">/api/auth&#160;/api/users&#160;/api/invites&#160;/api/rbac</text><path d="M725,135.0234 L735,135.0234 C750,135.0234 750,77.4141 765,77.4141 L775,77.4141 " fill="none" style="stroke:#181818;stroke-width:1.0;"/><rect fill="#F1F1F1" height="37.6094" rx="12.5" ry="12.5" style="stroke:#181818;stroke-width:1.5;" width="304" x="775" y="116.2188"/><text fill="#000000" font-family="Courier" font-size="14" lengthAdjust="spacing" textLength="284" x="785" y="140.752">/api/departments&#160;/api/company&#160;/api/branches</text><path d="M725,135.0234 L735,135.0234 C750,135.0234 750,135.0234 765,135.0234 L775,135.0234 " fill="none" style="stroke:#181818;stroke-width:1.0;"/><rect fill="#F1F1F1" height="37.6094" rx="12.5" ry="12.5" style="stroke:#181818;stroke-width:1.5;" width="241" x="775" y="173.8281"/><text fill="#000000" font-family="Courier" font-size="14" lengthAdjust="spacing" textLength="221" x="785" y="198.3613">/api/system-options&#160;/api/dashboard</text><path d="M725,135.0234 L735,135.0234 C750,135.0234 750,192.6328 765,192.6328 L775,192.6328 " fill="none" style="stroke:#181818;stroke-width:1.0;"/><path d="M592,509.4844 L602,509.4844 C617,509.4844 617,135.0234 632,135.0234 L642,135.0234 " fill="none" style="stroke:#181818;stroke-width:1.0;"/><rect fill="#F1F1F1" height="37.6094" rx="12.5" ry="12.5" style="stroke:#181818;stroke-width:1.5;" width="100" x="642" y="577.0938"/><text fill="#000000" font-family="Courier" font-size="14" lengthAdjust="spacing" textLength="80" x="652" y="601.627">Domain&#160;APIs</text><rect fill="#F1F1F1" height="37.6094" rx="12.5" ry="12.5" style="stroke:#181818;stroke-width:1.5;" width="417" x="792" y="231.4375"/><text fill="#000000" font-family="Courier" font-size="14" lengthAdjust="spacing" textLength="397" x="802" y="255.9707">/api/inventory&#160;/api/items&#160;/api/warehouses&#160;/api/stock-movements</text><path d="M742,595.8984 L752,595.8984 C767,595.8984 767,250.2422 782,250.2422 L792,250.2422 " fill="none" style="stroke:#181818;stroke-width:1.0;"/><rect fill="#F1F1F1" height="37.6094" rx="12.5" ry="12.5" style="stroke:#181818;stroke-width:1.5;" width="137" x="792" y="289.0469"/><text fill="#000000" font-family="Courier" font-size="14" lengthAdjust="spacing" textLength="117" x="802" y="313.5801">/api/manufacturing</text><path d="M742,595.8984 L752,595.8984 C767,595.8984 767,307.8516 782,307.8516 L792,307.8516 " fill="none" style="stroke:#181818;stroke-width:1.0;"/><rect fill="#F1F1F1" height="37.6094" rx="12.5" ry="12.5" style="stroke:#181818;stroke-width:1.5;" width="583" x="792" y="346.6563"/><text fill="#000000" font-family="Courier" font-size="14" lengthAdjust="spacing" textLength="563" x="802" y="371.1895">/api/employees&#160;/api/leave-types&#160;/api/leave-requests&#160;/api/attendance&#160;/api/tasks&#160;/api/payroll</text><path d="M742,595.8984 L752,595.8984 C767,595.8984 767,365.4609 782,365.4609 L792,365.4609 " fill="none" style="stroke:#181818;stroke-width:1.0;"/><rect fill="#F1F1F1" height="37.6094" rx="12.5" ry="12.5" style="stroke:#181818;stroke-width:1.5;" width="626" x="792" y="404.2656"/><text fill="#000000" font-family="Courier" font-size="14" lengthAdjust="spacing" textLength="606" x="802" y="428.7988">/api/finance&#160;/api/accounting&#160;/api/expense-categories&#160;/api/expense-claims&#160;/api/finance-dashboard</text><path d="M742,595.8984 L752,595.8984 C767,595.8984 767,423.0703 782,423.0703 L792,423.0703 " fill="none" style="stroke:#181818;stroke-width:1.0;"/><rect fill="#F1F1F1" height="37.6094" rx="12.5" ry="12.5" style="stroke:#181818;stroke-width:1.5;" width="134" x="792" y="461.875"/><text fill="#000000" font-family="Courier" font-size="14" lengthAdjust="spacing" textLength="114" x="802" y="486.4082">/api/crm&#160;/api/sales</text><path d="M742,595.8984 L752,595.8984 C767,595.8984 767,480.6797 782,480.6797 L792,480.6797 " fill="none" style="stroke:#181818;stroke-width:1.0;"/><rect fill="#F1F1F1" height="37.6094" rx="12.5" ry="12.5" style="stroke:#181818;stroke-width:1.5;" width="153" x="792" y="519.4844"/><text fill="#000000" font-family="Courier" font-size="14" lengthAdjust="spacing" textLength="133" x="802" y="544.0176">/api/purchase&#160;/api/ap</text><path d="M742,595.8984 L752,595.8984 C767,595.8984 767,538.2891 782,538.2891 L792,538.2891 " fill="none" style="stroke:#181818;stroke-width:1.0;"/><rect fill="#F1F1F1" height="37.6094" rx="12.5" ry="12.5" style="stroke:#181818;stroke-width:1.5;" width="196" x="792" y="577.0938"/><text fill="#000000" font-family="Courier" font-size="14" lengthAdjust="spacing" textLength="176" x="802" y="601.627">/api/projects&#160;/api/timesheets</text><path d="M742,595.8984 L752,595.8984 C767,595.8984 767,595.8984 782,595.8984 L792,595.8984 " fill="none" style="stroke:#181818;stroke-width:1.0;"/><rect fill="#F1F1F1" height="37.6094" rx="12.5" ry="12.5" style="stroke:#181818;stroke-width:1.5;" width="524" x="792" y="634.7031"/><text fill="#000000" font-family="Courier" font-size="14" lengthAdjust="spacing" textLength="504" x="802" y="659.2363">/api/assets&#160;/api/asset-allocations&#160;/api/asset-maintenance&#160;/api/asset-depreciation</text><path d="M742,595.8984 L752,595.8984 C767,595.8984 767,653.5078 782,653.5078 L792,653.5078 " fill="none" style="stroke:#181818;stroke-width:1.0;"/><rect fill="#F1F1F1" height="37.6094" rx="12.5" ry="12.5" style="stroke:#181818;stroke-width:1.5;" width="241" x="792" y="692.3125"/><text fill="#000000" font-family="Courier" font-size="14" lengthAdjust="spacing" textLength="221" x="802" y="716.8457">/api/documents&#160;/api/communication</text><path d="M742,595.8984 L752,595.8984 C767,595.8984 767,711.1172 782,711.1172 L792,711.1172 " fill="none" style="stroke:#181818;stroke-width:1.0;"/><rect fill="#F1F1F1" height="37.6094" rx="12.5" ry="12.5" style="stroke:#181818;stroke-width:1.5;" width="399" x="792" y="749.9219"/><text fill="#000000" font-family="Courier" font-size="14" lengthAdjust="spacing" textLength="379" x="802" y="774.4551">/api/workflows&#160;/api/approvals&#160;/api/notifications&#160;/api/audit-logs</text><path d="M742,595.8984 L752,595.8984 C767,595.8984 767,768.7266 782,768.7266 L792,768.7266 " fill="none" style="stroke:#181818;stroke-width:1.0;"/><rect fill="#F1F1F1" height="37.6094" rx="12.5" ry="12.5" style="stroke:#181818;stroke-width:1.5;" width="180" x="792" y="807.5313"/><text fill="#000000" font-family="Courier" font-size="14" lengthAdjust="spacing" textLength="160" x="802" y="832.0645">/api/reports&#160;/api/reporting</text><path d="M742,595.8984 L752,595.8984 C767,595.8984 767,826.3359 782,826.3359 L792,826.3359 " fill="none" style="stroke:#181818;stroke-width:1.0;"/><rect fill="#F1F1F1" height="37.6094" rx="12.5" ry="12.5" style="stroke:#181818;stroke-width:1.5;" width="173" x="792" y="865.1406"/><text fill="#000000" font-family="Courier" font-size="14" lengthAdjust="spacing" textLength="153" x="802" y="889.6738">/api/data&#160;/api/integration</text><path d="M742,595.8984 L752,595.8984 C767,595.8984 767,883.9453 782,883.9453 L792,883.9453 " fill="none" style="stroke:#181818;stroke-width:1.0;"/><rect fill="#F1F1F1" height="37.6094" rx="12.5" ry="12.5" style="stroke:#181818;stroke-width:1.5;" width="83" x="792" y="922.75"/><text fill="#000000" font-family="Courier" font-size="14" lengthAdjust="spacing" textLength="63" x="802" y="947.2832">/api/billing</text><path d="M742,595.8984 L752,595.8984 C767,595.8984 767,941.5547 782,941.5547 L792,941.5547 " fill="none" style="stroke:#181818;stroke-width:1.0;"/><path d="M592,509.4844 L602,509.4844 C617,509.4844 617,595.8984 632,595.8984 L642,595.8984 " fill="none" style="stroke:#181818;stroke-width:1.0;"/><path d="M198,567.0938 L208,567.0938 C223,567.0938 223,509.4844 238,509.4844 L248,509.4844 " fill="none" style="stroke:#181818;stroke-width:1.0;"/><rect fill="#F1F1F1" height="37.6094" rx="12.5" ry="12.5" style="stroke:#181818;stroke-width:1.5;" width="96" x="248" y="1009.1641"/><text fill="#000000" font-family="Courier" font-size="14" lengthAdjust="spacing" textLength="76" x="258" y="1033.6973">Session&#160;Exit</text><rect fill="#F1F1F1" height="37.6094" rx="12.5" ry="12.5" style="stroke:#181818;stroke-width:1.5;" width="128" x="394" y="1009.1641"/><text fill="#000000" font-family="Courier" font-size="14" lengthAdjust="spacing" textLength="108" x="404" y="1033.6973">Sidebar&#160;Sign&#160;Out</text><rect fill="#F1F1F1" height="37.6094" rx="12.5" ry="12.5" style="stroke:#181818;stroke-width:1.5;" width="106" x="572" y="980.3594"/><text fill="#000000" font-family="Courier" font-size="14" lengthAdjust="spacing" textLength="86" x="582" y="1004.8926">remove&#160;token</text><path d="M522,1027.9688 L532,1027.9688 C547,1027.9688 547,999.1641 562,999.1641 L572,999.1641 " fill="none" style="stroke:#181818;stroke-width:1.0;"/><rect fill="#F1F1F1" height="37.6094" rx="12.5" ry="12.5" style="stroke:#181818;stroke-width:1.5;" width="92" x="572" y="1037.9688"/><text fill="#000000" font-family="Courier" font-size="14" lengthAdjust="spacing" textLength="72" x="582" y="1062.502">redirect&#160;to&#160;/</text><path d="M522,1027.9688 L532,1027.9688 C547,1027.9688 547,1056.7734 562,1056.7734 L572,1056.7734 " fill="none" style="stroke:#181818;stroke-width:1.0;"/><path d="M344,1027.9688 L354,1027.9688 C369,1027.9688 369,1027.9688 384,1027.9688 L394,1027.9688 " fill="none" style="stroke:#181818;stroke-width:1.0;"/><path d="M198,567.0938 L208,567.0938 C223,567.0938 223,1027.9688 238,1027.9688 L248,1027.9688 " fill="none" style="stroke:#181818;stroke-width:1.0;"/><!--SRC=[TLHDKzim4BthL-YOPCQG06KwEL4WQM48P0XmPJRonbQZ3rTQ6_BlkuxjucIc9ti_tzkdbQuYGI2hNMgXaA-pf-V5wlqHAfq1QU_UbnnzFnUaoM0RbbzXUPDpN2QoJfFdKtaDQeikbJ-Cpfn5HnBOMc6Cd2r4t6fNG00hhNTUvS5Rb1im4NkX53TG6ffxHu_0yHjV1er1237w7mCn6dr1B-zwy8DUwWk438dxES9F6dBHY8s0TKcihP4yXKAVGabvyrT63B7vrQxIXAqHrg1w1IaMjOYCryQLjmMuNMEi0pYLOnyXxYAXJNnHysfhKeZvsaD8zxnklGNjZfan2GRneUtCX6nR_G41SyzyMpkILzl4-Whtj7ezBBXo0ufOL9Vr_6WButVODJ085IQqAmuT0V-K6BivWOWbv_6miGdYjWqLi0lUc1x0HhklJ53AbuwOGel-MQ2Bc2WWp3oVTppo6z3Th6sZv42n5aG5sme0va3oeWmgXzZ15_rGyBzHTJEHjXXpn0FH84RyDtJzdu0nNa7l_1ftVMgiIM_GlPit9A3I-_p-udXL7gwDBPrMnsaVFcmtndzqI0KphlZMDARpf3Vwa4kPQagCp_ep12nywA0Qut03KY3ezenF8HpJM6jZcehkHilPfwRzlgvqYci8_CsSV2gfAGjORw0appUpywIQbI3soLCXhdXzsiT7YAK1Hw-B1rdnhQkxJqxEncSN9-U3UT1oZcivkPJZoNGodew_oRlLYwp3Gp7ukNoepcJaTu9LJtMaeDTbJNuexg42-LnlciMfhAt1os8eLxFEAMTyiOFVlnRY_ctH9CbVdbQ5fttovKLohObd3anClYt4RVD2SQdoAIiobQyly-IxU02NbP0n48zxK-zts4tbtUDV]--></g></svg>