<?xml version="1.0" encoding="us-ascii" standalone="no"?><svg xmlns="http://www.w3.org/2000/svg" xmlns:xlink="http://www.w3.org/1999/xlink" contentStyleType="text/css" height="1063px" preserveAspectRatio="none" style="width:432px;height:1063px;background:#FFFFFF;" version="1.1" viewBox="0 0 432 1063" width="432px" zoomAndPan="magnify"><defs/><g><text fill="#000000" font-family="sans-serif" font-size="14" font-weight="bold" lengthAdjust="spacing" textLength="375" x="21.5" y="24.5332">UEORMS State Transition - 5) Finance and Accounting</text><ellipse cx="254" cy="54.6094" fill="#222222" rx="10" ry="10" style="stroke:#222222;stroke-width:1.0;"/><rect fill="#F1F1F1" height="40" rx="12.5" ry="12.5" style="stroke:#181818;stroke-width:0.5;" width="95" x="206.5" y="125.6094"/><text fill="#000000" font-family="sans-serif" font-size="14" lengthAdjust="spacing" textLength="85" x="211.5" y="151.3379">ExpenseDraft</text><rect fill="#F1F1F1" height="40" rx="12.5" ry="12.5" style="stroke:#181818;stroke-width:0.5;" width="127" x="123.5" y="243.6094"/><text fill="#000000" font-family="sans-serif" font-size="14" lengthAdjust="spacing" textLength="117" x="128.5" y="269.3379">ExpenseSubmitted</text><rect fill="#F1F1F1" height="40" rx="12.5" ry="12.5" style="stroke:#181818;stroke-width:0.5;" width="125" x="45.5" y="361.6094"/><text fill="#000000" font-family="sans-serif" font-size="14" lengthAdjust="spacing" textLength="115" x="50.5" y="387.3379">ExpenseApproved</text><rect fill="#F1F1F1" height="40" rx="12.5" ry="12.5" style="stroke:#181818;stroke-width:0.5;" width="120" x="233" y="361.6094"/><text fill="#000000" font-family="sans-serif" font-size="14" lengthAdjust="spacing" textLength="110" x="238" y="387.3379">ExpenseRejected</text><rect fill="#F1F1F1" height="40" rx="12.5" ry="12.5" style="stroke:#181818;stroke-width:0.5;" width="87" x="64.5" y="479.6094"/><text fill="#000000" font-family="sans-serif" font-size="14" lengthAdjust="spacing" textLength="77" x="69.5" y="505.3379">JournalDraft</text><rect fill="#F1F1F1" height="40" rx="12.5" ry="12.5" style="stroke:#181818;stroke-width:0.5;" width="100" x="58" y="597.6094"/><text fill="#000000" font-family="sans-serif" font-size="14" lengthAdjust="spacing" textLength="90" x="63" y="623.3379">JournalPosted</text><rect fill="#F1F1F1" height="40" rx="12.5" ry="12.5" style="stroke:#181818;stroke-width:0.5;" width="108" x="45" y="816.6094"/><text fill="#000000" font-family="sans-serif" font-size="14" lengthAdjust="spacing" textLength="98" x="50" y="842.3379">LedgerUpdated</text><rect fill="#F1F1F1" height="40" rx="12.5" ry="12.5" style="stroke:#181818;stroke-width:0.5;" width="117" x="194.5" y="715.6094"/><text fill="#000000" font-family="sans-serif" font-size="14" lengthAdjust="spacing" textLength="107" x="199.5" y="741.3379">JournalReversed</text><rect fill="#F1F1F1" height="40" rx="12.5" ry="12.5" style="stroke:#181818;stroke-width:0.5;" width="184" x="7" y="934.6094"/><text fill="#000000" font-family="sans-serif" font-size="14" lengthAdjust="spacing" textLength="174" x="12" y="960.3379">FinanceDashboardUpdated</text><ellipse cx="99" cy="1046.6094" fill="none" rx="11" ry="11" style="stroke:#222222;stroke-width:1.0;"/><ellipse cx="99" cy="1046.6094" fill="#222222" rx="6" ry="6" style="stroke:#222222;stroke-width:1.0;"/><!--link *start* to ExpenseDraft--><g id="link_*start*_ExpenseDraft"><path d="M254,64.7994 C254,79.0094 254,100.6294 254,119.3494 " fill="none" id="*start*-to-ExpenseDraft" style="stroke:#181818;stroke-width:1.0;"/><polygon fill="#181818" points="254,125.3494,258,116.3494,254,120.3494,250,116.3494,254,125.3494" style="stroke:#181818;stroke-width:1.0;"/></g><!--link ExpenseDraft to ExpenseSubmitted--><g id="link_ExpenseDraft_ExpenseSubmitted"><path d="M239.23,165.6394 C232.66,174.5094 225.05,185.3394 219,195.6094 C209.83,211.1494 203.5378,224.2381 197.5278,237.8881 " fill="none" id="ExpenseDraft-to-ExpenseSubmitted" style="stroke:#181818;stroke-width:1.0;"/><polygon fill="#181818" points="195.11,243.3794,202.3975,236.7543,197.1248,238.8033,195.0758,233.5306,195.11,243.3794" style="stroke:#181818;stroke-width:1.0;"/><text fill="#000000" font-family="sans-serif" font-size="13" lengthAdjust="spacing" textLength="74" x="220" y="210.1045">submit claim</text></g><!--link ExpenseSubmitted to ExpenseApproved--><g id="link_ExpenseSubmitted_ExpenseApproved"><path d="M136.71,283.8194 C124.14,291.1594 112.2,300.9194 105,313.6094 C96.78,328.0894 97.3242,341.4546 100.6042,355.5946 " fill="none" id="ExpenseSubmitted-to-ExpenseApproved" style="stroke:#181818;stroke-width:1.0;"/><polygon fill="#181818" points="101.96,361.4394,103.8228,351.7683,100.8302,356.5687,96.0298,353.576,101.96,361.4394" style="stroke:#181818;stroke-width:1.0;"/><text fill="#000000" font-family="sans-serif" font-size="13" lengthAdjust="spacing" textLength="79" x="106" y="328.1045">approve claim</text></g><!--link ExpenseSubmitted to ExpenseRejected--><g id="link_ExpenseSubmitted_ExpenseRejected"><path d="M195.56,283.8894 C202.46,298.0794 213.12,317.3094 226,331.6094 C236.22,342.9594 244.5225,349.9149 256.5325,358.1549 " fill="none" id="ExpenseSubmitted-to-ExpenseRejected" style="stroke:#181818;stroke-width:1.0;"/><polygon fill="#181818" points="261.48,361.5494,256.3217,353.1594,257.3571,358.7207,251.7958,359.756,261.48,361.5494" style="stroke:#181818;stroke-width:1.0;"/><text fill="#000000" font-family="sans-serif" font-size="13" lengthAdjust="spacing" textLength="67" x="227" y="328.1045">reject claim</text></g><!--link ExpenseRejected to ExpenseDraft--><g id="link_ExpenseRejected_ExpenseDraft"><path d="M298.41,361.4094 C307.12,326.8494 321.16,252.4994 299,195.6094 C294.56,184.1994 290.3683,178.0359 281.9583,169.8059 " fill="none" id="ExpenseRejected-to-ExpenseDraft" style="stroke:#181818;stroke-width:1.0;"/><polygon fill="#181818" points="277.67,165.6094,281.3048,174.763,281.2436,169.1065,286.9001,169.0453,277.67,165.6094" style="stroke:#181818;stroke-width:1.0;"/><text fill="#000000" font-family="sans-serif" font-size="13" lengthAdjust="spacing" textLength="112" x="312" y="269.1045">revise and resubmit</text></g><!--link ExpenseApproved to JournalDraft--><g id="link_ExpenseApproved_JournalDraft"><path d="M108,401.7694 C108,423.2594 108,451.9194 108,473.4294 " fill="none" id="ExpenseApproved-to-JournalDraft" style="stroke:#181818;stroke-width:1.0;"/><polygon fill="#181818" points="108,479.4294,112,470.4294,108,474.4294,104,470.4294,108,479.4294" style="stroke:#181818;stroke-width:1.0;"/><text fill="#000000" font-family="sans-serif" font-size="13" lengthAdjust="spacing" textLength="78" x="109" y="446.1045">create journal</text></g><!--link JournalDraft to JournalPosted--><g id="link_JournalDraft_JournalPosted"><path d="M108,519.7694 C108,541.2594 108,569.9194 108,591.4294 " fill="none" id="JournalDraft-to-JournalPosted" style="stroke:#181818;stroke-width:1.0;"/><polygon fill="#181818" points="108,597.4294,112,588.4294,108,592.4294,104,588.4294,108,597.4294" style="stroke:#181818;stroke-width:1.0;"/><text fill="#000000" font-family="sans-serif" font-size="13" lengthAdjust="spacing" textLength="58" x="109" y="564.1045">post entry</text></g><!--link JournalPosted to LedgerUpdated--><g id="link_JournalPosted_LedgerUpdated"><path d="M105.17,637.8794 C102.44,657.4094 98.53,688.5394 97,715.6094 C96,733.3594 96.78,737.8294 97,755.6094 C97.26,776.4494 97.7187,794.3321 98.2087,810.5421 " fill="none" id="JournalPosted-to-LedgerUpdated" style="stroke:#181818;stroke-width:1.0;"/><polygon fill="#181818" points="98.39,816.5394,102.1162,807.4226,98.2389,811.5417,94.1199,807.6643,98.39,816.5394" style="stroke:#181818;stroke-width:1.0;"/><text fill="#000000" font-family="sans-serif" font-size="13" lengthAdjust="spacing" textLength="78" x="98" y="741.1045">update ledger</text></g><!--link JournalPosted to JournalReversed--><g id="link_JournalPosted_JournalReversed"><path d="M131.94,637.7694 C158.81,659.2594 197.4553,690.1706 224.3353,711.6806 " fill="none" id="JournalPosted-to-JournalReversed" style="stroke:#181818;stroke-width:1.0;"/><polygon fill="#181818" points="229.02,715.4294,224.4922,706.683,225.1161,712.3054,219.4937,712.9293,229.02,715.4294" style="stroke:#181818;stroke-width:1.0;"/><text fill="#000000" font-family="sans-serif" font-size="13" lengthAdjust="spacing" textLength="74" x="191" y="682.1045">reverse entry</text></g><!--link JournalReversed to LedgerUpdated--><g id="link_JournalReversed_LedgerUpdated"><path d="M223.31,755.6994 C196.04,773.2294 160.8872,795.825 133.6472,813.335 " fill="none" id="JournalReversed-to-LedgerUpdated" style="stroke:#181818;stroke-width:1.0;"/><polygon fill="#181818" points="128.6,816.5794,138.3337,815.0776,132.806,813.8757,134.0079,808.348,128.6,816.5794" style="stroke:#181818;stroke-width:1.0;"/></g><!--link LedgerUpdated to FinanceDashboardUpdated--><g id="link_LedgerUpdated_FinanceDashboardUpdated"><path d="M99,856.7694 C99,878.2594 99,906.9194 99,928.4294 " fill="none" id="LedgerUpdated-to-FinanceDashboardUpdated" style="stroke:#181818;stroke-width:1.0;"/><polygon fill="#181818" points="99,934.4294,103,925.4294,99,929.4294,95,925.4294,99,934.4294" style="stroke:#181818;stroke-width:1.0;"/><text fill="#000000" font-family="sans-serif" font-size="13" lengthAdjust="spacing" textLength="71" x="100" y="901.1045">refresh KPIs</text></g><!--link FinanceDashboardUpdated to *end*--><g id="link_FinanceDashboardUpdated_*end*"><path d="M99,974.6994 C99,993.2694 99,1014.7794 99,1029.4794 " fill="none" id="FinanceDashboardUpdated-to-*end*" style="stroke:#181818;stroke-width:1.0;"/><polygon fill="#181818" points="99,1035.4794,103,1026.4794,99,1030.4794,95,1026.4794,99,1035.4794" style="stroke:#181818;stroke-width:1.0;"/></g><!--SRC=[ZLBBJiCm4BpxA_OAKevSE21LQf5uYIgX9yJ1iRUDgyIsrfk8_ZsnNKhIWiHjl3FZdLsRdGTsK3jcru4sX8gDiw8n6W4xpmVG61GPdyfik4NOh5xBbmegbepmHj864raeuEOAxesLLY58gs6XbEij6xiJultw0uhY3bQV7ct09SajY-bXobPztHbcr70B8M5GhJITkE0dfeNtv8RaaHd-mrJYVXmvcIZ1kUT4dqTF-i64F2XXJYdEeqJRe-l9olRRfWZZtlQvAcRiHBvs8SVo8m2qJ0SnfwBu6VKEQUErpE8-8MXJ-HVziLBYW1IEKoSuxt3YBtg8USV87rzyAKDJEqdw9mtXTjnC0q_hXo3-aiKhniyXlW00]--></g></svg>