<?xml version="1.0" encoding="us-ascii" standalone="no"?><svg xmlns="http://www.w3.org/2000/svg" xmlns:xlink="http://www.w3.org/1999/xlink" contentStyleType="text/css" height="516px" preserveAspectRatio="none" style="width:2167px;height:516px;background:#FFFFFF;" version="1.1" viewBox="0 0 2167 516" width="2167px" zoomAndPan="magnify"><defs/><g><line style="stroke:#181818;stroke-width:0.5;stroke-dasharray:5.0,5.0;" x1="27.5" x2="27.5" y1="82.6094" y2="509.1797"/><line style="stroke:#181818;stroke-width:0.5;stroke-dasharray:5.0,5.0;" x1="420.5" x2="420.5" y1="82.6094" y2="509.1797"/><line style="stroke:#181818;stroke-width:0.5;stroke-dasharray:5.0,5.0;" x1="911.5" x2="911.5" y1="82.6094" y2="509.1797"/><line style="stroke:#181818;stroke-width:0.5;stroke-dasharray:5.0,5.0;" x1="1133" x2="1133" y1="82.6094" y2="509.1797"/><line style="stroke:#181818;stroke-width:0.5;stroke-dasharray:5.0,5.0;" x1="1340.5" x2="1340.5" y1="82.6094" y2="509.1797"/><line style="stroke:#181818;stroke-width:0.5;stroke-dasharray:5.0,5.0;" x1="1518" x2="1518" y1="82.6094" y2="509.1797"/><line style="stroke:#181818;stroke-width:0.5;stroke-dasharray:5.0,5.0;" x1="1766.5" x2="1766.5" y1="82.6094" y2="509.1797"/><line style="stroke:#181818;stroke-width:0.5;stroke-dasharray:5.0,5.0;" x1="2084.5" x2="2084.5" y1="82.6094" y2="509.1797"/><text fill="#000000" font-family="sans-serif" font-size="14" lengthAdjust="spacing" textLength="39" x="5" y="79.5332">Admin</text><ellipse cx="27.5" cy="13.5" fill="#E2E2F0" rx="8" ry="8" style="stroke:#181818;stroke-width:0.5;"/><path d="M27.5,21.5 L27.5,48.5 M14.5,29.5 L40.5,29.5 M27.5,48.5 L14.5,63.5 M27.5,48.5 L40.5,63.5 " fill="none" style="stroke:#181818;stroke-width:0.5;"/><text fill="#000000" font-family="sans-serif" font-size="14" lengthAdjust="spacing" textLength="114" x="360.5" y="79.5332">Web/Mobile Client</text><path d="M400,37 L400,61 M400,49 L417,49 " fill="none" style="stroke:#181818;stroke-width:0.5;"/><ellipse cx="429" cy="49" fill="#E2E2F0" rx="12" ry="12" style="stroke:#181818;stroke-width:0.5;"/><text fill="#000000" font-family="sans-serif" font-size="14" lengthAdjust="spacing" textLength="115" x="851" y="61.9238">Express API Layer</text><text fill="#000000" font-family="sans-serif" font-size="14" lengthAdjust="spacing" textLength="172" x="822.5" y="79.5332">(app.js route orchestration)</text><ellipse cx="911.5" cy="31.3906" fill="#E2E2F0" rx="12" ry="12" style="stroke:#181818;stroke-width:0.5;"/><polygon fill="#181818" points="907.5,19.3906,913.5,14.3906,911.5,19.3906,913.5,24.3906,907.5,19.3906" style="stroke:#181818;stroke-width:1.0;"/><text fill="#000000" font-family="sans-serif" font-size="14" lengthAdjust="spacing" textLength="83" x="1088.5" y="61.9238">Auth + RBAC</text><text fill="#000000" font-family="sans-serif" font-size="14" lengthAdjust="spacing" textLength="239" x="1010.5" y="79.5332">(requireAuth / permission middleware)</text><ellipse cx="1133" cy="31.3906" fill="#E2E2F0" rx="12" ry="12" style="stroke:#181818;stroke-width:0.5;"/><polygon fill="#181818" points="1129,19.3906,1135,14.3906,1133,19.3906,1135,24.3906,1129,19.3906" style="stroke:#181818;stroke-width:1.0;"/><text fill="#000000" font-family="sans-serif" font-size="14" lengthAdjust="spacing" textLength="144" x="1265.5" y="79.5332">Email Service + Queue</text><ellipse cx="1340.5" cy="49" fill="#E2E2F0" rx="12" ry="12" style="stroke:#181818;stroke-width:0.5;"/><polygon fill="#181818" points="1336.5,37,1342.5,32,1340.5,37,1342.5,42,1336.5,37" style="stroke:#181818;stroke-width:1.0;"/><text fill="#000000" font-family="sans-serif" font-size="14" lengthAdjust="spacing" textLength="179" x="1425.5" y="79.5332">Company + Branch Services</text><ellipse cx="1518" cy="49" fill="#E2E2F0" rx="12" ry="12" style="stroke:#181818;stroke-width:0.5;"/><polygon fill="#181818" points="1514,37,1520,32,1518,37,1520,42,1514,37" style="stroke:#181818;stroke-width:1.0;"/><text fill="#000000" font-family="sans-serif" font-size="14" lengthAdjust="spacing" textLength="286" x="1620.5" y="79.5332">Users + Invite + Department + SystemOptions</text><ellipse cx="1766.5" cy="49" fill="#E2E2F0" rx="12" ry="12" style="stroke:#181818;stroke-width:0.5;"/><polygon fill="#181818" points="1762.5,37,1768.5,32,1766.5,37,1768.5,42,1762.5,37" style="stroke:#181818;stroke-width:1.0;"/><text fill="#000000" font-family="sans-serif" font-size="14" lengthAdjust="spacing" textLength="146" x="2008.5" y="79.5332">PostgreSQL via Prisma</text><path d="M2066.5,29 C2066.5,19 2084.5,19 2084.5,19 C2084.5,19 2102.5,19 2102.5,29 L2102.5,55 C2102.5,65 2084.5,65 2084.5,65 C2084.5,65 2066.5,65 2066.5,55 L2066.5,29 " fill="#E2E2F0" style="stroke:#181818;stroke-width:1.5;"/><path d="M2066.5,29 C2066.5,39 2084.5,39 2084.5,39 C2084.5,39 2102.5,39 2102.5,29 " fill="none" style="stroke:#181818;stroke-width:1.5;"/><rect fill="#EEEEEE" height="3" style="stroke:#EEEEEE;stroke-width:1.0;" width="2155.5" x="5" y="111.7852"/><line style="stroke:#000000;stroke-width:1.0;" x1="5" x2="2160.5" y1="111.7852" y2="111.7852"/><line style="stroke:#000000;stroke-width:1.0;" x1="5" x2="2160.5" y1="114.7852" y2="114.7852"/><rect fill="#EEEEEE" height="24.3516" style="stroke:#000000;stroke-width:2.0;" width="198" x="983.75" y="100.6094"/><text fill="#000000" font-family="sans-serif" font-size="13" font-weight="bold" lengthAdjust="spacing" textLength="180" x="989.75" y="118.1045">2) Core Admin Configuration</text><polygon fill="#181818" points="408.5,153.3125,418.5,157.3125,408.5,161.3125,412.5,157.3125" style="stroke:#181818;stroke-width:1.0;"/><line style="stroke:#181818;stroke-width:1.0;" x1="27.5" x2="414.5" y1="157.3125" y2="157.3125"/><text fill="#000000" font-family="sans-serif" font-size="13" font-weight="bold" lengthAdjust="spacing" textLength="7" x="34.5" y="152.4561">1</text><text fill="#000000" font-family="sans-serif" font-size="13" lengthAdjust="spacing" textLength="358" x="45.5" y="152.4561">Configure company / branches / options / departments / users</text><polygon fill="#181818" points="899.5,183.6641,909.5,187.6641,899.5,191.6641,903.5,187.6641" style="stroke:#181818;stroke-width:1.0;"/><line style="stroke:#181818;stroke-width:1.0;" x1="420.5" x2="905.5" y1="187.6641" y2="187.6641"/><text fill="#000000" font-family="sans-serif" font-size="13" font-weight="bold" lengthAdjust="spacing" textLength="7" x="427.5" y="182.8076">2</text><text fill="#000000" font-family="sans-serif" font-size="13" lengthAdjust="spacing" textLength="456" x="438.5" y="182.8076">/api/company, /api/branches, /api/system-options, /api/departments, /api/users</text><polygon fill="#181818" points="1121,214.0156,1131,218.0156,1121,222.0156,1125,218.0156" style="stroke:#181818;stroke-width:1.0;"/><line style="stroke:#181818;stroke-width:1.0;" x1="911.5" x2="1127" y1="218.0156" y2="218.0156"/><text fill="#000000" font-family="sans-serif" font-size="13" font-weight="bold" lengthAdjust="spacing" textLength="7" x="918.5" y="213.1592">3</text><text fill="#000000" font-family="sans-serif" font-size="13" lengthAdjust="spacing" textLength="186" x="929.5" y="213.1592">auth + role/permission validation</text><polygon fill="#181818" points="922.5,244.3672,912.5,248.3672,922.5,252.3672,918.5,248.3672" style="stroke:#181818;stroke-width:1.0;"/><line style="stroke:#181818;stroke-width:1.0;stroke-dasharray:2.0,2.0;" x1="916.5" x2="1132" y1="248.3672" y2="248.3672"/><text fill="#000000" font-family="sans-serif" font-size="13" font-weight="bold" lengthAdjust="spacing" textLength="7" x="928.5" y="243.5107">4</text><text fill="#000000" font-family="sans-serif" font-size="13" lengthAdjust="spacing" textLength="60" x="939.5" y="243.5107">authorized</text><polygon fill="#181818" points="1506,274.7188,1516,278.7188,1506,282.7188,1510,278.7188" style="stroke:#181818;stroke-width:1.0;"/><line style="stroke:#181818;stroke-width:1.0;" x1="911.5" x2="1512" y1="278.7188" y2="278.7188"/><text fill="#000000" font-family="sans-serif" font-size="13" font-weight="bold" lengthAdjust="spacing" textLength="7" x="918.5" y="273.8623">5</text><text fill="#000000" font-family="sans-serif" font-size="13" lengthAdjust="spacing" textLength="356" x="929.5" y="273.8623">company setup, approval matrix, custom fields, branch CRUD</text><polygon fill="#181818" points="2072.5,305.0703,2082.5,309.0703,2072.5,313.0703,2076.5,309.0703" style="stroke:#181818;stroke-width:1.0;"/><line style="stroke:#181818;stroke-width:1.0;" x1="1518" x2="2078.5" y1="309.0703" y2="309.0703"/><text fill="#000000" font-family="sans-serif" font-size="13" font-weight="bold" lengthAdjust="spacing" textLength="7" x="1525" y="304.2139">6</text><text fill="#000000" font-family="sans-serif" font-size="13" lengthAdjust="spacing" textLength="314" x="1536" y="304.2139">CompanyConfig, ApprovalMatrix, CustomField, Branch</text><polygon fill="#181818" points="1529,335.4219,1519,339.4219,1529,343.4219,1525,339.4219" style="stroke:#181818;stroke-width:1.0;"/><line style="stroke:#181818;stroke-width:1.0;stroke-dasharray:2.0,2.0;" x1="1523" x2="2083.5" y1="339.4219" y2="339.4219"/><text fill="#000000" font-family="sans-serif" font-size="13" font-weight="bold" lengthAdjust="spacing" textLength="7" x="1535" y="334.5654">7</text><text fill="#000000" font-family="sans-serif" font-size="13" lengthAdjust="spacing" textLength="91" x="1546" y="334.5654">persisted config</text><polygon fill="#181818" points="1754.5,365.7734,1764.5,369.7734,1754.5,373.7734,1758.5,369.7734" style="stroke:#181818;stroke-width:1.0;"/><line style="stroke:#181818;stroke-width:1.0;" x1="911.5" x2="1760.5" y1="369.7734" y2="369.7734"/><text fill="#000000" font-family="sans-serif" font-size="13" font-weight="bold" lengthAdjust="spacing" textLength="7" x="918.5" y="364.917">8</text><text fill="#000000" font-family="sans-serif" font-size="13" lengthAdjust="spacing" textLength="367" x="929.5" y="364.917">user invite, role assignment, department/system option updates</text><polygon fill="#181818" points="2072.5,396.125,2082.5,400.125,2072.5,404.125,2076.5,400.125" style="stroke:#181818;stroke-width:1.0;"/><line style="stroke:#181818;stroke-width:1.0;" x1="1766.5" x2="2078.5" y1="400.125" y2="400.125"/><text fill="#000000" font-family="sans-serif" font-size="13" font-weight="bold" lengthAdjust="spacing" textLength="7" x="1773.5" y="395.2686">9</text><text fill="#000000" font-family="sans-serif" font-size="13" lengthAdjust="spacing" textLength="283" x="1784.5" y="395.2686">UserInvite, UserRole, Department, SystemOption</text><polygon fill="#181818" points="1351.5,426.4766,1341.5,430.4766,1351.5,434.4766,1347.5,430.4766" style="stroke:#181818;stroke-width:1.0;"/><line style="stroke:#181818;stroke-width:1.0;" x1="1345.5" x2="1765.5" y1="430.4766" y2="430.4766"/><text fill="#000000" font-family="sans-serif" font-size="13" font-weight="bold" lengthAdjust="spacing" textLength="14" x="1357.5" y="425.6201">10</text><text fill="#000000" font-family="sans-serif" font-size="13" lengthAdjust="spacing" textLength="85" x="1375.5" y="425.6201">invitation email</text><polygon fill="#181818" points="922.5,456.8281,912.5,460.8281,922.5,464.8281,918.5,460.8281" style="stroke:#181818;stroke-width:1.0;"/><line style="stroke:#181818;stroke-width:1.0;stroke-dasharray:2.0,2.0;" x1="916.5" x2="1765.5" y1="460.8281" y2="460.8281"/><text fill="#000000" font-family="sans-serif" font-size="13" font-weight="bold" lengthAdjust="spacing" textLength="14" x="928.5" y="455.9717">11</text><text fill="#000000" font-family="sans-serif" font-size="13" lengthAdjust="spacing" textLength="148" x="946.5" y="455.9717">admin configuration result</text><polygon fill="#181818" points="431.5,487.1797,421.5,491.1797,431.5,495.1797,427.5,491.1797" style="stroke:#181818;stroke-width:1.0;"/><line style="stroke:#181818;stroke-width:1.0;stroke-dasharray:2.0,2.0;" x1="425.5" x2="910.5" y1="491.1797" y2="491.1797"/><text fill="#000000" font-family="sans-serif" font-size="13" font-weight="bold" lengthAdjust="spacing" textLength="14" x="437.5" y="486.3232">12</text><text fill="#000000" font-family="sans-serif" font-size="13" lengthAdjust="spacing" textLength="69" x="455.5" y="486.3232">setup saved</text><!--SRC=[LPDDZzf038RlyojSJbqr5Ab792hnqKf8koeBMlMo5oSnC5Koayu7XVtrzNmaXDjuOZ-ntzVpgJDuQX4SwGzmnfD0xxJoRKb6d6LDSDJQbVeg15PE6rZMhLIYr5xLQ6um-Ktbx4MNiY5ODvAKcm3QV1ILLixe1YO_hfqXQs6vsy8ptiYygy_OTL__M33QEm9jgZDPPz19hPuYWtFlWALtP_W2-zLopQM6_dffA5xEe2FJIckv45fPrmtzGqEPmHcXPjH9YxA10vcBh8Y9hvuynTpuvPwurcs7wiOfAuEgElSrDWsOljxJtomPoybRTP4kW3VKeN4joy31uMOTjR-wC5qFuFwZbZKwBD4IJ7RQkfEXm-ipN2J2paZROipUh8HOBE3RKwnB9l1H7UN99yrWiH3fUlezom_p8OMWokFCe8pZaEMZJWtngHww3P4FmuXCOLwmRGupxEGiSueKzQmSsZZcD6FpvGYTRn8-G0CxMyG_m6GowqcpaQaNR6GTXnH3ydJeAXHf8p-execzS_DXQ4lETmNmnXdDD6ZH6NajeFBMwHQEafgQcqlJm7h_jX4zX7cRLLGonadG0fOPzP99wqZw6K15NXZ1TTE7TdWcArcXcXiBc7l3UHSu9sW3CYvH4PLW-wqygQ1VCR8fQvqj1D-nGiIU3QY-yR2OsymBvpqpYz5s5W_B-GX8ZsMU-abhHl6LZBBkHiIuUbXAVlI-SMdEyLv6Gy3YXLqJ_m40]--></g></svg>