<?xml version="1.0" encoding="us-ascii" standalone="no"?><svg xmlns="http://www.w3.org/2000/svg" xmlns:xlink="http://www.w3.org/1999/xlink" contentStyleType="text/css" height="789px" preserveAspectRatio="none" style="width:3435px;height:789px;background:#FFFFFF;" version="1.1" viewBox="0 0 3435 789" width="3435px" zoomAndPan="magnify"><defs/><g><line style="stroke:#181818;stroke-width:0.5;stroke-dasharray:5.0,5.0;" x1="39" x2="39" y1="82.6094" y2="782.3438"/><line style="stroke:#181818;stroke-width:0.5;stroke-dasharray:5.0,5.0;" x1="392" x2="392" y1="82.6094" y2="782.3438"/><line style="stroke:#181818;stroke-width:0.5;stroke-dasharray:5.0,5.0;" x1="904" x2="904" y1="82.6094" y2="782.3438"/><line style="stroke:#181818;stroke-width:0.5;stroke-dasharray:5.0,5.0;" x1="1063" x2="1063" y1="82.6094" y2="782.3438"/><line style="stroke:#181818;stroke-width:0.5;stroke-dasharray:5.0,5.0;" x1="1196" x2="1196" y1="82.6094" y2="782.3438"/><line style="stroke:#181818;stroke-width:0.5;stroke-dasharray:5.0,5.0;" x1="1344" x2="1344" y1="82.6094" y2="782.3438"/><line style="stroke:#181818;stroke-width:0.5;stroke-dasharray:5.0,5.0;" x1="1531" x2="1531" y1="82.6094" y2="782.3438"/><line style="stroke:#181818;stroke-width:0.5;stroke-dasharray:5.0,5.0;" x1="1752.5" x2="1752.5" y1="82.6094" y2="782.3438"/><line style="stroke:#181818;stroke-width:0.5;stroke-dasharray:5.0,5.0;" x1="1967" x2="1967" y1="82.6094" y2="782.3438"/><line style="stroke:#181818;stroke-width:0.5;stroke-dasharray:5.0,5.0;" x1="2118" x2="2118" y1="82.6094" y2="782.3438"/><line style="stroke:#181818;stroke-width:0.5;stroke-dasharray:5.0,5.0;" x1="3352" x2="3352" y1="82.6094" y2="782.3438"/><text fill="#000000" font-family="sans-serif" font-size="14" lengthAdjust="spacing" textLength="62" x="5" y="79.5332">Employee</text><ellipse cx="39" cy="13.5" fill="#E2E2F0" rx="8" ry="8" style="stroke:#181818;stroke-width:0.5;"/><path d="M39,21.5 L39,48.5 M26,29.5 L52,29.5 M39,48.5 L26,63.5 M39,48.5 L52,63.5 " fill="none" style="stroke:#181818;stroke-width:0.5;"/><text fill="#000000" font-family="sans-serif" font-size="14" lengthAdjust="spacing" textLength="114" x="332" y="79.5332">Web/Mobile Client</text><path d="M371.5,37 L371.5,61 M371.5,49 L388.5,49 " fill="none" style="stroke:#181818;stroke-width:0.5;"/><ellipse cx="400.5" cy="49" fill="#E2E2F0" rx="12" ry="12" style="stroke:#181818;stroke-width:0.5;"/><text fill="#000000" font-family="sans-serif" font-size="14" lengthAdjust="spacing" textLength="115" x="843.5" y="61.9238">Express API Layer</text><text fill="#000000" font-family="sans-serif" font-size="14" lengthAdjust="spacing" textLength="172" x="815" y="79.5332">(app.js route orchestration)</text><ellipse cx="904" cy="31.3906" fill="#E2E2F0" rx="12" ry="12" style="stroke:#181818;stroke-width:0.5;"/><polygon fill="#181818" points="900,19.3906,906,14.3906,904,19.3906,906,24.3906,900,19.3906" style="stroke:#181818;stroke-width:1.0;"/><text fill="#000000" font-family="sans-serif" font-size="14" lengthAdjust="spacing" textLength="114" x="1003" y="61.9238">Realtime Gateway</text><text fill="#000000" font-family="sans-serif" font-size="14" lengthAdjust="spacing" textLength="106" x="1007" y="79.5332">(WebSocket /ws)</text><ellipse cx="1063" cy="31.3906" fill="#E2E2F0" rx="12" ry="12" style="stroke:#181818;stroke-width:0.5;"/><polygon fill="#181818" points="1059,19.3906,1065,14.3906,1063,19.3906,1065,24.3906,1059,19.3906" style="stroke:#181818;stroke-width:1.0;"/><text fill="#000000" font-family="sans-serif" font-size="14" lengthAdjust="spacing" textLength="120" x="1133" y="79.5332">Notification Service</text><ellipse cx="1196" cy="49" fill="#E2E2F0" rx="12" ry="12" style="stroke:#181818;stroke-width:0.5;"/><polygon fill="#181818" points="1192,37,1198,32,1196,37,1198,42,1192,37" style="stroke:#181818;stroke-width:1.0;"/><text fill="#000000" font-family="sans-serif" font-size="14" lengthAdjust="spacing" textLength="144" x="1269" y="79.5332">Email Service + Queue</text><ellipse cx="1344" cy="49" fill="#E2E2F0" rx="12" ry="12" style="stroke:#181818;stroke-width:0.5;"/><polygon fill="#181818" points="1340,37,1346,32,1344,37,1346,42,1340,37" style="stroke:#181818;stroke-width:1.0;"/><text fill="#000000" font-family="sans-serif" font-size="14" lengthAdjust="spacing" textLength="136" x="1460" y="79.5332">Scheduler (cron jobs)</text><ellipse cx="1531" cy="49" fill="#E2E2F0" rx="12" ry="12" style="stroke:#181818;stroke-width:0.5;"/><polygon fill="#181818" points="1527,37,1533,32,1531,37,1533,42,1527,37" style="stroke:#181818;stroke-width:1.0;"/><text fill="#000000" font-family="sans-serif" font-size="14" lengthAdjust="spacing" textLength="100" x="1699.5" y="61.9238">Assets Services</text><text fill="#000000" font-family="sans-serif" font-size="14" lengthAdjust="spacing" textLength="275" x="1612" y="79.5332">(asset/allocation/maintenance/depreciation)</text><ellipse cx="1752.5" cy="31.3906" fill="#E2E2F0" rx="12" ry="12" style="stroke:#181818;stroke-width:0.5;"/><polygon fill="#181818" points="1748.5,19.3906,1754.5,14.3906,1752.5,19.3906,1754.5,24.3906,1748.5,19.3906" style="stroke:#181818;stroke-width:1.0;"/><text fill="#000000" font-family="sans-serif" font-size="14" lengthAdjust="spacing" textLength="122" x="1903" y="79.5332">Documents Service</text><ellipse cx="1967" cy="49" fill="#E2E2F0" rx="12" ry="12" style="stroke:#181818;stroke-width:0.5;"/><polygon fill="#181818" points="1963,37,1969,32,1967,37,1969,42,1963,37" style="stroke:#181818;stroke-width:1.0;"/><text fill="#000000" font-family="sans-serif" font-size="14" lengthAdjust="spacing" textLength="148" x="2041" y="79.5332">Communication Service</text><ellipse cx="2118" cy="49" fill="#E2E2F0" rx="12" ry="12" style="stroke:#181818;stroke-width:0.5;"/><polygon fill="#181818" points="2114,37,2120,32,2118,37,2120,42,2114,37" style="stroke:#181818;stroke-width:1.0;"/><text fill="#000000" font-family="sans-serif" font-size="14" lengthAdjust="spacing" textLength="146" x="3276" y="79.5332">PostgreSQL via Prisma</text><path d="M3334,29 C3334,19 3352,19 3352,19 C3352,19 3370,19 3370,29 L3370,55 C3370,65 3352,65 3352,65 C3352,65 3334,65 3334,55 L3334,29 " fill="#E2E2F0" style="stroke:#181818;stroke-width:1.5;"/><path d="M3334,29 C3334,39 3352,39 3352,39 C3352,39 3370,39 3370,29 " fill="none" style="stroke:#181818;stroke-width:1.5;"/><rect fill="#EEEEEE" height="3" style="stroke:#EEEEEE;stroke-width:1.0;" width="3423" x="5" y="111.7852"/><line style="stroke:#000000;stroke-width:1.0;" x1="5" x2="3428" y1="111.7852" y2="111.7852"/><line style="stroke:#000000;stroke-width:1.0;" x1="5" x2="3428" y1="114.7852" y2="114.7852"/><rect fill="#EEEEEE" height="24.3516" style="stroke:#000000;stroke-width:2.0;" width="265" x="1584" y="100.6094"/><text fill="#000000" font-family="sans-serif" font-size="13" font-weight="bold" lengthAdjust="spacing" textLength="247" x="1590" y="118.1045">11) Assets, Documents, Communication</text><polygon fill="#181818" points="380,153.3125,390,157.3125,380,161.3125,384,157.3125" style="stroke:#181818;stroke-width:1.0;"/><line style="stroke:#181818;stroke-width:1.0;" x1="39" x2="386" y1="157.3125" y2="157.3125"/><text fill="#000000" font-family="sans-serif" font-size="13" font-weight="bold" lengthAdjust="spacing" textLength="7" x="46" y="152.4561">1</text><text fill="#000000" font-family="sans-serif" font-size="13" lengthAdjust="spacing" textLength="98" x="57" y="152.4561">Asset operations</text><polygon fill="#181818" points="892,183.6641,902,187.6641,892,191.6641,896,187.6641" style="stroke:#181818;stroke-width:1.0;"/><line style="stroke:#181818;stroke-width:1.0;" x1="392" x2="898" y1="187.6641" y2="187.6641"/><text fill="#000000" font-family="sans-serif" font-size="13" font-weight="bold" lengthAdjust="spacing" textLength="7" x="399" y="182.8076">2</text><text fill="#000000" font-family="sans-serif" font-size="13" lengthAdjust="spacing" textLength="477" x="410" y="182.8076">/api/assets, /api/asset-allocations, /api/asset-maintenance, /api/asset-depreciation</text><polygon fill="#181818" points="1740.5,214.0156,1750.5,218.0156,1740.5,222.0156,1744.5,218.0156" style="stroke:#181818;stroke-width:1.0;"/><line style="stroke:#181818;stroke-width:1.0;" x1="904" x2="1746.5" y1="218.0156" y2="218.0156"/><text fill="#000000" font-family="sans-serif" font-size="13" font-weight="bold" lengthAdjust="spacing" textLength="7" x="911" y="213.1592">3</text><text fill="#000000" font-family="sans-serif" font-size="13" lengthAdjust="spacing" textLength="332" x="922" y="213.1592">asset CRUD, allocation/return, maintenance, depreciation</text><polygon fill="#181818" points="3340,244.3672,3350,248.3672,3340,252.3672,3344,248.3672" style="stroke:#181818;stroke-width:1.0;"/><line style="stroke:#181818;stroke-width:1.0;" x1="1752.5" x2="3346" y1="248.3672" y2="248.3672"/><text fill="#000000" font-family="sans-serif" font-size="13" font-weight="bold" lengthAdjust="spacing" textLength="7" x="1759.5" y="243.5107">4</text><text fill="#000000" font-family="sans-serif" font-size="13" lengthAdjust="spacing" textLength="457" x="1770.5" y="243.5107">AssetCategory, Asset, AssetAllocation, AssetMaintenance, AssetDepreciation</text><polygon fill="#181818" points="1542,274.7188,1532,278.7188,1542,282.7188,1538,278.7188" style="stroke:#181818;stroke-width:1.0;"/><line style="stroke:#181818;stroke-width:1.0;" x1="1536" x2="1751.5" y1="278.7188" y2="278.7188"/><text fill="#000000" font-family="sans-serif" font-size="13" font-weight="bold" lengthAdjust="spacing" textLength="7" x="1548" y="273.8623">5</text><text fill="#000000" font-family="sans-serif" font-size="13" lengthAdjust="spacing" textLength="149" x="1559" y="273.8623">overdue allocation checks</text><polygon fill="#181818" points="1207,305.0703,1197,309.0703,1207,313.0703,1203,309.0703" style="stroke:#181818;stroke-width:1.0;"/><line style="stroke:#181818;stroke-width:1.0;" x1="1201" x2="1530" y1="309.0703" y2="309.0703"/><text fill="#000000" font-family="sans-serif" font-size="13" font-weight="bold" lengthAdjust="spacing" textLength="7" x="1213" y="304.2139">6</text><text fill="#000000" font-family="sans-serif" font-size="13" lengthAdjust="spacing" textLength="80" x="1224" y="304.2139">overdue alerts</text><polygon fill="#181818" points="1355,335.4219,1345,339.4219,1355,343.4219,1351,339.4219" style="stroke:#181818;stroke-width:1.0;"/><line style="stroke:#181818;stroke-width:1.0;" x1="1349" x2="1530" y1="339.4219" y2="339.4219"/><text fill="#000000" font-family="sans-serif" font-size="13" font-weight="bold" lengthAdjust="spacing" textLength="7" x="1361" y="334.5654">7</text><text fill="#000000" font-family="sans-serif" font-size="13" lengthAdjust="spacing" textLength="152" x="1372" y="334.5654">overdue notification emails</text><polygon fill="#181818" points="403,365.7734,393,369.7734,403,373.7734,399,369.7734" style="stroke:#181818;stroke-width:1.0;"/><line style="stroke:#181818;stroke-width:1.0;stroke-dasharray:2.0,2.0;" x1="397" x2="903" y1="369.7734" y2="369.7734"/><text fill="#000000" font-family="sans-serif" font-size="13" font-weight="bold" lengthAdjust="spacing" textLength="7" x="409" y="364.917">8</text><text fill="#000000" font-family="sans-serif" font-size="13" lengthAdjust="spacing" textLength="68" x="420" y="364.917">asset result</text><polygon fill="#181818" points="380,396.125,390,400.125,380,404.125,384,400.125" style="stroke:#181818;stroke-width:1.0;"/><line style="stroke:#181818;stroke-width:1.0;" x1="39" x2="386" y1="400.125" y2="400.125"/><text fill="#000000" font-family="sans-serif" font-size="13" font-weight="bold" lengthAdjust="spacing" textLength="7" x="46" y="395.2686">9</text><text fill="#000000" font-family="sans-serif" font-size="13" lengthAdjust="spacing" textLength="123" x="57" y="395.2686">Document operations</text><polygon fill="#181818" points="892,426.4766,902,430.4766,892,434.4766,896,430.4766" style="stroke:#181818;stroke-width:1.0;"/><line style="stroke:#181818;stroke-width:1.0;" x1="392" x2="898" y1="430.4766" y2="430.4766"/><text fill="#000000" font-family="sans-serif" font-size="13" font-weight="bold" lengthAdjust="spacing" textLength="14" x="399" y="425.6201">10</text><text fill="#000000" font-family="sans-serif" font-size="13" lengthAdjust="spacing" textLength="98" x="417" y="425.6201">/api/documents/*</text><polygon fill="#181818" points="1955,456.8281,1965,460.8281,1955,464.8281,1959,460.8281" style="stroke:#181818;stroke-width:1.0;"/><line style="stroke:#181818;stroke-width:1.0;" x1="904" x2="1961" y1="460.8281" y2="460.8281"/><text fill="#000000" font-family="sans-serif" font-size="13" font-weight="bold" lengthAdjust="spacing" textLength="14" x="911" y="455.9717">11</text><text fill="#000000" font-family="sans-serif" font-size="13" lengthAdjust="spacing" textLength="377" x="929" y="455.9717">folders, docs, versions, templates, shares, permissions, activities</text><polygon fill="#181818" points="3340,487.1797,3350,491.1797,3340,495.1797,3344,491.1797" style="stroke:#181818;stroke-width:1.0;"/><line style="stroke:#181818;stroke-width:1.0;" x1="1967" x2="3346" y1="491.1797" y2="491.1797"/><text fill="#000000" font-family="sans-serif" font-size="13" font-weight="bold" lengthAdjust="spacing" textLength="14" x="1974" y="486.3232">12</text><text fill="#000000" font-family="sans-serif" font-size="13" lengthAdjust="spacing" textLength="1026" x="1992" y="486.3232">DocumentFolder, Document, DocumentVersion, DocumentTemplate, DocumentShare, DocumentPermission, DocumentFolderPermission, DocumentActivity, DocumentComment</text><polygon fill="#181818" points="1207,517.5313,1197,521.5313,1207,525.5313,1203,521.5313" style="stroke:#181818;stroke-width:1.0;"/><line style="stroke:#181818;stroke-width:1.0;" x1="1201" x2="1966" y1="521.5313" y2="521.5313"/><text fill="#000000" font-family="sans-serif" font-size="13" font-weight="bold" lengthAdjust="spacing" textLength="14" x="1213" y="516.6748">13</text><text fill="#000000" font-family="sans-serif" font-size="13" lengthAdjust="spacing" textLength="172" x="1231" y="516.6748">share/permission notifications</text><polygon fill="#181818" points="403,547.8828,393,551.8828,403,555.8828,399,551.8828" style="stroke:#181818;stroke-width:1.0;"/><line style="stroke:#181818;stroke-width:1.0;stroke-dasharray:2.0,2.0;" x1="397" x2="903" y1="551.8828" y2="551.8828"/><text fill="#000000" font-family="sans-serif" font-size="13" font-weight="bold" lengthAdjust="spacing" textLength="14" x="409" y="547.0264">14</text><text fill="#000000" font-family="sans-serif" font-size="13" lengthAdjust="spacing" textLength="93" x="427" y="547.0264">document result</text><polygon fill="#181818" points="380,578.2344,390,582.2344,380,586.2344,384,582.2344" style="stroke:#181818;stroke-width:1.0;"/><line style="stroke:#181818;stroke-width:1.0;" x1="39" x2="386" y1="582.2344" y2="582.2344"/><text fill="#000000" font-family="sans-serif" font-size="13" font-weight="bold" lengthAdjust="spacing" textLength="14" x="46" y="577.3779">15</text><text fill="#000000" font-family="sans-serif" font-size="13" lengthAdjust="spacing" textLength="311" x="64" y="577.3779">Messaging/announcements/channels/email templates</text><polygon fill="#181818" points="892,608.5859,902,612.5859,892,616.5859,896,612.5859" style="stroke:#181818;stroke-width:1.0;"/><line style="stroke:#181818;stroke-width:1.0;" x1="392" x2="898" y1="612.5859" y2="612.5859"/><text fill="#000000" font-family="sans-serif" font-size="13" font-weight="bold" lengthAdjust="spacing" textLength="14" x="399" y="607.7295">16</text><text fill="#000000" font-family="sans-serif" font-size="13" lengthAdjust="spacing" textLength="122" x="417" y="607.7295">/api/communication/*</text><polygon fill="#181818" points="2106,638.9375,2116,642.9375,2106,646.9375,2110,642.9375" style="stroke:#181818;stroke-width:1.0;"/><line style="stroke:#181818;stroke-width:1.0;" x1="904" x2="2112" y1="642.9375" y2="642.9375"/><text fill="#000000" font-family="sans-serif" font-size="13" font-weight="bold" lengthAdjust="spacing" textLength="14" x="911" y="638.0811">17</text><text fill="#000000" font-family="sans-serif" font-size="13" lengthAdjust="spacing" textLength="474" x="929" y="638.0811">conversations, messages, reactions, announcements, channels, email logs/queue</text><polygon fill="#181818" points="3340,669.2891,3350,673.2891,3340,677.2891,3344,673.2891" style="stroke:#181818;stroke-width:1.0;"/><line style="stroke:#181818;stroke-width:1.0;" x1="2118" x2="3346" y1="673.2891" y2="673.2891"/><text fill="#000000" font-family="sans-serif" font-size="13" font-weight="bold" lengthAdjust="spacing" textLength="14" x="2125" y="668.4326">18</text><text fill="#000000" font-family="sans-serif" font-size="13" lengthAdjust="spacing" textLength="1192" x="2143" y="668.4326">Conversation, ConversationParticipant, Message, MessageReaction, MessageReadReceipt, Announcement, AnnouncementRead, ChatChannel, ChatChannelMember, EmailTemplate, EmailLog, EmailQueue</text><polygon fill="#181818" points="1074,699.6406,1064,703.6406,1074,707.6406,1070,703.6406" style="stroke:#181818;stroke-width:1.0;"/><line style="stroke:#181818;stroke-width:1.0;" x1="1068" x2="2117" y1="703.6406" y2="703.6406"/><text fill="#000000" font-family="sans-serif" font-size="13" font-weight="bold" lengthAdjust="spacing" textLength="14" x="1080" y="698.7842">19</text><text fill="#000000" font-family="sans-serif" font-size="13" lengthAdjust="spacing" textLength="254" x="1098" y="698.7842">live message/typing/read/reaction broadcast</text><polygon fill="#181818" points="1355,729.9922,1345,733.9922,1355,737.9922,1351,733.9922" style="stroke:#181818;stroke-width:1.0;"/><line style="stroke:#181818;stroke-width:1.0;" x1="1349" x2="2117" y1="733.9922" y2="733.9922"/><text fill="#000000" font-family="sans-serif" font-size="13" font-weight="bold" lengthAdjust="spacing" textLength="14" x="1361" y="729.1357">20</text><text fill="#000000" font-family="sans-serif" font-size="13" lengthAdjust="spacing" textLength="130" x="1379" y="729.1357">queued email dispatch</text><polygon fill="#181818" points="403,760.3438,393,764.3438,403,768.3438,399,764.3438" style="stroke:#181818;stroke-width:1.0;"/><line style="stroke:#181818;stroke-width:1.0;stroke-dasharray:2.0,2.0;" x1="397" x2="903" y1="764.3438" y2="764.3438"/><text fill="#000000" font-family="sans-serif" font-size="13" font-weight="bold" lengthAdjust="spacing" textLength="14" x="409" y="759.4873">21</text><text fill="#000000" font-family="sans-serif" font-size="13" lengthAdjust="spacing" textLength="124" x="427" y="759.4873">communication result</text><!--SRC=[XLN1Rjim3BtxAxYSsisTqMk034YJRXZG36dIRPTTP9bDrDgM9ydflAyV9LcMtGNR9PP8wf5yZrBUD8eTAWO6vMymgiM4jKRMRPMZIewYG7YKqkJoLv8mRgI2swefPOUOvBAj2wOwc7t7FDl8N9G8gr9WRMR0TBzCkAoDaYNCRdyr2hM6vVOptB4ErO_wWZND-oSDIhO6GIf-H6qKCqBMbmw3OYF03bbfH8NmYHbyOHsTfynxoP_HGFQY_P7TGppnHHhnABW3X3sga-3eWfoZ6zLMCL6627W7zossFj9vOk2UIYpQ4XLSS4MWJpBlymwU6BpK6eqEiDhsQoqPAqlfYye8lJPOivfZLY0HnCMuVGSG0TUIjnMHgYVDa7KKiv9LrTRdchQUf626vKmZpBPIcuF2_VqTd0I3hHAwOXxm9aaM2xY-lkmhI678dC8qmMAHX8c0gm-zw33t1q4swENKIU-X63i0SyXO8pBMmyVDLIHdQXynDR6FMKiijCtWYP-32u7LxkiwXH7h2ashwXGcc5CWZq1OwvlGpOh6xY1Lb_fj_raEiBrXCmPrblLvv3XBSv0dL4MBeoA1lFnP9p6AZlYvdSIZCg-2_337c7fy2z0wjITgh9TdYYveMvhalAHX1lwhQX669NiR5B4pIkv7MHQeI5WAeLygK7kX3L96ufUM-iYK_LAIIkZUJs-FE0aZK2SEAWWJQlheWEESnjKtdoCQ7lfKqRAt6UDsEoHEN-6VyonzPLsqs0jYNxvGw22QwooBVKsKEQD9uF7VicpeKMK7KHyoLjVq9dFqtFCZxR7KcPCyCdnUCpw-rL4tsmk5qEjYjGhNid8fhKWAhJ9Ued7s54Bwr8ySbFAWiv_sNKqSQ51mDO9E9xijKqPmqJ0hf-yIXyMkJpms53laA1fxCqUrJ7SsZD8ScLdv0YUR3Th_lTHVeJWeRdid3_tgVjB5xe6wACK90osPwHeh1t5JP84Wo9La1MVQ30V3FNMa53rDXT0DC_puzpHC51f6uWy0]--></g></svg>