<?xml version="1.0" encoding="us-ascii" standalone="no"?><svg xmlns="http://www.w3.org/2000/svg" xmlns:xlink="http://www.w3.org/1999/xlink" contentStyleType="text/css" height="698px" preserveAspectRatio="none" style="width:2804px;height:698px;background:#FFFFFF;" version="1.1" viewBox="0 0 2804 698" width="2804px" zoomAndPan="magnify"><defs/><g><line style="stroke:#181818;stroke-width:0.5;stroke-dasharray:5.0,5.0;" x1="67" x2="67" y1="82.6094" y2="691.2891"/><line style="stroke:#181818;stroke-width:0.5;stroke-dasharray:5.0,5.0;" x1="356" x2="356" y1="82.6094" y2="691.2891"/><line style="stroke:#181818;stroke-width:0.5;stroke-dasharray:5.0,5.0;" x1="704" x2="704" y1="82.6094" y2="691.2891"/><line style="stroke:#181818;stroke-width:0.5;stroke-dasharray:5.0,5.0;" x1="920" x2="920" y1="82.6094" y2="691.2891"/><line style="stroke:#181818;stroke-width:0.5;stroke-dasharray:5.0,5.0;" x1="1107" x2="1107" y1="82.6094" y2="691.2891"/><line style="stroke:#181818;stroke-width:0.5;stroke-dasharray:5.0,5.0;" x1="1239" x2="1239" y1="82.6094" y2="691.2891"/><line style="stroke:#181818;stroke-width:0.5;stroke-dasharray:5.0,5.0;" x1="1486" x2="1486" y1="82.6094" y2="691.2891"/><line style="stroke:#181818;stroke-width:0.5;stroke-dasharray:5.0,5.0;" x1="1708" x2="1708" y1="82.6094" y2="691.2891"/><line style="stroke:#181818;stroke-width:0.5;stroke-dasharray:5.0,5.0;" x1="1924" x2="1924" y1="82.6094" y2="691.2891"/><line style="stroke:#181818;stroke-width:0.5;stroke-dasharray:5.0,5.0;" x1="2113" x2="2113" y1="82.6094" y2="691.2891"/><line style="stroke:#181818;stroke-width:0.5;stroke-dasharray:5.0,5.0;" x1="2721" x2="2721" y1="82.6094" y2="691.2891"/><text fill="#000000" font-family="sans-serif" font-size="14" lengthAdjust="spacing" textLength="118" x="5" y="79.5332">Inventory Manager</text><ellipse cx="67" cy="13.5" fill="#E2E2F0" rx="8" ry="8" style="stroke:#181818;stroke-width:0.5;"/><path d="M67,21.5 L67,48.5 M54,29.5 L80,29.5 M67,48.5 L54,63.5 M67,48.5 L80,63.5 " fill="none" style="stroke:#181818;stroke-width:0.5;"/><text fill="#000000" font-family="sans-serif" font-size="14" lengthAdjust="spacing" textLength="114" x="296" y="79.5332">Web/Mobile Client</text><path d="M335.5,37 L335.5,61 M335.5,49 L352.5,49 " fill="none" style="stroke:#181818;stroke-width:0.5;"/><ellipse cx="364.5" cy="49" fill="#E2E2F0" rx="12" ry="12" style="stroke:#181818;stroke-width:0.5;"/><text fill="#000000" font-family="sans-serif" font-size="14" lengthAdjust="spacing" textLength="115" x="643.5" y="61.9238">Express API Layer</text><text fill="#000000" font-family="sans-serif" font-size="14" lengthAdjust="spacing" textLength="172" x="615" y="79.5332">(app.js route orchestration)</text><ellipse cx="704" cy="31.3906" fill="#E2E2F0" rx="12" ry="12" style="stroke:#181818;stroke-width:0.5;"/><polygon fill="#181818" points="700,19.3906,706,14.3906,704,19.3906,706,24.3906,700,19.3906" style="stroke:#181818;stroke-width:1.0;"/><text fill="#000000" font-family="sans-serif" font-size="14" lengthAdjust="spacing" textLength="228" x="803" y="79.5332">Workflow Engine + Approval Service</text><ellipse cx="920" cy="49" fill="#E2E2F0" rx="12" ry="12" style="stroke:#181818;stroke-width:0.5;"/><polygon fill="#181818" points="916,37,922,32,920,37,922,42,916,37" style="stroke:#181818;stroke-width:1.0;"/><text fill="#000000" font-family="sans-serif" font-size="14" lengthAdjust="spacing" textLength="114" x="1047" y="61.9238">Realtime Gateway</text><text fill="#000000" font-family="sans-serif" font-size="14" lengthAdjust="spacing" textLength="106" x="1051" y="79.5332">(WebSocket /ws)</text><ellipse cx="1107" cy="31.3906" fill="#E2E2F0" rx="12" ry="12" style="stroke:#181818;stroke-width:0.5;"/><polygon fill="#181818" points="1103,19.3906,1109,14.3906,1107,19.3906,1109,24.3906,1103,19.3906" style="stroke:#181818;stroke-width:1.0;"/><text fill="#000000" font-family="sans-serif" font-size="14" lengthAdjust="spacing" textLength="118" x="1177" y="79.5332">Integration Service</text><ellipse cx="1239" cy="49" fill="#E2E2F0" rx="12" ry="12" style="stroke:#181818;stroke-width:0.5;"/><polygon fill="#181818" points="1235,37,1241,32,1239,37,1241,42,1235,37" style="stroke:#181818;stroke-width:1.0;"/><text fill="#000000" font-family="sans-serif" font-size="14" lengthAdjust="spacing" textLength="167" x="1399.5" y="79.5332">Integration Event Manager</text><ellipse cx="1486" cy="49" fill="#E2E2F0" rx="12" ry="12" style="stroke:#181818;stroke-width:0.5;"/><polygon fill="#181818" points="1482,37,1488,32,1486,37,1488,42,1482,37" style="stroke:#181818;stroke-width:1.0;"/><text fill="#000000" font-family="sans-serif" font-size="14" lengthAdjust="spacing" textLength="195" x="1607.5" y="79.5332">Finance + Accounting Services</text><ellipse cx="1708" cy="49" fill="#E2E2F0" rx="12" ry="12" style="stroke:#181818;stroke-width:0.5;"/><polygon fill="#181818" points="1704,37,1710,32,1708,37,1710,42,1704,37" style="stroke:#181818;stroke-width:1.0;"/><text fill="#000000" font-family="sans-serif" font-size="14" lengthAdjust="spacing" textLength="205" x="1818.5" y="79.5332">Inventory + Warehouse Services</text><ellipse cx="1924" cy="49" fill="#E2E2F0" rx="12" ry="12" style="stroke:#181818;stroke-width:0.5;"/><polygon fill="#181818" points="1920,37,1926,32,1924,37,1926,42,1920,37" style="stroke:#181818;stroke-width:1.0;"/><text fill="#000000" font-family="sans-serif" font-size="14" lengthAdjust="spacing" textLength="141" x="2039.5" y="79.5332">Manufacturing Service</text><ellipse cx="2113" cy="49" fill="#E2E2F0" rx="12" ry="12" style="stroke:#181818;stroke-width:0.5;"/><polygon fill="#181818" points="2109,37,2115,32,2113,37,2115,42,2109,37" style="stroke:#181818;stroke-width:1.0;"/><text fill="#000000" font-family="sans-serif" font-size="14" lengthAdjust="spacing" textLength="146" x="2645" y="79.5332">PostgreSQL via Prisma</text><path d="M2703,29 C2703,19 2721,19 2721,19 C2721,19 2739,19 2739,29 L2739,55 C2739,65 2721,65 2721,65 C2721,65 2703,65 2703,55 L2703,29 " fill="#E2E2F0" style="stroke:#181818;stroke-width:1.5;"/><path d="M2703,29 C2703,39 2721,39 2721,39 C2721,39 2739,39 2739,29 " fill="none" style="stroke:#181818;stroke-width:1.5;"/><rect fill="#EEEEEE" height="3" style="stroke:#EEEEEE;stroke-width:1.0;" width="2792" x="5" y="111.7852"/><line style="stroke:#000000;stroke-width:1.0;" x1="5" x2="2797" y1="111.7852" y2="111.7852"/><line style="stroke:#000000;stroke-width:1.0;" x1="5" x2="2797" y1="114.7852" y2="114.7852"/><rect fill="#EEEEEE" height="24.3516" style="stroke:#000000;stroke-width:2.0;" width="215" x="1293.5" y="100.6094"/><text fill="#000000" font-family="sans-serif" font-size="13" font-weight="bold" lengthAdjust="spacing" textLength="197" x="1299.5" y="118.1045">7) Inventory and Manufacturing</text><polygon fill="#181818" points="344,153.3125,354,157.3125,344,161.3125,348,157.3125" style="stroke:#181818;stroke-width:1.0;"/><line style="stroke:#181818;stroke-width:1.0;" x1="67" x2="350" y1="157.3125" y2="157.3125"/><text fill="#000000" font-family="sans-serif" font-size="13" font-weight="bold" lengthAdjust="spacing" textLength="7" x="74" y="152.4561">1</text><text fill="#000000" font-family="sans-serif" font-size="13" lengthAdjust="spacing" textLength="254" x="85" y="152.4561">Manage items/warehouses/stock movement</text><polygon fill="#181818" points="692,183.6641,702,187.6641,692,191.6641,696,187.6641" style="stroke:#181818;stroke-width:1.0;"/><line style="stroke:#181818;stroke-width:1.0;" x1="356" x2="698" y1="187.6641" y2="187.6641"/><text fill="#000000" font-family="sans-serif" font-size="13" font-weight="bold" lengthAdjust="spacing" textLength="7" x="363" y="182.8076">2</text><text fill="#000000" font-family="sans-serif" font-size="13" lengthAdjust="spacing" textLength="313" x="374" y="182.8076">/api/inventory, /api/warehouses, /api/stock-movements</text><polygon fill="#181818" points="1912,214.0156,1922,218.0156,1912,222.0156,1916,218.0156" style="stroke:#181818;stroke-width:1.0;"/><line style="stroke:#181818;stroke-width:1.0;" x1="704" x2="1918" y1="218.0156" y2="218.0156"/><text fill="#000000" font-family="sans-serif" font-size="13" font-weight="bold" lengthAdjust="spacing" textLength="7" x="711" y="213.1592">3</text><text fill="#000000" font-family="sans-serif" font-size="13" lengthAdjust="spacing" textLength="265" x="722" y="213.1592">item + warehouse + stock movement services</text><polygon fill="#181818" points="2709,244.3672,2719,248.3672,2709,252.3672,2713,248.3672" style="stroke:#181818;stroke-width:1.0;"/><line style="stroke:#181818;stroke-width:1.0;" x1="1924" x2="2715" y1="248.3672" y2="248.3672"/><text fill="#000000" font-family="sans-serif" font-size="13" font-weight="bold" lengthAdjust="spacing" textLength="7" x="1931" y="243.5107">4</text><text fill="#000000" font-family="sans-serif" font-size="13" lengthAdjust="spacing" textLength="368" x="1942" y="243.5107">Item, Warehouse, WarehouseStock, StockMovement, LotBatch</text><polygon fill="#181818" points="931,274.7188,921,278.7188,931,282.7188,927,278.7188" style="stroke:#181818;stroke-width:1.0;"/><line style="stroke:#181818;stroke-width:1.0;" x1="925" x2="1923" y1="278.7188" y2="278.7188"/><text fill="#000000" font-family="sans-serif" font-size="13" font-weight="bold" lengthAdjust="spacing" textLength="7" x="937" y="273.8623">5</text><text fill="#000000" font-family="sans-serif" font-size="13" lengthAdjust="spacing" textLength="239" x="948" y="273.8623">approval for configured stock/item actions</text><polygon fill="#181818" points="1118,305.0703,1108,309.0703,1118,313.0703,1114,309.0703" style="stroke:#181818;stroke-width:1.0;"/><line style="stroke:#181818;stroke-width:1.0;" x1="1112" x2="1923" y1="309.0703" y2="309.0703"/><text fill="#000000" font-family="sans-serif" font-size="13" font-weight="bold" lengthAdjust="spacing" textLength="7" x="1124" y="304.2139">6</text><text fill="#000000" font-family="sans-serif" font-size="13" lengthAdjust="spacing" textLength="155" x="1135" y="304.2139">inventory update broadcast</text><polygon fill="#181818" points="1250,335.4219,1240,339.4219,1250,343.4219,1246,339.4219" style="stroke:#181818;stroke-width:1.0;"/><line style="stroke:#181818;stroke-width:1.0;" x1="1244" x2="1923" y1="339.4219" y2="339.4219"/><text fill="#000000" font-family="sans-serif" font-size="13" font-weight="bold" lengthAdjust="spacing" textLength="7" x="1256" y="334.5654">7</text><text fill="#000000" font-family="sans-serif" font-size="13" lengthAdjust="spacing" textLength="182" x="1267" y="334.5654">sync inventory movement to GL</text><polygon fill="#181818" points="1474,365.7734,1484,369.7734,1474,373.7734,1478,369.7734" style="stroke:#181818;stroke-width:1.0;"/><line style="stroke:#181818;stroke-width:1.0;" x1="1239" x2="1480" y1="369.7734" y2="369.7734"/><text fill="#000000" font-family="sans-serif" font-size="13" font-weight="bold" lengthAdjust="spacing" textLength="7" x="1246" y="364.917">8</text><text fill="#000000" font-family="sans-serif" font-size="13" lengthAdjust="spacing" textLength="178" x="1257" y="364.917">inventory:movement:completed</text><polygon fill="#181818" points="1696,396.125,1706,400.125,1696,404.125,1700,400.125" style="stroke:#181818;stroke-width:1.0;"/><line style="stroke:#181818;stroke-width:1.0;" x1="1486" x2="1702" y1="400.125" y2="400.125"/><text fill="#000000" font-family="sans-serif" font-size="13" font-weight="bold" lengthAdjust="spacing" textLength="7" x="1493" y="395.2686">9</text><text fill="#000000" font-family="sans-serif" font-size="13" lengthAdjust="spacing" textLength="146" x="1504" y="395.2686">integration posting trigger</text><polygon fill="#181818" points="367,426.4766,357,430.4766,367,434.4766,363,430.4766" style="stroke:#181818;stroke-width:1.0;"/><line style="stroke:#181818;stroke-width:1.0;stroke-dasharray:2.0,2.0;" x1="361" x2="703" y1="430.4766" y2="430.4766"/><text fill="#000000" font-family="sans-serif" font-size="13" font-weight="bold" lengthAdjust="spacing" textLength="14" x="373" y="425.6201">10</text><text fill="#000000" font-family="sans-serif" font-size="13" lengthAdjust="spacing" textLength="87" x="391" y="425.6201">inventory result</text><polygon fill="#181818" points="344,456.8281,354,460.8281,344,464.8281,348,460.8281" style="stroke:#181818;stroke-width:1.0;"/><line style="stroke:#181818;stroke-width:1.0;" x1="67" x2="350" y1="460.8281" y2="460.8281"/><text fill="#000000" font-family="sans-serif" font-size="13" font-weight="bold" lengthAdjust="spacing" textLength="14" x="74" y="455.9717">11</text><text fill="#000000" font-family="sans-serif" font-size="13" lengthAdjust="spacing" textLength="141" x="92" y="455.9717">Manufacturing execution</text><polygon fill="#181818" points="692,487.1797,702,491.1797,692,495.1797,696,491.1797" style="stroke:#181818;stroke-width:1.0;"/><line style="stroke:#181818;stroke-width:1.0;" x1="356" x2="698" y1="491.1797" y2="491.1797"/><text fill="#000000" font-family="sans-serif" font-size="13" font-weight="bold" lengthAdjust="spacing" textLength="14" x="363" y="486.3232">12</text><text fill="#000000" font-family="sans-serif" font-size="13" lengthAdjust="spacing" textLength="235" x="381" y="486.3232">/api/manufacturing/bom and /work-orders</text><polygon fill="#181818" points="2101,517.5313,2111,521.5313,2101,525.5313,2105,521.5313" style="stroke:#181818;stroke-width:1.0;"/><line style="stroke:#181818;stroke-width:1.0;" x1="704" x2="2107" y1="521.5313" y2="521.5313"/><text fill="#000000" font-family="sans-serif" font-size="13" font-weight="bold" lengthAdjust="spacing" textLength="14" x="711" y="516.6748">13</text><text fill="#000000" font-family="sans-serif" font-size="13" lengthAdjust="spacing" textLength="312" x="729" y="516.6748">BOM, work order, operations, material issue/consume</text><polygon fill="#181818" points="2709,547.8828,2719,551.8828,2709,555.8828,2713,551.8828" style="stroke:#181818;stroke-width:1.0;"/><line style="stroke:#181818;stroke-width:1.0;" x1="2113" x2="2715" y1="551.8828" y2="551.8828"/><text fill="#000000" font-family="sans-serif" font-size="13" font-weight="bold" lengthAdjust="spacing" textLength="14" x="2120" y="547.0264">14</text><text fill="#000000" font-family="sans-serif" font-size="13" lengthAdjust="spacing" textLength="566" x="2138" y="547.0264">BillOfMaterials, BOMItem, WorkOrder, WorkOrderOperation, WorkOrderMaterial, ProductionBatch</text><polygon fill="#181818" points="1250,578.2344,1240,582.2344,1250,586.2344,1246,582.2344" style="stroke:#181818;stroke-width:1.0;"/><line style="stroke:#181818;stroke-width:1.0;" x1="1244" x2="2112" y1="582.2344" y2="582.2344"/><text fill="#000000" font-family="sans-serif" font-size="13" font-weight="bold" lengthAdjust="spacing" textLength="14" x="1256" y="577.3779">15</text><text fill="#000000" font-family="sans-serif" font-size="13" lengthAdjust="spacing" textLength="178" x="1274" y="577.3779">sync manufacturing cost to GL</text><polygon fill="#181818" points="1474,608.5859,1484,612.5859,1474,616.5859,1478,612.5859" style="stroke:#181818;stroke-width:1.0;"/><line style="stroke:#181818;stroke-width:1.0;" x1="1239" x2="1480" y1="612.5859" y2="612.5859"/><text fill="#000000" font-family="sans-serif" font-size="13" font-weight="bold" lengthAdjust="spacing" textLength="14" x="1246" y="607.7295">16</text><text fill="#000000" font-family="sans-serif" font-size="13" lengthAdjust="spacing" textLength="205" x="1264" y="607.7295">manufacturing:workorder:completed</text><polygon fill="#181818" points="1696,638.9375,1706,642.9375,1696,646.9375,1700,642.9375" style="stroke:#181818;stroke-width:1.0;"/><line style="stroke:#181818;stroke-width:1.0;" x1="1486" x2="1702" y1="642.9375" y2="642.9375"/><text fill="#000000" font-family="sans-serif" font-size="13" font-weight="bold" lengthAdjust="spacing" textLength="14" x="1493" y="638.0811">17</text><text fill="#000000" font-family="sans-serif" font-size="13" lengthAdjust="spacing" textLength="180" x="1511" y="638.0811">manufacturing accounting sync</text><polygon fill="#181818" points="367,669.2891,357,673.2891,367,677.2891,363,673.2891" style="stroke:#181818;stroke-width:1.0;"/><line style="stroke:#181818;stroke-width:1.0;stroke-dasharray:2.0,2.0;" x1="361" x2="703" y1="673.2891" y2="673.2891"/><text fill="#000000" font-family="sans-serif" font-size="13" font-weight="bold" lengthAdjust="spacing" textLength="14" x="373" y="668.4326">18</text><text fill="#000000" font-family="sans-serif" font-size="13" lengthAdjust="spacing" textLength="117" x="391" y="668.4326">manufacturing result</text><!--SRC=[XLJBRjim4BppAxO-DOXI7GiOS86uUS201QTn05zoMKbhcOr42dpOSR- -Aqgof3PeJwR9cTdbpb2VQeD5XU18_m9dF0dqJYjVfMJ4GUO4UwrTgj-5mCnf0xELEfBYrHaIL5YGcG5QuDr4fDgh7FbajgCqJdGgIuBlfMHy0BLBaMdbZ2vXTlzU6x8MRfzMiCOpcLVr6UlwoqyBHdj7e4rs8EiCEgdLLT1Wx22mq-PjN-eJtAj2Ae9hkArheuzOmfRCKMOKEBk7WV9CM3fP4JoYenEUkIGtkzNP6pc8JxQjylmoC5RAKT6sC55jzp_6tJSpcWmex2oz7V0FKg7AGjDPnfDpKXLz0Hiu7M9Sef_zDUpGq45xIrFE1JAmk0s_P_Uy6LK8u6HVY1mTfiWoioTjNM5e-sCDHudmPAIjCE3kba8i5l3rQf07L3bCbHSBqSG0RhvrJiEy6m58HvMDJttBDhQE9mwLFbBLHAB3CxF9mXnYh6Ki-rfH-t-WTnj1vAONiQBXiiJGupmKvc5TgBoUbWRRJKyCDDQuMp9vnUHe6FHekMqq8WW_IQSKmLgx9RhiC9NQFR0KzhdSynjYP_Qoy8RojfauTCbpvEZyqSVpItE9ouwlsIw2r6ZCCxHk2cuJo0HxLjc8TRchq_2u5XsC2NqenpNcFNgUwQekoL4kBZZczB5jA4FWQyvEam5dPC6HRwqO1s7eXf-yBvtuC2kZDD4xPRxH_ZWSrHWSfxeAWOnF_4MuqIOdSua3Xvn9oqqIGNCAuJG2NLFREwUfug4QoUv8Qpt5x8_r5Oc6sMTXASjoiqyw87DOiCi7YsvQpSjoqukFzdfkn2zBvpwutSQbgpErRt91ZepzftqJzBovPxZcVpsSLi7XGzJqyBUBKtZlv6y0]--></g></svg>