<?xml version="1.0" encoding="us-ascii" standalone="no"?><svg xmlns="http://www.w3.org/2000/svg" xmlns:xlink="http://www.w3.org/1999/xlink" contentStyleType="text/css" height="776px" preserveAspectRatio="none" style="width:1478px;height:776px;background:#FFFFFF;" version="1.1" viewBox="0 0 1478 776" width="1478px" zoomAndPan="magnify"><defs/><g><line style="stroke:#181818;stroke-width:0.5;stroke-dasharray:5.0,5.0;" x1="39" x2="39" y1="82.6094" y2="769.4766"/><line style="stroke:#181818;stroke-width:0.5;stroke-dasharray:5.0,5.0;" x1="114" x2="114" y1="82.6094" y2="769.4766"/><line style="stroke:#181818;stroke-width:0.5;stroke-dasharray:5.0,5.0;" x1="273" x2="273" y1="82.6094" y2="769.4766"/><line style="stroke:#181818;stroke-width:0.5;stroke-dasharray:5.0,5.0;" x1="623" x2="623" y1="82.6094" y2="769.4766"/><line style="stroke:#181818;stroke-width:0.5;stroke-dasharray:5.0,5.0;" x1="911" x2="911" y1="82.6094" y2="769.4766"/><line style="stroke:#181818;stroke-width:0.5;stroke-dasharray:5.0,5.0;" x1="1098" x2="1098" y1="82.6094" y2="769.4766"/><line style="stroke:#181818;stroke-width:0.5;stroke-dasharray:5.0,5.0;" x1="1246" x2="1246" y1="82.6094" y2="769.4766"/><line style="stroke:#181818;stroke-width:0.5;stroke-dasharray:5.0,5.0;" x1="1395" x2="1395" y1="82.6094" y2="769.4766"/><text fill="#000000" font-family="sans-serif" font-size="14" lengthAdjust="spacing" textLength="62" x="5" y="79.5332">Employee</text><ellipse cx="39" cy="13.5" fill="#E2E2F0" rx="8" ry="8" style="stroke:#181818;stroke-width:0.5;"/><path d="M39,21.5 L39,48.5 M26,29.5 L52,29.5 M39,48.5 L26,63.5 M39,48.5 L52,63.5 " fill="none" style="stroke:#181818;stroke-width:0.5;"/><text fill="#000000" font-family="sans-serif" font-size="14" lengthAdjust="spacing" textLength="56" x="83" y="79.5332">Manager</text><ellipse cx="114" cy="13.5" fill="#E2E2F0" rx="8" ry="8" style="stroke:#181818;stroke-width:0.5;"/><path d="M114,21.5 L114,48.5 M101,29.5 L127,29.5 M114,48.5 L101,63.5 M114,48.5 L127,63.5 " fill="none" style="stroke:#181818;stroke-width:0.5;"/><text fill="#000000" font-family="sans-serif" font-size="14" lengthAdjust="spacing" textLength="114" x="213" y="79.5332">Web/Mobile Client</text><path d="M252.5,37 L252.5,61 M252.5,49 L269.5,49 " fill="none" style="stroke:#181818;stroke-width:0.5;"/><ellipse cx="281.5" cy="49" fill="#E2E2F0" rx="12" ry="12" style="stroke:#181818;stroke-width:0.5;"/><text fill="#000000" font-family="sans-serif" font-size="14" lengthAdjust="spacing" textLength="115" x="562.5" y="61.9238">Express API Layer</text><text fill="#000000" font-family="sans-serif" font-size="14" lengthAdjust="spacing" textLength="172" x="534" y="79.5332">(app.js route orchestration)</text><ellipse cx="623" cy="31.3906" fill="#E2E2F0" rx="12" ry="12" style="stroke:#181818;stroke-width:0.5;"/><polygon fill="#181818" points="619,19.3906,625,14.3906,623,19.3906,625,24.3906,619,19.3906" style="stroke:#181818;stroke-width:1.0;"/><text fill="#000000" font-family="sans-serif" font-size="14" lengthAdjust="spacing" textLength="228" x="794" y="79.5332">Workflow Engine + Approval Service</text><ellipse cx="911" cy="49" fill="#E2E2F0" rx="12" ry="12" style="stroke:#181818;stroke-width:0.5;"/><polygon fill="#181818" points="907,37,913,32,911,37,913,42,907,37" style="stroke:#181818;stroke-width:1.0;"/><text fill="#000000" font-family="sans-serif" font-size="14" lengthAdjust="spacing" textLength="114" x="1038" y="61.9238">Realtime Gateway</text><text fill="#000000" font-family="sans-serif" font-size="14" lengthAdjust="spacing" textLength="106" x="1042" y="79.5332">(WebSocket /ws)</text><ellipse cx="1098" cy="31.3906" fill="#E2E2F0" rx="12" ry="12" style="stroke:#181818;stroke-width:0.5;"/><polygon fill="#181818" points="1094,19.3906,1100,14.3906,1098,19.3906,1100,24.3906,1094,19.3906" style="stroke:#181818;stroke-width:1.0;"/><text fill="#000000" font-family="sans-serif" font-size="14" lengthAdjust="spacing" textLength="120" x="1183" y="79.5332">Notification Service</text><ellipse cx="1246" cy="49" fill="#E2E2F0" rx="12" ry="12" style="stroke:#181818;stroke-width:0.5;"/><polygon fill="#181818" points="1242,37,1248,32,1246,37,1248,42,1242,37" style="stroke:#181818;stroke-width:1.0;"/><text fill="#000000" font-family="sans-serif" font-size="14" lengthAdjust="spacing" textLength="146" x="1319" y="79.5332">PostgreSQL via Prisma</text><path d="M1377,29 C1377,19 1395,19 1395,19 C1395,19 1413,19 1413,29 L1413,55 C1413,65 1395,65 1395,65 C1395,65 1377,65 1377,55 L1377,29 " fill="#E2E2F0" style="stroke:#181818;stroke-width:1.5;"/><path d="M1377,29 C1377,39 1395,39 1395,39 C1395,39 1413,39 1413,29 " fill="none" style="stroke:#181818;stroke-width:1.5;"/><rect fill="#EEEEEE" height="3" style="stroke:#EEEEEE;stroke-width:1.0;" width="1466" x="5" y="111.7852"/><line style="stroke:#000000;stroke-width:1.0;" x1="5" x2="1471" y1="111.7852" y2="111.7852"/><line style="stroke:#000000;stroke-width:1.0;" x1="5" x2="1471" y1="114.7852" y2="114.7852"/><rect fill="#EEEEEE" height="24.3516" style="stroke:#000000;stroke-width:2.0;" width="374" x="551" y="100.6094"/><text fill="#000000" font-family="sans-serif" font-size="13" font-weight="bold" lengthAdjust="spacing" textLength="356" x="557" y="118.1045">4) Workflow/Approval Pattern Used by Business Modules</text><polygon fill="#181818" points="261,153.3125,271,157.3125,261,161.3125,265,157.3125" style="stroke:#181818;stroke-width:1.0;"/><line style="stroke:#181818;stroke-width:1.0;" x1="39" x2="267" y1="157.3125" y2="157.3125"/><text fill="#000000" font-family="sans-serif" font-size="13" font-weight="bold" lengthAdjust="spacing" textLength="7" x="46" y="152.4561">1</text><text fill="#000000" font-family="sans-serif" font-size="13" lengthAdjust="spacing" textLength="199" x="57" y="152.4561">Submit approval-based transaction</text><polygon fill="#181818" points="611,183.6641,621,187.6641,611,191.6641,615,187.6641" style="stroke:#181818;stroke-width:1.0;"/><line style="stroke:#181818;stroke-width:1.0;" x1="273" x2="617" y1="187.6641" y2="187.6641"/><text fill="#000000" font-family="sans-serif" font-size="13" font-weight="bold" lengthAdjust="spacing" textLength="7" x="280" y="182.8076">2</text><text fill="#000000" font-family="sans-serif" font-size="13" lengthAdjust="spacing" textLength="315" x="291" y="182.8076">e.g. leave/expense/stock/requisition/timesheet request</text><polygon fill="#181818" points="899,214.0156,909,218.0156,899,222.0156,903,218.0156" style="stroke:#181818;stroke-width:1.0;"/><line style="stroke:#181818;stroke-width:1.0;" x1="623" x2="905" y1="218.0156" y2="218.0156"/><text fill="#000000" font-family="sans-serif" font-size="13" font-weight="bold" lengthAdjust="spacing" textLength="7" x="630" y="213.1592">3</text><text fill="#000000" font-family="sans-serif" font-size="13" lengthAdjust="spacing" textLength="253" x="641" y="213.1592">create workflow request + first approval step</text><polygon fill="#181818" points="1383,244.3672,1393,248.3672,1383,252.3672,1387,248.3672" style="stroke:#181818;stroke-width:1.0;"/><line style="stroke:#181818;stroke-width:1.0;" x1="911" x2="1389" y1="248.3672" y2="248.3672"/><text fill="#000000" font-family="sans-serif" font-size="13" font-weight="bold" lengthAdjust="spacing" textLength="7" x="918" y="243.5107">4</text><text fill="#000000" font-family="sans-serif" font-size="13" lengthAdjust="spacing" textLength="236" x="929" y="243.5107">WorkflowRequest + Approval (PENDING)</text><polygon fill="#181818" points="922,274.7188,912,278.7188,922,282.7188,918,278.7188" style="stroke:#181818;stroke-width:1.0;"/><line style="stroke:#181818;stroke-width:1.0;stroke-dasharray:2.0,2.0;" x1="916" x2="1394" y1="278.7188" y2="278.7188"/><text fill="#000000" font-family="sans-serif" font-size="13" font-weight="bold" lengthAdjust="spacing" textLength="7" x="928" y="273.8623">5</text><text fill="#000000" font-family="sans-serif" font-size="13" lengthAdjust="spacing" textLength="115" x="939" y="273.8623">approval chain state</text><polygon fill="#181818" points="1234,305.0703,1244,309.0703,1234,313.0703,1238,309.0703" style="stroke:#181818;stroke-width:1.0;"/><line style="stroke:#181818;stroke-width:1.0;" x1="911" x2="1240" y1="309.0703" y2="309.0703"/><text fill="#000000" font-family="sans-serif" font-size="13" font-weight="bold" lengthAdjust="spacing" textLength="7" x="918" y="304.2139">6</text><text fill="#000000" font-family="sans-serif" font-size="13" lengthAdjust="spacing" textLength="122" x="929" y="304.2139">notify approver queue</text><polygon fill="#181818" points="1383,335.4219,1393,339.4219,1383,343.4219,1387,339.4219" style="stroke:#181818;stroke-width:1.0;"/><line style="stroke:#181818;stroke-width:1.0;" x1="1246" x2="1389" y1="339.4219" y2="339.4219"/><text fill="#000000" font-family="sans-serif" font-size="13" font-weight="bold" lengthAdjust="spacing" textLength="7" x="1253" y="334.5654">7</text><text fill="#000000" font-family="sans-serif" font-size="13" lengthAdjust="spacing" textLength="100" x="1264" y="334.5654">Notification insert</text><polygon fill="#181818" points="1109,365.7734,1099,369.7734,1109,373.7734,1105,369.7734" style="stroke:#181818;stroke-width:1.0;"/><line style="stroke:#181818;stroke-width:1.0;" x1="1103" x2="1245" y1="369.7734" y2="369.7734"/><text fill="#000000" font-family="sans-serif" font-size="13" font-weight="bold" lengthAdjust="spacing" textLength="7" x="1115" y="364.917">8</text><text fill="#000000" font-family="sans-serif" font-size="13" lengthAdjust="spacing" textLength="113" x="1126" y="364.917">push approval event</text><polygon fill="#181818" points="634,396.125,624,400.125,634,404.125,630,400.125" style="stroke:#181818;stroke-width:1.0;"/><line style="stroke:#181818;stroke-width:1.0;stroke-dasharray:2.0,2.0;" x1="628" x2="910" y1="400.125" y2="400.125"/><text fill="#000000" font-family="sans-serif" font-size="13" font-weight="bold" lengthAdjust="spacing" textLength="7" x="640" y="395.2686">9</text><text fill="#000000" font-family="sans-serif" font-size="13" lengthAdjust="spacing" textLength="104" x="651" y="395.2686">request submitted</text><polygon fill="#181818" points="284,426.4766,274,430.4766,284,434.4766,280,430.4766" style="stroke:#181818;stroke-width:1.0;"/><line style="stroke:#181818;stroke-width:1.0;stroke-dasharray:2.0,2.0;" x1="278" x2="622" y1="430.4766" y2="430.4766"/><text fill="#000000" font-family="sans-serif" font-size="13" font-weight="bold" lengthAdjust="spacing" textLength="14" x="290" y="425.6201">10</text><text fill="#000000" font-family="sans-serif" font-size="13" lengthAdjust="spacing" textLength="96" x="308" y="425.6201">pending approval</text><polygon fill="#181818" points="261,456.8281,271,460.8281,261,464.8281,265,460.8281" style="stroke:#181818;stroke-width:1.0;"/><line style="stroke:#181818;stroke-width:1.0;" x1="114" x2="267" y1="460.8281" y2="460.8281"/><text fill="#000000" font-family="sans-serif" font-size="13" font-weight="bold" lengthAdjust="spacing" textLength="14" x="121" y="455.9717">11</text><text fill="#000000" font-family="sans-serif" font-size="13" lengthAdjust="spacing" textLength="95" x="139" y="455.9717">Approve / Reject</text><polygon fill="#181818" points="611,487.1797,621,491.1797,611,495.1797,615,491.1797" style="stroke:#181818;stroke-width:1.0;"/><line style="stroke:#181818;stroke-width:1.0;" x1="273" x2="617" y1="491.1797" y2="491.1797"/><text fill="#000000" font-family="sans-serif" font-size="13" font-weight="bold" lengthAdjust="spacing" textLength="14" x="280" y="486.3232">12</text><text fill="#000000" font-family="sans-serif" font-size="13" lengthAdjust="spacing" textLength="219" x="298" y="486.3232">POST /api/approvals/:id/approve|reject</text><polygon fill="#181818" points="899,517.5313,909,521.5313,899,525.5313,903,521.5313" style="stroke:#181818;stroke-width:1.0;"/><line style="stroke:#181818;stroke-width:1.0;" x1="623" x2="905" y1="521.5313" y2="521.5313"/><text fill="#000000" font-family="sans-serif" font-size="13" font-weight="bold" lengthAdjust="spacing" textLength="14" x="630" y="516.6748">13</text><text fill="#000000" font-family="sans-serif" font-size="13" lengthAdjust="spacing" textLength="130" x="648" y="516.6748">resolve approval action</text><polygon fill="#181818" points="1383,547.8828,1393,551.8828,1383,555.8828,1387,551.8828" style="stroke:#181818;stroke-width:1.0;"/><line style="stroke:#181818;stroke-width:1.0;" x1="911" x2="1389" y1="551.8828" y2="551.8828"/><text fill="#000000" font-family="sans-serif" font-size="13" font-weight="bold" lengthAdjust="spacing" textLength="14" x="918" y="547.0264">14</text><text fill="#000000" font-family="sans-serif" font-size="13" lengthAdjust="spacing" textLength="259" x="936" y="547.0264">Approval status + request status progression</text><path d="M895,563.8828 L956,563.8828 L956,572.2344 L946,582.2344 L895,582.2344 L895,563.8828 " fill="#EEEEEE" style="stroke:#000000;stroke-width:1.5;"/><rect fill="none" height="120.8906" style="stroke:#000000;stroke-width:1.5;" width="516" x="895" y="563.8828"/><text fill="#000000" font-family="sans-serif" font-size="13" font-weight="bold" lengthAdjust="spacing" textLength="16" x="910" y="578.3779">alt</text><text fill="#000000" font-family="sans-serif" font-size="11" font-weight="bold" lengthAdjust="spacing" textLength="151" x="971" y="577.3018">[approved and more steps]</text><line style="stroke:#000000;stroke-width:1.0;stroke-dasharray:2.0,2.0;" x1="895" x2="1411" y1="633.5859" y2="633.5859"/><text fill="#000000" font-family="sans-serif" font-size="11" font-weight="bold" lengthAdjust="spacing" textLength="86" x="900" y="647.0049">[approved final]</text><polygon fill="#181818" points="1383,610.5859,1393,614.5859,1383,618.5859,1387,614.5859" style="stroke:#181818;stroke-width:1.0;"/><line style="stroke:#181818;stroke-width:1.0;" x1="911" x2="1389" y1="614.5859" y2="614.5859"/><text fill="#000000" font-family="sans-serif" font-size="13" font-weight="bold" lengthAdjust="spacing" textLength="14" x="918" y="609.7295">15</text><text fill="#000000" font-family="sans-serif" font-size="13" lengthAdjust="spacing" textLength="145" x="936" y="609.7295">create next approval step</text><polygon fill="#181818" points="1234,672.7734,1244,676.7734,1234,680.7734,1238,676.7734" style="stroke:#181818;stroke-width:1.0;"/><line style="stroke:#181818;stroke-width:1.0;" x1="911" x2="1240" y1="676.7734" y2="676.7734"/><text fill="#000000" font-family="sans-serif" font-size="13" font-weight="bold" lengthAdjust="spacing" textLength="14" x="918" y="671.917">16</text><text fill="#000000" font-family="sans-serif" font-size="13" lengthAdjust="spacing" textLength="288" x="936" y="671.917">notify requester + downstream module completion</text><polygon fill="#181818" points="634,717.125,624,721.125,634,725.125,630,721.125" style="stroke:#181818;stroke-width:1.0;"/><line style="stroke:#181818;stroke-width:1.0;stroke-dasharray:2.0,2.0;" x1="628" x2="910" y1="721.125" y2="721.125"/><text fill="#000000" font-family="sans-serif" font-size="13" font-weight="bold" lengthAdjust="spacing" textLength="14" x="640" y="716.2686">17</text><text fill="#000000" font-family="sans-serif" font-size="13" lengthAdjust="spacing" textLength="83" x="658" y="716.2686">approval result</text><polygon fill="#181818" points="284,747.4766,274,751.4766,284,755.4766,280,751.4766" style="stroke:#181818;stroke-width:1.0;"/><line style="stroke:#181818;stroke-width:1.0;stroke-dasharray:2.0,2.0;" x1="278" x2="622" y1="751.4766" y2="751.4766"/><text fill="#000000" font-family="sans-serif" font-size="13" font-weight="bold" lengthAdjust="spacing" textLength="14" x="290" y="746.6201">18</text><text fill="#000000" font-family="sans-serif" font-size="13" lengthAdjust="spacing" textLength="99" x="308" y="746.6201">action completed</text><!--SRC=[PPDDRzim38Rl-XLSJYsAr9UT2cH0igP5WRRBaWovx4BRZAFMbZo9piUm7p_QbksalVc3xqloUQKlfSEiG62oVu5THGehjgOgOd9gfrE2hRKSswDIcB1rC2_At9w8mkiB6ioaDBQLIT6TOBIXE7gniSu9lkUQ38y0VNXKYJNiR0wZ-R5qv3rC5q_mZ2TolyqLbkNjcmTdAoQmBjcHPuUihRbkFAHsCDXOzxxDxG7c9jE6u0QcPUdi7dDOaTlhX1hDvc6GB0bprWN18p8Ty2GjPTYLJTw98JhujijoFIXUBUkjJfePBcoR7oUL8cECdc2qi9upHwkVpx3N20kdVO5DwVrCgSa4lbv3DtBKJxf0Pd86VdbA8Jx1hFAoYs1viMcLauV9H7N0OVmjK8GxM5LneHam68th8LB93usNN6HQ5Kf5L2E-0xhDRY4dt5D4nvACfyYph1uv-bDfhsjHLDFnEn8SzLV1hsgnU6mUn29n9E3Wq94FDO9-gvqVfW7FL2gHYF1-9i9kyMKlw0bSBUQlzq-lZzTAAiTTfzufsQ4suYTzWs5BNcfC-z2MaWEnbjCRVdUTBmBKihJZivBbMahAok-6XhIlZsdTgYVNhUaRvanf2-Ky3k6PQfFrDag5Ut4HMhiqGGHBUgE4FsMq-B5QGuIbZZeZ7ztfDBpHFzVApZEHIsHpyUmN2F6VqPyEiI1NNkZt6xKVv7TMNyPQ9pUaGve2cXGAwwW9r2k0CzTm60mTFmPFkQV1OwkDyEYa7zCBamYe6qZjmSY59ooaQNty8R5ozgdPHm1VfjBtbCchd3zdqeBeF2GrzHy0]--></g></svg>