<?xml version="1.0" encoding="us-ascii" standalone="no"?><svg xmlns="http://www.w3.org/2000/svg" xmlns:xlink="http://www.w3.org/1999/xlink" contentStyleType="text/css" height="425px" preserveAspectRatio="none" style="width:1205px;height:425px;background:#FFFFFF;" version="1.1" viewBox="0 0 1205 425" width="1205px" zoomAndPan="magnify"><defs/><g><line style="stroke:#181818;stroke-width:0.5;stroke-dasharray:5.0,5.0;" x1="39" x2="39" y1="82.6094" y2="418.125"/><line style="stroke:#181818;stroke-width:0.5;stroke-dasharray:5.0,5.0;" x1="217" x2="217" y1="82.6094" y2="418.125"/><line style="stroke:#181818;stroke-width:0.5;stroke-dasharray:5.0,5.0;" x1="376" x2="376" y1="82.6094" y2="418.125"/><line style="stroke:#181818;stroke-width:0.5;stroke-dasharray:5.0,5.0;" x1="597.5" x2="597.5" y1="82.6094" y2="418.125"/><line style="stroke:#181818;stroke-width:0.5;stroke-dasharray:5.0,5.0;" x1="818.5" x2="818.5" y1="82.6094" y2="418.125"/><line style="stroke:#181818;stroke-width:0.5;stroke-dasharray:5.0,5.0;" x1="1122.5" x2="1122.5" y1="82.6094" y2="418.125"/><text fill="#000000" font-family="sans-serif" font-size="14" lengthAdjust="spacing" textLength="62" x="5" y="79.5332">Employee</text><ellipse cx="39" cy="13.5" fill="#E2E2F0" rx="8" ry="8" style="stroke:#181818;stroke-width:0.5;"/><path d="M39,21.5 L39,48.5 M26,29.5 L52,29.5 M39,48.5 L26,63.5 M39,48.5 L52,63.5 " fill="none" style="stroke:#181818;stroke-width:0.5;"/><text fill="#000000" font-family="sans-serif" font-size="14" lengthAdjust="spacing" textLength="114" x="157" y="79.5332">Web/Mobile Client</text><path d="M196.5,37 L196.5,61 M196.5,49 L213.5,49 " fill="none" style="stroke:#181818;stroke-width:0.5;"/><ellipse cx="225.5" cy="49" fill="#E2E2F0" rx="12" ry="12" style="stroke:#181818;stroke-width:0.5;"/><text fill="#000000" font-family="sans-serif" font-size="14" lengthAdjust="spacing" textLength="115" x="315.5" y="61.9238">Express API Layer</text><text fill="#000000" font-family="sans-serif" font-size="14" lengthAdjust="spacing" textLength="172" x="287" y="79.5332">(app.js route orchestration)</text><ellipse cx="376" cy="31.3906" fill="#E2E2F0" rx="12" ry="12" style="stroke:#181818;stroke-width:0.5;"/><polygon fill="#181818" points="372,19.3906,378,14.3906,376,19.3906,378,24.3906,372,19.3906" style="stroke:#181818;stroke-width:1.0;"/><text fill="#000000" font-family="sans-serif" font-size="14" lengthAdjust="spacing" textLength="83" x="553" y="61.9238">Auth + RBAC</text><text fill="#000000" font-family="sans-serif" font-size="14" lengthAdjust="spacing" textLength="239" x="475" y="79.5332">(requireAuth / permission middleware)</text><ellipse cx="597.5" cy="31.3906" fill="#E2E2F0" rx="12" ry="12" style="stroke:#181818;stroke-width:0.5;"/><polygon fill="#181818" points="593.5,19.3906,599.5,14.3906,597.5,19.3906,599.5,24.3906,593.5,19.3906" style="stroke:#181818;stroke-width:1.0;"/><text fill="#000000" font-family="sans-serif" font-size="14" lengthAdjust="spacing" textLength="152" x="739.5" y="61.9238">Subscription Entitlement</text><text fill="#000000" font-family="sans-serif" font-size="14" lengthAdjust="spacing" textLength="171" x="730" y="79.5332">(requireModuleEntitlement)</text><ellipse cx="818.5" cy="31.3906" fill="#E2E2F0" rx="12" ry="12" style="stroke:#181818;stroke-width:0.5;"/><polygon fill="#181818" points="814.5,19.3906,820.5,14.3906,818.5,19.3906,820.5,24.3906,814.5,19.3906" style="stroke:#181818;stroke-width:1.0;"/><text fill="#000000" font-family="sans-serif" font-size="14" lengthAdjust="spacing" textLength="146" x="1046.5" y="79.5332">PostgreSQL via Prisma</text><path d="M1104.5,29 C1104.5,19 1122.5,19 1122.5,19 C1122.5,19 1140.5,19 1140.5,29 L1140.5,55 C1140.5,65 1122.5,65 1122.5,65 C1122.5,65 1104.5,65 1104.5,55 L1104.5,29 " fill="#E2E2F0" style="stroke:#181818;stroke-width:1.5;"/><path d="M1104.5,29 C1104.5,39 1122.5,39 1122.5,39 C1122.5,39 1140.5,39 1140.5,29 " fill="none" style="stroke:#181818;stroke-width:1.5;"/><rect fill="#EEEEEE" height="3" style="stroke:#EEEEEE;stroke-width:1.0;" width="1193.5" x="5" y="111.7852"/><line style="stroke:#000000;stroke-width:1.0;" x1="5" x2="1198.5" y1="111.7852" y2="111.7852"/><line style="stroke:#000000;stroke-width:1.0;" x1="5" x2="1198.5" y1="114.7852" y2="114.7852"/><rect fill="#EEEEEE" height="24.3516" style="stroke:#000000;stroke-width:2.0;" width="334" x="434.75" y="100.6094"/><text fill="#000000" font-family="sans-serif" font-size="13" font-weight="bold" lengthAdjust="spacing" textLength="316" x="440.75" y="118.1045">3) Cross-Cutting Guard Flow (all secured modules)</text><polygon fill="#181818" points="205,153.3125,215,157.3125,205,161.3125,209,157.3125" style="stroke:#181818;stroke-width:1.0;"/><line style="stroke:#181818;stroke-width:1.0;" x1="39" x2="211" y1="157.3125" y2="157.3125"/><text fill="#000000" font-family="sans-serif" font-size="13" font-weight="bold" lengthAdjust="spacing" textLength="7" x="46" y="152.4561">1</text><text fill="#000000" font-family="sans-serif" font-size="13" lengthAdjust="spacing" textLength="143" x="57" y="152.4561">Access module endpoint</text><polygon fill="#181818" points="364,183.6641,374,187.6641,364,191.6641,368,187.6641" style="stroke:#181818;stroke-width:1.0;"/><line style="stroke:#181818;stroke-width:1.0;" x1="217" x2="370" y1="187.6641" y2="187.6641"/><text fill="#000000" font-family="sans-serif" font-size="13" font-weight="bold" lengthAdjust="spacing" textLength="7" x="224" y="182.8076">2</text><text fill="#000000" font-family="sans-serif" font-size="13" lengthAdjust="spacing" textLength="100" x="235" y="182.8076">any /api/{module}</text><polygon fill="#181818" points="585.5,214.0156,595.5,218.0156,585.5,222.0156,589.5,218.0156" style="stroke:#181818;stroke-width:1.0;"/><line style="stroke:#181818;stroke-width:1.0;" x1="376" x2="591.5" y1="218.0156" y2="218.0156"/><text fill="#000000" font-family="sans-serif" font-size="13" font-weight="bold" lengthAdjust="spacing" textLength="7" x="383" y="213.1592">3</text><text fill="#000000" font-family="sans-serif" font-size="13" lengthAdjust="spacing" textLength="184" x="394" y="213.1592">requireAuth + permission check</text><polygon fill="#181818" points="387,244.3672,377,248.3672,387,252.3672,383,248.3672" style="stroke:#181818;stroke-width:1.0;"/><line style="stroke:#181818;stroke-width:1.0;stroke-dasharray:2.0,2.0;" x1="381" x2="596.5" y1="248.3672" y2="248.3672"/><text fill="#000000" font-family="sans-serif" font-size="13" font-weight="bold" lengthAdjust="spacing" textLength="7" x="393" y="243.5107">4</text><text fill="#000000" font-family="sans-serif" font-size="13" lengthAdjust="spacing" textLength="72" x="404" y="243.5107">user context</text><polygon fill="#181818" points="806.5,274.7188,816.5,278.7188,806.5,282.7188,810.5,278.7188" style="stroke:#181818;stroke-width:1.0;"/><line style="stroke:#181818;stroke-width:1.0;" x1="376" x2="812.5" y1="278.7188" y2="278.7188"/><text fill="#000000" font-family="sans-serif" font-size="13" font-weight="bold" lengthAdjust="spacing" textLength="7" x="383" y="273.8623">5</text><text fill="#000000" font-family="sans-serif" font-size="13" lengthAdjust="spacing" textLength="252" x="394" y="273.8623">verify module included in active subscription</text><polygon fill="#181818" points="1110.5,305.0703,1120.5,309.0703,1110.5,313.0703,1114.5,309.0703" style="stroke:#181818;stroke-width:1.0;"/><line style="stroke:#181818;stroke-width:1.0;" x1="818.5" x2="1116.5" y1="309.0703" y2="309.0703"/><text fill="#000000" font-family="sans-serif" font-size="13" font-weight="bold" lengthAdjust="spacing" textLength="7" x="825.5" y="304.2139">6</text><text fill="#000000" font-family="sans-serif" font-size="13" lengthAdjust="spacing" textLength="269" x="836.5" y="304.2139">Subscription + SubscriptionItem + Plan lookup</text><polygon fill="#181818" points="829.5,335.4219,819.5,339.4219,829.5,343.4219,825.5,339.4219" style="stroke:#181818;stroke-width:1.0;"/><line style="stroke:#181818;stroke-width:1.0;stroke-dasharray:2.0,2.0;" x1="823.5" x2="1121.5" y1="339.4219" y2="339.4219"/><text fill="#000000" font-family="sans-serif" font-size="13" font-weight="bold" lengthAdjust="spacing" textLength="7" x="835.5" y="334.5654">7</text><text fill="#000000" font-family="sans-serif" font-size="13" lengthAdjust="spacing" textLength="116" x="846.5" y="334.5654">entitlement decision</text><polygon fill="#181818" points="387,365.7734,377,369.7734,387,373.7734,383,369.7734" style="stroke:#181818;stroke-width:1.0;"/><line style="stroke:#181818;stroke-width:1.0;stroke-dasharray:2.0,2.0;" x1="381" x2="817.5" y1="369.7734" y2="369.7734"/><text fill="#000000" font-family="sans-serif" font-size="13" font-weight="bold" lengthAdjust="spacing" textLength="7" x="393" y="364.917">8</text><text fill="#000000" font-family="sans-serif" font-size="13" lengthAdjust="spacing" textLength="107" x="404" y="364.917">allowed / forbidden</text><polygon fill="#181818" points="228,396.125,218,400.125,228,404.125,224,400.125" style="stroke:#181818;stroke-width:1.0;"/><line style="stroke:#181818;stroke-width:1.0;stroke-dasharray:2.0,2.0;" x1="222" x2="375" y1="400.125" y2="400.125"/><text fill="#000000" font-family="sans-serif" font-size="13" font-weight="bold" lengthAdjust="spacing" textLength="7" x="234" y="395.2686">9</text><text fill="#000000" font-family="sans-serif" font-size="13" lengthAdjust="spacing" textLength="86" x="245" y="395.2686">proceed or 403</text><!--SRC=[PPAnRXin38PtFGNhAORXNe5q2k02jkCK0HB0ROOkMNGIOolHYIebERuMVVVox7DyGJQ9_FcJ-iHFaVMcqP2H_a3cWagNJA4qDRBQEelmH9HhsYkbJIQ6LHCzjOYgfXAivXP6lx2kxgbs7c7f7OOy0ftwep8KCfE7qMeV6LE2-VeMxdIB_1WkT8oVdnCmbOn0RBQOCkliA8mF7g8z6ynBti84VYxcIobb_5qSuo5OGKHkN4fI28sprkEhPkmzHD7Ld8qUIfqCkzZrWLN8BdjiPDQpwptPud6GEbeD0ihgh6kT44PhIdd3-F3Z3dPEmvfTQlH1VxrGQZQ3op4icLAQBalEBcpWUz5iuSRJArnexo6XAOmMcaFRD8RPJ9qum_HRZnAkO6vCX_2e0mmsafDP-hmeExXNe4CBbOwk-djK_bDTl4ltB4Gpv3SPyfDFC2_gJJbzSoq96Jg8kCydmm4HKUoGtLDx6iy5uukLPxa0iZjkXv06vDMmLgok5-Bmxcicxwwt6Hi9hRqEu8bUIbHIClqm10vk5erB7tgTENdv0XcmaYNdMlO6m_5XG-QHoQ28PFU_VhbKwZy0]--></g></svg>