<?xml version="1.0" encoding="us-ascii" standalone="no"?><svg xmlns="http://www.w3.org/2000/svg" xmlns:xlink="http://www.w3.org/1999/xlink" contentStyleType="text/css" height="2566px" preserveAspectRatio="none" style="width:1176px;height:2566px;background:#FFFFFF;" version="1.1" viewBox="0 0 1176 2566" width="1176px" zoomAndPan="magnify"><defs/><g><text fill="#000000" font-family="Courier" font-size="14" font-weight="bold" lengthAdjust="spacing" textLength="495" x="339" y="34.5332">UEORMS&#160;Navigation&#160;Chart&#160;-&#160;Part&#160;1:&#160;Access&#160;and&#160;Navigation&#160;Foundations</text><rect fill="#F1F1F1" height="37.6094" rx="12.5" ry="12.5" style="stroke:#181818;stroke-width:1.5;" width="188" x="10" y="1282.8086"/><text fill="#000000" font-family="Courier" font-size="14" lengthAdjust="spacing" textLength="168" x="20" y="1307.3418">UEORMS&#160;Navigation&#160;Chart</text><rect fill="#F1F1F1" height="37.6094" rx="12.5" ry="12.5" style="stroke:#181818;stroke-width:1.5;" width="246" x="248" y="202.6328"/><text fill="#000000" font-family="Courier" font-size="14" lengthAdjust="spacing" textLength="226" x="258" y="227.166">Evidence&#160;Sources&#160;(Current&#160;System)</text><rect fill="#F1F1F1" height="37.6094" rx="12.5" ry="12.5" style="stroke:#181818;stroke-width:1.5;" width="291" x="544" y="58.6094"/><text fill="#000000" font-family="Courier" font-size="14" lengthAdjust="spacing" textLength="271" x="554" y="83.1426">frontend/src/App.jsx&#160;(exact&#160;route&#160;inventory)</text><path d="M494,221.4375 L504,221.4375 C519,221.4375 519,77.4141 534,77.4141 L544,77.4141 " fill="none" style="stroke:#181818;stroke-width:1.0;"/><rect fill="#F1F1F1" height="37.6094" rx="12.5" ry="12.5" style="stroke:#181818;stroke-width:1.5;" width="478" x="544" y="116.2188"/><text fill="#000000" font-family="Courier" font-size="14" lengthAdjust="spacing" textLength="458" x="554" y="140.752">frontend/src/components/layout/Sidebar.jsx&#160;(role&#160;+&#160;module&#160;gated&#160;menus)</text><path d="M494,221.4375 L504,221.4375 C519,221.4375 519,135.0234 534,135.0234 L544,135.0234 " fill="none" style="stroke:#181818;stroke-width:1.0;"/><rect fill="#F1F1F1" height="37.6094" rx="12.5" ry="12.5" style="stroke:#181818;stroke-width:1.5;" width="414" x="544" y="173.8281"/><text fill="#000000" font-family="Courier" font-size="14" lengthAdjust="spacing" textLength="394" x="554" y="198.3613">frontend/src/pages/Dashboard.jsx&#160;(role&#160;to&#160;dashboard&#160;resolver)</text><path d="M494,221.4375 L504,221.4375 C519,221.4375 519,192.6328 534,192.6328 L544,192.6328 " fill="none" style="stroke:#181818;stroke-width:1.0;"/><rect fill="#F1F1F1" height="37.6094" rx="12.5" ry="12.5" style="stroke:#181818;stroke-width:1.5;" width="358" x="544" y="231.4375"/><text fill="#000000" font-family="Courier" font-size="14" lengthAdjust="spacing" textLength="338" x="554" y="255.9707">frontend/src/auth/Login.jsx&#160;(billing&#160;check&#160;and&#160;redirect)</text><path d="M494,221.4375 L504,221.4375 C519,221.4375 519,250.2422 534,250.2422 L544,250.2422 " fill="none" style="stroke:#181818;stroke-width:1.0;"/><rect fill="#F1F1F1" height="37.6094" rx="12.5" ry="12.5" style="stroke:#181818;stroke-width:1.5;" width="414" x="544" y="289.0469"/><text fill="#000000" font-family="Courier" font-size="14" lengthAdjust="spacing" textLength="394" x="554" y="313.5801">frontend/src/auth/ProtectedRoute.jsx&#160;(auth&#160;guard&#160;and&#160;redirect)</text><path d="M494,221.4375 L504,221.4375 C519,221.4375 519,307.8516 534,307.8516 L544,307.8516 " fill="none" style="stroke:#181818;stroke-width:1.0;"/><rect fill="#F1F1F1" height="37.6094" rx="12.5" ry="12.5" style="stroke:#181818;stroke-width:1.5;" width="402" x="544" y="346.6563"/><text fill="#000000" font-family="Courier" font-size="14" lengthAdjust="spacing" textLength="382" x="554" y="371.1895">report/old_project_report_extracted.txt&#160;(report&#160;intent&#160;context)</text><path d="M494,221.4375 L504,221.4375 C519,221.4375 519,365.4609 534,365.4609 L544,365.4609 " fill="none" style="stroke:#181818;stroke-width:1.0;"/><path d="M198,1301.6133 L208,1301.6133 C223,1301.6133 223,221.4375 238,221.4375 L248,221.4375 " fill="none" style="stroke:#181818;stroke-width:1.0;"/><rect fill="#F1F1F1" height="37.6094" rx="12.5" ry="12.5" style="stroke:#181818;stroke-width:1.5;" width="163" x="248" y="706.7148"/><text fill="#000000" font-family="Courier" font-size="14" lengthAdjust="spacing" textLength="143" x="258" y="731.248">Entry&#160;and&#160;Access&#160;Flow</text><rect fill="#F1F1F1" height="37.6094" rx="12.5" ry="12.5" style="stroke:#181818;stroke-width:1.5;" width="129" x="461" y="548.2891"/><text fill="#000000" font-family="Courier" font-size="14" lengthAdjust="spacing" textLength="109" x="471" y="572.8223">Public&#160;Routes&#160;(6)</text><rect fill="#F1F1F1" height="37.6094" rx="12.5" ry="12.5" style="stroke:#181818;stroke-width:1.5;" width="24" x="640" y="404.2656"/><text fill="#000000" font-family="Courier" font-size="14" lengthAdjust="spacing" textLength="4" x="650" y="428.7988">/</text><path d="M590,567.0938 L600,567.0938 C615,567.0938 615,423.0703 630,423.0703 L640,423.0703 " fill="none" style="stroke:#181818;stroke-width:1.0;"/><rect fill="#F1F1F1" height="37.6094" rx="12.5" ry="12.5" style="stroke:#181818;stroke-width:1.5;" width="54" x="640" y="461.875"/><text fill="#000000" font-family="Courier" font-size="14" lengthAdjust="spacing" textLength="34" x="650" y="486.4082">/login</text><path d="M590,567.0938 L600,567.0938 C615,567.0938 615,480.6797 630,480.6797 L640,480.6797 " fill="none" style="stroke:#181818;stroke-width:1.0;"/><rect fill="#F1F1F1" height="37.6094" rx="12.5" ry="12.5" style="stroke:#181818;stroke-width:1.5;" width="72" x="640" y="519.4844"/><text fill="#000000" font-family="Courier" font-size="14" lengthAdjust="spacing" textLength="52" x="650" y="544.0176">/register</text><path d="M590,567.0938 L600,567.0938 C615,567.0938 615,538.2891 630,538.2891 L640,538.2891 " fill="none" style="stroke:#181818;stroke-width:1.0;"/><rect fill="#F1F1F1" height="37.6094" rx="12.5" ry="12.5" style="stroke:#181818;stroke-width:1.5;" width="126" x="640" y="577.0938"/><text fill="#000000" font-family="Courier" font-size="14" lengthAdjust="spacing" textLength="106" x="650" y="601.627">/forgot-password</text><path d="M590,567.0938 L600,567.0938 C615,567.0938 615,595.8984 630,595.8984 L640,595.8984 " fill="none" style="stroke:#181818;stroke-width:1.0;"/><rect fill="#F1F1F1" height="37.6094" rx="12.5" ry="12.5" style="stroke:#181818;stroke-width:1.5;" width="104" x="640" y="634.7031"/><text fill="#000000" font-family="Courier" font-size="14" lengthAdjust="spacing" textLength="84" x="650" y="659.2363">/accept-invite</text><path d="M590,567.0938 L600,567.0938 C615,567.0938 615,653.5078 630,653.5078 L640,653.5078 " fill="none" style="stroke:#181818;stroke-width:1.0;"/><rect fill="#F1F1F1" height="37.6094" rx="12.5" ry="12.5" style="stroke:#181818;stroke-width:1.5;" width="103" x="640" y="692.3125"/><text fill="#000000" font-family="Courier" font-size="14" lengthAdjust="spacing" textLength="83" x="650" y="716.8457">/theme-demo</text><path d="M590,567.0938 L600,567.0938 C615,567.0938 615,711.1172 630,711.1172 L640,711.1172 " fill="none" style="stroke:#181818;stroke-width:1.0;"/><path d="M411,725.5195 L421,725.5195 C436,725.5195 436,567.0938 451,567.0938 L461,567.0938 " fill="none" style="stroke:#181818;stroke-width:1.0;"/><rect fill="#F1F1F1" height="37.6094" rx="12.5" ry="12.5" style="stroke:#181818;stroke-width:1.5;" width="129" x="461" y="821.9336"/><text fill="#000000" font-family="Courier" font-size="14" lengthAdjust="spacing" textLength="109" x="471" y="846.4668">Login&#160;Processing</text><rect fill="#F1F1F1" height="37.6094" rx="12.5" ry="12.5" style="stroke:#181818;stroke-width:1.5;" width="207" x="640" y="749.9219"/><text fill="#000000" font-family="Courier" font-size="14" lengthAdjust="spacing" textLength="187" x="650" y="774.4551">Submit&#160;credentials&#160;-&gt;&#160;loginApi</text><path d="M590,840.7383 L600,840.7383 C615,840.7383 615,768.7266 630,768.7266 L640,768.7266 " fill="none" style="stroke:#181818;stroke-width:1.0;"/><rect fill="#F1F1F1" height="37.6094" rx="12.5" ry="12.5" style="stroke:#181818;stroke-width:1.5;" width="102" x="640" y="807.5313"/><text fill="#000000" font-family="Courier" font-size="14" lengthAdjust="spacing" textLength="82" x="650" y="832.0645">Persist&#160;token</text><path d="M590,840.7383 L600,840.7383 C615,840.7383 615,826.3359 630,826.3359 L640,826.3359 " fill="none" style="stroke:#181818;stroke-width:1.0;"/><rect fill="#F1F1F1" height="37.6094" rx="12.5" ry="12.5" style="stroke:#181818;stroke-width:1.5;" width="183" x="640" y="865.1406"/><text fill="#000000" font-family="Courier" font-size="14" lengthAdjust="spacing" textLength="163" x="650" y="889.6738">Query&#160;/billing/subscription</text><rect fill="#F1F1F1" height="37.6094" rx="12.5" ry="12.5" style="stroke:#181818;stroke-width:1.5;" width="239" x="873" y="836.3359"/><text fill="#000000" font-family="Courier" font-size="14" lengthAdjust="spacing" textLength="219" x="883" y="860.8691">ACTIVE&#160;or&#160;unknown&#160;-&gt;&#160;/dashboard</text><path d="M823,883.9453 L833,883.9453 C848,883.9453 848,855.1406 863,855.1406 L873,855.1406 " fill="none" style="stroke:#181818;stroke-width:1.0;"/><rect fill="#F1F1F1" height="37.6094" rx="12.5" ry="12.5" style="stroke:#181818;stroke-width:1.5;" width="247" x="873" y="893.9453"/><text fill="#000000" font-family="Courier" font-size="14" lengthAdjust="spacing" textLength="227" x="883" y="918.4785">NON_ACTIVE&#160;-&gt;&#160;/subscription/billing</text><path d="M823,883.9453 L833,883.9453 C848,883.9453 848,912.75 863,912.75 L873,912.75 " fill="none" style="stroke:#181818;stroke-width:1.0;"/><path d="M590,840.7383 L600,840.7383 C615,840.7383 615,883.9453 630,883.9453 L640,883.9453 " fill="none" style="stroke:#181818;stroke-width:1.0;"/><path d="M411,725.5195 L421,725.5195 C436,725.5195 436,840.7383 451,840.7383 L461,840.7383 " fill="none" style="stroke:#181818;stroke-width:1.0;"/><rect fill="#F1F1F1" height="37.6094" rx="12.5" ry="12.5" style="stroke:#181818;stroke-width:1.5;" width="167" x="461" y="980.3594"/><text fill="#000000" font-family="Courier" font-size="14" lengthAdjust="spacing" textLength="147" x="471" y="1004.8926">Protected&#160;Route&#160;Guard</text><rect fill="#F1F1F1" height="37.6094" rx="12.5" ry="12.5" style="stroke:#181818;stroke-width:1.5;" width="257" x="678" y="951.5547"/><text fill="#000000" font-family="Courier" font-size="14" lengthAdjust="spacing" textLength="237" x="688" y="976.0879">if&#160;authenticated&#160;-&gt;&#160;render&#160;target&#160;page</text><path d="M628,999.1641 L638,999.1641 C653,999.1641 653,970.3594 668,970.3594 L678,970.3594 " fill="none" style="stroke:#181818;stroke-width:1.0;"/><rect fill="#F1F1F1" height="37.6094" rx="12.5" ry="12.5" style="stroke:#181818;stroke-width:1.5;" width="226" x="678" y="1009.1641"/><text fill="#000000" font-family="Courier" font-size="14" lengthAdjust="spacing" textLength="206" x="688" y="1033.6973">if&#160;unauthenticated&#160;-&gt;&#160;redirect&#160;to&#160;/</text><path d="M628,999.1641 L638,999.1641 C653,999.1641 653,1027.9688 668,1027.9688 L678,1027.9688 " fill="none" style="stroke:#181818;stroke-width:1.0;"/><path d="M411,725.5195 L421,725.5195 C436,725.5195 436,999.1641 451,999.1641 L461,999.1641 " fill="none" style="stroke:#181818;stroke-width:1.0;"/><path d="M198,1301.6133 L208,1301.6133 C223,1301.6133 223,725.5195 238,725.5195 L248,725.5195 " fill="none" style="stroke:#181818;stroke-width:1.0;"/><rect fill="#F1F1F1" height="37.6094" rx="12.5" ry="12.5" style="stroke:#181818;stroke-width:1.5;" width="119" x="248" y="1441.2344"/><text fill="#000000" font-family="Courier" font-size="14" lengthAdjust="spacing" textLength="99" x="258" y="1465.7676">Dashboard&#160;Hub</text><rect fill="#F1F1F1" height="37.6094" rx="12.5" ry="12.5" style="stroke:#181818;stroke-width:1.5;" width="138" x="417" y="1383.625"/><text fill="#000000" font-family="Courier" font-size="14" lengthAdjust="spacing" textLength="118" x="427" y="1408.1582">Route:&#160;/dashboard</text><path d="M367,1460.0391 L377,1460.0391 C392,1460.0391 392,1402.4297 407,1402.4297 L417,1402.4297 " fill="none" style="stroke:#181818;stroke-width:1.0;"/><rect fill="#F1F1F1" height="37.6094" rx="12.5" ry="12.5" style="stroke:#181818;stroke-width:1.5;" width="197" x="417" y="1441.2344"/><text fill="#000000" font-family="Courier" font-size="14" lengthAdjust="spacing" textLength="177" x="427" y="1465.7676">Role-to-dashboard&#160;mapping</text><rect fill="#F1F1F1" height="37.6094" rx="12.5" ry="12.5" style="stroke:#181818;stroke-width:1.5;" width="192" x="664" y="1066.7734"/><text fill="#000000" font-family="Courier" font-size="14" lengthAdjust="spacing" textLength="172" x="674" y="1091.3066">ADMIN&#160;-&gt;&#160;AdminDashboard</text><path d="M614,1460.0391 L624,1460.0391 C639,1460.0391 639,1085.5781 654,1085.5781 L664,1085.5781 " fill="none" style="stroke:#181818;stroke-width:1.0;"/><rect fill="#F1F1F1" height="37.6094" rx="12.5" ry="12.5" style="stroke:#181818;stroke-width:1.5;" width="235" x="664" y="1124.3828"/><text fill="#000000" font-family="Courier" font-size="14" lengthAdjust="spacing" textLength="215" x="674" y="1148.916">MANAGER&#160;-&gt;&#160;ManagerDashboard</text><path d="M614,1460.0391 L624,1460.0391 C639,1460.0391 639,1143.1875 654,1143.1875 L664,1143.1875 " fill="none" style="stroke:#181818;stroke-width:1.0;"/><rect fill="#F1F1F1" height="37.6094" rx="12.5" ry="12.5" style="stroke:#181818;stroke-width:1.5;" width="281" x="664" y="1181.9922"/><text fill="#000000" font-family="Courier" font-size="14" lengthAdjust="spacing" textLength="261" x="674" y="1206.5254">HR_MANAGER&#160;-&gt;&#160;HRManagerDashboard</text><path d="M614,1460.0391 L624,1460.0391 C639,1460.0391 639,1200.7969 654,1200.7969 L664,1200.7969 " fill="none" style="stroke:#181818;stroke-width:1.0;"/><rect fill="#F1F1F1" height="37.6094" rx="12.5" ry="12.5" style="stroke:#181818;stroke-width:1.5;" width="231" x="664" y="1239.6016"/><text fill="#000000" font-family="Courier" font-size="14" lengthAdjust="spacing" textLength="211" x="674" y="1264.1348">HR_STAFF&#160;-&gt;&#160;HRStaffDashboard</text><path d="M614,1460.0391 L624,1460.0391 C639,1460.0391 639,1258.4063 654,1258.4063 L664,1258.4063 " fill="none" style="stroke:#181818;stroke-width:1.0;"/><rect fill="#F1F1F1" height="37.6094" rx="12.5" ry="12.5" style="stroke:#181818;stroke-width:1.5;" width="352" x="664" y="1297.2109"/><text fill="#000000" font-family="Courier" font-size="14" lengthAdjust="spacing" textLength="332" x="674" y="1321.7441">FINANCE_MANAGER&#160;-&gt;&#160;FinanceManagerDashboard</text><path d="M614,1460.0391 L624,1460.0391 C639,1460.0391 639,1316.0156 654,1316.0156 L664,1316.0156 " fill="none" style="stroke:#181818;stroke-width:1.0;"/><rect fill="#F1F1F1" height="37.6094" rx="12.5" ry="12.5" style="stroke:#181818;stroke-width:1.5;" width="276" x="664" y="1354.8203"/><text fill="#000000" font-family="Courier" font-size="14" lengthAdjust="spacing" textLength="256" x="674" y="1379.3535">ACCOUNTANT&#160;-&gt;&#160;AccountantDashboard</text><path d="M614,1460.0391 L624,1460.0391 C639,1460.0391 639,1373.625 654,1373.625 L664,1373.625 " fill="none" style="stroke:#181818;stroke-width:1.0;"/><rect fill="#F1F1F1" height="37.6094" rx="12.5" ry="12.5" style="stroke:#181818;stroke-width:1.5;" width="379" x="664" y="1412.4297"/><text fill="#000000" font-family="Courier" font-size="14" lengthAdjust="spacing" textLength="359" x="674" y="1436.9629">INVENTORY_MANAGER&#160;-&gt;&#160;InventoryManagerDashboard</text><path d="M614,1460.0391 L624,1460.0391 C639,1460.0391 639,1431.2344 654,1431.2344 L664,1431.2344 " fill="none" style="stroke:#181818;stroke-width:1.0;"/><rect fill="#F1F1F1" height="37.6094" rx="12.5" ry="12.5" style="stroke:#181818;stroke-width:1.5;" width="354" x="664" y="1470.0391"/><text fill="#000000" font-family="Courier" font-size="14" lengthAdjust="spacing" textLength="334" x="674" y="1494.5723">WAREHOUSE_STAFF&#160;-&gt;&#160;WarehouseStaffDashboard</text><path d="M614,1460.0391 L624,1460.0391 C639,1460.0391 639,1488.8438 654,1488.8438 L664,1488.8438 " fill="none" style="stroke:#181818;stroke-width:1.0;"/><rect fill="#F1F1F1" height="37.6094" rx="12.5" ry="12.5" style="stroke:#181818;stroke-width:1.5;" width="322" x="664" y="1527.6484"/><text fill="#000000" font-family="Courier" font-size="14" lengthAdjust="spacing" textLength="302" x="674" y="1552.1816">SALES_MANAGER&#160;-&gt;&#160;SalesManagerDashboard</text><path d="M614,1460.0391 L624,1460.0391 C639,1460.0391 639,1546.4531 654,1546.4531 L664,1546.4531 " fill="none" style="stroke:#181818;stroke-width:1.0;"/><rect fill="#F1F1F1" height="37.6094" rx="12.5" ry="12.5" style="stroke:#181818;stroke-width:1.5;" width="272" x="664" y="1585.2578"/><text fill="#000000" font-family="Courier" font-size="14" lengthAdjust="spacing" textLength="252" x="674" y="1609.791">SALES_STAFF&#160;-&gt;&#160;SalesStaffDashboard</text><path d="M614,1460.0391 L624,1460.0391 C639,1460.0391 639,1604.0625 654,1604.0625 L664,1604.0625 " fill="none" style="stroke:#181818;stroke-width:1.0;"/><rect fill="#F1F1F1" height="37.6094" rx="12.5" ry="12.5" style="stroke:#181818;stroke-width:1.5;" width="377" x="664" y="1642.8672"/><text fill="#000000" font-family="Courier" font-size="14" lengthAdjust="spacing" textLength="357" x="674" y="1667.4004">PURCHASE_MANAGER&#160;-&gt;&#160;PurchaseManagerDashboard</text><path d="M614,1460.0391 L624,1460.0391 C639,1460.0391 639,1661.6719 654,1661.6719 L664,1661.6719 " fill="none" style="stroke:#181818;stroke-width:1.0;"/><rect fill="#F1F1F1" height="37.6094" rx="12.5" ry="12.5" style="stroke:#181818;stroke-width:1.5;" width="351" x="664" y="1700.4766"/><text fill="#000000" font-family="Courier" font-size="14" lengthAdjust="spacing" textLength="331" x="674" y="1725.0098">PROJECT_MANAGER&#160;-&gt;&#160;ProjectManagerDashboard</text><path d="M614,1460.0391 L624,1460.0391 C639,1460.0391 639,1719.2813 654,1719.2813 L664,1719.2813 " fill="none" style="stroke:#181818;stroke-width:1.0;"/><rect fill="#F1F1F1" height="37.6094" rx="12.5" ry="12.5" style="stroke:#181818;stroke-width:1.5;" width="248" x="664" y="1758.0859"/><text fill="#000000" font-family="Courier" font-size="14" lengthAdjust="spacing" textLength="228" x="674" y="1782.6191">EMPLOYEE&#160;-&gt;&#160;EmployeeDashboard</text><path d="M614,1460.0391 L624,1460.0391 C639,1460.0391 639,1776.8906 654,1776.8906 L664,1776.8906 " fill="none" style="stroke:#181818;stroke-width:1.0;"/><rect fill="#F1F1F1" height="37.6094" rx="12.5" ry="12.5" style="stroke:#181818;stroke-width:1.5;" width="177" x="664" y="1815.6953"/><text fill="#000000" font-family="Courier" font-size="14" lengthAdjust="spacing" textLength="157" x="674" y="1840.2285">USER&#160;-&gt;&#160;UserDashboard</text><path d="M614,1460.0391 L624,1460.0391 C639,1460.0391 639,1834.5 654,1834.5 L664,1834.5 " fill="none" style="stroke:#181818;stroke-width:1.0;"/><path d="M367,1460.0391 L377,1460.0391 C392,1460.0391 392,1460.0391 407,1460.0391 L417,1460.0391 " fill="none" style="stroke:#181818;stroke-width:1.0;"/><path d="M198,1301.6133 L208,1301.6133 C223,1301.6133 223,1460.0391 238,1460.0391 L248,1460.0391 " fill="none" style="stroke:#181818;stroke-width:1.0;"/><rect fill="#F1F1F1" height="37.6094" rx="12.5" ry="12.5" style="stroke:#181818;stroke-width:1.5;" width="179" x="248" y="2190.1563"/><text fill="#000000" font-family="Courier" font-size="14" lengthAdjust="spacing" textLength="159" x="258" y="2214.6895">Sidebar&#160;Menu&#160;Resolution</text><rect fill="#F1F1F1" height="37.6094" rx="12.5" ry="12.5" style="stroke:#181818;stroke-width:1.5;" width="105" x="477" y="1930.9141"/><text fill="#000000" font-family="Courier" font-size="14" lengthAdjust="spacing" textLength="85" x="487" y="1955.4473">Input&#160;controls</text><rect fill="#F1F1F1" height="37.6094" rx="12.5" ry="12.5" style="stroke:#181818;stroke-width:1.5;" width="76" x="632" y="1873.3047"/><text fill="#000000" font-family="Courier" font-size="14" lengthAdjust="spacing" textLength="56" x="642" y="1897.8379">user.role</text><path d="M582,1949.7188 L592,1949.7188 C607,1949.7188 607,1892.1094 622,1892.1094 L632,1892.1094 " fill="none" style="stroke:#181818;stroke-width:1.0;"/><rect fill="#F1F1F1" height="37.6094" rx="12.5" ry="12.5" style="stroke:#181818;stroke-width:1.5;" width="185" x="632" y="1930.9141"/><text fill="#000000" font-family="Courier" font-size="14" lengthAdjust="spacing" textLength="165" x="642" y="1955.4473">company&#160;enabledModules</text><path d="M582,1949.7188 L592,1949.7188 C607,1949.7188 607,1949.7188 622,1949.7188 L632,1949.7188 " fill="none" style="stroke:#181818;stroke-width:1.0;"/><rect fill="#F1F1F1" height="37.6094" rx="12.5" ry="12.5" style="stroke:#181818;stroke-width:1.5;" width="272" x="632" y="1988.5234"/><text fill="#000000" font-family="Courier" font-size="14" lengthAdjust="spacing" textLength="252" x="642" y="2013.0566">duplicate&#160;path&#160;elimination&#160;(Map&#160;by&#160;path)</text><path d="M582,1949.7188 L592,1949.7188 C607,1949.7188 607,2007.3281 622,2007.3281 L632,2007.3281 " fill="none" style="stroke:#181818;stroke-width:1.0;"/><path d="M427,2208.9609 L437,2208.9609 C452,2208.9609 452,1949.7188 467,1949.7188 L477,1949.7188 " fill="none" style="stroke:#181818;stroke-width:1.0;"/><rect fill="#F1F1F1" height="37.6094" rx="12.5" ry="12.5" style="stroke:#181818;stroke-width:1.5;" width="197" x="477" y="2276.5703"/><text fill="#000000" font-family="Courier" font-size="14" lengthAdjust="spacing" textLength="177" x="487" y="2301.1035">Role-based&#160;menu&#160;segments</text><rect fill="#F1F1F1" height="37.6094" rx="12.5" ry="12.5" style="stroke:#181818;stroke-width:1.5;" width="285" x="724" y="2046.1328"/><text fill="#000000" font-family="Courier" font-size="14" lengthAdjust="spacing" textLength="265" x="734" y="2070.666">HR&#160;roles&#160;-&gt;&#160;HR,&#160;attendance,&#160;leave,&#160;payroll</text><path d="M674,2295.375 L684,2295.375 C699,2295.375 699,2064.9375 714,2064.9375 L724,2064.9375 " fill="none" style="stroke:#181818;stroke-width:1.0;"/><rect fill="#F1F1F1" height="37.6094" rx="12.5" ry="12.5" style="stroke:#181818;stroke-width:1.5;" width="320" x="724" y="2103.7422"/><text fill="#000000" font-family="Courier" font-size="14" lengthAdjust="spacing" textLength="300" x="734" y="2128.2754">Finance&#160;roles&#160;-&gt;&#160;finance,&#160;accounting,&#160;approvals</text><path d="M674,2295.375 L684,2295.375 C699,2295.375 699,2122.5469 714,2122.5469 L724,2122.5469 " fill="none" style="stroke:#181818;stroke-width:1.0;"/><rect fill="#F1F1F1" height="37.6094" rx="12.5" ry="12.5" style="stroke:#181818;stroke-width:1.5;" width="388" x="724" y="2161.3516"/><text fill="#000000" font-family="Courier" font-size="14" lengthAdjust="spacing" textLength="368" x="734" y="2185.8848">Inventory&#160;roles&#160;-&gt;&#160;inventory,&#160;warehouse,&#160;receipts,&#160;dispatch</text><path d="M674,2295.375 L684,2295.375 C699,2295.375 699,2180.1563 714,2180.1563 L724,2180.1563 " fill="none" style="stroke:#181818;stroke-width:1.0;"/><rect fill="#F1F1F1" height="37.6094" rx="12.5" ry="12.5" style="stroke:#181818;stroke-width:1.5;" width="365" x="724" y="2218.9609"/><text fill="#000000" font-family="Courier" font-size="14" lengthAdjust="spacing" textLength="345" x="734" y="2243.4941">Sales&#160;roles&#160;-&gt;&#160;CRM,&#160;sales&#160;orders,&#160;quotations,&#160;analytics</text><path d="M674,2295.375 L684,2295.375 C699,2295.375 699,2237.7656 714,2237.7656 L724,2237.7656 " fill="none" style="stroke:#181818;stroke-width:1.0;"/><rect fill="#F1F1F1" height="37.6094" rx="12.5" ry="12.5" style="stroke:#181818;stroke-width:1.5;" width="379" x="724" y="2276.5703"/><text fill="#000000" font-family="Courier" font-size="14" lengthAdjust="spacing" textLength="359" x="734" y="2301.1035">Purchase&#160;roles&#160;-&gt;&#160;vendors,&#160;orders,&#160;requisitions,&#160;analytics</text><path d="M674,2295.375 L684,2295.375 C699,2295.375 699,2295.375 714,2295.375 L724,2295.375 " fill="none" style="stroke:#181818;stroke-width:1.0;"/><rect fill="#F1F1F1" height="37.6094" rx="12.5" ry="12.5" style="stroke:#181818;stroke-width:1.5;" width="370" x="724" y="2334.1797"/><text fill="#000000" font-family="Courier" font-size="14" lengthAdjust="spacing" textLength="350" x="734" y="2358.7129">PM/Manager&#160;roles&#160;-&gt;&#160;projects,&#160;tasks,&#160;approvals,&#160;reports</text><path d="M674,2295.375 L684,2295.375 C699,2295.375 699,2352.9844 714,2352.9844 L724,2352.9844 " fill="none" style="stroke:#181818;stroke-width:1.0;"/><rect fill="#F1F1F1" height="37.6094" rx="12.5" ry="12.5" style="stroke:#181818;stroke-width:1.5;" width="226" x="724" y="2391.7891"/><text fill="#000000" font-family="Courier" font-size="14" lengthAdjust="spacing" textLength="206" x="734" y="2416.3223">EMPLOYEE&#160;-&gt;&#160;self-service&#160;views</text><path d="M674,2295.375 L684,2295.375 C699,2295.375 699,2410.5938 714,2410.5938 L724,2410.5938 " fill="none" style="stroke:#181818;stroke-width:1.0;"/><rect fill="#F1F1F1" height="37.6094" rx="12.5" ry="12.5" style="stroke:#181818;stroke-width:1.5;" width="354" x="724" y="2449.3984"/><text fill="#000000" font-family="Courier" font-size="14" lengthAdjust="spacing" textLength="334" x="734" y="2473.9316">USER&#160;-&gt;&#160;basic&#160;inventory/docs/messages/notifications</text><path d="M674,2295.375 L684,2295.375 C699,2295.375 699,2468.2031 714,2468.2031 L724,2468.2031 " fill="none" style="stroke:#181818;stroke-width:1.0;"/><rect fill="#F1F1F1" height="37.6094" rx="12.5" ry="12.5" style="stroke:#181818;stroke-width:1.5;" width="440" x="724" y="2507.0078"/><text fill="#000000" font-family="Courier" font-size="14" lengthAdjust="spacing" textLength="420" x="734" y="2531.541">ADMIN&#160;-&gt;&#160;role-management,&#160;roles,&#160;company,&#160;system-options,&#160;audit</text><path d="M674,2295.375 L684,2295.375 C699,2295.375 699,2525.8125 714,2525.8125 L724,2525.8125 " fill="none" style="stroke:#181818;stroke-width:1.0;"/><path d="M427,2208.9609 L437,2208.9609 C452,2208.9609 452,2295.375 467,2295.375 L477,2295.375 " fill="none" style="stroke:#181818;stroke-width:1.0;"/><path d="M198,1301.6133 L208,1301.6133 C223,1301.6133 223,2208.9609 238,2208.9609 L248,2208.9609 " fill="none" style="stroke:#181818;stroke-width:1.0;"/><!--SRC=[TLPHS-8u37xFhz1Zoq5JUdkTcpxSR8w6jZi4E0BTsIV690AyJUoixT3oxq-s4w1T-aImf4-ozELJlch3b2cvo4jMmIAUp99qEMOxlc66Ix6SadNP3mmt1JPcE9fXi2KxzC2wGVyEeYn3hO69_DHhA6kHkqST1Fg5YuefLa8fXSosIfO8QrPeF37bk6PrOOPIc34Z-q3MYgCAWg3pMHL1fmFnZkSeCeIK_AaIk1ZKIg4maEwrmVAId3gmLWIB8W-roiAeggv-wZUum3UM6L2oDWXSx2X8glsPW4oMbHHarc71zkGUffHqnPI7KP8QzGVTBQ_fWGh474eKjJu3LR4Dwl2UwUrACfMV01W9UNiC2hKiTgZE8B3QRCEHt73XWrUyABZOGBR5xCMDGM7E5MRci-2faeRCcC_ipJsADS2cjhb_Xr1OIML2MUJBIicVTBxqHqjyCufPg2lpPkWYxfHwQUm0CflupM50B8pQE-Y6ByD2lZhmQRqgU0Qk5fhUhKlPWR3vAUnDcsU56qupLStVjLGRQNeLq_fLghmvPOHVcHxDanjipimMI-pbM4gNqdKFg0ss4kgTzqhhLScfQhexLS-9dj3x1rp-gEBUPufAKmaqh1TiglglHhfPs8mXrFLAPufNbgNEeGFHOFxq78DKK8iN8L-5nGqFmswynfFnil6qvbES5jptgvsURnayr2q6y3NOEThgCyT20g9N8KS5zCflq82bty6t5cUy_Tmj6-q4uC1KUAnNBh_BUlUXVZeji6TaxqXX4fVgqDleFdaQsmHHJi9p_-xga4JZw26UMNF215MeFZWypfOdFe-pJxtIUJGSUf_KiFNwWyVmQHoD1_4fs90BHkfn7Z4Q32QByJmQprtfMKQYPfWm7zoUni_nU3wP_JW5Vchrv3pqzsWMFquMQNoi-JjJk9MrndEbfz4eJa_nKrQWFe_jVG-uplCSvdGn6pn6wRj-J4b4jqn_qf3fRF8j7ipV1NX1EEyV9zFHv4Vi61sNLI7tY1zSg0KEPw7VHqCZiP2GaiBCwc7TlbFKtAhs-aBIgJqGDKvTMINrVwrcCx4756nLO9uuSMvSyxeg7EVfVI3Pmu8JAVrUkKXe9wxspd1vPFQAMk957JHkIhiAMjA1pQazwRh0ZDLQIwak5CXsz5EnFRaK3GKztuv1Qtz0aPvUzChGSqKwksFjrGvSEeOTrbKNNblUTEdrpP0aGtSXvvgka6qRHbWA78C7iwGBsfsHRfAaTU5NBOrVrvHTi69Fej1aRobnZAVKkRHHRRJ2NpNN_9Fu96pOSKHerWWv6wPVzCcDkyssqRypI6Enxj6KTvmQkEFugjzJY8P4Y-JGcJ2NcGvBadYtSuKqV6sdxhv9tgkIhQjNkYBjRBk-q6vB8cgM-vReoQgzOfrp4mHVgH7DXrGGJ0kIXaKoelRGaY0kzQzkhc- -NFrvCLGSXhY2_YrSz-_wrtVNVy5JEWThlWmk7gQZtGrez_rY1sSKNpckNmRVs8x1pDAY9Csr_oxcoIMaSNj8YtN7QSFRieDlpubtWaTfqaeQvtpxfVSlxRMK6aSZU4w2U_-bHQ6Pp8blTx2O3tj_1oCcw0jWGubejmqi6TN-ZjJjVm00]--></g></svg>