<?xml version="1.0" encoding="us-ascii" standalone="no"?><svg xmlns="http://www.w3.org/2000/svg" xmlns:xlink="http://www.w3.org/1999/xlink" contentStyleType="text/css" height="1434px" preserveAspectRatio="none" style="width:509px;height:1434px;background:#FFFFFF;" version="1.1" viewBox="0 0 509 1434" width="509px" zoomAndPan="magnify"><defs/><g><text fill="#000000" font-family="sans-serif" font-size="14" font-weight="bold" lengthAdjust="spacing" textLength="481" x="10" y="24.5332">UEORMS State Transition - 11) Reports, Data Utilities, and Integration</text><ellipse cx="288.5" cy="54.6094" fill="#222222" rx="10" ry="10" style="stroke:#222222;stroke-width:1.0;"/><rect fill="#F1F1F1" height="40" rx="12.5" ry="12.5" style="stroke:#181818;stroke-width:0.5;" width="137" x="220" y="125.6094"/><text fill="#000000" font-family="sans-serif" font-size="14" lengthAdjust="spacing" textLength="127" x="225" y="151.3379">ReportRequestDraft</text><rect fill="#F1F1F1" height="40" rx="12.5" ry="12.5" style="stroke:#181818;stroke-width:0.5;" width="121" x="228" y="243.6094"/><text fill="#000000" font-family="sans-serif" font-size="14" lengthAdjust="spacing" textLength="111" x="233" y="269.3379">ReportGenerated</text><rect fill="#F1F1F1" height="40" rx="12.5" ry="12.5" style="stroke:#181818;stroke-width:0.5;" width="93" x="242" y="361.6094"/><text fill="#000000" font-family="sans-serif" font-size="14" lengthAdjust="spacing" textLength="83" x="247" y="387.3379">ReportSaved</text><rect fill="#F1F1F1" height="40" rx="12.5" ry="12.5" style="stroke:#181818;stroke-width:0.5;" width="109" x="160" y="479.6094"/><text fill="#000000" font-family="sans-serif" font-size="14" lengthAdjust="spacing" textLength="99" x="165" y="505.3379">ReportExported</text><rect fill="#F1F1F1" height="40" rx="12.5" ry="12.5" style="stroke:#181818;stroke-width:0.5;" width="120" x="304.5" y="479.6094"/><text fill="#000000" font-family="sans-serif" font-size="14" lengthAdjust="spacing" textLength="110" x="309.5" y="505.3379">ReportScheduled</text><rect fill="#F1F1F1" height="40" rx="12.5" ry="12.5" style="stroke:#181818;stroke-width:0.5;" width="131" x="223" y="597.6094"/><text fill="#000000" font-family="sans-serif" font-size="14" lengthAdjust="spacing" textLength="121" x="228" y="623.3379">DataImportPending</text><rect fill="#F1F1F1" height="40" rx="12.5" ry="12.5" style="stroke:#181818;stroke-width:0.5;" width="95" x="241" y="715.6094"/><text fill="#000000" font-family="sans-serif" font-size="14" lengthAdjust="spacing" textLength="85" x="246" y="741.3379">DataImported</text><rect fill="#F1F1F1" height="40" rx="12.5" ry="12.5" style="stroke:#181818;stroke-width:0.5;" width="96" x="240.5" y="833.6094"/><text fill="#000000" font-family="sans-serif" font-size="14" lengthAdjust="spacing" textLength="86" x="245.5" y="859.3379">DataExported</text><rect fill="#F1F1F1" height="40" rx="12.5" ry="12.5" style="stroke:#181818;stroke-width:0.5;" width="110" x="233.5" y="951.6094"/><text fill="#000000" font-family="sans-serif" font-size="14" lengthAdjust="spacing" textLength="100" x="238.5" y="977.3379">SyncRequested</text><rect fill="#F1F1F1" height="40" rx="12.5" ry="12.5" style="stroke:#181818;stroke-width:0.5;" width="94" x="155.5" y="1069.6094"/><text fill="#000000" font-family="sans-serif" font-size="14" lengthAdjust="spacing" textLength="84" x="160.5" y="1095.3379">SyncRunning</text><rect fill="#F1F1F1" height="40" rx="12.5" ry="12.5" style="stroke:#181818;stroke-width:0.5;" width="112" x="105.5" y="1187.6094"/><text fill="#000000" font-family="sans-serif" font-size="14" lengthAdjust="spacing" textLength="102" x="110.5" y="1213.3379">SyncSucceeded</text><rect fill="#F1F1F1" height="40" rx="12.5" ry="12.5" style="stroke:#181818;stroke-width:0.5;" width="80" x="293.5" y="1187.6094"/><text fill="#000000" font-family="sans-serif" font-size="14" lengthAdjust="spacing" textLength="70" x="298.5" y="1213.3379">SyncFailed</text><rect fill="#F1F1F1" height="40" rx="12.5" ry="12.5" style="stroke:#181818;stroke-width:0.5;" width="140" x="91.5" y="1305.6094"/><text fill="#000000" font-family="sans-serif" font-size="14" lengthAdjust="spacing" textLength="130" x="96.5" y="1331.3379">IntegrationMonitored</text><ellipse cx="161.5" cy="1417.6094" fill="none" rx="11" ry="11" style="stroke:#222222;stroke-width:1.0;"/><ellipse cx="161.5" cy="1417.6094" fill="#222222" rx="6" ry="6" style="stroke:#222222;stroke-width:1.0;"/><!--link *start* to ReportRequestDraft--><g id="link_*start*_ReportRequestDraft"><path d="M288.5,64.7994 C288.5,79.0094 288.5,100.6294 288.5,119.3494 " fill="none" id="*start*-to-ReportRequestDraft" style="stroke:#181818;stroke-width:1.0;"/><polygon fill="#181818" points="288.5,125.3494,292.5,116.3494,288.5,120.3494,284.5,116.3494,288.5,125.3494" style="stroke:#181818;stroke-width:1.0;"/></g><!--link ReportRequestDraft to ReportGenerated--><g id="link_ReportRequestDraft_ReportGenerated"><path d="M288.5,165.7694 C288.5,187.2594 288.5,215.9194 288.5,237.4294 " fill="none" id="ReportRequestDraft-to-ReportGenerated" style="stroke:#181818;stroke-width:1.0;"/><polygon fill="#181818" points="288.5,243.4294,292.5,234.4294,288.5,238.4294,284.5,234.4294,288.5,243.4294" style="stroke:#181818;stroke-width:1.0;"/><text fill="#000000" font-family="sans-serif" font-size="13" lengthAdjust="spacing" textLength="87" x="289.5" y="210.1045">generate report</text></g><!--link ReportGenerated to ReportSaved--><g id="link_ReportGenerated_ReportSaved"><path d="M288.5,283.7694 C288.5,305.2594 288.5,333.9194 288.5,355.4294 " fill="none" id="ReportGenerated-to-ReportSaved" style="stroke:#181818;stroke-width:1.0;"/><polygon fill="#181818" points="288.5,361.4294,292.5,352.4294,288.5,356.4294,284.5,352.4294,288.5,361.4294" style="stroke:#181818;stroke-width:1.0;"/><text fill="#000000" font-family="sans-serif" font-size="13" lengthAdjust="spacing" textLength="63" x="289.5" y="328.1045">save report</text></g><!--link ReportSaved to ReportExported--><g id="link_ReportSaved_ReportExported"><path d="M263.96,401.8294 C254.64,410.1594 244.57,420.5394 237.5,431.6094 C228.11,446.3294 223.5269,459.5215 219.9969,473.5215 " fill="none" id="ReportSaved-to-ReportExported" style="stroke:#181818;stroke-width:1.0;"/><polygon fill="#181818" points="218.53,479.3394,224.609,471.5905,219.7525,474.4911,216.8518,469.6345,218.53,479.3394" style="stroke:#181818;stroke-width:1.0;"/><text fill="#000000" font-family="sans-serif" font-size="13" lengthAdjust="spacing" textLength="73" x="238.5" y="446.1045">export report</text></g><!--link ReportSaved to ReportScheduled--><g id="link_ReportSaved_ReportScheduled"><path d="M301.05,401.7694 C315.13,423.2594 334.5523,452.9003 348.6423,474.4103 " fill="none" id="ReportSaved-to-ReportScheduled" style="stroke:#181818;stroke-width:1.0;"/><polygon fill="#181818" points="351.93,479.4294,350.3445,469.709,349.1902,475.2468,343.6524,474.0926,351.93,479.4294" style="stroke:#181818;stroke-width:1.0;"/><text fill="#000000" font-family="sans-serif" font-size="13" lengthAdjust="spacing" textLength="89" x="332.5" y="446.1045">schedule report</text></g><!--link ReportExported to DataImportPending--><g id="link_ReportExported_DataImportPending"><path d="M215.12,519.7594 C216.34,533.8794 219.68,553.0894 228.5,567.6094 C235.62,579.3294 241.8054,585.8822 252.4254,593.8722 " fill="none" id="ReportExported-to-DataImportPending" style="stroke:#181818;stroke-width:1.0;"/><polygon fill="#181818" points="257.22,597.4794,252.4329,588.8722,253.2245,594.4734,247.6233,595.2649,257.22,597.4794" style="stroke:#181818;stroke-width:1.0;"/><text fill="#000000" font-family="sans-serif" font-size="13" lengthAdjust="spacing" textLength="85" x="229.5" y="564.1045">optional import</text></g><!--link ReportScheduled to DataImportPending--><g id="link_ReportScheduled_DataImportPending"><path d="M351.95,519.7694 C337.87,541.2594 318.4477,570.9003 304.3577,592.4103 " fill="none" id="ReportScheduled-to-DataImportPending" style="stroke:#181818;stroke-width:1.0;"/><polygon fill="#181818" points="301.07,597.4294,309.3476,592.0926,303.8098,593.2468,302.6555,587.709,301.07,597.4294" style="stroke:#181818;stroke-width:1.0;"/><text fill="#000000" font-family="sans-serif" font-size="13" lengthAdjust="spacing" textLength="85" x="332.5" y="564.1045">optional import</text></g><!--link DataImportPending to DataImported--><g id="link_DataImportPending_DataImported"><path d="M288.5,637.7694 C288.5,659.2594 288.5,687.9194 288.5,709.4294 " fill="none" id="DataImportPending-to-DataImported" style="stroke:#181818;stroke-width:1.0;"/><polygon fill="#181818" points="288.5,715.4294,292.5,706.4294,288.5,710.4294,284.5,706.4294,288.5,715.4294" style="stroke:#181818;stroke-width:1.0;"/><text fill="#000000" font-family="sans-serif" font-size="13" lengthAdjust="spacing" textLength="93" x="289.5" y="682.1045">import complete</text></g><!--link DataImported to DataExported--><g id="link_DataImported_DataExported"><path d="M288.5,755.7694 C288.5,777.2594 288.5,805.9194 288.5,827.4294 " fill="none" id="DataImported-to-DataExported" style="stroke:#181818;stroke-width:1.0;"/><polygon fill="#181818" points="288.5,833.4294,292.5,824.4294,288.5,828.4294,284.5,824.4294,288.5,833.4294" style="stroke:#181818;stroke-width:1.0;"/><text fill="#000000" font-family="sans-serif" font-size="13" lengthAdjust="spacing" textLength="132" x="289.5" y="800.1045">export operational data</text></g><!--link DataExported to SyncRequested--><g id="link_DataExported_SyncRequested"><path d="M288.5,873.7694 C288.5,895.2594 288.5,923.9194 288.5,945.4294 " fill="none" id="DataExported-to-SyncRequested" style="stroke:#181818;stroke-width:1.0;"/><polygon fill="#181818" points="288.5,951.4294,292.5,942.4294,288.5,946.4294,284.5,942.4294,288.5,951.4294" style="stroke:#181818;stroke-width:1.0;"/><text fill="#000000" font-family="sans-serif" font-size="13" lengthAdjust="spacing" textLength="110" x="289.5" y="918.1045">cross-module sync</text></g><!--link SyncRequested to SyncRunning--><g id="link_SyncRequested_SyncRunning"><path d="M233.09,991.4594 C219.79,998.7394 207.22,1008.5494 199.5,1021.6094 C191.03,1035.9394 191.5805,1049.3301 194.9305,1063.5101 " fill="none" id="SyncRequested-to-SyncRunning" style="stroke:#181818;stroke-width:1.0;"/><polygon fill="#181818" points="196.31,1069.3494,198.1336,1059.6708,195.1604,1064.4833,190.3479,1061.5102,196.31,1069.3494" style="stroke:#181818;stroke-width:1.0;"/><text fill="#000000" font-family="sans-serif" font-size="13" lengthAdjust="spacing" textLength="148" x="200.5" y="1036.1045">integration worker running</text></g><!--link SyncRunning to SyncSucceeded--><g id="link_SyncRunning_SyncSucceeded"><path d="M179.35,1109.7094 C171.12,1117.9494 162.84,1128.2894 158.5,1139.6094 C152.63,1154.9394 153.0416,1167.8089 155.5816,1181.5789 " fill="none" id="SyncRunning-to-SyncSucceeded" style="stroke:#181818;stroke-width:1.0;"/><polygon fill="#181818" points="156.67,1187.4794,158.971,1177.9031,155.763,1182.5623,151.1038,1179.3543,156.67,1187.4794" style="stroke:#181818;stroke-width:1.0;"/><text fill="#000000" font-family="sans-serif" font-size="13" lengthAdjust="spacing" textLength="81" x="159.5" y="1154.1045">sync success</text></g><!--link SyncRunning to SyncFailed--><g id="link_SyncRunning_SyncFailed"><path d="M224.13,1109.7694 C248.4,1131.2594 283.0581,1161.9416 307.3481,1183.4516 " fill="none" id="SyncRunning-to-SyncFailed" style="stroke:#181818;stroke-width:1.0;"/><polygon fill="#181818" points="311.84,1187.4294,307.754,1178.4681,308.0968,1184.1145,302.4503,1184.4573,311.84,1187.4294" style="stroke:#181818;stroke-width:1.0;"/><text fill="#000000" font-family="sans-serif" font-size="13" lengthAdjust="spacing" textLength="66" x="277.5" y="1154.1045">sync failure</text></g><!--link SyncFailed to SyncRequested--><g id="link_SyncFailed_SyncRequested"><path d="M342.04,1187.5694 C356.35,1152.6294 381.03,1076.8294 353.5,1021.6094 C347.38,1009.3394 341.4956,1002.7655 330.4256,995.0655 " fill="none" id="SyncFailed-to-SyncRequested" style="stroke:#181818;stroke-width:1.0;"/><polygon fill="#181818" points="325.5,991.6394,330.6043,1000.0623,329.6047,994.4945,335.1725,993.4948,325.5,991.6394" style="stroke:#181818;stroke-width:1.0;"/><text fill="#000000" font-family="sans-serif" font-size="13" lengthAdjust="spacing" textLength="26" x="367.5" y="1095.1045">retry</text></g><!--link SyncSucceeded to IntegrationMonitored--><g id="link_SyncSucceeded_IntegrationMonitored"><path d="M161.5,1227.7694 C161.5,1249.2594 161.5,1277.9194 161.5,1299.4294 " fill="none" id="SyncSucceeded-to-IntegrationMonitored" style="stroke:#181818;stroke-width:1.0;"/><polygon fill="#181818" points="161.5,1305.4294,165.5,1296.4294,161.5,1300.4294,157.5,1296.4294,161.5,1305.4294" style="stroke:#181818;stroke-width:1.0;"/><text fill="#000000" font-family="sans-serif" font-size="13" lengthAdjust="spacing" textLength="121" x="162.5" y="1272.1045">monitor status/config</text></g><!--link IntegrationMonitored to *end*--><g id="link_IntegrationMonitored_*end*"><path d="M161.5,1345.6994 C161.5,1364.2694 161.5,1385.7794 161.5,1400.4794 " fill="none" id="IntegrationMonitored-to-*end*" style="stroke:#181818;stroke-width:1.0;"/><polygon fill="#181818" points="161.5,1406.4794,165.5,1397.4794,161.5,1401.4794,157.5,1397.4794,161.5,1406.4794" style="stroke:#181818;stroke-width:1.0;"/></g><!--SRC=[ZPCzJyCm48Pt_ufRGKIeAmDJ2-fGWHew8GPZNrEBn1Vi2z1_Zp_I9g4LwfASxttUitsscLfWWdTYfWQqSQZOa1Kxen6mQNaF6hrofarfDbmZR1PFwrK99Kj6U77IUXDLA60sku8rjkJOty1SieGDcpge6CRIQbXQnih9L4oyNhz1KTptZZL-TkXvxkIMnMbgH3wYnL03DTn1rSVWaYJ-4eEhb5_9uSD_IcTb81S_yPjWJE7_UAbsgBiw5-_ZgUDOC9fYMvPDJ3oZrSPMmKQflR86qumdEXQ-r7VAJ9rfZPa5HKrR8wEOo0V-j0VKOZwuC9qEX9XWqLVkhUgFB1cL8- -BXb93V135b3XwEclpVinmFU2Rt0SwS5aKO_1WB3kb47NkV1Y3Zmdlpy8FqjG3kGsZpg4OAUUsu93TNapdYjpe7g_86YQNy2R7uCFJwFoj8hirbJWBnohX0OXV]--></g></svg>