<?xml version="1.0" encoding="us-ascii" standalone="no"?><svg xmlns="http://www.w3.org/2000/svg" xmlns:xlink="http://www.w3.org/1999/xlink" contentStyleType="text/css" height="1181px" preserveAspectRatio="none" style="width:469px;height:1181px;background:#FFFFFF;" version="1.1" viewBox="0 0 469 1181" width="469px" zoomAndPan="magnify"><defs/><g><text fill="#000000" font-family="sans-serif" font-size="14" font-weight="bold" lengthAdjust="spacing" textLength="441" x="10" y="24.5332">UEORMS State Transition - 3) Workflow, Audit, and Notifications</text><ellipse cx="216.5" cy="54.6094" fill="#222222" rx="10" ry="10" style="stroke:#222222;stroke-width:1.0;"/><rect fill="#F1F1F1" height="40" rx="12.5" ry="12.5" style="stroke:#181818;stroke-width:0.5;" width="137" x="148" y="125.6094"/><text fill="#000000" font-family="sans-serif" font-size="14" lengthAdjust="spacing" textLength="127" x="153" y="151.3379">WorkflowConfigured</text><rect fill="#F1F1F1" height="40" rx="12.5" ry="12.5" style="stroke:#181818;stroke-width:0.5;" width="126" x="153.5" y="243.6094"/><text fill="#000000" font-family="sans-serif" font-size="14" lengthAdjust="spacing" textLength="116" x="158.5" y="269.3379">RequestSubmitted</text><rect fill="#F1F1F1" height="40" rx="12.5" ry="12.5" style="stroke:#181818;stroke-width:0.5;" width="118" x="93.5" y="361.6094"/><text fill="#000000" font-family="sans-serif" font-size="14" lengthAdjust="spacing" textLength="108" x="98.5" y="387.3379">PendingApproval</text><rect fill="#F1F1F1" height="40" rx="12.5" ry="12.5" style="stroke:#181818;stroke-width:0.5;" width="71" x="103" y="479.6094"/><text fill="#000000" font-family="sans-serif" font-size="14" lengthAdjust="spacing" textLength="61" x="108" y="505.3379">Approved</text><rect fill="#F1F1F1" height="40" rx="12.5" ry="12.5" style="stroke:#181818;stroke-width:0.5;" width="66" x="209.5" y="479.6094"/><text fill="#000000" font-family="sans-serif" font-size="14" lengthAdjust="spacing" textLength="56" x="214.5" y="505.3379">Rejected</text><rect fill="#F1F1F1" height="40" rx="12.5" ry="12.5" style="stroke:#181818;stroke-width:0.5;" width="90" x="145.5" y="597.6094"/><text fill="#000000" font-family="sans-serif" font-size="14" lengthAdjust="spacing" textLength="80" x="150.5" y="623.3379">AuditLogged</text><rect fill="#F1F1F1" height="40" rx="12.5" ry="12.5" style="stroke:#181818;stroke-width:0.5;" width="130" x="125.5" y="715.6094"/><text fill="#000000" font-family="sans-serif" font-size="14" lengthAdjust="spacing" textLength="120" x="130.5" y="741.3379">NotificationQueued</text><rect fill="#F1F1F1" height="40" rx="12.5" ry="12.5" style="stroke:#181818;stroke-width:0.5;" width="139" x="121" y="833.6094"/><text fill="#000000" font-family="sans-serif" font-size="14" lengthAdjust="spacing" textLength="129" x="126" y="859.3379">NotificationDelivered</text><rect fill="#F1F1F1" height="40" rx="12.5" ry="12.5" style="stroke:#181818;stroke-width:0.5;" width="113" x="125" y="1052.6094"/><text fill="#000000" font-family="sans-serif" font-size="14" lengthAdjust="spacing" textLength="103" x="130" y="1078.3379">NotificationRead</text><rect fill="#F1F1F1" height="40" rx="12.5" ry="12.5" style="stroke:#181818;stroke-width:0.5;" width="126" x="256.5" y="951.6094"/><text fill="#000000" font-family="sans-serif" font-size="14" lengthAdjust="spacing" textLength="116" x="261.5" y="977.3379">RealtimeStreamed</text><ellipse cx="181.5" cy="1164.6094" fill="none" rx="11" ry="11" style="stroke:#222222;stroke-width:1.0;"/><ellipse cx="181.5" cy="1164.6094" fill="#222222" rx="6" ry="6" style="stroke:#222222;stroke-width:1.0;"/><!--link *start* to WorkflowConfigured--><g id="link_*start*_WorkflowConfigured"><path d="M216.5,64.7994 C216.5,79.0094 216.5,100.6294 216.5,119.3494 " fill="none" id="*start*-to-WorkflowConfigured" style="stroke:#181818;stroke-width:1.0;"/><polygon fill="#181818" points="216.5,125.3494,220.5,116.3494,216.5,120.3494,212.5,116.3494,216.5,125.3494" style="stroke:#181818;stroke-width:1.0;"/></g><!--link WorkflowConfigured to RequestSubmitted--><g id="link_WorkflowConfigured_RequestSubmitted"><path d="M216.5,165.7694 C216.5,187.2594 216.5,215.9194 216.5,237.4294 " fill="none" id="WorkflowConfigured-to-RequestSubmitted" style="stroke:#181818;stroke-width:1.0;"/><polygon fill="#181818" points="216.5,243.4294,220.5,234.4294,216.5,238.4294,212.5,234.4294,216.5,243.4294" style="stroke:#181818;stroke-width:1.0;"/><text fill="#000000" font-family="sans-serif" font-size="13" lengthAdjust="spacing" textLength="86" x="217.5" y="210.1045">submit request</text></g><!--link RequestSubmitted to PendingApproval--><g id="link_RequestSubmitted_PendingApproval"><path d="M196.45,283.6494 C188.4,292.1794 179.6,302.7594 173.5,313.6094 C165.02,328.6994 160.856,341.8169 157.606,355.7169 " fill="none" id="RequestSubmitted-to-PendingApproval" style="stroke:#181818;stroke-width:1.0;"/><polygon fill="#181818" points="156.24,361.5594,162.184,353.7064,157.3784,356.6907,154.3941,351.885,156.24,361.5594" style="stroke:#181818;stroke-width:1.0;"/><text fill="#000000" font-family="sans-serif" font-size="13" lengthAdjust="spacing" textLength="80" x="174.5" y="328.1045">route approval</text></g><!--link PendingApproval to Approved--><g id="link_PendingApproval_Approved"><path d="M144.19,401.7694 C140.76,410.6594 137.21,421.4894 135.5,431.6094 C132.81,447.5694 133.231,459.9902 134.811,473.4602 " fill="none" id="PendingApproval-to-Approved" style="stroke:#181818;stroke-width:1.0;"/><polygon fill="#181818" points="135.51,479.4194,138.4343,470.0147,134.9275,474.4534,130.4887,470.9467,135.51,479.4194" style="stroke:#181818;stroke-width:1.0;"/><text fill="#000000" font-family="sans-serif" font-size="13" lengthAdjust="spacing" textLength="44" x="136.5" y="446.1045">approve</text></g><!--link PendingApproval to Rejected--><g id="link_PendingApproval_Rejected"><path d="M167.36,401.7694 C184.04,423.2594 207.2519,453.179 223.9419,474.689 " fill="none" id="PendingApproval-to-Rejected" style="stroke:#181818;stroke-width:1.0;"/><polygon fill="#181818" points="227.62,479.4294,225.263,469.8667,224.5549,475.4791,218.9425,474.7709,227.62,479.4294" style="stroke:#181818;stroke-width:1.0;"/><text fill="#000000" font-family="sans-serif" font-size="13" lengthAdjust="spacing" textLength="32" x="204.5" y="446.1045">reject</text></g><!--link Rejected to RequestSubmitted--><g id="link_Rejected_RequestSubmitted"><path d="M249.61,479.4994 C261.27,445.0894 281.1,370.9594 259.5,313.6094 C255.27,302.3794 251.3576,296.3464 243.3176,288.0964 " fill="none" id="Rejected-to-RequestSubmitted" style="stroke:#181818;stroke-width:1.0;"/><polygon fill="#181818" points="239.13,283.7994,242.5467,293.0366,242.6197,287.3802,248.2761,287.4531,239.13,283.7994" style="stroke:#181818;stroke-width:1.0;"/><text fill="#000000" font-family="sans-serif" font-size="13" lengthAdjust="spacing" textLength="50" x="270.5" y="387.1045">resubmit</text></g><!--link Approved to AuditLogged--><g id="link_Approved_AuditLogged"><path d="M133.22,519.6594 C130.4,533.5594 128.74,552.5194 135.5,567.6094 C140.78,579.3994 145.7972,585.7334 155.5772,593.6534 " fill="none" id="Approved-to-AuditLogged" style="stroke:#181818;stroke-width:1.0;"/><polygon fill="#181818" points="160.24,597.4294,155.7631,588.6568,156.3543,594.2827,150.7285,594.8739,160.24,597.4294" style="stroke:#181818;stroke-width:1.0;"/><text fill="#000000" font-family="sans-serif" font-size="13" lengthAdjust="spacing" textLength="62" x="136.5" y="564.1045">audit event</text></g><!--link Rejected to AuditLogged--><g id="link_Rejected_AuditLogged"><path d="M233.91,519.7694 C224.28,541.2594 211.1938,570.4441 201.5538,591.9541 " fill="none" id="Rejected-to-AuditLogged" style="stroke:#181818;stroke-width:1.0;"/><polygon fill="#181818" points="199.1,597.4294,206.4309,590.8523,201.1449,592.8666,199.1305,587.5806,199.1,597.4294" style="stroke:#181818;stroke-width:1.0;"/><text fill="#000000" font-family="sans-serif" font-size="13" lengthAdjust="spacing" textLength="62" x="221.5" y="564.1045">audit event</text></g><!--link AuditLogged to NotificationQueued--><g id="link_AuditLogged_NotificationQueued"><path d="M190.5,637.7694 C190.5,659.2594 190.5,687.9194 190.5,709.4294 " fill="none" id="AuditLogged-to-NotificationQueued" style="stroke:#181818;stroke-width:1.0;"/><polygon fill="#181818" points="190.5,715.4294,194.5,706.4294,190.5,710.4294,186.5,706.4294,190.5,715.4294" style="stroke:#181818;stroke-width:1.0;"/><text fill="#000000" font-family="sans-serif" font-size="13" lengthAdjust="spacing" textLength="95" x="191.5" y="682.1045">enqueue notices</text></g><!--link NotificationQueued to NotificationDelivered--><g id="link_NotificationQueued_NotificationDelivered"><path d="M190.5,755.7694 C190.5,777.2594 190.5,805.9194 190.5,827.4294 " fill="none" id="NotificationQueued-to-NotificationDelivered" style="stroke:#181818;stroke-width:1.0;"/><polygon fill="#181818" points="190.5,833.4294,194.5,824.4294,190.5,828.4294,186.5,824.4294,190.5,833.4294" style="stroke:#181818;stroke-width:1.0;"/><text fill="#000000" font-family="sans-serif" font-size="13" lengthAdjust="spacing" textLength="50" x="191.5" y="800.1045">delivered</text></g><!--link NotificationDelivered to NotificationRead--><g id="link_NotificationDelivered_NotificationRead"><path d="M187.41,873.8694 C184.44,893.3994 180.17,924.5094 178.5,951.6094 C177.41,969.3494 178.17,973.8394 178.5,991.6094 C178.89,1012.4494 179.5799,1030.3455 180.3099,1046.5455 " fill="none" id="NotificationDelivered-to-NotificationRead" style="stroke:#181818;stroke-width:1.0;"/><polygon fill="#181818" points="180.58,1052.5394,184.1708,1043.3684,180.3549,1047.5444,176.1789,1043.7286,180.58,1052.5394" style="stroke:#181818;stroke-width:1.0;"/><text fill="#000000" font-family="sans-serif" font-size="13" lengthAdjust="spacing" textLength="58" x="179.5" y="977.1045">mark read</text></g><!--link NotificationDelivered to RealtimeStreamed--><g id="link_NotificationDelivered_RealtimeStreamed"><path d="M211.8,873.7694 C235.7,895.2594 269.7886,925.9074 293.7086,947.4174 " fill="none" id="NotificationDelivered-to-RealtimeStreamed" style="stroke:#181818;stroke-width:1.0;"/><polygon fill="#181818" points="298.17,951.4294,294.1525,942.4372,294.4521,948.0861,288.8032,948.3858,298.17,951.4294" style="stroke:#181818;stroke-width:1.0;"/><text fill="#000000" font-family="sans-serif" font-size="13" lengthAdjust="spacing" textLength="78" x="264.5" y="918.1045">realtime push</text></g><!--link RealtimeStreamed to NotificationRead--><g id="link_RealtimeStreamed_NotificationRead"><path d="M292.89,991.6994 C268.46,1009.2294 237.3154,1031.5721 212.9054,1049.0821 " fill="none" id="RealtimeStreamed-to-NotificationRead" style="stroke:#181818;stroke-width:1.0;"/><polygon fill="#181818" points="208.03,1052.5794,217.6746,1050.5838,212.0928,1049.665,213.0116,1044.0833,208.03,1052.5794" style="stroke:#181818;stroke-width:1.0;"/></g><!--link NotificationRead to *end*--><g id="link_NotificationRead_*end*"><path d="M181.5,1092.6994 C181.5,1111.2694 181.5,1132.7794 181.5,1147.4794 " fill="none" id="NotificationRead-to-*end*" style="stroke:#181818;stroke-width:1.0;"/><polygon fill="#181818" points="181.5,1153.4794,185.5,1144.4794,181.5,1148.4794,177.5,1144.4794,181.5,1153.4794" style="stroke:#181818;stroke-width:1.0;"/></g><!--SRC=[VP9FJyCm3CNl_XI-WhOJDmv84t3ZRmlYW3XaZTUPjKcNE4DyUv9qJ5FRxUOy_rwUOqLiXs9nQKLiYveTLSBMm9er8RMT_A8cNpdkiYmi3U7x_NFnM68fIWZVd3AUKnVdU7M17zPjLetzcU4YQ9OPAgFnoGglk589ym2VbryudzySs5jhLbm7Hnh6KYOBsWRoKePboo9Hl4QVQtHz1qP4ihsGqMpgHTSvkrDDT3aRuj1gBy0GIAR-a3DwZYQnWhxZiZBcSWa7vSJ4ZlgPuP2GuzAQ7cnTzudfXBGZCxZlD7RSIUJniby3XMmWiqqbcjYioCC4DFJUKSCxSjck_skO9eRUWbIojSfjuhFLELj46-6MIebWkrzKBs4N_1f6m5GOZD8J5JyQ_040]--></g></svg>