<?xml version="1.0" encoding="us-ascii" standalone="no"?><svg xmlns="http://www.w3.org/2000/svg" xmlns:xlink="http://www.w3.org/1999/xlink" contentStyleType="text/css" height="462px" preserveAspectRatio="none" style="width:939px;height:462px;background:#FFFFFF;" version="1.1" viewBox="0 0 939 462" width="939px" zoomAndPan="magnify"><defs/><g><line style="stroke:#181818;stroke-width:0.5;stroke-dasharray:5.0,5.0;" x1="94" x2="94" y1="72.2188" y2="455.5703"/><line style="stroke:#181818;stroke-width:0.5;stroke-dasharray:5.0,5.0;" x1="256" x2="256" y1="72.2188" y2="455.5703"/><line style="stroke:#181818;stroke-width:0.5;stroke-dasharray:5.0,5.0;" x1="404" x2="404" y1="72.2188" y2="455.5703"/><line style="stroke:#181818;stroke-width:0.5;stroke-dasharray:5.0,5.0;" x1="598" x2="598" y1="72.2188" y2="455.5703"/><line style="stroke:#181818;stroke-width:0.5;stroke-dasharray:5.0,5.0;" x1="712.5" x2="712.5" y1="72.2188" y2="455.5703"/><line style="stroke:#181818;stroke-width:0.5;stroke-dasharray:5.0,5.0;" x1="856" x2="856" y1="72.2188" y2="455.5703"/><text fill="#000000" font-family="sans-serif" font-size="14" lengthAdjust="spacing" textLength="115" x="33.5" y="51.5332">Express API Layer</text><text fill="#000000" font-family="sans-serif" font-size="14" lengthAdjust="spacing" textLength="172" x="5" y="69.1426">(app.js route orchestration)</text><ellipse cx="94" cy="21" fill="#E2E2F0" rx="12" ry="12" style="stroke:#181818;stroke-width:0.5;"/><polygon fill="#181818" points="90,9,96,4,94,9,96,14,90,9" style="stroke:#181818;stroke-width:1.0;"/><text fill="#000000" font-family="sans-serif" font-size="14" lengthAdjust="spacing" textLength="120" x="193" y="69.1426">Notification Service</text><ellipse cx="256" cy="38.6094" fill="#E2E2F0" rx="12" ry="12" style="stroke:#181818;stroke-width:0.5;"/><polygon fill="#181818" points="252,26.6094,258,21.6094,256,26.6094,258,31.6094,252,26.6094" style="stroke:#181818;stroke-width:1.0;"/><text fill="#000000" font-family="sans-serif" font-size="14" lengthAdjust="spacing" textLength="144" x="329" y="69.1426">Email Service + Queue</text><ellipse cx="404" cy="38.6094" fill="#E2E2F0" rx="12" ry="12" style="stroke:#181818;stroke-width:0.5;"/><polygon fill="#181818" points="400,26.6094,406,21.6094,404,26.6094,406,31.6094,400,26.6094" style="stroke:#181818;stroke-width:1.0;"/><text fill="#000000" font-family="sans-serif" font-size="14" lengthAdjust="spacing" textLength="88" x="551" y="69.1426">Billing Service</text><ellipse cx="598" cy="38.6094" fill="#E2E2F0" rx="12" ry="12" style="stroke:#181818;stroke-width:0.5;"/><polygon fill="#181818" points="594,26.6094,600,21.6094,598,26.6094,600,31.6094,594,26.6094" style="stroke:#181818;stroke-width:1.0;"/><text fill="#000000" font-family="sans-serif" font-size="14" lengthAdjust="spacing" textLength="109" x="655" y="69.1426">Stripe / Razorpay</text><ellipse cx="712.5" cy="38.6094" fill="#E2E2F0" rx="12" ry="12" style="stroke:#181818;stroke-width:0.5;"/><line style="stroke:#181818;stroke-width:0.5;" x1="700.5" x2="724.5" y1="52.6094" y2="52.6094"/><text fill="#000000" font-family="sans-serif" font-size="14" lengthAdjust="spacing" textLength="146" x="780" y="69.1426">PostgreSQL via Prisma</text><path d="M838,18.6094 C838,8.6094 856,8.6094 856,8.6094 C856,8.6094 874,8.6094 874,18.6094 L874,44.6094 C874,54.6094 856,54.6094 856,54.6094 C856,54.6094 838,54.6094 838,44.6094 L838,18.6094 " fill="#E2E2F0" style="stroke:#181818;stroke-width:1.5;"/><path d="M838,18.6094 C838,28.6094 856,28.6094 856,28.6094 C856,28.6094 874,28.6094 874,18.6094 " fill="none" style="stroke:#181818;stroke-width:1.5;"/><rect fill="#EEEEEE" height="3" style="stroke:#EEEEEE;stroke-width:1.0;" width="927" x="5" y="101.3945"/><line style="stroke:#000000;stroke-width:1.0;" x1="5" x2="932" y1="101.3945" y2="101.3945"/><line style="stroke:#000000;stroke-width:1.0;" x1="5" x2="932" y1="104.3945" y2="104.3945"/><rect fill="#EEEEEE" height="24.3516" style="stroke:#000000;stroke-width:2.0;" width="319" x="309" y="90.2188"/><text fill="#000000" font-family="sans-serif" font-size="13" font-weight="bold" lengthAdjust="spacing" textLength="301" x="315" y="107.7139">13) Subscription Webhooks and External Billing</text><polygon fill="#181818" points="105,142.9219,95,146.9219,105,150.9219,101,146.9219" style="stroke:#181818;stroke-width:1.0;"/><line style="stroke:#181818;stroke-width:1.0;" x1="99" x2="711.5" y1="146.9219" y2="146.9219"/><text fill="#000000" font-family="sans-serif" font-size="13" font-weight="bold" lengthAdjust="spacing" textLength="7" x="111" y="142.0654">1</text><text fill="#000000" font-family="sans-serif" font-size="13" lengthAdjust="spacing" textLength="248" x="122" y="142.0654">POST /api/billing/webhooks/stripe|razorpay</text><polygon fill="#181818" points="586,173.2734,596,177.2734,586,181.2734,590,177.2734" style="stroke:#181818;stroke-width:1.0;"/><line style="stroke:#181818;stroke-width:1.0;" x1="94" x2="592" y1="177.2734" y2="177.2734"/><text fill="#000000" font-family="sans-serif" font-size="13" font-weight="bold" lengthAdjust="spacing" textLength="7" x="101" y="172.417">2</text><text fill="#000000" font-family="sans-serif" font-size="13" lengthAdjust="spacing" textLength="263" x="112" y="172.417">validate signature/event + idempotency check</text><polygon fill="#181818" points="844,203.625,854,207.625,844,211.625,848,207.625" style="stroke:#181818;stroke-width:1.0;"/><line style="stroke:#181818;stroke-width:1.0;" x1="598" x2="850" y1="207.625" y2="207.625"/><text fill="#000000" font-family="sans-serif" font-size="13" font-weight="bold" lengthAdjust="spacing" textLength="7" x="605" y="202.7686">3</text><text fill="#000000" font-family="sans-serif" font-size="13" lengthAdjust="spacing" textLength="174" x="616" y="202.7686">BillingEvent find/create/update</text><path d="M78,219.625 L139,219.625 L139,227.9766 L129,237.9766 L78,237.9766 L78,219.625 " fill="#EEEEEE" style="stroke:#000000;stroke-width:1.5;"/><rect fill="none" height="181.5938" style="stroke:#000000;stroke-width:1.5;" width="794" x="78" y="219.625"/><text fill="#000000" font-family="sans-serif" font-size="13" font-weight="bold" lengthAdjust="spacing" textLength="16" x="93" y="234.1201">alt</text><text fill="#000000" font-family="sans-serif" font-size="11" font-weight="bold" lengthAdjust="spacing" textLength="123" x="154" y="233.0439">[event not processed]</text><line style="stroke:#000000;stroke-width:1.0;stroke-dasharray:2.0,2.0;" x1="78" x2="872" y1="350.0313" y2="350.0313"/><text fill="#000000" font-family="sans-serif" font-size="11" font-weight="bold" lengthAdjust="spacing" textLength="111" x="83" y="363.4502">[already processed]</text><polygon fill="#181818" points="844,266.3281,854,270.3281,844,274.3281,848,270.3281" style="stroke:#181818;stroke-width:1.0;"/><line style="stroke:#181818;stroke-width:1.0;" x1="598" x2="850" y1="270.3281" y2="270.3281"/><text fill="#000000" font-family="sans-serif" font-size="13" font-weight="bold" lengthAdjust="spacing" textLength="7" x="605" y="265.4717">4</text><text fill="#000000" font-family="sans-serif" font-size="13" lengthAdjust="spacing" textLength="200" x="616" y="265.4717">update subscription/payment state</text><polygon fill="#181818" points="267,296.6797,257,300.6797,267,304.6797,263,300.6797" style="stroke:#181818;stroke-width:1.0;"/><line style="stroke:#181818;stroke-width:1.0;" x1="261" x2="597" y1="300.6797" y2="300.6797"/><text fill="#000000" font-family="sans-serif" font-size="13" font-weight="bold" lengthAdjust="spacing" textLength="7" x="273" y="295.8232">5</text><text fill="#000000" font-family="sans-serif" font-size="13" lengthAdjust="spacing" textLength="173" x="284" y="295.8232">subscription/billing notification</text><polygon fill="#181818" points="415,327.0313,405,331.0313,415,335.0313,411,331.0313" style="stroke:#181818;stroke-width:1.0;"/><line style="stroke:#181818;stroke-width:1.0;" x1="409" x2="597" y1="331.0313" y2="331.0313"/><text fill="#000000" font-family="sans-serif" font-size="13" font-weight="bold" lengthAdjust="spacing" textLength="7" x="421" y="326.1748">6</text><text fill="#000000" font-family="sans-serif" font-size="13" lengthAdjust="spacing" textLength="159" x="432" y="326.1748">invoice email / failure notice</text><polygon fill="#181818" points="105,389.2188,95,393.2188,105,397.2188,101,393.2188" style="stroke:#181818;stroke-width:1.0;"/><line style="stroke:#181818;stroke-width:1.0;stroke-dasharray:2.0,2.0;" x1="99" x2="597" y1="393.2188" y2="393.2188"/><text fill="#000000" font-family="sans-serif" font-size="13" font-weight="bold" lengthAdjust="spacing" textLength="7" x="111" y="388.3623">7</text><text fill="#000000" font-family="sans-serif" font-size="13" lengthAdjust="spacing" textLength="89" x="122" y="388.3623">idempotent ack</text><polygon fill="#181818" points="700.5,433.5703,710.5,437.5703,700.5,441.5703,704.5,437.5703" style="stroke:#181818;stroke-width:1.0;"/><line style="stroke:#181818;stroke-width:1.0;stroke-dasharray:2.0,2.0;" x1="94" x2="706.5" y1="437.5703" y2="437.5703"/><text fill="#000000" font-family="sans-serif" font-size="13" font-weight="bold" lengthAdjust="spacing" textLength="7" x="101" y="432.7139">8</text><text fill="#000000" font-family="sans-serif" font-size="13" lengthAdjust="spacing" textLength="137" x="112" y="432.7139">webhook acknowledged</text><!--SRC=[RLB1Rjim3BthAxYSLWohCEmM80CMD1W655iw3zXb5zfc7BMoA4Yq4nVx-CcodJR3JeRCznx9z_Z61snQ125-1WaTAUo4NTUM5DJHr0G7PYdvh5J5JW9RMEtEFb2Cy7d_5UvneF3RlKNlRnyZ1Ew4W4Drf2W1nR2xMG5cx8l0DnPpC5KkGq6XDnLbL2uChpgrQEo2W7Vmq54t8NFb1RWrrXhNN8dD_nGvCJB0gf1WF8667_ZCmUEGKLzGw8I3gb6mn4YmsdEK9b3nS0-zGTW74rlCsBkjKfiDVFXu0qLNnYhfvHL-KNbaVeg0heRTMIWuj4j_s6pKt0JUVygchM7_lVW96htHvOJIfrb3nppcdp0FgKP2uYrgQ-ZHcZGjGJIDG-a2QUhJaicVb5VhMSXL0wG8gYUrq9B2tJQHv_Sk4mx6rReAbCHqvqTDXLPWKdCiu0DNAMcg5S2_IXC1uYiZT9gt7RbHHgqhpXHjubqHvkt7PfUBkEPD9x06uteUZu3oMyCXVTBgcLcH8fkYGvjsgOV_Zttn_cAI02Q7oDMJnmcmvBI6EOuHuVXagMwIcleB]--></g></svg>