<?xml version="1.0" encoding="us-ascii" standalone="no"?><svg xmlns="http://www.w3.org/2000/svg" xmlns:xlink="http://www.w3.org/1999/xlink" contentStyleType="text/css" height="698px" preserveAspectRatio="none" style="width:2689px;height:698px;background:#FFFFFF;" version="1.1" viewBox="0 0 2689 698" width="2689px" zoomAndPan="magnify"><defs/><g><line style="stroke:#181818;stroke-width:0.5;stroke-dasharray:5.0,5.0;" x1="63.5" x2="63.5" y1="82.6094" y2="691.2891"/><line style="stroke:#181818;stroke-width:0.5;stroke-dasharray:5.0,5.0;" x1="195" x2="195" y1="82.6094" y2="691.2891"/><line style="stroke:#181818;stroke-width:0.5;stroke-dasharray:5.0,5.0;" x1="355" x2="355" y1="82.6094" y2="691.2891"/><line style="stroke:#181818;stroke-width:0.5;stroke-dasharray:5.0,5.0;" x1="800" x2="800" y1="82.6094" y2="691.2891"/><line style="stroke:#181818;stroke-width:0.5;stroke-dasharray:5.0,5.0;" x1="1016" x2="1016" y1="82.6094" y2="691.2891"/><line style="stroke:#181818;stroke-width:0.5;stroke-dasharray:5.0,5.0;" x1="1206" x2="1206" y1="82.6094" y2="691.2891"/><line style="stroke:#181818;stroke-width:0.5;stroke-dasharray:5.0,5.0;" x1="1341" x2="1341" y1="82.6094" y2="691.2891"/><line style="stroke:#181818;stroke-width:0.5;stroke-dasharray:5.0,5.0;" x1="1513" x2="1513" y1="82.6094" y2="691.2891"/><line style="stroke:#181818;stroke-width:0.5;stroke-dasharray:5.0,5.0;" x1="1710" x2="1710" y1="82.6094" y2="691.2891"/><line style="stroke:#181818;stroke-width:0.5;stroke-dasharray:5.0,5.0;" x1="1926" x2="1926" y1="82.6094" y2="691.2891"/><line style="stroke:#181818;stroke-width:0.5;stroke-dasharray:5.0,5.0;" x1="2104" x2="2104" y1="82.6094" y2="691.2891"/><line style="stroke:#181818;stroke-width:0.5;stroke-dasharray:5.0,5.0;" x1="2210" x2="2210" y1="82.6094" y2="691.2891"/><line style="stroke:#181818;stroke-width:0.5;stroke-dasharray:5.0,5.0;" x1="2606" x2="2606" y1="82.6094" y2="691.2891"/><text fill="#000000" font-family="sans-serif" font-size="14" lengthAdjust="spacing" textLength="111" x="5" y="79.5332">Finance Manager</text><ellipse cx="63.5" cy="13.5" fill="#E2E2F0" rx="8" ry="8" style="stroke:#181818;stroke-width:0.5;"/><path d="M63.5,21.5 L63.5,48.5 M50.5,29.5 L76.5,29.5 M63.5,48.5 L50.5,63.5 M63.5,48.5 L76.5,63.5 " fill="none" style="stroke:#181818;stroke-width:0.5;"/><text fill="#000000" font-family="sans-serif" font-size="14" lengthAdjust="spacing" textLength="120" x="132" y="79.5332">Purchase Manager</text><ellipse cx="195" cy="13.5" fill="#E2E2F0" rx="8" ry="8" style="stroke:#181818;stroke-width:0.5;"/><path d="M195,21.5 L195,48.5 M182,29.5 L208,29.5 M195,48.5 L182,63.5 M195,48.5 L208,63.5 " fill="none" style="stroke:#181818;stroke-width:0.5;"/><text fill="#000000" font-family="sans-serif" font-size="14" lengthAdjust="spacing" textLength="114" x="295" y="79.5332">Web/Mobile Client</text><path d="M334.5,37 L334.5,61 M334.5,49 L351.5,49 " fill="none" style="stroke:#181818;stroke-width:0.5;"/><ellipse cx="363.5" cy="49" fill="#E2E2F0" rx="12" ry="12" style="stroke:#181818;stroke-width:0.5;"/><text fill="#000000" font-family="sans-serif" font-size="14" lengthAdjust="spacing" textLength="115" x="739.5" y="61.9238">Express API Layer</text><text fill="#000000" font-family="sans-serif" font-size="14" lengthAdjust="spacing" textLength="172" x="711" y="79.5332">(app.js route orchestration)</text><ellipse cx="800" cy="31.3906" fill="#E2E2F0" rx="12" ry="12" style="stroke:#181818;stroke-width:0.5;"/><polygon fill="#181818" points="796,19.3906,802,14.3906,800,19.3906,802,24.3906,796,19.3906" style="stroke:#181818;stroke-width:1.0;"/><text fill="#000000" font-family="sans-serif" font-size="14" lengthAdjust="spacing" textLength="228" x="899" y="79.5332">Workflow Engine + Approval Service</text><ellipse cx="1016" cy="49" fill="#E2E2F0" rx="12" ry="12" style="stroke:#181818;stroke-width:0.5;"/><polygon fill="#181818" points="1012,37,1018,32,1016,37,1018,42,1012,37" style="stroke:#181818;stroke-width:1.0;"/><text fill="#000000" font-family="sans-serif" font-size="14" lengthAdjust="spacing" textLength="120" x="1143" y="79.5332">Notification Service</text><ellipse cx="1206" cy="49" fill="#E2E2F0" rx="12" ry="12" style="stroke:#181818;stroke-width:0.5;"/><polygon fill="#181818" points="1202,37,1208,32,1206,37,1208,42,1202,37" style="stroke:#181818;stroke-width:1.0;"/><text fill="#000000" font-family="sans-serif" font-size="14" lengthAdjust="spacing" textLength="118" x="1279" y="79.5332">Integration Service</text><ellipse cx="1341" cy="49" fill="#E2E2F0" rx="12" ry="12" style="stroke:#181818;stroke-width:0.5;"/><polygon fill="#181818" points="1337,37,1343,32,1341,37,1343,42,1337,37" style="stroke:#181818;stroke-width:1.0;"/><text fill="#000000" font-family="sans-serif" font-size="14" lengthAdjust="spacing" textLength="167" x="1426.5" y="79.5332">Integration Event Manager</text><ellipse cx="1513" cy="49" fill="#E2E2F0" rx="12" ry="12" style="stroke:#181818;stroke-width:0.5;"/><polygon fill="#181818" points="1509,37,1515,32,1513,37,1515,42,1509,37" style="stroke:#181818;stroke-width:1.0;"/><text fill="#000000" font-family="sans-serif" font-size="14" lengthAdjust="spacing" textLength="195" x="1609.5" y="79.5332">Finance + Accounting Services</text><ellipse cx="1710" cy="49" fill="#E2E2F0" rx="12" ry="12" style="stroke:#181818;stroke-width:0.5;"/><polygon fill="#181818" points="1706,37,1712,32,1710,37,1712,42,1706,37" style="stroke:#181818;stroke-width:1.0;"/><text fill="#000000" font-family="sans-serif" font-size="14" lengthAdjust="spacing" textLength="205" x="1820.5" y="79.5332">Inventory + Warehouse Services</text><ellipse cx="1926" cy="49" fill="#E2E2F0" rx="12" ry="12" style="stroke:#181818;stroke-width:0.5;"/><polygon fill="#181818" points="1922,37,1928,32,1926,37,1928,42,1922,37" style="stroke:#181818;stroke-width:1.0;"/><text fill="#000000" font-family="sans-serif" font-size="14" lengthAdjust="spacing" textLength="111" x="2045.5" y="79.5332">Purchase Service</text><ellipse cx="2104" cy="49" fill="#E2E2F0" rx="12" ry="12" style="stroke:#181818;stroke-width:0.5;"/><polygon fill="#181818" points="2100,37,2106,32,2104,37,2106,42,2100,37" style="stroke:#181818;stroke-width:1.0;"/><text fill="#000000" font-family="sans-serif" font-size="14" lengthAdjust="spacing" textLength="69" x="2172.5" y="79.5332">AP Service</text><ellipse cx="2210" cy="49" fill="#E2E2F0" rx="12" ry="12" style="stroke:#181818;stroke-width:0.5;"/><polygon fill="#181818" points="2206,37,2212,32,2210,37,2212,42,2206,37" style="stroke:#181818;stroke-width:1.0;"/><text fill="#000000" font-family="sans-serif" font-size="14" lengthAdjust="spacing" textLength="146" x="2530" y="79.5332">PostgreSQL via Prisma</text><path d="M2588,29 C2588,19 2606,19 2606,19 C2606,19 2624,19 2624,29 L2624,55 C2624,65 2606,65 2606,65 C2606,65 2588,65 2588,55 L2588,29 " fill="#E2E2F0" style="stroke:#181818;stroke-width:1.5;"/><path d="M2588,29 C2588,39 2606,39 2606,39 C2606,39 2624,39 2624,29 " fill="none" style="stroke:#181818;stroke-width:1.5;"/><rect fill="#EEEEEE" height="3" style="stroke:#EEEEEE;stroke-width:1.0;" width="2677" x="5" y="111.7852"/><line style="stroke:#000000;stroke-width:1.0;" x1="5" x2="2682" y1="111.7852" y2="111.7852"/><line style="stroke:#000000;stroke-width:1.0;" x1="5" x2="2682" y1="114.7852" y2="114.7852"/><rect fill="#EEEEEE" height="24.3516" style="stroke:#000000;stroke-width:2.0;" width="237" x="1225" y="100.6094"/><text fill="#000000" font-family="sans-serif" font-size="13" font-weight="bold" lengthAdjust="spacing" textLength="219" x="1231" y="118.1045">9) Purchase and Accounts Payable</text><polygon fill="#181818" points="343,153.3125,353,157.3125,343,161.3125,347,157.3125" style="stroke:#181818;stroke-width:1.0;"/><line style="stroke:#181818;stroke-width:1.0;" x1="195" x2="349" y1="157.3125" y2="157.3125"/><text fill="#000000" font-family="sans-serif" font-size="13" font-weight="bold" lengthAdjust="spacing" textLength="7" x="202" y="152.4561">1</text><text fill="#000000" font-family="sans-serif" font-size="13" lengthAdjust="spacing" textLength="125" x="213" y="152.4561">Procurement lifecycle</text><polygon fill="#181818" points="788,183.6641,798,187.6641,788,191.6641,792,187.6641" style="stroke:#181818;stroke-width:1.0;"/><line style="stroke:#181818;stroke-width:1.0;" x1="355" x2="794" y1="187.6641" y2="187.6641"/><text fill="#000000" font-family="sans-serif" font-size="13" font-weight="bold" lengthAdjust="spacing" textLength="7" x="362" y="182.8076">2</text><text fill="#000000" font-family="sans-serif" font-size="13" lengthAdjust="spacing" textLength="410" x="373" y="182.8076">/api/purchase/vendors requisitions orders receipts evaluations analytics</text><polygon fill="#181818" points="2092,214.0156,2102,218.0156,2092,222.0156,2096,218.0156" style="stroke:#181818;stroke-width:1.0;"/><line style="stroke:#181818;stroke-width:1.0;" x1="800" x2="2098" y1="218.0156" y2="218.0156"/><text fill="#000000" font-family="sans-serif" font-size="13" font-weight="bold" lengthAdjust="spacing" textLength="7" x="807" y="213.1592">3</text><text fill="#000000" font-family="sans-serif" font-size="13" lengthAdjust="spacing" textLength="201" x="818" y="213.1592">requisition-&gt;PO-&gt;receipt workflows</text><polygon fill="#181818" points="2594,244.3672,2604,248.3672,2594,252.3672,2598,248.3672" style="stroke:#181818;stroke-width:1.0;"/><line style="stroke:#181818;stroke-width:1.0;" x1="2104" x2="2600" y1="248.3672" y2="248.3672"/><text fill="#000000" font-family="sans-serif" font-size="13" font-weight="bold" lengthAdjust="spacing" textLength="7" x="2111" y="243.5107">4</text><text fill="#000000" font-family="sans-serif" font-size="13" lengthAdjust="spacing" textLength="467" x="2122" y="243.5107">Vendor, PurchaseRequisition, PurchaseOrder, GoodsReceipt, SupplierEvaluation</text><polygon fill="#181818" points="1027,274.7188,1017,278.7188,1027,282.7188,1023,278.7188" style="stroke:#181818;stroke-width:1.0;"/><line style="stroke:#181818;stroke-width:1.0;" x1="1021" x2="2103" y1="278.7188" y2="278.7188"/><text fill="#000000" font-family="sans-serif" font-size="13" font-weight="bold" lengthAdjust="spacing" textLength="7" x="1033" y="273.8623">5</text><text fill="#000000" font-family="sans-serif" font-size="13" lengthAdjust="spacing" textLength="140" x="1044" y="273.8623">requisition/PO approvals</text><polygon fill="#181818" points="1937,305.0703,1927,309.0703,1937,313.0703,1933,309.0703" style="stroke:#181818;stroke-width:1.0;"/><line style="stroke:#181818;stroke-width:1.0;" x1="1931" x2="2103" y1="309.0703" y2="309.0703"/><text fill="#000000" font-family="sans-serif" font-size="13" font-weight="bold" lengthAdjust="spacing" textLength="7" x="1943" y="304.2139">6</text><text fill="#000000" font-family="sans-serif" font-size="13" lengthAdjust="spacing" textLength="143" x="1954" y="304.2139">stock updates on receipt</text><polygon fill="#181818" points="1352,335.4219,1342,339.4219,1352,343.4219,1348,339.4219" style="stroke:#181818;stroke-width:1.0;"/><line style="stroke:#181818;stroke-width:1.0;" x1="1346" x2="2103" y1="339.4219" y2="339.4219"/><text fill="#000000" font-family="sans-serif" font-size="13" font-weight="bold" lengthAdjust="spacing" textLength="7" x="1358" y="334.5654">7</text><text fill="#000000" font-family="sans-serif" font-size="13" lengthAdjust="spacing" textLength="175" x="1369" y="334.5654">AP/GL sync on receipt/invoice</text><polygon fill="#181818" points="1501,365.7734,1511,369.7734,1501,373.7734,1505,369.7734" style="stroke:#181818;stroke-width:1.0;"/><line style="stroke:#181818;stroke-width:1.0;" x1="1341" x2="1507" y1="369.7734" y2="369.7734"/><text fill="#000000" font-family="sans-serif" font-size="13" font-weight="bold" lengthAdjust="spacing" textLength="7" x="1348" y="364.917">8</text><text fill="#000000" font-family="sans-serif" font-size="13" lengthAdjust="spacing" textLength="137" x="1359" y="364.917">purchase:order:received</text><polygon fill="#181818" points="2198,396.125,2208,400.125,2198,404.125,2202,400.125" style="stroke:#181818;stroke-width:1.0;"/><line style="stroke:#181818;stroke-width:1.0;" x1="1513" x2="2204" y1="400.125" y2="400.125"/><text fill="#000000" font-family="sans-serif" font-size="13" font-weight="bold" lengthAdjust="spacing" textLength="7" x="1520" y="395.2686">9</text><text fill="#000000" font-family="sans-serif" font-size="13" lengthAdjust="spacing" textLength="90" x="1531" y="395.2686">AP sync trigger</text><polygon fill="#181818" points="366,426.4766,356,430.4766,366,434.4766,362,430.4766" style="stroke:#181818;stroke-width:1.0;"/><line style="stroke:#181818;stroke-width:1.0;stroke-dasharray:2.0,2.0;" x1="360" x2="799" y1="430.4766" y2="430.4766"/><text fill="#000000" font-family="sans-serif" font-size="13" font-weight="bold" lengthAdjust="spacing" textLength="14" x="372" y="425.6201">10</text><text fill="#000000" font-family="sans-serif" font-size="13" lengthAdjust="spacing" textLength="89" x="390" y="425.6201">purchase result</text><polygon fill="#181818" points="343,456.8281,353,460.8281,343,464.8281,347,460.8281" style="stroke:#181818;stroke-width:1.0;"/><line style="stroke:#181818;stroke-width:1.0;" x1="63.5" x2="349" y1="460.8281" y2="460.8281"/><text fill="#000000" font-family="sans-serif" font-size="13" font-weight="bold" lengthAdjust="spacing" textLength="14" x="70.5" y="455.9717">11</text><text fill="#000000" font-family="sans-serif" font-size="13" lengthAdjust="spacing" textLength="82" x="88.5" y="455.9717">AP operations</text><polygon fill="#181818" points="788,487.1797,798,491.1797,788,495.1797,792,491.1797" style="stroke:#181818;stroke-width:1.0;"/><line style="stroke:#181818;stroke-width:1.0;" x1="355" x2="794" y1="491.1797" y2="491.1797"/><text fill="#000000" font-family="sans-serif" font-size="13" font-weight="bold" lengthAdjust="spacing" textLength="14" x="362" y="486.3232">12</text><text fill="#000000" font-family="sans-serif" font-size="13" lengthAdjust="spacing" textLength="265" x="380" y="486.3232">/api/ap/bills payments aging vendor statement</text><polygon fill="#181818" points="2198,517.5313,2208,521.5313,2198,525.5313,2202,521.5313" style="stroke:#181818;stroke-width:1.0;"/><line style="stroke:#181818;stroke-width:1.0;" x1="800" x2="2204" y1="521.5313" y2="521.5313"/><text fill="#000000" font-family="sans-serif" font-size="13" font-weight="bold" lengthAdjust="spacing" textLength="14" x="807" y="516.6748">13</text><text fill="#000000" font-family="sans-serif" font-size="13" lengthAdjust="spacing" textLength="252" x="825" y="516.6748">bill lifecycle + three-way match + payments</text><polygon fill="#181818" points="2594,547.8828,2604,551.8828,2594,555.8828,2598,551.8828" style="stroke:#181818;stroke-width:1.0;"/><line style="stroke:#181818;stroke-width:1.0;" x1="2210" x2="2600" y1="551.8828" y2="551.8828"/><text fill="#000000" font-family="sans-serif" font-size="13" font-weight="bold" lengthAdjust="spacing" textLength="14" x="2217" y="547.0264">14</text><text fill="#000000" font-family="sans-serif" font-size="13" lengthAdjust="spacing" textLength="96" x="2235" y="547.0264">APBill, Payment</text><polygon fill="#181818" points="1027,578.2344,1017,582.2344,1027,586.2344,1023,582.2344" style="stroke:#181818;stroke-width:1.0;"/><line style="stroke:#181818;stroke-width:1.0;" x1="1021" x2="2209" y1="582.2344" y2="582.2344"/><text fill="#000000" font-family="sans-serif" font-size="13" font-weight="bold" lengthAdjust="spacing" textLength="14" x="1033" y="577.3779">15</text><text fill="#000000" font-family="sans-serif" font-size="13" lengthAdjust="spacing" textLength="102" x="1051" y="577.3779">bill approval chain</text><polygon fill="#181818" points="1721,608.5859,1711,612.5859,1721,616.5859,1717,612.5859" style="stroke:#181818;stroke-width:1.0;"/><line style="stroke:#181818;stroke-width:1.0;" x1="1715" x2="2209" y1="612.5859" y2="612.5859"/><text fill="#000000" font-family="sans-serif" font-size="13" font-weight="bold" lengthAdjust="spacing" textLength="14" x="1727" y="607.7295">16</text><text fill="#000000" font-family="sans-serif" font-size="13" lengthAdjust="spacing" textLength="98" x="1745" y="607.7295">payable postings</text><polygon fill="#181818" points="1217,638.9375,1207,642.9375,1217,646.9375,1213,642.9375" style="stroke:#181818;stroke-width:1.0;"/><line style="stroke:#181818;stroke-width:1.0;" x1="1211" x2="2209" y1="642.9375" y2="642.9375"/><text fill="#000000" font-family="sans-serif" font-size="13" font-weight="bold" lengthAdjust="spacing" textLength="14" x="1223" y="638.0811">17</text><text fill="#000000" font-family="sans-serif" font-size="13" lengthAdjust="spacing" textLength="130" x="1241" y="638.0811">due/overdue reminders</text><polygon fill="#181818" points="366,669.2891,356,673.2891,366,677.2891,362,673.2891" style="stroke:#181818;stroke-width:1.0;"/><line style="stroke:#181818;stroke-width:1.0;stroke-dasharray:2.0,2.0;" x1="360" x2="799" y1="673.2891" y2="673.2891"/><text fill="#000000" font-family="sans-serif" font-size="13" font-weight="bold" lengthAdjust="spacing" textLength="14" x="372" y="668.4326">18</text><text fill="#000000" font-family="sans-serif" font-size="13" lengthAdjust="spacing" textLength="54" x="390" y="668.4326">AP result</text><!--SRC=[RLJ1Sjem4BthAxQScWdKvp93Pg21J6P2uoOpvTABa1UZnaYg99EuNz-LRDcuoGcpUkzfzVP9dupbvOc3H_qNlAsHyTfhLP_sQDbH5WW7hVrUlp76XTSM9Xkfk188MwvuYNO2t07LjcazhwquSZS6K77BzhfM1RSDJ7QupxPwBok4RvL4vIEe_MH2Aszr1PFrcx7e72ppUtZW3TfVwZCtvijl1rRN7a7JJkYyvLvgTHKr23i8xBHzELJw5TQgb0hX6fR6M7tc5JoZFKk1aRFR39Jlsik3555n18eBpG2yLnvB-nxNrZ_6hSzqlf4liRAgtO1FzbAlGf1XNgeoRU2IsG5nkKLGqMJiDUounQEkoVuHfuSCh7vEbzsduW1RvYF0CcS5ztmVY9DSErzQVFxn06V98RVIdNY4tQuOMopWwrMl25mLwKYq3s_udgQ_MB0G3PZTTDE7ESbeKLiyXN-LFA1eH8MiMoPWYCCSCcvaPZhnZ4vNQ4kvm3-rT3AuxIWU1SQQG6beKwJ1rxnTenbKZPV2iI17gdsVyqkHsKt-EBlf5E2rovDZFPgOjolY_8mDJ7kPfq5ZA3w6XgPmftNXdbhDAJpNnj3PxBhlRgI-sumxol97u5sAntqCCPY3yrgyG6reLaX6g6J2VuGGJK8ly-pk0LoZn0Kqa-giQUoiWn4XfPKeoVbvD7aUEMSiM0-9WuhQhR2tigJKjtPVZZifqRwkhZnZuJ4P1O8ajC7s3hcFWy1DHgz9vS3m9WI71bo6YzFcWkmW7q8zJJks5XX3mkZo-AD5dBto1axSYoDLaXpn-b4lynKHfo73dMG_fwYOfWDqBAcwvNIjvq4oHj_GvQ4MatJxlj1wKMEcpsZfbomvIHL2_DusOYN3_W40]--></g></svg>