<?xml version="1.0" encoding="us-ascii" standalone="no"?><svg xmlns="http://www.w3.org/2000/svg" xmlns:xlink="http://www.w3.org/1999/xlink" contentStyleType="text/css" height="546px" preserveAspectRatio="none" style="width:1921px;height:546px;background:#FFFFFF;" version="1.1" viewBox="0 0 1921 546" width="1921px" zoomAndPan="magnify"><defs/><g><line style="stroke:#181818;stroke-width:0.5;stroke-dasharray:5.0,5.0;" x1="39" x2="39" y1="82.6094" y2="539.5313"/><line style="stroke:#181818;stroke-width:0.5;stroke-dasharray:5.0,5.0;" x1="138" x2="138" y1="82.6094" y2="539.5313"/><line style="stroke:#181818;stroke-width:0.5;stroke-dasharray:5.0,5.0;" x1="278" x2="278" y1="82.6094" y2="539.5313"/><line style="stroke:#181818;stroke-width:0.5;stroke-dasharray:5.0,5.0;" x1="530" x2="530" y1="82.6094" y2="539.5313"/><line style="stroke:#181818;stroke-width:0.5;stroke-dasharray:5.0,5.0;" x1="746" x2="746" y1="82.6094" y2="539.5313"/><line style="stroke:#181818;stroke-width:0.5;stroke-dasharray:5.0,5.0;" x1="936" x2="936" y1="82.6094" y2="539.5313"/><line style="stroke:#181818;stroke-width:0.5;stroke-dasharray:5.0,5.0;" x1="1092.5" x2="1092.5" y1="82.6094" y2="539.5313"/><line style="stroke:#181818;stroke-width:0.5;stroke-dasharray:5.0,5.0;" x1="1247.5" x2="1247.5" y1="82.6094" y2="539.5313"/><line style="stroke:#181818;stroke-width:0.5;stroke-dasharray:5.0,5.0;" x1="1838.5" x2="1838.5" y1="82.6094" y2="539.5313"/><text fill="#000000" font-family="sans-serif" font-size="14" lengthAdjust="spacing" textLength="62" x="5" y="79.5332">Employee</text><ellipse cx="39" cy="13.5" fill="#E2E2F0" rx="8" ry="8" style="stroke:#181818;stroke-width:0.5;"/><path d="M39,21.5 L39,48.5 M26,29.5 L52,29.5 M39,48.5 L26,63.5 M39,48.5 L52,63.5 " fill="none" style="stroke:#181818;stroke-width:0.5;"/><text fill="#000000" font-family="sans-serif" font-size="14" lengthAdjust="spacing" textLength="104" x="83" y="79.5332">Project Manager</text><ellipse cx="138" cy="13.5" fill="#E2E2F0" rx="8" ry="8" style="stroke:#181818;stroke-width:0.5;"/><path d="M138,21.5 L138,48.5 M125,29.5 L151,29.5 M138,48.5 L125,63.5 M138,48.5 L151,63.5 " fill="none" style="stroke:#181818;stroke-width:0.5;"/><text fill="#000000" font-family="sans-serif" font-size="14" lengthAdjust="spacing" textLength="114" x="218" y="79.5332">Web/Mobile Client</text><path d="M257.5,37 L257.5,61 M257.5,49 L274.5,49 " fill="none" style="stroke:#181818;stroke-width:0.5;"/><ellipse cx="286.5" cy="49" fill="#E2E2F0" rx="12" ry="12" style="stroke:#181818;stroke-width:0.5;"/><text fill="#000000" font-family="sans-serif" font-size="14" lengthAdjust="spacing" textLength="115" x="469.5" y="61.9238">Express API Layer</text><text fill="#000000" font-family="sans-serif" font-size="14" lengthAdjust="spacing" textLength="172" x="441" y="79.5332">(app.js route orchestration)</text><ellipse cx="530" cy="31.3906" fill="#E2E2F0" rx="12" ry="12" style="stroke:#181818;stroke-width:0.5;"/><polygon fill="#181818" points="526,19.3906,532,14.3906,530,19.3906,532,24.3906,526,19.3906" style="stroke:#181818;stroke-width:1.0;"/><text fill="#000000" font-family="sans-serif" font-size="14" lengthAdjust="spacing" textLength="228" x="629" y="79.5332">Workflow Engine + Approval Service</text><ellipse cx="746" cy="49" fill="#E2E2F0" rx="12" ry="12" style="stroke:#181818;stroke-width:0.5;"/><polygon fill="#181818" points="742,37,748,32,746,37,748,42,742,37" style="stroke:#181818;stroke-width:1.0;"/><text fill="#000000" font-family="sans-serif" font-size="14" lengthAdjust="spacing" textLength="120" x="873" y="79.5332">Notification Service</text><ellipse cx="936" cy="49" fill="#E2E2F0" rx="12" ry="12" style="stroke:#181818;stroke-width:0.5;"/><polygon fill="#181818" points="932,37,938,32,936,37,938,42,932,37" style="stroke:#181818;stroke-width:1.0;"/><text fill="#000000" font-family="sans-serif" font-size="14" lengthAdjust="spacing" textLength="161" x="1009" y="79.5332">Projects + Team Services</text><ellipse cx="1092.5" cy="49" fill="#E2E2F0" rx="12" ry="12" style="stroke:#181818;stroke-width:0.5;"/><polygon fill="#181818" points="1088.5,37,1094.5,32,1092.5,37,1094.5,42,1088.5,37" style="stroke:#181818;stroke-width:1.0;"/><text fill="#000000" font-family="sans-serif" font-size="14" lengthAdjust="spacing" textLength="117" x="1186" y="79.5332">Timesheet Service</text><ellipse cx="1247.5" cy="49" fill="#E2E2F0" rx="12" ry="12" style="stroke:#181818;stroke-width:0.5;"/><polygon fill="#181818" points="1243.5,37,1249.5,32,1247.5,37,1249.5,42,1243.5,37" style="stroke:#181818;stroke-width:1.0;"/><text fill="#000000" font-family="sans-serif" font-size="14" lengthAdjust="spacing" textLength="146" x="1762.5" y="79.5332">PostgreSQL via Prisma</text><path d="M1820.5,29 C1820.5,19 1838.5,19 1838.5,19 C1838.5,19 1856.5,19 1856.5,29 L1856.5,55 C1856.5,65 1838.5,65 1838.5,65 C1838.5,65 1820.5,65 1820.5,55 L1820.5,29 " fill="#E2E2F0" style="stroke:#181818;stroke-width:1.5;"/><path d="M1820.5,29 C1820.5,39 1838.5,39 1838.5,39 C1838.5,39 1856.5,39 1856.5,29 " fill="none" style="stroke:#181818;stroke-width:1.5;"/><rect fill="#EEEEEE" height="3" style="stroke:#EEEEEE;stroke-width:1.0;" width="1909.5" x="5" y="111.7852"/><line style="stroke:#000000;stroke-width:1.0;" x1="5" x2="1914.5" y1="111.7852" y2="111.7852"/><line style="stroke:#000000;stroke-width:1.0;" x1="5" x2="1914.5" y1="114.7852" y2="114.7852"/><rect fill="#EEEEEE" height="24.3516" style="stroke:#000000;stroke-width:2.0;" width="195" x="862.25" y="100.6094"/><text fill="#000000" font-family="sans-serif" font-size="13" font-weight="bold" lengthAdjust="spacing" textLength="177" x="868.25" y="118.1045">10) Projects and Timesheets</text><polygon fill="#181818" points="266,153.3125,276,157.3125,266,161.3125,270,157.3125" style="stroke:#181818;stroke-width:1.0;"/><line style="stroke:#181818;stroke-width:1.0;" x1="138" x2="272" y1="157.3125" y2="157.3125"/><text fill="#000000" font-family="sans-serif" font-size="13" font-weight="bold" lengthAdjust="spacing" textLength="7" x="145" y="152.4561">1</text><text fill="#000000" font-family="sans-serif" font-size="13" lengthAdjust="spacing" textLength="105" x="156" y="152.4561">Project operations</text><polygon fill="#181818" points="518,183.6641,528,187.6641,518,191.6641,522,187.6641" style="stroke:#181818;stroke-width:1.0;"/><line style="stroke:#181818;stroke-width:1.0;" x1="278" x2="524" y1="187.6641" y2="187.6641"/><text fill="#000000" font-family="sans-serif" font-size="13" font-weight="bold" lengthAdjust="spacing" textLength="7" x="285" y="182.8076">2</text><text fill="#000000" font-family="sans-serif" font-size="13" lengthAdjust="spacing" textLength="217" x="296" y="182.8076">/api/projects + members + dashboard</text><polygon fill="#181818" points="1080.5,214.0156,1090.5,218.0156,1080.5,222.0156,1084.5,218.0156" style="stroke:#181818;stroke-width:1.0;"/><line style="stroke:#181818;stroke-width:1.0;" x1="530" x2="1086.5" y1="218.0156" y2="218.0156"/><text fill="#000000" font-family="sans-serif" font-size="13" font-weight="bold" lengthAdjust="spacing" textLength="7" x="537" y="213.1592">3</text><text fill="#000000" font-family="sans-serif" font-size="13" lengthAdjust="spacing" textLength="282" x="548" y="213.1592">project/milestone/resource/budget/team capacity</text><polygon fill="#181818" points="1826.5,244.3672,1836.5,248.3672,1826.5,252.3672,1830.5,248.3672" style="stroke:#181818;stroke-width:1.0;"/><line style="stroke:#181818;stroke-width:1.0;" x1="1092.5" x2="1832.5" y1="248.3672" y2="248.3672"/><text fill="#000000" font-family="sans-serif" font-size="13" font-weight="bold" lengthAdjust="spacing" textLength="7" x="1099.5" y="243.5107">4</text><text fill="#000000" font-family="sans-serif" font-size="13" lengthAdjust="spacing" textLength="711" x="1110.5" y="243.5107">Project, ProjectMember, ProjectMilestone, ProjectMilestoneDependency, ProjectResource, ProjectBudget, ProjectTimeLog</text><polygon fill="#181818" points="541,274.7188,531,278.7188,541,282.7188,537,278.7188" style="stroke:#181818;stroke-width:1.0;"/><line style="stroke:#181818;stroke-width:1.0;stroke-dasharray:2.0,2.0;" x1="535" x2="1091.5" y1="278.7188" y2="278.7188"/><text fill="#000000" font-family="sans-serif" font-size="13" font-weight="bold" lengthAdjust="spacing" textLength="7" x="547" y="273.8623">5</text><text fill="#000000" font-family="sans-serif" font-size="13" lengthAdjust="spacing" textLength="86" x="558" y="273.8623">project outputs</text><polygon fill="#181818" points="289,305.0703,279,309.0703,289,313.0703,285,309.0703" style="stroke:#181818;stroke-width:1.0;"/><line style="stroke:#181818;stroke-width:1.0;stroke-dasharray:2.0,2.0;" x1="283" x2="529" y1="309.0703" y2="309.0703"/><text fill="#000000" font-family="sans-serif" font-size="13" font-weight="bold" lengthAdjust="spacing" textLength="7" x="295" y="304.2139">6</text><text fill="#000000" font-family="sans-serif" font-size="13" lengthAdjust="spacing" textLength="89" x="306" y="304.2139">project updated</text><polygon fill="#181818" points="266,335.4219,276,339.4219,266,343.4219,270,339.4219" style="stroke:#181818;stroke-width:1.0;"/><line style="stroke:#181818;stroke-width:1.0;" x1="39" x2="272" y1="339.4219" y2="339.4219"/><text fill="#000000" font-family="sans-serif" font-size="13" font-weight="bold" lengthAdjust="spacing" textLength="7" x="46" y="334.5654">7</text><text fill="#000000" font-family="sans-serif" font-size="13" lengthAdjust="spacing" textLength="188" x="57" y="334.5654">Timesheet entry and submission</text><polygon fill="#181818" points="518,365.7734,528,369.7734,518,373.7734,522,369.7734" style="stroke:#181818;stroke-width:1.0;"/><line style="stroke:#181818;stroke-width:1.0;" x1="278" x2="524" y1="369.7734" y2="369.7734"/><text fill="#000000" font-family="sans-serif" font-size="13" font-weight="bold" lengthAdjust="spacing" textLength="7" x="285" y="364.917">8</text><text fill="#000000" font-family="sans-serif" font-size="13" lengthAdjust="spacing" textLength="89" x="296" y="364.917">/api/timesheets</text><polygon fill="#181818" points="1235.5,396.125,1245.5,400.125,1235.5,404.125,1239.5,400.125" style="stroke:#181818;stroke-width:1.0;"/><line style="stroke:#181818;stroke-width:1.0;" x1="530" x2="1241.5" y1="400.125" y2="400.125"/><text fill="#000000" font-family="sans-serif" font-size="13" font-weight="bold" lengthAdjust="spacing" textLength="7" x="537" y="395.2686">9</text><text fill="#000000" font-family="sans-serif" font-size="13" lengthAdjust="spacing" textLength="239" x="548" y="395.2686">create/update/submit/approve/reject flows</text><polygon fill="#181818" points="1826.5,426.4766,1836.5,430.4766,1826.5,434.4766,1830.5,430.4766" style="stroke:#181818;stroke-width:1.0;"/><line style="stroke:#181818;stroke-width:1.0;" x1="1247.5" x2="1832.5" y1="430.4766" y2="430.4766"/><text fill="#000000" font-family="sans-serif" font-size="13" font-weight="bold" lengthAdjust="spacing" textLength="14" x="1254.5" y="425.6201">10</text><text fill="#000000" font-family="sans-serif" font-size="13" lengthAdjust="spacing" textLength="101" x="1272.5" y="425.6201">ProjectTimesheet</text><polygon fill="#181818" points="757,456.8281,747,460.8281,757,464.8281,753,460.8281" style="stroke:#181818;stroke-width:1.0;"/><line style="stroke:#181818;stroke-width:1.0;" x1="751" x2="1246.5" y1="460.8281" y2="460.8281"/><text fill="#000000" font-family="sans-serif" font-size="13" font-weight="bold" lengthAdjust="spacing" textLength="14" x="763" y="455.9717">11</text><text fill="#000000" font-family="sans-serif" font-size="13" lengthAdjust="spacing" textLength="144" x="781" y="455.9717">timesheet approval steps</text><polygon fill="#181818" points="947,487.1797,937,491.1797,947,495.1797,943,491.1797" style="stroke:#181818;stroke-width:1.0;"/><line style="stroke:#181818;stroke-width:1.0;" x1="941" x2="1246.5" y1="491.1797" y2="491.1797"/><text fill="#000000" font-family="sans-serif" font-size="13" font-weight="bold" lengthAdjust="spacing" textLength="14" x="953" y="486.3232">12</text><text fill="#000000" font-family="sans-serif" font-size="13" lengthAdjust="spacing" textLength="193" x="971" y="486.3232">approver + employee notifications</text><polygon fill="#181818" points="289,517.5313,279,521.5313,289,525.5313,285,521.5313" style="stroke:#181818;stroke-width:1.0;"/><line style="stroke:#181818;stroke-width:1.0;stroke-dasharray:2.0,2.0;" x1="283" x2="529" y1="521.5313" y2="521.5313"/><text fill="#000000" font-family="sans-serif" font-size="13" font-weight="bold" lengthAdjust="spacing" textLength="14" x="295" y="516.6748">13</text><text fill="#000000" font-family="sans-serif" font-size="13" lengthAdjust="spacing" textLength="97" x="313" y="516.6748">timesheet status</text><!--SRC=[RLDDRzim3BthLt0vhTY7jsk036YM51YG3DrQ89TTQ9jnrDcY855Piry_oR6jfEjDf1xV4n-fDzPXqo48yLyG5qXX43QXAycfWwu9zinIyhDIM0axM7UsvHFH4Cxk7JzH9R15Wmsv6Q27bDkgaeEfqPrWjgEos7AfMuAlhIOZFUfyL1KRSTp2RFri7NaFj_VVO8CdSh_CMxJsuvC7nq48s5K7yk9GD9kRdYDYCy6EtUzzotzWRHfj2Dx1hRMEZzZ20xcZhgYlsTtbakyiUg-hdl4Ar5-SCd1eqqVIHy9knFgfttIPuO-w8tyWaYlIAQjg52pHKoHcBusZXnyRE6gCLDftsADNIwKM2_ZywMOI03HrPl6mMAZUQ_ZmPR0JvYCOsDBPAg-6kuXAviwXGAiBcrlgACqxdMhqXvBHrIeXOy4aFOUXeEZY87rS4YhYl3YuYeeor0r98ScQ2YrMMavgAeqqgsL-sVlniErbSpZo_fzPaILJawbEqztFGNjABFitJ66oQSFDnIkczkteK10RujZwLYyj7071na5HhTIuzLT6vo77EEvv6euFPQUzZww_RhfCmniDpYnpg1n5lU8iM_HS4ilI4YUp-pUb3VSgLxqmD-_O5MHt5o6JEE3uCRoGVS5sNlq87uHTN0iQ-pSN7-OLuxA25vJWbVe7]--></g></svg>