<?xml version="1.0" encoding="us-ascii" standalone="no"?><svg xmlns="http://www.w3.org/2000/svg" xmlns:xlink="http://www.w3.org/1999/xlink" contentStyleType="text/css" height="3401px" preserveAspectRatio="none" style="width:1010px;height:3401px;background:#FFFFFF;" version="1.1" viewBox="0 0 1010 3401" width="1010px" zoomAndPan="magnify"><defs/><g><text fill="#000000" font-family="Courier" font-size="14" font-weight="bold" lengthAdjust="spacing" textLength="454" x="276.5" y="34.5332">UEORMS&#160;Navigation&#160;Chart&#160;-&#160;Part&#160;2A:&#160;Routed&#160;Pages&#160;(Core&#160;to&#160;CRM)</text><rect fill="#F1F1F1" height="37.6094" rx="12.5" ry="12.5" style="stroke:#181818;stroke-width:1.5;" width="188" x="10" y="1700.4766"/><text fill="#000000" font-family="Courier" font-size="14" lengthAdjust="spacing" textLength="168" x="20" y="1725.0098">UEORMS&#160;Navigation&#160;Chart</text><rect fill="#F1F1F1" height="37.6094" rx="12.5" ry="12.5" style="stroke:#181818;stroke-width:1.5;" width="239" x="248" y="1700.4766"/><text fill="#000000" font-family="Courier" font-size="14" lengthAdjust="spacing" textLength="219" x="258" y="1725.0098">Routed&#160;Page&#160;Inventory&#160;(111&#160;Total)</text><rect fill="#F1F1F1" height="37.6094" rx="12.5" ry="12.5" style="stroke:#181818;stroke-width:1.5;" width="122" x="537" y="116.2188"/><text fill="#000000" font-family="Courier" font-size="14" lengthAdjust="spacing" textLength="102" x="547" y="140.752">Core&#160;Access&#160;(3)</text><rect fill="#F1F1F1" height="37.6094" rx="12.5" ry="12.5" style="stroke:#181818;stroke-width:1.5;" width="92" x="709" y="58.6094"/><text fill="#000000" font-family="Courier" font-size="14" lengthAdjust="spacing" textLength="72" x="719" y="83.1426">/dashboard</text><path d="M659,135.0234 L669,135.0234 C684,135.0234 684,77.4141 699,77.4141 L709,77.4141 " fill="none" style="stroke:#181818;stroke-width:1.0;"/><rect fill="#F1F1F1" height="37.6094" rx="12.5" ry="12.5" style="stroke:#181818;stroke-width:1.5;" width="57" x="709" y="116.2188"/><text fill="#000000" font-family="Courier" font-size="14" lengthAdjust="spacing" textLength="37" x="719" y="140.752">/invite</text><path d="M659,135.0234 L669,135.0234 C684,135.0234 684,135.0234 699,135.0234 L709,135.0234 " fill="none" style="stroke:#181818;stroke-width:1.0;"/><rect fill="#F1F1F1" height="37.6094" rx="12.5" ry="12.5" style="stroke:#181818;stroke-width:1.5;" width="59" x="709" y="173.8281"/><text fill="#000000" font-family="Courier" font-size="14" lengthAdjust="spacing" textLength="39" x="719" y="198.3613">/users</text><path d="M659,135.0234 L669,135.0234 C684,135.0234 684,192.6328 699,192.6328 L709,192.6328 " fill="none" style="stroke:#181818;stroke-width:1.0;"/><path d="M487,1719.2813 L497,1719.2813 C512,1719.2813 512,135.0234 527,135.0234 L537,135.0234 " fill="none" style="stroke:#181818;stroke-width:1.0;"/><rect fill="#F1F1F1" height="37.6094" rx="12.5" ry="12.5" style="stroke:#181818;stroke-width:1.5;" width="205" x="537" y="461.875"/><text fill="#000000" font-family="Courier" font-size="14" lengthAdjust="spacing" textLength="185" x="547" y="486.4082">Inventory&#160;and&#160;Warehouse&#160;(9)</text><rect fill="#F1F1F1" height="37.6094" rx="12.5" ry="12.5" style="stroke:#181818;stroke-width:1.5;" width="82" x="792" y="231.4375"/><text fill="#000000" font-family="Courier" font-size="14" lengthAdjust="spacing" textLength="62" x="802" y="255.9707">/inventory</text><path d="M742,480.6797 L752,480.6797 C767,480.6797 767,250.2422 782,250.2422 L792,250.2422 " fill="none" style="stroke:#181818;stroke-width:1.0;"/><rect fill="#F1F1F1" height="37.6094" rx="12.5" ry="12.5" style="stroke:#181818;stroke-width:1.5;" width="148" x="792" y="289.0469"/><text fill="#000000" font-family="Courier" font-size="14" lengthAdjust="spacing" textLength="128" x="802" y="313.5801">/inventory/approvals</text><path d="M742,480.6797 L752,480.6797 C767,480.6797 767,307.8516 782,307.8516 L792,307.8516 " fill="none" style="stroke:#181818;stroke-width:1.0;"/><rect fill="#F1F1F1" height="37.6094" rx="12.5" ry="12.5" style="stroke:#181818;stroke-width:1.5;" width="155" x="792" y="346.6563"/><text fill="#000000" font-family="Courier" font-size="14" lengthAdjust="spacing" textLength="135" x="802" y="371.1895">/inventory-dashboard</text><path d="M742,480.6797 L752,480.6797 C767,480.6797 767,365.4609 782,365.4609 L792,365.4609 " fill="none" style="stroke:#181818;stroke-width:1.0;"/><rect fill="#F1F1F1" height="37.6094" rx="12.5" ry="12.5" style="stroke:#181818;stroke-width:1.5;" width="134" x="792" y="404.2656"/><text fill="#000000" font-family="Courier" font-size="14" lengthAdjust="spacing" textLength="114" x="802" y="428.7988">/stock-movements</text><path d="M742,480.6797 L752,480.6797 C767,480.6797 767,423.0703 782,423.0703 L792,423.0703 " fill="none" style="stroke:#181818;stroke-width:1.0;"/><rect fill="#F1F1F1" height="37.6094" rx="12.5" ry="12.5" style="stroke:#181818;stroke-width:1.5;" width="93" x="792" y="461.875"/><text fill="#000000" font-family="Courier" font-size="14" lengthAdjust="spacing" textLength="73" x="802" y="486.4082">/warehouse</text><path d="M742,480.6797 L752,480.6797 C767,480.6797 767,480.6797 782,480.6797 L792,480.6797 " fill="none" style="stroke:#181818;stroke-width:1.0;"/><rect fill="#F1F1F1" height="37.6094" rx="12.5" ry="12.5" style="stroke:#181818;stroke-width:1.5;" width="150" x="792" y="519.4844"/><text fill="#000000" font-family="Courier" font-size="14" lengthAdjust="spacing" textLength="130" x="802" y="544.0176">/warehouse/dispatch</text><path d="M742,480.6797 L752,480.6797 C767,480.6797 767,538.2891 782,538.2891 L792,538.2891 " fill="none" style="stroke:#181818;stroke-width:1.0;"/><rect fill="#F1F1F1" height="37.6094" rx="12.5" ry="12.5" style="stroke:#181818;stroke-width:1.5;" width="147" x="792" y="577.0938"/><text fill="#000000" font-family="Courier" font-size="14" lengthAdjust="spacing" textLength="127" x="802" y="601.627">/warehouse/receipts</text><path d="M742,480.6797 L752,480.6797 C767,480.6797 767,595.8984 782,595.8984 L792,595.8984 " fill="none" style="stroke:#181818;stroke-width:1.0;"/><rect fill="#F1F1F1" height="37.6094" rx="12.5" ry="12.5" style="stroke:#181818;stroke-width:1.5;" width="100" x="792" y="634.7031"/><text fill="#000000" font-family="Courier" font-size="14" lengthAdjust="spacing" textLength="80" x="802" y="659.2363">/warehouses</text><path d="M742,480.6797 L752,480.6797 C767,480.6797 767,653.5078 782,653.5078 L792,653.5078 " fill="none" style="stroke:#181818;stroke-width:1.0;"/><rect fill="#F1F1F1" height="37.6094" rx="12.5" ry="12.5" style="stroke:#181818;stroke-width:1.5;" width="172" x="792" y="692.3125"/><text fill="#000000" font-family="Courier" font-size="14" lengthAdjust="spacing" textLength="152" x="802" y="716.8457">/warehouses/dashboard</text><path d="M742,480.6797 L752,480.6797 C767,480.6797 767,711.1172 782,711.1172 L792,711.1172 " fill="none" style="stroke:#181818;stroke-width:1.0;"/><path d="M487,1719.2813 L497,1719.2813 C512,1719.2813 512,480.6797 527,480.6797 L537,480.6797 " fill="none" style="stroke:#181818;stroke-width:1.0;"/><rect fill="#F1F1F1" height="37.6094" rx="12.5" ry="12.5" style="stroke:#181818;stroke-width:1.5;" width="132" x="537" y="778.7266"/><text fill="#000000" font-family="Courier" font-size="14" lengthAdjust="spacing" textLength="112" x="547" y="803.2598">Manufacturing&#160;(2)</text><rect fill="#F1F1F1" height="37.6094" rx="12.5" ry="12.5" style="stroke:#181818;stroke-width:1.5;" width="152" x="719" y="749.9219"/><text fill="#000000" font-family="Courier" font-size="14" lengthAdjust="spacing" textLength="132" x="729" y="774.4551">/manufacturing/boms</text><path d="M669,797.5313 L679,797.5313 C694,797.5313 694,768.7266 709,768.7266 L719,768.7266 " fill="none" style="stroke:#181818;stroke-width:1.0;"/><rect fill="#F1F1F1" height="37.6094" rx="12.5" ry="12.5" style="stroke:#181818;stroke-width:1.5;" width="193" x="719" y="807.5313"/><text fill="#000000" font-family="Courier" font-size="14" lengthAdjust="spacing" textLength="173" x="729" y="832.0645">/manufacturing/work-orders</text><path d="M669,797.5313 L679,797.5313 C694,797.5313 694,826.3359 709,826.3359 L719,826.3359 " fill="none" style="stroke:#181818;stroke-width:1.0;"/><path d="M487,1719.2813 L497,1719.2813 C512,1719.2813 512,797.5313 527,797.5313 L537,797.5313 " fill="none" style="stroke:#181818;stroke-width:1.0;"/><rect fill="#F1F1F1" height="37.6094" rx="12.5" ry="12.5" style="stroke:#181818;stroke-width:1.5;" width="144" x="537" y="1181.9922"/><text fill="#000000" font-family="Courier" font-size="14" lengthAdjust="spacing" textLength="124" x="547" y="1206.5254">HR&#160;and&#160;Payroll&#160;(12)</text><rect fill="#F1F1F1" height="37.6094" rx="12.5" ry="12.5" style="stroke:#181818;stroke-width:1.5;" width="37" x="731" y="865.1406"/><text fill="#000000" font-family="Courier" font-size="14" lengthAdjust="spacing" textLength="17" x="741" y="889.6738">/hr</text><path d="M681,1200.7969 L691,1200.7969 C706,1200.7969 706,883.9453 721,883.9453 L731,883.9453 " fill="none" style="stroke:#181818;stroke-width:1.0;"/><rect fill="#F1F1F1" height="37.6094" rx="12.5" ry="12.5" style="stroke:#181818;stroke-width:1.5;" width="103" x="731" y="922.75"/><text fill="#000000" font-family="Courier" font-size="14" lengthAdjust="spacing" textLength="83" x="741" y="947.2832">/hr/approvals</text><path d="M681,1200.7969 L691,1200.7969 C706,1200.7969 706,941.5547 721,941.5547 L731,941.5547 " fill="none" style="stroke:#181818;stroke-width:1.0;"/><rect fill="#F1F1F1" height="37.6094" rx="12.5" ry="12.5" style="stroke:#181818;stroke-width:1.5;" width="112" x="731" y="980.3594"/><text fill="#000000" font-family="Courier" font-size="14" lengthAdjust="spacing" textLength="92" x="741" y="1004.8926">/hr/attendance</text><path d="M681,1200.7969 L691,1200.7969 C706,1200.7969 706,999.1641 721,999.1641 L731,999.1641 " fill="none" style="stroke:#181818;stroke-width:1.0;"/><rect fill="#F1F1F1" height="37.6094" rx="12.5" ry="12.5" style="stroke:#181818;stroke-width:1.5;" width="109" x="731" y="1037.9688"/><text fill="#000000" font-family="Courier" font-size="14" lengthAdjust="spacing" textLength="89" x="741" y="1062.502">/hr/employees</text><path d="M681,1200.7969 L691,1200.7969 C706,1200.7969 706,1056.7734 721,1056.7734 L731,1056.7734 " fill="none" style="stroke:#181818;stroke-width:1.0;"/><rect fill="#F1F1F1" height="37.6094" rx="12.5" ry="12.5" style="stroke:#181818;stroke-width:1.5;" width="135" x="731" y="1095.5781"/><text fill="#000000" font-family="Courier" font-size="14" lengthAdjust="spacing" textLength="115" x="741" y="1120.1113">/hr/leave-requests</text><path d="M681,1200.7969 L691,1200.7969 C706,1200.7969 706,1114.3828 721,1114.3828 L731,1114.3828 " fill="none" style="stroke:#181818;stroke-width:1.0;"/><rect fill="#F1F1F1" height="37.6094" rx="12.5" ry="12.5" style="stroke:#181818;stroke-width:1.5;" width="114" x="731" y="1153.1875"/><text fill="#000000" font-family="Courier" font-size="14" lengthAdjust="spacing" textLength="94" x="741" y="1177.7207">/hr/leave-types</text><path d="M681,1200.7969 L691,1200.7969 C706,1200.7969 706,1171.9922 721,1171.9922 L731,1171.9922 " fill="none" style="stroke:#181818;stroke-width:1.0;"/><rect fill="#F1F1F1" height="37.6094" rx="12.5" ry="12.5" style="stroke:#181818;stroke-width:1.5;" width="83" x="731" y="1210.7969"/><text fill="#000000" font-family="Courier" font-size="14" lengthAdjust="spacing" textLength="63" x="741" y="1235.3301">/hr/payroll</text><path d="M681,1200.7969 L691,1200.7969 C706,1200.7969 706,1229.6016 721,1229.6016 L731,1229.6016 " fill="none" style="stroke:#181818;stroke-width:1.0;"/><rect fill="#F1F1F1" height="37.6094" rx="12.5" ry="12.5" style="stroke:#181818;stroke-width:1.5;" width="126" x="731" y="1268.4063"/><text fill="#000000" font-family="Courier" font-size="14" lengthAdjust="spacing" textLength="106" x="741" y="1292.9395">/hr/payroll/cycles</text><path d="M681,1200.7969 L691,1200.7969 C706,1200.7969 706,1287.2109 721,1287.2109 L731,1287.2109 " fill="none" style="stroke:#181818;stroke-width:1.0;"/><rect fill="#F1F1F1" height="37.6094" rx="12.5" ry="12.5" style="stroke:#181818;stroke-width:1.5;" width="145" x="731" y="1326.0156"/><text fill="#000000" font-family="Courier" font-size="14" lengthAdjust="spacing" textLength="125" x="741" y="1350.5488">/hr/payroll/cycles/:id</text><path d="M681,1200.7969 L691,1200.7969 C706,1200.7969 706,1344.8203 721,1344.8203 L731,1344.8203 " fill="none" style="stroke:#181818;stroke-width:1.0;"/><rect fill="#F1F1F1" height="37.6094" rx="12.5" ry="12.5" style="stroke:#181818;stroke-width:1.5;" width="179" x="731" y="1383.625"/><text fill="#000000" font-family="Courier" font-size="14" lengthAdjust="spacing" textLength="159" x="741" y="1408.1582">/hr/payroll/disbursements</text><path d="M681,1200.7969 L691,1200.7969 C706,1200.7969 706,1402.4297 721,1402.4297 L731,1402.4297 " fill="none" style="stroke:#181818;stroke-width:1.0;"/><rect fill="#F1F1F1" height="37.6094" rx="12.5" ry="12.5" style="stroke:#181818;stroke-width:1.5;" width="157" x="731" y="1441.2344"/><text fill="#000000" font-family="Courier" font-size="14" lengthAdjust="spacing" textLength="137" x="741" y="1465.7676">/hr/payroll/payslips/:id</text><path d="M681,1200.7969 L691,1200.7969 C706,1200.7969 706,1460.0391 721,1460.0391 L731,1460.0391 " fill="none" style="stroke:#181818;stroke-width:1.0;"/><rect fill="#F1F1F1" height="37.6094" rx="12.5" ry="12.5" style="stroke:#181818;stroke-width:1.5;" width="166" x="731" y="1498.8438"/><text fill="#000000" font-family="Courier" font-size="14" lengthAdjust="spacing" textLength="146" x="741" y="1523.377">/hr/salary-management</text><path d="M681,1200.7969 L691,1200.7969 C706,1200.7969 706,1517.6484 721,1517.6484 L731,1517.6484 " fill="none" style="stroke:#181818;stroke-width:1.0;"/><path d="M487,1719.2813 L497,1719.2813 C512,1719.2813 512,1200.7969 527,1200.7969 L537,1200.7969 " fill="none" style="stroke:#181818;stroke-width:1.0;"/><rect fill="#F1F1F1" height="37.6094" rx="12.5" ry="12.5" style="stroke:#181818;stroke-width:1.5;" width="184" x="537" y="1671.6719"/><text fill="#000000" font-family="Courier" font-size="14" lengthAdjust="spacing" textLength="164" x="547" y="1696.2051">Employee&#160;Self-Service&#160;(5)</text><rect fill="#F1F1F1" height="37.6094" rx="12.5" ry="12.5" style="stroke:#181818;stroke-width:1.5;" width="85" x="771" y="1556.4531"/><text fill="#000000" font-family="Courier" font-size="14" lengthAdjust="spacing" textLength="65" x="781" y="1580.9863">/employee</text><path d="M721,1690.4766 L731,1690.4766 C746,1690.4766 746,1575.2578 761,1575.2578 L771,1575.2578 " fill="none" style="stroke:#181818;stroke-width:1.0;"/><rect fill="#F1F1F1" height="37.6094" rx="12.5" ry="12.5" style="stroke:#181818;stroke-width:1.5;" width="157" x="771" y="1614.0625"/><text fill="#000000" font-family="Courier" font-size="14" lengthAdjust="spacing" textLength="137" x="781" y="1638.5957">/employee/dashboard</text><path d="M721,1690.4766 L731,1690.4766 C746,1690.4766 746,1632.8672 761,1632.8672 L771,1632.8672 " fill="none" style="stroke:#181818;stroke-width:1.0;"/><rect fill="#F1F1F1" height="37.6094" rx="12.5" ry="12.5" style="stroke:#181818;stroke-width:1.5;" width="176" x="771" y="1671.6719"/><text fill="#000000" font-family="Courier" font-size="14" lengthAdjust="spacing" textLength="156" x="781" y="1696.2051">/employee/leave-request</text><path d="M721,1690.4766 L731,1690.4766 C746,1690.4766 746,1690.4766 761,1690.4766 L771,1690.4766 " fill="none" style="stroke:#181818;stroke-width:1.0;"/><rect fill="#F1F1F1" height="37.6094" rx="12.5" ry="12.5" style="stroke:#181818;stroke-width:1.5;" width="122" x="771" y="1729.2813"/><text fill="#000000" font-family="Courier" font-size="14" lengthAdjust="spacing" textLength="102" x="781" y="1753.8145">/employee/tasks</text><path d="M721,1690.4766 L731,1690.4766 C746,1690.4766 746,1748.0859 761,1748.0859 L771,1748.0859 " fill="none" style="stroke:#181818;stroke-width:1.0;"/><rect fill="#F1F1F1" height="37.6094" rx="12.5" ry="12.5" style="stroke:#181818;stroke-width:1.5;" width="168" x="771" y="1786.8906"/><text fill="#000000" font-family="Courier" font-size="14" lengthAdjust="spacing" textLength="148" x="781" y="1811.4238">/employee/work-reports</text><path d="M721,1690.4766 L731,1690.4766 C746,1690.4766 746,1805.6953 761,1805.6953 L771,1805.6953 " fill="none" style="stroke:#181818;stroke-width:1.0;"/><path d="M487,1719.2813 L497,1719.2813 C512,1719.2813 512,1690.4766 527,1690.4766 L537,1690.4766 " fill="none" style="stroke:#181818;stroke-width:1.0;"/><rect fill="#F1F1F1" height="37.6094" rx="12.5" ry="12.5" style="stroke:#181818;stroke-width:1.5;" width="203" x="537" y="2190.1563"/><text fill="#000000" font-family="Courier" font-size="14" lengthAdjust="spacing" textLength="183" x="547" y="2214.6895">Finance&#160;and&#160;Accounting&#160;(13)</text><rect fill="#F1F1F1" height="37.6094" rx="12.5" ry="12.5" style="stroke:#181818;stroke-width:1.5;" width="208" x="790" y="1844.5"/><text fill="#000000" font-family="Courier" font-size="14" lengthAdjust="spacing" textLength="188" x="800" y="1869.0332">/accounting/chart-of-accounts</text><path d="M740,2208.9609 L750,2208.9609 C765,2208.9609 765,1863.3047 780,1863.3047 L790,1863.3047 " fill="none" style="stroke:#181818;stroke-width:1.0;"/><rect fill="#F1F1F1" height="37.6094" rx="12.5" ry="12.5" style="stroke:#181818;stroke-width:1.5;" width="136" x="790" y="1902.1094"/><text fill="#000000" font-family="Courier" font-size="14" lengthAdjust="spacing" textLength="116" x="800" y="1926.6426">/accounting/charts</text><path d="M740,2208.9609 L750,2208.9609 C765,2208.9609 765,1920.9141 780,1920.9141 L790,1920.9141 " fill="none" style="stroke:#181818;stroke-width:1.0;"/><rect fill="#F1F1F1" height="37.6094" rx="12.5" ry="12.5" style="stroke:#181818;stroke-width:1.5;" width="190" x="790" y="1959.7188"/><text fill="#000000" font-family="Courier" font-size="14" lengthAdjust="spacing" textLength="170" x="800" y="1984.252">/accounting/general-ledger</text><path d="M740,2208.9609 L750,2208.9609 C765,2208.9609 765,1978.5234 780,1978.5234 L790,1978.5234 " fill="none" style="stroke:#181818;stroke-width:1.0;"/><rect fill="#F1F1F1" height="37.6094" rx="12.5" ry="12.5" style="stroke:#181818;stroke-width:1.5;" width="140" x="790" y="2017.3281"/><text fill="#000000" font-family="Courier" font-size="14" lengthAdjust="spacing" textLength="120" x="800" y="2041.8613">/accounting/journal</text><path d="M740,2208.9609 L750,2208.9609 C765,2208.9609 765,2036.1328 780,2036.1328 L790,2036.1328 " fill="none" style="stroke:#181818;stroke-width:1.0;"/><rect fill="#F1F1F1" height="37.6094" rx="12.5" ry="12.5" style="stroke:#181818;stroke-width:1.5;" width="177" x="790" y="2074.9375"/><text fill="#000000" font-family="Courier" font-size="14" lengthAdjust="spacing" textLength="157" x="800" y="2099.4707">/accounting/journal-entry</text><path d="M740,2208.9609 L750,2208.9609 C765,2208.9609 765,2093.7422 780,2093.7422 L790,2093.7422 " fill="none" style="stroke:#181818;stroke-width:1.0;"/><rect fill="#F1F1F1" height="37.6094" rx="12.5" ry="12.5" style="stroke:#181818;stroke-width:1.5;" width="137" x="790" y="2132.5469"/><text fill="#000000" font-family="Courier" font-size="14" lengthAdjust="spacing" textLength="117" x="800" y="2157.0801">/accounting/ledger</text><path d="M740,2208.9609 L750,2208.9609 C765,2208.9609 765,2151.3516 780,2151.3516 L790,2151.3516 " fill="none" style="stroke:#181818;stroke-width:1.0;"/><rect fill="#F1F1F1" height="37.6094" rx="12.5" ry="12.5" style="stroke:#181818;stroke-width:1.5;" width="142" x="790" y="2190.1563"/><text fill="#000000" font-family="Courier" font-size="14" lengthAdjust="spacing" textLength="122" x="800" y="2214.6895">/accounting/reports</text><path d="M740,2208.9609 L750,2208.9609 C765,2208.9609 765,2208.9609 780,2208.9609 L790,2208.9609 " fill="none" style="stroke:#181818;stroke-width:1.0;"/><rect fill="#F1F1F1" height="37.6094" rx="12.5" ry="12.5" style="stroke:#181818;stroke-width:1.5;" width="70" x="790" y="2247.7656"/><text fill="#000000" font-family="Courier" font-size="14" lengthAdjust="spacing" textLength="50" x="800" y="2272.2988">/finance</text><path d="M740,2208.9609 L750,2208.9609 C765,2208.9609 765,2266.5703 780,2266.5703 L790,2266.5703 " fill="none" style="stroke:#181818;stroke-width:1.0;"/><rect fill="#F1F1F1" height="37.6094" rx="12.5" ry="12.5" style="stroke:#181818;stroke-width:1.5;" width="136" x="790" y="2305.375"/><text fill="#000000" font-family="Courier" font-size="14" lengthAdjust="spacing" textLength="116" x="800" y="2329.9082">/finance/approvals</text><path d="M740,2208.9609 L750,2208.9609 C765,2208.9609 765,2324.1797 780,2324.1797 L790,2324.1797 " fill="none" style="stroke:#181818;stroke-width:1.0;"/><rect fill="#F1F1F1" height="37.6094" rx="12.5" ry="12.5" style="stroke:#181818;stroke-width:1.5;" width="198" x="790" y="2362.9844"/><text fill="#000000" font-family="Courier" font-size="14" lengthAdjust="spacing" textLength="178" x="800" y="2387.5176">/finance/expense-categories</text><path d="M740,2208.9609 L750,2208.9609 C765,2208.9609 765,2381.7891 780,2381.7891 L790,2381.7891 " fill="none" style="stroke:#181818;stroke-width:1.0;"/><rect fill="#F1F1F1" height="37.6094" rx="12.5" ry="12.5" style="stroke:#181818;stroke-width:1.5;" width="171" x="790" y="2420.5938"/><text fill="#000000" font-family="Courier" font-size="14" lengthAdjust="spacing" textLength="151" x="800" y="2445.127">/finance/expense-claims</text><path d="M740,2208.9609 L750,2208.9609 C765,2208.9609 765,2439.3984 780,2439.3984 L790,2439.3984 " fill="none" style="stroke:#181818;stroke-width:1.0;"/><rect fill="#F1F1F1" height="37.6094" rx="12.5" ry="12.5" style="stroke:#181818;stroke-width:1.5;" width="140" x="790" y="2478.2031"/><text fill="#000000" font-family="Courier" font-size="14" lengthAdjust="spacing" textLength="120" x="800" y="2502.7363">/subscription/billing</text><path d="M740,2208.9609 L750,2208.9609 C765,2208.9609 765,2497.0078 780,2497.0078 L790,2497.0078 " fill="none" style="stroke:#181818;stroke-width:1.0;"/><rect fill="#F1F1F1" height="37.6094" rx="12.5" ry="12.5" style="stroke:#181818;stroke-width:1.5;" width="146" x="790" y="2535.8125"/><text fill="#000000" font-family="Courier" font-size="14" lengthAdjust="spacing" textLength="126" x="800" y="2560.3457">/subscription/pricing</text><path d="M740,2208.9609 L750,2208.9609 C765,2208.9609 765,2554.6172 780,2554.6172 L790,2554.6172 " fill="none" style="stroke:#181818;stroke-width:1.0;"/><path d="M487,1719.2813 L497,1719.2813 C512,1719.2813 512,2208.9609 527,2208.9609 L537,2208.9609 " fill="none" style="stroke:#181818;stroke-width:1.0;"/><rect fill="#F1F1F1" height="37.6094" rx="12.5" ry="12.5" style="stroke:#181818;stroke-width:1.5;" width="148" x="537" y="2967.8828"/><text fill="#000000" font-family="Courier" font-size="14" lengthAdjust="spacing" textLength="128" x="547" y="2992.416">CRM&#160;and&#160;Sales&#160;(14)</text><rect fill="#F1F1F1" height="37.6094" rx="12.5" ry="12.5" style="stroke:#181818;stroke-width:1.5;" width="47" x="735" y="2593.4219"/><text fill="#000000" font-family="Courier" font-size="14" lengthAdjust="spacing" textLength="27" x="745" y="2617.9551">/crm</text><path d="M685,2986.6875 L695,2986.6875 C710,2986.6875 710,2612.2266 725,2612.2266 L735,2612.2266 " fill="none" style="stroke:#181818;stroke-width:1.0;"/><rect fill="#F1F1F1" height="37.6094" rx="12.5" ry="12.5" style="stroke:#181818;stroke-width:1.5;" width="152" x="735" y="2651.0313"/><text fill="#000000" font-family="Courier" font-size="14" lengthAdjust="spacing" textLength="132" x="745" y="2675.5645">/crm/communications</text><path d="M685,2986.6875 L695,2986.6875 C710,2986.6875 710,2669.8359 725,2669.8359 L735,2669.8359 " fill="none" style="stroke:#181818;stroke-width:1.0;"/><rect fill="#F1F1F1" height="37.6094" rx="12.5" ry="12.5" style="stroke:#181818;stroke-width:1.5;" width="104" x="735" y="2708.6406"/><text fill="#000000" font-family="Courier" font-size="14" lengthAdjust="spacing" textLength="84" x="745" y="2733.1738">/crm/contacts</text><path d="M685,2986.6875 L695,2986.6875 C710,2986.6875 710,2727.4453 725,2727.4453 L735,2727.4453 " fill="none" style="stroke:#181818;stroke-width:1.0;"/><rect fill="#F1F1F1" height="37.6094" rx="12.5" ry="12.5" style="stroke:#181818;stroke-width:1.5;" width="116" x="735" y="2766.25"/><text fill="#000000" font-family="Courier" font-size="14" lengthAdjust="spacing" textLength="96" x="745" y="2790.7832">/crm/customers</text><path d="M685,2986.6875 L695,2986.6875 C710,2986.6875 710,2785.0547 725,2785.0547 L735,2785.0547 " fill="none" style="stroke:#181818;stroke-width:1.0;"/><rect fill="#F1F1F1" height="37.6094" rx="12.5" ry="12.5" style="stroke:#181818;stroke-width:1.5;" width="135" x="735" y="2823.8594"/><text fill="#000000" font-family="Courier" font-size="14" lengthAdjust="spacing" textLength="115" x="745" y="2848.3926">/crm/customers/:id</text><path d="M685,2986.6875 L695,2986.6875 C710,2986.6875 710,2842.6641 725,2842.6641 L735,2842.6641 " fill="none" style="stroke:#181818;stroke-width:1.0;"/><rect fill="#F1F1F1" height="37.6094" rx="12.5" ry="12.5" style="stroke:#181818;stroke-width:1.5;" width="104" x="735" y="2881.4688"/><text fill="#000000" font-family="Courier" font-size="14" lengthAdjust="spacing" textLength="84" x="745" y="2906.002">/crm/deals/:id</text><path d="M685,2986.6875 L695,2986.6875 C710,2986.6875 710,2900.2734 725,2900.2734 L735,2900.2734 " fill="none" style="stroke:#181818;stroke-width:1.0;"/><rect fill="#F1F1F1" height="37.6094" rx="12.5" ry="12.5" style="stroke:#181818;stroke-width:1.5;" width="85" x="735" y="2939.0781"/><text fill="#000000" font-family="Courier" font-size="14" lengthAdjust="spacing" textLength="65" x="745" y="2963.6113">/crm/leads</text><path d="M685,2986.6875 L695,2986.6875 C710,2986.6875 710,2957.8828 725,2957.8828 L735,2957.8828 " fill="none" style="stroke:#181818;stroke-width:1.0;"/><rect fill="#F1F1F1" height="37.6094" rx="12.5" ry="12.5" style="stroke:#181818;stroke-width:1.5;" width="104" x="735" y="2996.6875"/><text fill="#000000" font-family="Courier" font-size="14" lengthAdjust="spacing" textLength="84" x="745" y="3021.2207">/crm/leads/:id</text><path d="M685,2986.6875 L695,2986.6875 C710,2986.6875 710,3015.4922 725,3015.4922 L735,3015.4922 " fill="none" style="stroke:#181818;stroke-width:1.0;"/><rect fill="#F1F1F1" height="37.6094" rx="12.5" ry="12.5" style="stroke:#181818;stroke-width:1.5;" width="100" x="735" y="3054.2969"/><text fill="#000000" font-family="Courier" font-size="14" lengthAdjust="spacing" textLength="80" x="745" y="3078.8301">/crm/pipeline</text><path d="M685,2986.6875 L695,2986.6875 C710,2986.6875 710,3073.1016 725,3073.1016 L735,3073.1016 " fill="none" style="stroke:#181818;stroke-width:1.0;"/><rect fill="#F1F1F1" height="37.6094" rx="12.5" ry="12.5" style="stroke:#181818;stroke-width:1.5;" width="116" x="735" y="3111.9063"/><text fill="#000000" font-family="Courier" font-size="14" lengthAdjust="spacing" textLength="96" x="745" y="3136.4395">/sales/analytics</text><path d="M685,2986.6875 L695,2986.6875 C710,2986.6875 710,3130.7109 725,3130.7109 L735,3130.7109 " fill="none" style="stroke:#181818;stroke-width:1.0;"/><rect fill="#F1F1F1" height="37.6094" rx="12.5" ry="12.5" style="stroke:#181818;stroke-width:1.5;" width="112" x="735" y="3169.5156"/><text fill="#000000" font-family="Courier" font-size="14" lengthAdjust="spacing" textLength="92" x="745" y="3194.0488">/sales/invoices</text><path d="M685,2986.6875 L695,2986.6875 C710,2986.6875 710,3188.3203 725,3188.3203 L735,3188.3203 " fill="none" style="stroke:#181818;stroke-width:1.0;"/><rect fill="#F1F1F1" height="37.6094" rx="12.5" ry="12.5" style="stroke:#181818;stroke-width:1.5;" width="102" x="735" y="3227.125"/><text fill="#000000" font-family="Courier" font-size="14" lengthAdjust="spacing" textLength="82" x="745" y="3251.6582">/sales/orders</text><path d="M685,2986.6875 L695,2986.6875 C710,2986.6875 710,3245.9297 725,3245.9297 L735,3245.9297 " fill="none" style="stroke:#181818;stroke-width:1.0;"/><rect fill="#F1F1F1" height="37.6094" rx="12.5" ry="12.5" style="stroke:#181818;stroke-width:1.5;" width="127" x="735" y="3284.7344"/><text fill="#000000" font-family="Courier" font-size="14" lengthAdjust="spacing" textLength="107" x="745" y="3309.2676">/sales/quotations</text><path d="M685,2986.6875 L695,2986.6875 C710,2986.6875 710,3303.5391 725,3303.5391 L735,3303.5391 " fill="none" style="stroke:#181818;stroke-width:1.0;"/><rect fill="#F1F1F1" height="37.6094" rx="12.5" ry="12.5" style="stroke:#181818;stroke-width:1.5;" width="111" x="735" y="3342.3438"/><text fill="#000000" font-family="Courier" font-size="14" lengthAdjust="spacing" textLength="91" x="745" y="3366.877">/sales/tracking</text><path d="M685,2986.6875 L695,2986.6875 C710,2986.6875 710,3361.1484 725,3361.1484 L735,3361.1484 " fill="none" style="stroke:#181818;stroke-width:1.0;"/><path d="M487,1719.2813 L497,1719.2813 C512,1719.2813 512,2986.6875 527,2986.6875 L537,2986.6875 " fill="none" style="stroke:#181818;stroke-width:1.0;"/><path d="M198,1719.2813 L208,1719.2813 C223,1719.2813 223,1719.2813 238,1719.2813 L248,1719.2813 " fill="none" style="stroke:#181818;stroke-width:1.0;"/><!--SRC=[TLLDSzem4BtxL-mHc74TqxJJScfAGvjEI3EGjCVC8Y-W8akk9BlbttTjR31sEC6-z_InJxlhJywZzQdKIOePFD_-MCoNBmzOo0rwQVJB8xCluvl0Iw-evk74mtJB0WYXrC7uPW8BatjAEDwGWy7KM09lOBgO3uF0xQJEq68AgT56RAr92TQe7BMeXDQOApypsZyWyrEJMqas24QNZWz6e_QnSASBqjxOFGpYE8Odur4DMJI2wZetGf3Zkxsji1542Rhjog1DwbZgGdggWzoHTTNYqxQe4_Y5bhQ6MHXy79uM7XJTEC8iiwRWJBjCs3tSUIDsOMeAIbdHwFysftNZA94kGo-sFSAI89drT-W3vmR077M-Hk7PThs1mRZ9BctZqSgaxbNYhx6xqDYaiUtRelBh4VVMACLFSjnmQuz_UWQLaFUa4zI2JXYbcJ9xefPC4HOKMlgJa_CztE-pjZWxtA87H68lr2l26eycCkbpRFqgj-xieLeq_pebiyvYXmhvsTapBjLoPMNIRPqNB4cjmoNPGWgkh7UDLKtUdR1NkaVYp9KkwT7jN1UitirIPkmX6PX9NPfVlHxtZCcrhmeYFZOE7j58b8qOcdLOO-w2v1LyGveigb1HiY7Rvt_p0D2eBX8XctXikHPzQRzMZaoi3rcUHxroR73wbv5s50hqj34ybouA5CfZWxXyvOJbPkIH5QsaKdoDrwZCIb5JvSIid5-YAWTfVDsOBcnw-XS9awQvbg8QX-wCq9vxyWpAURYaTLzsiLQLbdX2d7m7uvfAN3VkQ3AP4QVN-EdAsqTSwshlfN1dACz0mrL-3fu6nn7wa_C0RwTtWBr5iIlT2ZxncAY_O47mg53xv_az5BnF-Oc8tuolnjTltWvcLiACLX2_Xwju4bzDhjx1tV89IdeO3Bu-tXTZS5nJNFFSsjxALLuUEmo-Ou6mACidfGcKqU1fFeJbRGF2BNyohD5LFt__EJ-8u9lnoypuIlp-ElmiFPIjJHP-peClX-ySBnKcuJmcyFmq2py4zwWtES-62P0EfcNHslq4xXx-0m00]--></g></svg>