<?xml version="1.0" encoding="us-ascii" standalone="no"?><svg xmlns="http://www.w3.org/2000/svg" xmlns:xlink="http://www.w3.org/1999/xlink" contentStyleType="text/css" height="997px" preserveAspectRatio="none" style="width:1075px;height:997px;background:#FFFFFF;" version="1.1" viewBox="0 0 1075 997" width="1075px" zoomAndPan="magnify"><defs/><g><text fill="#000000" font-family="sans-serif" font-size="14" font-weight="bold" lengthAdjust="spacing" textLength="435" x="313" y="24.5332">UEORMS State Transition - 12) Platform Security and Reliability</text><ellipse cx="60" cy="54.6094" fill="#222222" rx="10" ry="10" style="stroke:#222222;stroke-width:1.0;"/><rect fill="#F1F1F1" height="40" rx="12.5" ry="12.5" style="stroke:#181818;stroke-width:0.5;" width="106" x="7" y="125.6094"/><text fill="#000000" font-family="sans-serif" font-size="14" lengthAdjust="spacing" textLength="96" x="12" y="151.3379">ServiceStarting</text><rect fill="#F1F1F1" height="40" rx="12.5" ry="12.5" style="stroke:#181818;stroke-width:0.5;" width="104" x="560" y="243.6094"/><text fill="#000000" font-family="sans-serif" font-size="14" lengthAdjust="spacing" textLength="94" x="565" y="269.3379">ServiceHealthy</text><rect fill="#F1F1F1" height="40" rx="12.5" ry="12.5" style="stroke:#181818;stroke-width:0.5;" width="73" x="487.5" y="715.6094"/><text fill="#000000" font-family="sans-serif" font-size="14" lengthAdjust="spacing" textLength="63" x="492.5" y="741.3379">Degraded</text><rect fill="#F1F1F1" height="40" rx="12.5" ry="12.5" style="stroke:#181818;stroke-width:0.5;" width="141" x="400.5" y="361.6094"/><text fill="#000000" font-family="sans-serif" font-size="14" lengthAdjust="spacing" textLength="131" x="405.5" y="387.3379">AccessControlCheck</text><rect fill="#F1F1F1" height="40" rx="12.5" ry="12.5" style="stroke:#181818;stroke-width:0.5;" width="115" x="466.5" y="479.6094"/><text fill="#000000" font-family="sans-serif" font-size="14" lengthAdjust="spacing" textLength="105" x="471.5" y="505.3379">RequestHandled</text><rect fill="#F1F1F1" height="40" rx="12.5" ry="12.5" style="stroke:#181818;stroke-width:0.5;" width="97" x="187.5" y="479.6094"/><text fill="#000000" font-family="sans-serif" font-size="14" lengthAdjust="spacing" textLength="87" x="192.5" y="505.3379">SecurityEvent</text><rect fill="#F1F1F1" height="40" rx="12.5" ry="12.5" style="stroke:#181818;stroke-width:0.5;" width="116" x="466" y="597.6094"/><text fill="#000000" font-family="sans-serif" font-size="14" lengthAdjust="spacing" textLength="106" x="471" y="623.3379">IncidentDetected</text><rect fill="#F1F1F1" height="40" rx="12.5" ry="12.5" style="stroke:#181818;stroke-width:0.5;" width="138" x="759" y="833.6094"/><text fill="#000000" font-family="sans-serif" font-size="14" lengthAdjust="spacing" textLength="128" x="764" y="859.3379">RecoveryInProgress</text><rect fill="#F1F1F1" height="40" rx="12.5" ry="12.5" style="stroke:#181818;stroke-width:0.5;" width="130" x="833" y="951.6094"/><text fill="#000000" font-family="sans-serif" font-size="14" lengthAdjust="spacing" textLength="120" x="838" y="977.3379">ManualIntervention</text><ellipse cx="746" cy="381.6094" fill="none" rx="11" ry="11" style="stroke:#222222;stroke-width:1.0;"/><ellipse cx="746" cy="381.6094" fill="#222222" rx="6" ry="6" style="stroke:#222222;stroke-width:1.0;"/><!--link *start* to ServiceStarting--><g id="link_*start*_ServiceStarting"><path d="M60,64.7994 C60,79.0094 60,100.6294 60,119.3494 " fill="none" id="*start*-to-ServiceStarting" style="stroke:#181818;stroke-width:1.0;"/><polygon fill="#181818" points="60,125.3494,64,116.3494,60,120.3494,56,116.3494,60,125.3494" style="stroke:#181818;stroke-width:1.0;"/></g><!--link ServiceStarting to ServiceHealthy--><g id="link_ServiceStarting_ServiceHealthy"><path d="M113.18,157.7894 C218.96,180.0194 448.7583,228.3053 553.8183,250.3853 " fill="none" id="ServiceStarting-to-ServiceHealthy" style="stroke:#181818;stroke-width:1.0;"/><polygon fill="#181818" points="559.69,251.6194,551.7051,245.8538,554.7969,250.591,550.0597,253.6828,559.69,251.6194" style="stroke:#181818;stroke-width:1.0;"/><text fill="#000000" font-family="sans-serif" font-size="13" lengthAdjust="spacing" textLength="127" x="371" y="210.1045">health checks passed</text></g><!--link ServiceStarting to Degraded--><g id="link_ServiceStarting_Degraded"><path d="M52.08,165.9394 C43.49,188.6794 31,227.7394 31,262.6094 C31,262.6094 31,262.6094 31,618.6094 C31,712.3594 367.0927,730.2299 481.3527,733.6499 " fill="none" id="ServiceStarting-to-Degraded" style="stroke:#181818;stroke-width:1.0;"/><polygon fill="#181818" points="487.35,733.8294,478.4737,729.5619,482.3522,733.6798,478.2344,737.5583,487.35,733.8294" style="stroke:#181818;stroke-width:1.0;"/><text fill="#000000" font-family="sans-serif" font-size="13" lengthAdjust="spacing" textLength="149" x="32" y="446.1045">startup dependency issue</text></g><!--link ServiceHealthy to AccessControlCheck--><g id="link_ServiceHealthy_AccessControlCheck"><path d="M559.7,272.6894 C533.63,279.3794 503.74,291.5494 485,313.6094 C473.77,326.8294 470.9859,340.7626 470.5059,355.4526 " fill="none" id="ServiceHealthy-to-AccessControlCheck" style="stroke:#181818;stroke-width:1.0;"/><polygon fill="#181818" points="470.31,361.4494,474.6018,352.5848,470.4733,356.452,466.6061,352.3235,470.31,361.4494" style="stroke:#181818;stroke-width:1.0;"/><text fill="#000000" font-family="sans-serif" font-size="13" lengthAdjust="spacing" textLength="99" x="486" y="328.1045">incoming request</text></g><!--link AccessControlCheck to RequestHandled--><g id="link_AccessControlCheck_RequestHandled"><path d="M448.47,401.7994 C435.49,415.2694 423.47,433.6494 433,449.6094 C440.73,462.5494 447.9131,469.3954 461.1631,476.6254 " fill="none" id="AccessControlCheck-to-RequestHandled" style="stroke:#181818;stroke-width:1.0;"/><polygon fill="#181818" points="466.43,479.4994,460.4456,471.6772,462.0409,477.1044,456.6137,478.6997,466.43,479.4994" style="stroke:#181818;stroke-width:1.0;"/><text fill="#000000" font-family="sans-serif" font-size="13" lengthAdjust="spacing" textLength="151" x="434" y="446.1045">auth/RBAC/rate-limit pass</text></g><!--link AccessControlCheck to SecurityEvent--><g id="link_AccessControlCheck_SecurityEvent"><path d="M400.48,398.2994 C360.33,408.0394 314.62,420.7194 297,431.6094 C277.19,443.8494 263.4475,459.4904 252.3775,474.5904 " fill="none" id="AccessControlCheck-to-SecurityEvent" style="stroke:#181818;stroke-width:1.0;"/><polygon fill="#181818" points="248.83,479.4294,257.3772,474.536,251.7862,475.3969,250.9253,469.806,248.83,479.4294" style="stroke:#181818;stroke-width:1.0;"/><text fill="#000000" font-family="sans-serif" font-size="13" lengthAdjust="spacing" textLength="122" x="298" y="446.1045">auth or throttle failure</text></g><!--link RequestHandled to ServiceHealthy--><g id="link_RequestHandled_ServiceHealthy"><path d="M560.38,479.4794 C571.67,471.7294 582.99,461.7094 590,449.6094 C621.06,396.0194 618.556,325.0497 615.026,289.6897 " fill="none" id="RequestHandled-to-ServiceHealthy" style="stroke:#181818;stroke-width:1.0;"/><polygon fill="#181818" points="614.43,283.7194,611.3438,293.0722,614.9267,288.6946,619.3042,292.2775,614.43,283.7194" style="stroke:#181818;stroke-width:1.0;"/><text fill="#000000" font-family="sans-serif" font-size="13" lengthAdjust="spacing" textLength="86" x="616" y="387.1045">metrics normal</text></g><!--link RequestHandled to IncidentDetected--><g id="link_RequestHandled_IncidentDetected"><path d="M524,519.7694 C524,541.2594 524,569.9194 524,591.4294 " fill="none" id="RequestHandled-to-IncidentDetected" style="stroke:#181818;stroke-width:1.0;"/><polygon fill="#181818" points="524,597.4294,528,588.4294,524,592.4294,520,588.4294,524,597.4294" style="stroke:#181818;stroke-width:1.0;"/><text fill="#000000" font-family="sans-serif" font-size="13" lengthAdjust="spacing" textLength="139" x="525" y="564.1045">alert threshold breached</text></g><!--link IncidentDetected to Degraded--><g id="link_IncidentDetected_Degraded"><path d="M524,637.7694 C524,659.2594 524,687.9194 524,709.4294 " fill="none" id="IncidentDetected-to-Degraded" style="stroke:#181818;stroke-width:1.0;"/><polygon fill="#181818" points="524,715.4294,528,706.4294,524,710.4294,520,706.4294,524,715.4294" style="stroke:#181818;stroke-width:1.0;"/><text fill="#000000" font-family="sans-serif" font-size="13" lengthAdjust="spacing" textLength="113" x="525" y="682.1045">reliability risk active</text></g><!--link Degraded to RecoveryInProgress--><g id="link_Degraded_RecoveryInProgress"><path d="M560.67,750.5994 C614.99,771.3294 711.3942,808.1104 772.4842,831.4204 " fill="none" id="Degraded-to-RecoveryInProgress" style="stroke:#181818;stroke-width:1.0;"/><polygon fill="#181818" points="778.09,833.5594,771.1073,826.6137,773.4185,831.7769,768.2553,834.0881,778.09,833.5594" style="stroke:#181818;stroke-width:1.0;"/><text fill="#000000" font-family="sans-serif" font-size="13" lengthAdjust="spacing" textLength="77" x="695" y="800.1045">auto recovery</text></g><!--link RecoveryInProgress to ServiceHealthy--><g id="link_RecoveryInProgress_ServiceHealthy"><path d="M828,833.3194 C828,810.2994 828,770.6394 828,736.6094 C828,380.6094 828,380.6094 828,380.6094 C828,349.2694 828.92,334.9794 806,313.6094 C767.76,277.9594 713.428,267.6689 670.198,264.9289 " fill="none" id="RecoveryInProgress-to-ServiceHealthy" style="stroke:#181818;stroke-width:1.0;"/><polygon fill="#181818" points="664.21,264.5494,672.939,269.1107,669.2,264.8656,673.445,261.1267,664.21,264.5494" style="stroke:#181818;stroke-width:1.0;"/><text fill="#000000" font-family="sans-serif" font-size="13" lengthAdjust="spacing" textLength="115" x="829" y="564.1045">recovery succeeded</text></g><!--link RecoveryInProgress to ManualIntervention--><g id="link_RecoveryInProgress_ManualIntervention"><path d="M835.01,873.7694 C840.42,887.5394 848.56,906.3194 858,921.6094 C864.46,932.0794 869.0135,938.2053 876.4935,946.9253 " fill="none" id="RecoveryInProgress-to-ManualIntervention" style="stroke:#181818;stroke-width:1.0;"/><polygon fill="#181818" points="880.4,951.4794,877.5763,942.044,877.1446,947.6843,871.5043,947.2526,880.4,951.4794" style="stroke:#181818;stroke-width:1.0;"/><text fill="#000000" font-family="sans-serif" font-size="13" lengthAdjust="spacing" textLength="82" x="859" y="918.1045">recovery failed</text></g><!--link ManualIntervention to ServiceHealthy--><g id="link_ManualIntervention_ServiceHealthy"><path d="M920.88,951.4294 C929.73,943.0394 939.32,932.5994 946,921.6094 C962.28,894.8294 968,885.9494 968,854.6094 C968,380.6094 968,380.6094 968,380.6094 C968,317.4794 768.9805,284.1285 670.1005,271.3485 " fill="none" id="ManualIntervention-to-ServiceHealthy" style="stroke:#181818;stroke-width:1.0;"/><polygon fill="#181818" points="664.15,270.5794,672.563,275.7,669.1088,271.2203,673.5885,267.766,664.15,270.5794" style="stroke:#181818;stroke-width:1.0;"/><text fill="#000000" font-family="sans-serif" font-size="13" lengthAdjust="spacing" textLength="98" x="969" y="623.1045">operator resolved</text></g><!--link SecurityEvent to ServiceHealthy--><g id="link_SecurityEvent_ServiceHealthy"><path d="M226.66,479.4794 C214.09,450.6594 196.23,395.8794 223,361.6094 C264.24,308.8194 457.4471,281.2358 553.7171,270.4758 " fill="none" id="SecurityEvent-to-ServiceHealthy" style="stroke:#181818;stroke-width:1.0;"/><polygon fill="#181818" points="559.68,269.8094,550.2914,266.8338,554.7109,270.3648,551.18,274.7843,559.68,269.8094" style="stroke:#181818;stroke-width:1.0;"/><text fill="#000000" font-family="sans-serif" font-size="13" lengthAdjust="spacing" textLength="158" x="224" y="387.1045">event logged and monitored</text></g><!--link ServiceHealthy to *end*--><g id="link_ServiceHealthy_*end*"><path d="M625.01,283.6594 C635.33,297.9194 650.7,317.3294 667,331.6094 C689.34,351.1794 715.0182,365.2365 730.7082,373.1165 " fill="none" id="ServiceHealthy-to-*end*" style="stroke:#181818;stroke-width:1.0;"/><polygon fill="#181818" points="736.07,375.8094,729.8226,368.1956,731.6019,373.5653,726.2321,375.3446,736.07,375.8094" style="stroke:#181818;stroke-width:1.0;"/><text fill="#000000" font-family="sans-serif" font-size="13" lengthAdjust="spacing" textLength="133" x="668" y="328.1045">maintenance shutdown</text></g><!--SRC=[TLF1RXGn3BtdAtm5QLNH8mUaigtKFLHKkt127BA9EsCr4m-ECsZ_7cU6qcMPtfBOxzb-pr4UGHcEhCe3H18CIfnTJn41Xr5F4B44eN5-LjA4yEtko_xX00VrYl1LV2xKeh213zVlu35vVM8Pu82X2Xc3pn7scCWVATdTkU_lVy1cyyaoPAA0HYHAkNCNz_ESU_H9-nDyX7u-GUWnF1SOVIaOLv6ts8cF60rJsdiTRPOHSyGSJa2bL7JkWhxXRaB0KhQSLJXjMnbZe1nuQCo2FoiMTIjP3RnVmlSsSvfB-whzrVxppVPAJAvDee5qxlejXXVPxYRC-eS0M41xCPTC_YTFgOhrVb5hLQq1LIWKoEQ8JskGNGvcTjPRL3D_wJcXQ2k8fUSKuIZeJU_e_ikzq5bUNGQXyWpUrccoLl_cB1e5db1Ek_met5cHiep9XbyYRYLbTRmN09HgQg9LU0lwu7FrQPVLA6o2jgzdyAQfOLUILiloYEQccMBqd2P3kdzjMqNX74hSTIP4-nG3PpAMr_qzNyFsISm_JzPDzZaWbBvgv5_P_GO0]--></g></svg>