<?xml version="1.0" encoding="us-ascii" standalone="no"?><svg xmlns="http://www.w3.org/2000/svg" xmlns:xlink="http://www.w3.org/1999/xlink" contentStyleType="text/css" height="576px" preserveAspectRatio="none" style="width:1719px;height:576px;background:#FFFFFF;" version="1.1" viewBox="0 0 1719 576" width="1719px" zoomAndPan="magnify"><defs/><g><line style="stroke:#181818;stroke-width:0.5;stroke-dasharray:5.0,5.0;" x1="39" x2="39" y1="82.6094" y2="569.8828"/><line style="stroke:#181818;stroke-width:0.5;stroke-dasharray:5.0,5.0;" x1="141.5" x2="141.5" y1="82.6094" y2="569.8828"/><line style="stroke:#181818;stroke-width:0.5;stroke-dasharray:5.0,5.0;" x1="305.5" x2="305.5" y1="82.6094" y2="569.8828"/><line style="stroke:#181818;stroke-width:0.5;stroke-dasharray:5.0,5.0;" x1="583.5" x2="583.5" y1="82.6094" y2="569.8828"/><line style="stroke:#181818;stroke-width:0.5;stroke-dasharray:5.0,5.0;" x1="799.5" x2="799.5" y1="82.6094" y2="569.8828"/><line style="stroke:#181818;stroke-width:0.5;stroke-dasharray:5.0,5.0;" x1="989.5" x2="989.5" y1="82.6094" y2="569.8828"/><line style="stroke:#181818;stroke-width:0.5;stroke-dasharray:5.0,5.0;" x1="1163" x2="1163" y1="82.6094" y2="569.8828"/><line style="stroke:#181818;stroke-width:0.5;stroke-dasharray:5.0,5.0;" x1="1402" x2="1402" y1="82.6094" y2="569.8828"/><line style="stroke:#181818;stroke-width:0.5;stroke-dasharray:5.0,5.0;" x1="1636" x2="1636" y1="82.6094" y2="569.8828"/><text fill="#000000" font-family="sans-serif" font-size="14" lengthAdjust="spacing" textLength="62" x="5" y="79.5332">Employee</text><ellipse cx="39" cy="13.5" fill="#E2E2F0" rx="8" ry="8" style="stroke:#181818;stroke-width:0.5;"/><path d="M39,21.5 L39,48.5 M26,29.5 L52,29.5 M39,48.5 L26,63.5 M39,48.5 L52,63.5 " fill="none" style="stroke:#181818;stroke-width:0.5;"/><text fill="#000000" font-family="sans-serif" font-size="14" lengthAdjust="spacing" textLength="111" x="83" y="79.5332">Finance Manager</text><ellipse cx="141.5" cy="13.5" fill="#E2E2F0" rx="8" ry="8" style="stroke:#181818;stroke-width:0.5;"/><path d="M141.5,21.5 L141.5,48.5 M128.5,29.5 L154.5,29.5 M141.5,48.5 L128.5,63.5 M141.5,48.5 L154.5,63.5 " fill="none" style="stroke:#181818;stroke-width:0.5;"/><text fill="#000000" font-family="sans-serif" font-size="14" lengthAdjust="spacing" textLength="114" x="245.5" y="79.5332">Web/Mobile Client</text><path d="M285,37 L285,61 M285,49 L302,49 " fill="none" style="stroke:#181818;stroke-width:0.5;"/><ellipse cx="314" cy="49" fill="#E2E2F0" rx="12" ry="12" style="stroke:#181818;stroke-width:0.5;"/><text fill="#000000" font-family="sans-serif" font-size="14" lengthAdjust="spacing" textLength="115" x="523" y="61.9238">Express API Layer</text><text fill="#000000" font-family="sans-serif" font-size="14" lengthAdjust="spacing" textLength="172" x="494.5" y="79.5332">(app.js route orchestration)</text><ellipse cx="583.5" cy="31.3906" fill="#E2E2F0" rx="12" ry="12" style="stroke:#181818;stroke-width:0.5;"/><polygon fill="#181818" points="579.5,19.3906,585.5,14.3906,583.5,19.3906,585.5,24.3906,579.5,19.3906" style="stroke:#181818;stroke-width:1.0;"/><text fill="#000000" font-family="sans-serif" font-size="14" lengthAdjust="spacing" textLength="228" x="682.5" y="79.5332">Workflow Engine + Approval Service</text><ellipse cx="799.5" cy="49" fill="#E2E2F0" rx="12" ry="12" style="stroke:#181818;stroke-width:0.5;"/><polygon fill="#181818" points="795.5,37,801.5,32,799.5,37,801.5,42,795.5,37" style="stroke:#181818;stroke-width:1.0;"/><text fill="#000000" font-family="sans-serif" font-size="14" lengthAdjust="spacing" textLength="120" x="926.5" y="79.5332">Notification Service</text><ellipse cx="989.5" cy="49" fill="#E2E2F0" rx="12" ry="12" style="stroke:#181818;stroke-width:0.5;"/><polygon fill="#181818" points="985.5,37,991.5,32,989.5,37,991.5,42,985.5,37" style="stroke:#181818;stroke-width:1.0;"/><text fill="#000000" font-family="sans-serif" font-size="14" lengthAdjust="spacing" textLength="195" x="1062.5" y="79.5332">Finance + Accounting Services</text><ellipse cx="1163" cy="49" fill="#E2E2F0" rx="12" ry="12" style="stroke:#181818;stroke-width:0.5;"/><polygon fill="#181818" points="1159,37,1165,32,1163,37,1165,42,1159,37" style="stroke:#181818;stroke-width:1.0;"/><text fill="#000000" font-family="sans-serif" font-size="14" lengthAdjust="spacing" textLength="186" x="1306" y="79.5332">Reports + Reporting Services</text><ellipse cx="1402" cy="49" fill="#E2E2F0" rx="12" ry="12" style="stroke:#181818;stroke-width:0.5;"/><polygon fill="#181818" points="1398,37,1404,32,1402,37,1404,42,1398,37" style="stroke:#181818;stroke-width:1.0;"/><text fill="#000000" font-family="sans-serif" font-size="14" lengthAdjust="spacing" textLength="146" x="1560" y="79.5332">PostgreSQL via Prisma</text><path d="M1618,29 C1618,19 1636,19 1636,19 C1636,19 1654,19 1654,29 L1654,55 C1654,65 1636,65 1636,65 C1636,65 1618,65 1618,55 L1618,29 " fill="#E2E2F0" style="stroke:#181818;stroke-width:1.5;"/><path d="M1618,29 C1618,39 1636,39 1636,39 C1636,39 1654,39 1654,29 " fill="none" style="stroke:#181818;stroke-width:1.5;"/><rect fill="#EEEEEE" height="3" style="stroke:#EEEEEE;stroke-width:1.0;" width="1707" x="5" y="111.7852"/><line style="stroke:#000000;stroke-width:1.0;" x1="5" x2="1712" y1="111.7852" y2="111.7852"/><line style="stroke:#000000;stroke-width:1.0;" x1="5" x2="1712" y1="114.7852" y2="114.7852"/><rect fill="#EEEEEE" height="24.3516" style="stroke:#000000;stroke-width:2.0;" width="187" x="765" y="100.6094"/><text fill="#000000" font-family="sans-serif" font-size="13" font-weight="bold" lengthAdjust="spacing" textLength="169" x="771" y="118.1045">6) Finance and Accounting</text><polygon fill="#181818" points="293.5,153.3125,303.5,157.3125,293.5,161.3125,297.5,157.3125" style="stroke:#181818;stroke-width:1.0;"/><line style="stroke:#181818;stroke-width:1.0;" x1="39" x2="299.5" y1="157.3125" y2="157.3125"/><text fill="#000000" font-family="sans-serif" font-size="13" font-weight="bold" lengthAdjust="spacing" textLength="7" x="46" y="152.4561">1</text><text fill="#000000" font-family="sans-serif" font-size="13" lengthAdjust="spacing" textLength="129" x="57" y="152.4561">Submit expense claim</text><polygon fill="#181818" points="571.5,183.6641,581.5,187.6641,571.5,191.6641,575.5,187.6641" style="stroke:#181818;stroke-width:1.0;"/><line style="stroke:#181818;stroke-width:1.0;" x1="305.5" x2="577.5" y1="187.6641" y2="187.6641"/><text fill="#000000" font-family="sans-serif" font-size="13" font-weight="bold" lengthAdjust="spacing" textLength="7" x="312.5" y="182.8076">2</text><text fill="#000000" font-family="sans-serif" font-size="13" lengthAdjust="spacing" textLength="116" x="323.5" y="182.8076">/api/expense-claims</text><polygon fill="#181818" points="1151,214.0156,1161,218.0156,1151,222.0156,1155,218.0156" style="stroke:#181818;stroke-width:1.0;"/><line style="stroke:#181818;stroke-width:1.0;" x1="583.5" x2="1157" y1="218.0156" y2="218.0156"/><text fill="#000000" font-family="sans-serif" font-size="13" font-weight="bold" lengthAdjust="spacing" textLength="7" x="590.5" y="213.1592">3</text><text fill="#000000" font-family="sans-serif" font-size="13" lengthAdjust="spacing" textLength="124" x="601.5" y="213.1592">create expense claim</text><polygon fill="#181818" points="1624,244.3672,1634,248.3672,1624,252.3672,1628,248.3672" style="stroke:#181818;stroke-width:1.0;"/><line style="stroke:#181818;stroke-width:1.0;" x1="1163" x2="1630" y1="248.3672" y2="248.3672"/><text fill="#000000" font-family="sans-serif" font-size="13" font-weight="bold" lengthAdjust="spacing" textLength="7" x="1170" y="243.5107">4</text><text fill="#000000" font-family="sans-serif" font-size="13" lengthAdjust="spacing" textLength="195" x="1181" y="243.5107">ExpenseCategory, ExpenseClaim</text><polygon fill="#181818" points="810.5,274.7188,800.5,278.7188,810.5,282.7188,806.5,278.7188" style="stroke:#181818;stroke-width:1.0;"/><line style="stroke:#181818;stroke-width:1.0;" x1="804.5" x2="1162" y1="278.7188" y2="278.7188"/><text fill="#000000" font-family="sans-serif" font-size="13" font-weight="bold" lengthAdjust="spacing" textLength="7" x="816.5" y="273.8623">5</text><text fill="#000000" font-family="sans-serif" font-size="13" lengthAdjust="spacing" textLength="147" x="827.5" y="273.8623">expense approval request</text><polygon fill="#181818" points="977.5,305.0703,987.5,309.0703,977.5,313.0703,981.5,309.0703" style="stroke:#181818;stroke-width:1.0;"/><line style="stroke:#181818;stroke-width:1.0;" x1="799.5" x2="983.5" y1="309.0703" y2="309.0703"/><text fill="#000000" font-family="sans-serif" font-size="13" font-weight="bold" lengthAdjust="spacing" textLength="7" x="806.5" y="304.2139">6</text><text fill="#000000" font-family="sans-serif" font-size="13" lengthAdjust="spacing" textLength="131" x="817.5" y="304.2139">finance approval queue</text><polygon fill="#181818" points="316.5,335.4219,306.5,339.4219,316.5,343.4219,312.5,339.4219" style="stroke:#181818;stroke-width:1.0;"/><line style="stroke:#181818;stroke-width:1.0;stroke-dasharray:2.0,2.0;" x1="310.5" x2="582.5" y1="339.4219" y2="339.4219"/><text fill="#000000" font-family="sans-serif" font-size="13" font-weight="bold" lengthAdjust="spacing" textLength="7" x="322.5" y="334.5654">7</text><text fill="#000000" font-family="sans-serif" font-size="13" lengthAdjust="spacing" textLength="92" x="333.5" y="334.5654">claim submitted</text><polygon fill="#181818" points="293.5,365.7734,303.5,369.7734,293.5,373.7734,297.5,369.7734" style="stroke:#181818;stroke-width:1.0;"/><line style="stroke:#181818;stroke-width:1.0;" x1="141.5" x2="299.5" y1="369.7734" y2="369.7734"/><text fill="#000000" font-family="sans-serif" font-size="13" font-weight="bold" lengthAdjust="spacing" textLength="7" x="148.5" y="364.917">8</text><text fill="#000000" font-family="sans-serif" font-size="13" lengthAdjust="spacing" textLength="129" x="159.5" y="364.917">Accounting operations</text><polygon fill="#181818" points="571.5,396.125,581.5,400.125,571.5,404.125,575.5,400.125" style="stroke:#181818;stroke-width:1.0;"/><line style="stroke:#181818;stroke-width:1.0;" x1="305.5" x2="577.5" y1="400.125" y2="400.125"/><text fill="#000000" font-family="sans-serif" font-size="13" font-weight="bold" lengthAdjust="spacing" textLength="7" x="312.5" y="395.2686">9</text><text fill="#000000" font-family="sans-serif" font-size="13" lengthAdjust="spacing" textLength="243" x="323.5" y="395.2686">/api/accounting/* + /api/finance-dashboard</text><polygon fill="#181818" points="1151,426.4766,1161,430.4766,1151,434.4766,1155,430.4766" style="stroke:#181818;stroke-width:1.0;"/><line style="stroke:#181818;stroke-width:1.0;" x1="583.5" x2="1157" y1="430.4766" y2="430.4766"/><text fill="#000000" font-family="sans-serif" font-size="13" font-weight="bold" lengthAdjust="spacing" textLength="14" x="590.5" y="425.6201">10</text><text fill="#000000" font-family="sans-serif" font-size="13" lengthAdjust="spacing" textLength="330" x="608.5" y="425.6201">chart of accounts, journals, posting, reversals, dashboard</text><polygon fill="#181818" points="1624,456.8281,1634,460.8281,1624,464.8281,1628,460.8281" style="stroke:#181818;stroke-width:1.0;"/><line style="stroke:#181818;stroke-width:1.0;" x1="1163" x2="1630" y1="460.8281" y2="460.8281"/><text fill="#000000" font-family="sans-serif" font-size="13" font-weight="bold" lengthAdjust="spacing" textLength="14" x="1170" y="455.9717">11</text><text fill="#000000" font-family="sans-serif" font-size="13" lengthAdjust="spacing" textLength="431" x="1188" y="455.9717">ChartOfAccounts, JournalEntry, JournalEntryLine, LedgerEntry, FiscalYear</text><polygon fill="#181818" points="1390,487.1797,1400,491.1797,1390,495.1797,1394,491.1797" style="stroke:#181818;stroke-width:1.0;"/><line style="stroke:#181818;stroke-width:1.0;" x1="1163" x2="1396" y1="491.1797" y2="491.1797"/><text fill="#000000" font-family="sans-serif" font-size="13" font-weight="bold" lengthAdjust="spacing" textLength="14" x="1170" y="486.3232">12</text><text fill="#000000" font-family="sans-serif" font-size="13" lengthAdjust="spacing" textLength="197" x="1188" y="486.3232">financial aggregates for dashboard</text><polygon fill="#181818" points="594.5,517.5313,584.5,521.5313,594.5,525.5313,590.5,521.5313" style="stroke:#181818;stroke-width:1.0;"/><line style="stroke:#181818;stroke-width:1.0;stroke-dasharray:2.0,2.0;" x1="588.5" x2="1162" y1="521.5313" y2="521.5313"/><text fill="#000000" font-family="sans-serif" font-size="13" font-weight="bold" lengthAdjust="spacing" textLength="14" x="600.5" y="516.6748">13</text><text fill="#000000" font-family="sans-serif" font-size="13" lengthAdjust="spacing" textLength="99" x="618.5" y="516.6748">accounting result</text><polygon fill="#181818" points="316.5,547.8828,306.5,551.8828,316.5,555.8828,312.5,551.8828" style="stroke:#181818;stroke-width:1.0;"/><line style="stroke:#181818;stroke-width:1.0;stroke-dasharray:2.0,2.0;" x1="310.5" x2="582.5" y1="551.8828" y2="551.8828"/><text fill="#000000" font-family="sans-serif" font-size="13" font-weight="bold" lengthAdjust="spacing" textLength="14" x="322.5" y="547.0264">14</text><text fill="#000000" font-family="sans-serif" font-size="13" lengthAdjust="spacing" textLength="98" x="340.5" y="547.0264">finance response</text><!--SRC=[RPDDZzf038RlyojSJjqMogq792gnB4YjeANbW2hruYGcp3QCfvu9XVxwcf3XOvVRPFpu7VkryyOBbbk4IFmFejHai8xiwcr6OZQs85Wpnuptnc0UMM2ozHKVYDhFpjGwT3d171sM91t007etDndNha0vG6T5MN_EcQq8nfKb5nleT3GvkoXSGMUozq8Xm6Zn6MPu8FdbtgBt7vu32DUHW2NVK8Y2qR9xQ3IKlGYiM7wlA_uB4rTQH_0UHjuBxx229SdEvjJahAQNbAySxThcZU8Dr0GE5p1rgPfvher5wygK45BFH-AIyeCyImoQSZgzocW1Ks3430D1Py4XbaBBxpFOMOI5sB35XdrwD6OuX8yFwHr0LrpNCXoQD1deVMhDXG4iwsnh8z3UazCdyWhjrhHHvOvc3w2FtlPRfDSWmHmZ2gJd1f0BeKxXLYc5bNnwL6XoYewLB5aEtVF5IterLJffOPgJq9zQHsmqginf2CgjKy-9KqetjIdnkjcc9WXDov4AStnmVcF7bMFiwRHAuRuVU4RxxtI8pLrRIA_0iCaOfRXZqmOb0g-XpGzTUEPQ75PwyZfW5UngepkIqDnTj5wQEJvAVLkFpa9VJa8JtR33xTTC5xuBCohq5sp3Knjoh7uIohLmsifagbKtiTIbAtLaGNzskLVGsPcBATf2gAluUWXfM1htQYuPyny0]--></g></svg>