<?xml version="1.0" encoding="us-ascii" standalone="no"?><svg xmlns="http://www.w3.org/2000/svg" xmlns:xlink="http://www.w3.org/1999/xlink" contentStyleType="text/css" height="2007px" preserveAspectRatio="none" style="width:522px;height:2007px;background:#FFFFFF;" version="1.1" viewBox="0 0 522 2007" width="522px" zoomAndPan="magnify"><defs/><g><text fill="#000000" font-family="sans-serif" font-size="14" font-weight="bold" lengthAdjust="spacing" textLength="494" x="10" y="24.5332">UEORMS State Transition - 10) Assets, Documents, and Communication</text><ellipse cx="253.25" cy="54.6094" fill="#222222" rx="10" ry="10" style="stroke:#222222;stroke-width:1.0;"/><rect fill="#F1F1F1" height="40" rx="12.5" ry="12.5" style="stroke:#181818;stroke-width:0.5;" width="114" x="196.25" y="125.6094"/><text fill="#000000" font-family="sans-serif" font-size="14" lengthAdjust="spacing" textLength="104" x="201.25" y="151.3379">AssetRegistered</text><rect fill="#F1F1F1" height="40" rx="12.5" ry="12.5" style="stroke:#181818;stroke-width:0.5;" width="103" x="201.75" y="243.6094"/><text fill="#000000" font-family="sans-serif" font-size="14" lengthAdjust="spacing" textLength="93" x="206.75" y="269.3379">AssetAllocated</text><rect fill="#F1F1F1" height="40" rx="12.5" ry="12.5" style="stroke:#181818;stroke-width:0.5;" width="100" x="133.25" y="361.6094"/><text fill="#000000" font-family="sans-serif" font-size="14" lengthAdjust="spacing" textLength="90" x="138.25" y="387.3379">AssetOverdue</text><rect fill="#F1F1F1" height="40" rx="12.5" ry="12.5" style="stroke:#181818;stroke-width:0.5;" width="104" x="190.25" y="479.6094"/><text fill="#000000" font-family="sans-serif" font-size="14" lengthAdjust="spacing" textLength="94" x="195.25" y="505.3379">AssetReturned</text><rect fill="#F1F1F1" height="40" rx="12.5" ry="12.5" style="stroke:#181818;stroke-width:0.5;" width="143" x="170.75" y="597.6094"/><text fill="#000000" font-family="sans-serif" font-size="14" lengthAdjust="spacing" textLength="133" x="175.75" y="623.3379">MaintenancePlanned</text><rect fill="#F1F1F1" height="40" rx="12.5" ry="12.5" style="stroke:#181818;stroke-width:0.5;" width="159" x="162.75" y="715.6094"/><text fill="#000000" font-family="sans-serif" font-size="14" lengthAdjust="spacing" textLength="149" x="167.75" y="741.3379">MaintenanceCompleted</text><rect fill="#F1F1F1" height="40" rx="12.5" ry="12.5" style="stroke:#181818;stroke-width:0.5;" width="157" x="163.75" y="833.6094"/><text fill="#000000" font-family="sans-serif" font-size="14" lengthAdjust="spacing" textLength="147" x="168.75" y="859.3379">DepreciationCalculated</text><rect fill="#F1F1F1" height="40" rx="12.5" ry="12.5" style="stroke:#181818;stroke-width:0.5;" width="105" x="189.75" y="951.6094"/><text fill="#000000" font-family="sans-serif" font-size="14" lengthAdjust="spacing" textLength="95" x="194.75" y="977.3379">DocumentDraft</text><rect fill="#F1F1F1" height="40" rx="12.5" ry="12.5" style="stroke:#181818;stroke-width:0.5;" width="120" x="182.25" y="1069.6094"/><text fill="#000000" font-family="sans-serif" font-size="14" lengthAdjust="spacing" textLength="110" x="187.25" y="1095.3379">VersionPublished</text><rect fill="#F1F1F1" height="40" rx="12.5" ry="12.5" style="stroke:#181818;stroke-width:0.5;" width="56" x="214.25" y="1187.6094"/><text fill="#000000" font-family="sans-serif" font-size="14" lengthAdjust="spacing" textLength="46" x="219.25" y="1213.3379">Shared</text><rect fill="#F1F1F1" height="40" rx="12.5" ry="12.5" style="stroke:#181818;stroke-width:0.5;" width="106" x="189.25" y="1305.6094"/><text fill="#000000" font-family="sans-serif" font-size="14" lengthAdjust="spacing" textLength="96" x="194.25" y="1331.3379">ActivityTracked</text><rect fill="#F1F1F1" height="40" rx="12.5" ry="12.5" style="stroke:#181818;stroke-width:0.5;" width="129" x="177.75" y="1423.6094"/><text fill="#000000" font-family="sans-serif" font-size="14" lengthAdjust="spacing" textLength="119" x="182.75" y="1449.3379">ConversationOpen</text><rect fill="#F1F1F1" height="40" rx="12.5" ry="12.5" style="stroke:#181818;stroke-width:0.5;" width="96" x="194.25" y="1541.6094"/><text fill="#000000" font-family="sans-serif" font-size="14" lengthAdjust="spacing" textLength="86" x="199.25" y="1567.3379">MessageSent</text><rect fill="#F1F1F1" height="40" rx="12.5" ry="12.5" style="stroke:#181818;stroke-width:0.5;" width="167" x="82.75" y="1659.6094"/><text fill="#000000" font-family="sans-serif" font-size="14" lengthAdjust="spacing" textLength="157" x="87.75" y="1685.3379">AnnouncementPublished</text><rect fill="#F1F1F1" height="40" rx="12.5" ry="12.5" style="stroke:#181818;stroke-width:0.5;" width="95" x="197.75" y="1760.6094"/><text fill="#000000" font-family="sans-serif" font-size="14" lengthAdjust="spacing" textLength="85" x="202.75" y="1786.3379">EmailQueued</text><rect fill="#F1F1F1" height="40" rx="12.5" ry="12.5" style="stroke:#181818;stroke-width:0.5;" width="130" x="180.25" y="1878.6094"/><text fill="#000000" font-family="sans-serif" font-size="14" lengthAdjust="spacing" textLength="120" x="185.25" y="1904.3379">AttachmentIndexed</text><ellipse cx="245.25" cy="1990.6094" fill="none" rx="11" ry="11" style="stroke:#222222;stroke-width:1.0;"/><ellipse cx="245.25" cy="1990.6094" fill="#222222" rx="6" ry="6" style="stroke:#222222;stroke-width:1.0;"/><!--link *start* to AssetRegistered--><g id="link_*start*_AssetRegistered"><path d="M253.25,64.7994 C253.25,79.0094 253.25,100.6294 253.25,119.3494 " fill="none" id="*start*-to-AssetRegistered" style="stroke:#181818;stroke-width:1.0;"/><polygon fill="#181818" points="253.25,125.3494,257.25,116.3494,253.25,120.3494,249.25,116.3494,253.25,125.3494" style="stroke:#181818;stroke-width:1.0;"/></g><!--link AssetRegistered to AssetAllocated--><g id="link_AssetRegistered_AssetAllocated"><path d="M253.25,165.7694 C253.25,187.2594 253.25,215.9194 253.25,237.4294 " fill="none" id="AssetRegistered-to-AssetAllocated" style="stroke:#181818;stroke-width:1.0;"/><polygon fill="#181818" points="253.25,243.4294,257.25,234.4294,253.25,238.4294,249.25,234.4294,253.25,243.4294" style="stroke:#181818;stroke-width:1.0;"/><text fill="#000000" font-family="sans-serif" font-size="13" lengthAdjust="spacing" textLength="81" x="254.25" y="210.1045">allocate asset</text></g><!--link AssetAllocated to AssetOverdue--><g id="link_AssetAllocated_AssetOverdue"><path d="M227.56,283.7394 C218.07,291.9794 208,302.3194 201.25,313.6094 C192.47,328.2894 188.8878,341.3812 186.5478,355.4012 " fill="none" id="AssetAllocated-to-AssetOverdue" style="stroke:#181818;stroke-width:1.0;"/><polygon fill="#181818" points="185.56,361.3194,190.9871,353.1007,186.3831,356.3876,183.0962,351.7837,185.56,361.3194" style="stroke:#181818;stroke-width:1.0;"/><text fill="#000000" font-family="sans-serif" font-size="13" lengthAdjust="spacing" textLength="84" x="202.25" y="328.1045">overdue trigger</text></g><!--link AssetAllocated to AssetReturned--><g id="link_AssetAllocated_AssetReturned"><path d="M272.89,283.7794 C280.13,292.1694 287.48,302.6094 291.25,313.6094 C310.83,370.7994 314.38,393.7694 291.25,449.6094 C286.46,461.1694 281.9329,467.3979 272.9529,475.5079 " fill="none" id="AssetAllocated-to-AssetReturned" style="stroke:#181818;stroke-width:1.0;"/><polygon fill="#181818" points="268.5,479.5294,277.8603,476.4658,272.2107,476.1782,272.4983,470.5286,268.5,479.5294" style="stroke:#181818;stroke-width:1.0;"/><text fill="#000000" font-family="sans-serif" font-size="13" lengthAdjust="spacing" textLength="69" x="309.25" y="387.1045">return asset</text></g><!--link AssetOverdue to AssetReturned--><g id="link_AssetOverdue_AssetReturned"><path d="M172.67,401.7794 C166.49,415.7294 161.31,434.7194 169.25,449.6094 C175.93,462.1394 182.3191,468.8222 194.2091,476.3422 " fill="none" id="AssetOverdue-to-AssetReturned" style="stroke:#181818;stroke-width:1.0;"/><polygon fill="#181818" points="199.28,479.5494,193.8118,471.358,195.0542,476.8767,189.5355,478.1192,199.28,479.5494" style="stroke:#181818;stroke-width:1.0;"/><text fill="#000000" font-family="sans-serif" font-size="13" lengthAdjust="spacing" textLength="116" x="170.25" y="446.1045">return after reminder</text></g><!--link AssetReturned to MaintenancePlanned--><g id="link_AssetReturned_MaintenancePlanned"><path d="M242.25,519.7694 C242.25,541.2594 242.25,569.9194 242.25,591.4294 " fill="none" id="AssetReturned-to-MaintenancePlanned" style="stroke:#181818;stroke-width:1.0;"/><polygon fill="#181818" points="242.25,597.4294,246.25,588.4294,242.25,592.4294,238.25,588.4294,242.25,597.4294" style="stroke:#181818;stroke-width:1.0;"/><text fill="#000000" font-family="sans-serif" font-size="13" lengthAdjust="spacing" textLength="130" x="243.25" y="564.1045">schedule maintenance</text></g><!--link MaintenancePlanned to MaintenanceCompleted--><g id="link_MaintenancePlanned_MaintenanceCompleted"><path d="M242.25,637.7694 C242.25,659.2594 242.25,687.9194 242.25,709.4294 " fill="none" id="MaintenancePlanned-to-MaintenanceCompleted" style="stroke:#181818;stroke-width:1.0;"/><polygon fill="#181818" points="242.25,715.4294,246.25,706.4294,242.25,710.4294,238.25,706.4294,242.25,715.4294" style="stroke:#181818;stroke-width:1.0;"/><text fill="#000000" font-family="sans-serif" font-size="13" lengthAdjust="spacing" textLength="131" x="243.25" y="682.1045">complete maintenance</text></g><!--link MaintenanceCompleted to DepreciationCalculated--><g id="link_MaintenanceCompleted_DepreciationCalculated"><path d="M242.25,755.7694 C242.25,777.2594 242.25,805.9194 242.25,827.4294 " fill="none" id="MaintenanceCompleted-to-DepreciationCalculated" style="stroke:#181818;stroke-width:1.0;"/><polygon fill="#181818" points="242.25,833.4294,246.25,824.4294,242.25,828.4294,238.25,824.4294,242.25,833.4294" style="stroke:#181818;stroke-width:1.0;"/><text fill="#000000" font-family="sans-serif" font-size="13" lengthAdjust="spacing" textLength="92" x="243.25" y="800.1045">run depreciation</text></g><!--link DepreciationCalculated to DocumentDraft--><g id="link_DepreciationCalculated_DocumentDraft"><path d="M242.25,873.7694 C242.25,895.2594 242.25,923.9194 242.25,945.4294 " fill="none" id="DepreciationCalculated-to-DocumentDraft" style="stroke:#181818;stroke-width:1.0;"/><polygon fill="#181818" points="242.25,951.4294,246.25,942.4294,242.25,946.4294,238.25,942.4294,242.25,951.4294" style="stroke:#181818;stroke-width:1.0;"/><text fill="#000000" font-family="sans-serif" font-size="13" lengthAdjust="spacing" textLength="139" x="243.25" y="918.1045">upload/create document</text></g><!--link DocumentDraft to VersionPublished--><g id="link_DocumentDraft_VersionPublished"><path d="M242.25,991.7694 C242.25,1013.2594 242.25,1041.9194 242.25,1063.4294 " fill="none" id="DocumentDraft-to-VersionPublished" style="stroke:#181818;stroke-width:1.0;"/><polygon fill="#181818" points="242.25,1069.4294,246.25,1060.4294,242.25,1064.4294,238.25,1060.4294,242.25,1069.4294" style="stroke:#181818;stroke-width:1.0;"/><text fill="#000000" font-family="sans-serif" font-size="13" lengthAdjust="spacing" textLength="85" x="243.25" y="1036.1045">publish version</text></g><!--link VersionPublished to Shared--><g id="link_VersionPublished_Shared"><path d="M242.25,1109.7694 C242.25,1131.2594 242.25,1159.9194 242.25,1181.4294 " fill="none" id="VersionPublished-to-Shared" style="stroke:#181818;stroke-width:1.0;"/><polygon fill="#181818" points="242.25,1187.4294,246.25,1178.4294,242.25,1182.4294,238.25,1178.4294,242.25,1187.4294" style="stroke:#181818;stroke-width:1.0;"/><text fill="#000000" font-family="sans-serif" font-size="13" lengthAdjust="spacing" textLength="133" x="243.25" y="1154.1045">share with permissions</text></g><!--link Shared to ActivityTracked--><g id="link_Shared_ActivityTracked"><path d="M242.25,1227.7694 C242.25,1249.2594 242.25,1277.9194 242.25,1299.4294 " fill="none" id="Shared-to-ActivityTracked" style="stroke:#181818;stroke-width:1.0;"/><polygon fill="#181818" points="242.25,1305.4294,246.25,1296.4294,242.25,1300.4294,238.25,1296.4294,242.25,1305.4294" style="stroke:#181818;stroke-width:1.0;"/><text fill="#000000" font-family="sans-serif" font-size="13" lengthAdjust="spacing" textLength="80" x="243.25" y="1272.1045">record activity</text></g><!--link ActivityTracked to ConversationOpen--><g id="link_ActivityTracked_ConversationOpen"><path d="M242.25,1345.7694 C242.25,1367.2594 242.25,1395.9194 242.25,1417.4294 " fill="none" id="ActivityTracked-to-ConversationOpen" style="stroke:#181818;stroke-width:1.0;"/><polygon fill="#181818" points="242.25,1423.4294,246.25,1414.4294,242.25,1418.4294,238.25,1414.4294,242.25,1423.4294" style="stroke:#181818;stroke-width:1.0;"/><text fill="#000000" font-family="sans-serif" font-size="13" lengthAdjust="spacing" textLength="77" x="243.25" y="1390.1045">open channel</text></g><!--link ConversationOpen to MessageSent--><g id="link_ConversationOpen_MessageSent"><path d="M242.25,1463.7694 C242.25,1485.2594 242.25,1513.9194 242.25,1535.4294 " fill="none" id="ConversationOpen-to-MessageSent" style="stroke:#181818;stroke-width:1.0;"/><polygon fill="#181818" points="242.25,1541.4294,246.25,1532.4294,242.25,1536.4294,238.25,1532.4294,242.25,1541.4294" style="stroke:#181818;stroke-width:1.0;"/><text fill="#000000" font-family="sans-serif" font-size="13" lengthAdjust="spacing" textLength="135" x="243.25" y="1508.1045">send message/reaction</text></g><!--link MessageSent to AnnouncementPublished--><g id="link_MessageSent_AnnouncementPublished"><path d="M194.11,1580.5894 C180.76,1588.0594 167.86,1598.1994 160.25,1611.6094 C152.01,1626.1394 153.1731,1639.5785 157.2831,1653.6985 " fill="none" id="MessageSent-to-AnnouncementPublished" style="stroke:#181818;stroke-width:1.0;"/><polygon fill="#181818" points="158.96,1659.4594,160.2853,1649.7001,157.5626,1654.6586,152.6041,1651.9359,158.96,1659.4594" style="stroke:#181818;stroke-width:1.0;"/><text fill="#000000" font-family="sans-serif" font-size="13" lengthAdjust="spacing" textLength="134" x="161.25" y="1626.1045">optional announcement</text></g><!--link MessageSent to EmailQueued--><g id="link_MessageSent_EmailQueued"><path d="M274.43,1581.6994 C284.63,1589.5594 294.7,1599.6494 300.25,1611.6094 C324.29,1663.3894 287.9386,1723.7934 264.3086,1755.5934 " fill="none" id="MessageSent-to-EmailQueued" style="stroke:#181818;stroke-width:1.0;"/><polygon fill="#181818" points="260.73,1760.4094,269.3086,1755.5712,263.7122,1756.3961,262.8873,1750.7997,260.73,1760.4094" style="stroke:#181818;stroke-width:1.0;"/><text fill="#000000" font-family="sans-serif" font-size="13" lengthAdjust="spacing" textLength="136" x="308.25" y="1685.1045">queue email notification</text></g><!--link AnnouncementPublished to EmailQueued--><g id="link_AnnouncementPublished_EmailQueued"><path d="M181.48,1699.6994 C195.47,1717.2294 212.348,1738.3792 226.318,1755.8892 " fill="none" id="AnnouncementPublished-to-EmailQueued" style="stroke:#181818;stroke-width:1.0;"/><polygon fill="#181818" points="230.06,1760.5794,227.5738,1751.0495,226.9417,1756.6709,221.3203,1756.0388,230.06,1760.5794" style="stroke:#181818;stroke-width:1.0;"/></g><!--link EmailQueued to AttachmentIndexed--><g id="link_EmailQueued_AttachmentIndexed"><path d="M245.25,1800.7694 C245.25,1822.2594 245.25,1850.9194 245.25,1872.4294 " fill="none" id="EmailQueued-to-AttachmentIndexed" style="stroke:#181818;stroke-width:1.0;"/><polygon fill="#181818" points="245.25,1878.4294,249.25,1869.4294,245.25,1873.4294,241.25,1869.4294,245.25,1878.4294" style="stroke:#181818;stroke-width:1.0;"/><text fill="#000000" font-family="sans-serif" font-size="13" lengthAdjust="spacing" textLength="108" x="246.25" y="1845.1045">upload/search files</text></g><!--link AttachmentIndexed to *end*--><g id="link_AttachmentIndexed_*end*"><path d="M245.25,1918.6994 C245.25,1937.2694 245.25,1958.7794 245.25,1973.4794 " fill="none" id="AttachmentIndexed-to-*end*" style="stroke:#181818;stroke-width:1.0;"/><polygon fill="#181818" points="245.25,1979.4794,249.25,1970.4794,245.25,1974.4794,241.25,1970.4794,245.25,1979.4794" style="stroke:#181818;stroke-width:1.0;"/></g><!--SRC=[VLEnRXin3Dtr5LnRn4YxTWWGs1aw14xjj4lHGP5edr2TT9Kef_dxaZevvvxZJCVJUu-a-4IA0r24fqWKUx0keI4NW-gSHS1-e1Umc4roGpqcHnxX-zrwSx-5BMb2U4mwP2SeBE3pfmzmcpDIle9LDAN78A4E5fQnxqjmHjT4wkV7Nx1Ot8pi3UvT9anerUn_ujnw7rdCHrz0jnYq86g6lqhM1qos80jYYoYv_HxJHSK6gQHGQwGQdbOufdkFlUEk-QTtmHxBlB94TwzT80mw67pmEepYR3gqXGVRJwXwWpbBm1CTF8uJCIs-b6BYIf8L3coqgrOijJV5jy6c4jZl2LGNc3L9ytUL-DQiBOEFsbwRXEACRQZwdoR27vWoftieJzxbhjOTnXWE8wJEAABRTZgDyv80dXrrC63gNHPkLWslzl0hFZXwuSTfVZU3J4mMT0FKd26gPGpIGBtiUi0W3qS-ffFvUtM6LqCmPxt7BLzHMaD-wlruTCsJ6BVfb5FR2o4MTaNcSZg6MBTCUrwOYN2clcEF_RU2fMh-IC2hocSG8hdTSSNUBZ9Be4wJrTQ8jEb4yvMVyDzQeZcRKIVJmSvvpEgS9shUQlKF]--></g></svg>