<?xml version="1.0" encoding="us-ascii" standalone="no"?><svg xmlns="http://www.w3.org/2000/svg" xmlns:xlink="http://www.w3.org/1999/xlink" contentStyleType="text/css" height="445px" preserveAspectRatio="none" style="width:1600px;height:445px;background:#FFFFFF;" version="1.1" viewBox="0 0 1600 445" width="1600px" zoomAndPan="magnify"><defs/><g><line style="stroke:#181818;stroke-width:0.5;stroke-dasharray:5.0,5.0;" x1="65" x2="65" y1="72.2188" y2="438.0859"/><line style="stroke:#181818;stroke-width:0.5;stroke-dasharray:5.0,5.0;" x1="257.5" x2="257.5" y1="72.2188" y2="438.0859"/><line style="stroke:#181818;stroke-width:0.5;stroke-dasharray:5.0,5.0;" x1="450" x2="450" y1="72.2188" y2="438.0859"/><line style="stroke:#181818;stroke-width:0.5;stroke-dasharray:5.0,5.0;" x1="583" x2="583" y1="72.2188" y2="438.0859"/><line style="stroke:#181818;stroke-width:0.5;stroke-dasharray:5.0,5.0;" x1="731" x2="731" y1="72.2188" y2="438.0859"/><line style="stroke:#181818;stroke-width:0.5;stroke-dasharray:5.0,5.0;" x1="887" x2="887" y1="72.2188" y2="438.0859"/><line style="stroke:#181818;stroke-width:0.5;stroke-dasharray:5.0,5.0;" x1="1075" x2="1075" y1="72.2188" y2="438.0859"/><line style="stroke:#181818;stroke-width:0.5;stroke-dasharray:5.0,5.0;" x1="1290" x2="1290" y1="72.2188" y2="438.0859"/><line style="stroke:#181818;stroke-width:0.5;stroke-dasharray:5.0,5.0;" x1="1517" x2="1517" y1="72.2188" y2="438.0859"/><text fill="#000000" font-family="sans-serif" font-size="14" lengthAdjust="spacing" textLength="114" x="5" y="69.1426">Web/Mobile Client</text><path d="M44.5,26.6094 L44.5,50.6094 M44.5,38.6094 L61.5,38.6094 " fill="none" style="stroke:#181818;stroke-width:0.5;"/><ellipse cx="73.5" cy="38.6094" fill="#E2E2F0" rx="12" ry="12" style="stroke:#181818;stroke-width:0.5;"/><text fill="#000000" font-family="sans-serif" font-size="14" lengthAdjust="spacing" textLength="83" x="213" y="51.5332">Auth + RBAC</text><text fill="#000000" font-family="sans-serif" font-size="14" lengthAdjust="spacing" textLength="239" x="135" y="69.1426">(requireAuth / permission middleware)</text><ellipse cx="257.5" cy="21" fill="#E2E2F0" rx="12" ry="12" style="stroke:#181818;stroke-width:0.5;"/><polygon fill="#181818" points="253.5,9,259.5,4,257.5,9,259.5,14,253.5,9" style="stroke:#181818;stroke-width:1.0;"/><text fill="#000000" font-family="sans-serif" font-size="14" lengthAdjust="spacing" textLength="114" x="390" y="51.5332">Realtime Gateway</text><text fill="#000000" font-family="sans-serif" font-size="14" lengthAdjust="spacing" textLength="106" x="394" y="69.1426">(WebSocket /ws)</text><ellipse cx="450" cy="21" fill="#E2E2F0" rx="12" ry="12" style="stroke:#181818;stroke-width:0.5;"/><polygon fill="#181818" points="446,9,452,4,450,9,452,14,446,9" style="stroke:#181818;stroke-width:1.0;"/><text fill="#000000" font-family="sans-serif" font-size="14" lengthAdjust="spacing" textLength="120" x="520" y="69.1426">Notification Service</text><ellipse cx="583" cy="38.6094" fill="#E2E2F0" rx="12" ry="12" style="stroke:#181818;stroke-width:0.5;"/><polygon fill="#181818" points="579,26.6094,585,21.6094,583,26.6094,585,31.6094,579,26.6094" style="stroke:#181818;stroke-width:1.0;"/><text fill="#000000" font-family="sans-serif" font-size="14" lengthAdjust="spacing" textLength="144" x="656" y="69.1426">Email Service + Queue</text><ellipse cx="731" cy="38.6094" fill="#E2E2F0" rx="12" ry="12" style="stroke:#181818;stroke-width:0.5;"/><polygon fill="#181818" points="727,26.6094,733,21.6094,731,26.6094,733,31.6094,727,26.6094" style="stroke:#181818;stroke-width:1.0;"/><text fill="#000000" font-family="sans-serif" font-size="14" lengthAdjust="spacing" textLength="136" x="816" y="69.1426">Scheduler (cron jobs)</text><ellipse cx="887" cy="38.6094" fill="#E2E2F0" rx="12" ry="12" style="stroke:#181818;stroke-width:0.5;"/><polygon fill="#181818" points="883,26.6094,889,21.6094,887,26.6094,889,31.6094,883,26.6094" style="stroke:#181818;stroke-width:1.0;"/><text fill="#000000" font-family="sans-serif" font-size="14" lengthAdjust="spacing" textLength="123" x="1010.5" y="69.1426">Attendance Service</text><ellipse cx="1075" cy="38.6094" fill="#E2E2F0" rx="12" ry="12" style="stroke:#181818;stroke-width:0.5;"/><polygon fill="#181818" points="1071,26.6094,1077,21.6094,1075,26.6094,1077,31.6094,1071,26.6094" style="stroke:#181818;stroke-width:1.0;"/><text fill="#000000" font-family="sans-serif" font-size="14" lengthAdjust="spacing" textLength="100" x="1237" y="51.5332">Assets Services</text><text fill="#000000" font-family="sans-serif" font-size="14" lengthAdjust="spacing" textLength="275" x="1149.5" y="69.1426">(asset/allocation/maintenance/depreciation)</text><ellipse cx="1290" cy="21" fill="#E2E2F0" rx="12" ry="12" style="stroke:#181818;stroke-width:0.5;"/><polygon fill="#181818" points="1286,9,1292,4,1290,9,1292,14,1286,9" style="stroke:#181818;stroke-width:1.0;"/><text fill="#000000" font-family="sans-serif" font-size="14" lengthAdjust="spacing" textLength="146" x="1441" y="69.1426">PostgreSQL via Prisma</text><path d="M1499,18.6094 C1499,8.6094 1517,8.6094 1517,8.6094 C1517,8.6094 1535,8.6094 1535,18.6094 L1535,44.6094 C1535,54.6094 1517,54.6094 1517,54.6094 C1517,54.6094 1499,54.6094 1499,44.6094 L1499,18.6094 " fill="#E2E2F0" style="stroke:#181818;stroke-width:1.5;"/><path d="M1499,18.6094 C1499,28.6094 1517,28.6094 1517,28.6094 C1517,28.6094 1535,28.6094 1535,18.6094 " fill="none" style="stroke:#181818;stroke-width:1.5;"/><rect fill="#EEEEEE" height="3" style="stroke:#EEEEEE;stroke-width:1.0;" width="1588" x="5" y="101.3945"/><line style="stroke:#000000;stroke-width:1.0;" x1="5" x2="1593" y1="101.3945" y2="101.3945"/><line style="stroke:#000000;stroke-width:1.0;" x1="5" x2="1593" y1="104.3945" y2="104.3945"/><rect fill="#EEEEEE" height="24.3516" style="stroke:#000000;stroke-width:2.0;" width="308" x="645" y="90.2188"/><text fill="#000000" font-family="sans-serif" font-size="13" font-weight="bold" lengthAdjust="spacing" textLength="290" x="651" y="107.7139">14) Realtime and Scheduled System Activities</text><polygon fill="#181818" points="438,142.9219,448,146.9219,438,150.9219,442,146.9219" style="stroke:#181818;stroke-width:1.0;"/><line style="stroke:#181818;stroke-width:1.0;" x1="65" x2="444" y1="146.9219" y2="146.9219"/><text fill="#000000" font-family="sans-serif" font-size="13" font-weight="bold" lengthAdjust="spacing" textLength="7" x="72" y="142.0654">1</text><text fill="#000000" font-family="sans-serif" font-size="13" lengthAdjust="spacing" textLength="288" x="83" y="142.0654">connect /ws?token=JWT and subscribe endpoints</text><polygon fill="#181818" points="268.5,173.2734,258.5,177.2734,268.5,181.2734,264.5,177.2734" style="stroke:#181818;stroke-width:1.0;"/><line style="stroke:#181818;stroke-width:1.0;" x1="262.5" x2="449" y1="177.2734" y2="177.2734"/><text fill="#000000" font-family="sans-serif" font-size="13" font-weight="bold" lengthAdjust="spacing" textLength="7" x="274.5" y="172.417">2</text><text fill="#000000" font-family="sans-serif" font-size="13" lengthAdjust="spacing" textLength="150" x="285.5" y="172.417">token verify + user resolve</text><polygon fill="#181818" points="1505,203.625,1515,207.625,1505,211.625,1509,207.625" style="stroke:#181818;stroke-width:1.0;"/><line style="stroke:#181818;stroke-width:1.0;" x1="257.5" x2="1511" y1="207.625" y2="207.625"/><text fill="#000000" font-family="sans-serif" font-size="13" font-weight="bold" lengthAdjust="spacing" textLength="7" x="264.5" y="202.7686">3</text><text fill="#000000" font-family="sans-serif" font-size="13" lengthAdjust="spacing" textLength="107" x="275.5" y="202.7686">user/tenant lookup</text><polygon fill="#181818" points="76,233.9766,66,237.9766,76,241.9766,72,237.9766" style="stroke:#181818;stroke-width:1.0;"/><line style="stroke:#181818;stroke-width:1.0;stroke-dasharray:2.0,2.0;" x1="70" x2="449" y1="237.9766" y2="237.9766"/><text fill="#000000" font-family="sans-serif" font-size="13" font-weight="bold" lengthAdjust="spacing" textLength="7" x="82" y="233.1201">4</text><text fill="#000000" font-family="sans-serif" font-size="13" lengthAdjust="spacing" textLength="138" x="93" y="233.1201">connected + live stream</text><polygon fill="#181818" points="1278,264.3281,1288,268.3281,1278,272.3281,1282,268.3281" style="stroke:#181818;stroke-width:1.0;"/><line style="stroke:#181818;stroke-width:1.0;" x1="887" x2="1284" y1="268.3281" y2="268.3281"/><text fill="#000000" font-family="sans-serif" font-size="13" font-weight="bold" lengthAdjust="spacing" textLength="7" x="894" y="263.4717">5</text><text fill="#000000" font-family="sans-serif" font-size="13" lengthAdjust="spacing" textLength="188" x="905" y="263.4717">midnight overdue allocation scan</text><polygon fill="#181818" points="1505,294.6797,1515,298.6797,1505,302.6797,1509,298.6797" style="stroke:#181818;stroke-width:1.0;"/><line style="stroke:#181818;stroke-width:1.0;" x1="1290" x2="1511" y1="298.6797" y2="298.6797"/><text fill="#000000" font-family="sans-serif" font-size="13" font-weight="bold" lengthAdjust="spacing" textLength="7" x="1297" y="293.8232">6</text><text fill="#000000" font-family="sans-serif" font-size="13" lengthAdjust="spacing" textLength="192" x="1308" y="293.8232">find and mark overdue allocations</text><polygon fill="#181818" points="594,325.0313,584,329.0313,594,333.0313,590,329.0313" style="stroke:#181818;stroke-width:1.0;"/><line style="stroke:#181818;stroke-width:1.0;" x1="588" x2="1289" y1="329.0313" y2="329.0313"/><text fill="#000000" font-family="sans-serif" font-size="13" font-weight="bold" lengthAdjust="spacing" textLength="7" x="600" y="324.1748">7</text><text fill="#000000" font-family="sans-serif" font-size="13" lengthAdjust="spacing" textLength="157" x="611" y="324.1748">create overdue notifications</text><polygon fill="#181818" points="742,355.3828,732,359.3828,742,363.3828,738,359.3828" style="stroke:#181818;stroke-width:1.0;"/><line style="stroke:#181818;stroke-width:1.0;" x1="736" x2="1289" y1="359.3828" y2="359.3828"/><text fill="#000000" font-family="sans-serif" font-size="13" font-weight="bold" lengthAdjust="spacing" textLength="7" x="748" y="354.5264">8</text><text fill="#000000" font-family="sans-serif" font-size="13" lengthAdjust="spacing" textLength="118" x="759" y="354.5264">send overdue emails</text><polygon fill="#181818" points="1063,385.7344,1073,389.7344,1063,393.7344,1067,389.7344" style="stroke:#181818;stroke-width:1.0;"/><line style="stroke:#181818;stroke-width:1.0;" x1="887" x2="1069" y1="389.7344" y2="389.7344"/><text fill="#000000" font-family="sans-serif" font-size="13" font-weight="bold" lengthAdjust="spacing" textLength="7" x="894" y="384.8779">9</text><text fill="#000000" font-family="sans-serif" font-size="13" lengthAdjust="spacing" textLength="153" x="905" y="384.8779">end-of-day absent marking</text><polygon fill="#181818" points="1505,416.0859,1515,420.0859,1505,424.0859,1509,420.0859" style="stroke:#181818;stroke-width:1.0;"/><line style="stroke:#181818;stroke-width:1.0;" x1="1075" x2="1511" y1="420.0859" y2="420.0859"/><text fill="#000000" font-family="sans-serif" font-size="13" font-weight="bold" lengthAdjust="spacing" textLength="14" x="1082" y="415.2295">10</text><text fill="#000000" font-family="sans-serif" font-size="13" lengthAdjust="spacing" textLength="377" x="1100" y="415.2295">create ABSENT records when no attendance + no approved leave</text><!--SRC=[RP91Rzim38Nl-XLSJYsAmXYmKu5iIDfYmB0LRLEWbrvecqcqo98dKkcoNpzATfnWs2LmnFUeZq_yq4VST0X2uGz8J6GmIV2fgocQhMq9rY587NuRKuVaMum7cBrINVq8jNK4jywIbnaWZv-c2LvYS31R9Dd25Jml5xTl_YBIhsGZbSCAUegTPRR1GsVRrj4xHheiRR8YUqwDdWcTs8xWAueA3zfD2LQXsP50zSw3x_dbv7W8OjUsGSaNh2ZkRKD5L0g7a_2-G-kE2eLzIfG6PQcSXAjcIsro5E6YYThqPwZ7UwVAsUGYf55vRNb- -N1y9cCcuQE4TIpC9nKw5mRsIY6ycdAhggK-KcDBOOogD30j2jR81BF7mBA9j7hw3dkBy1WjTrYaTqjZvdFu-EaIfZZHjnEzVXrOg8D58tPlnHB3V6w6DuNhpnelt82YUsfAw5yaxCZFlxs-b3wSQcwYhGbqn3ueDHkrgF7udcel5jXJr3VGi1Dhd94uk3sPIQQMkwMASxKgimku47QfBmsrF49DE0f_1Sxk2LWYOMVCwRKom13pJTuqRpTRWQ08RT80fg216_HcL1u9rbO7oyDr67V_CV6POLYipAG4GfFQdstYkNvOl1jWZMiIKpxaV_7BrgXKVw_3-hh50s3DEO7CPVt6Z98ZzuYmMAxk7ruqu2R4bk5zgzdx07XQpglol- -Z0hJW2FKTp5y0]--></g></svg>