<?xml version="1.0" encoding="us-ascii" standalone="no"?><svg xmlns="http://www.w3.org/2000/svg" xmlns:xlink="http://www.w3.org/1999/xlink" contentStyleType="text/css" height="1670px" preserveAspectRatio="none" style="width:352px;height:1670px;background:#FFFFFF;" version="1.1" viewBox="0 0 352 1670" width="352px" zoomAndPan="magnify"><defs/><g><text fill="#000000" font-family="sans-serif" font-size="14" font-weight="bold" lengthAdjust="spacing" textLength="311" x="13.75" y="24.5332">UEORMS State Transition - 7) CRM and Sales</text><ellipse cx="224.5" cy="54.6094" fill="#222222" rx="10" ry="10" style="stroke:#222222;stroke-width:1.0;"/><rect fill="#F1F1F1" height="40" rx="12.5" ry="12.5" style="stroke:#181818;stroke-width:0.5;" width="93" x="178" y="125.6094"/><text fill="#000000" font-family="sans-serif" font-size="14" lengthAdjust="spacing" textLength="83" x="183" y="151.3379">LeadCreated</text><rect fill="#F1F1F1" height="40" rx="12.5" ry="12.5" style="stroke:#181818;stroke-width:0.5;" width="98" x="175.5" y="243.6094"/><text fill="#000000" font-family="sans-serif" font-size="14" lengthAdjust="spacing" textLength="88" x="180.5" y="269.3379">LeadQualified</text><rect fill="#F1F1F1" height="40" rx="12.5" ry="12.5" style="stroke:#181818;stroke-width:0.5;" width="122" x="163.5" y="361.6094"/><text fill="#000000" font-family="sans-serif" font-size="14" lengthAdjust="spacing" textLength="112" x="168.5" y="387.3379">CustomerCreated</text><rect fill="#F1F1F1" height="40" rx="12.5" ry="12.5" style="stroke:#181818;stroke-width:0.5;" width="119" x="165" y="479.6094"/><text fill="#000000" font-family="sans-serif" font-size="14" lengthAdjust="spacing" textLength="109" x="170" y="505.3379">OpportunityOpen</text><rect fill="#F1F1F1" height="40" rx="12.5" ry="12.5" style="stroke:#181818;stroke-width:0.5;" width="103" x="173" y="597.6094"/><text fill="#000000" font-family="sans-serif" font-size="14" lengthAdjust="spacing" textLength="93" x="178" y="623.3379">QuotationDraft</text><rect fill="#F1F1F1" height="40" rx="12.5" ry="12.5" style="stroke:#181818;stroke-width:0.5;" width="101" x="114" y="715.6094"/><text fill="#000000" font-family="sans-serif" font-size="14" lengthAdjust="spacing" textLength="91" x="119" y="741.3379">QuotationSent</text><rect fill="#F1F1F1" height="40" rx="12.5" ry="12.5" style="stroke:#181818;stroke-width:0.5;" width="131" x="7" y="833.6094"/><text fill="#000000" font-family="sans-serif" font-size="14" lengthAdjust="spacing" textLength="121" x="12" y="859.3379">QuotationAccepted</text><rect fill="#F1F1F1" height="40" rx="12.5" ry="12.5" style="stroke:#181818;stroke-width:0.5;" width="119" x="199" y="833.6094"/><text fill="#000000" font-family="sans-serif" font-size="14" lengthAdjust="spacing" textLength="109" x="204" y="859.3379">QuotationExpired</text><rect fill="#F1F1F1" height="40" rx="12.5" ry="12.5" style="stroke:#181818;stroke-width:0.5;" width="117" x="14" y="951.6094"/><text fill="#000000" font-family="sans-serif" font-size="14" lengthAdjust="spacing" textLength="107" x="19" y="977.3379">SalesOrderOpen</text><rect fill="#F1F1F1" height="40" rx="12.5" ry="12.5" style="stroke:#181818;stroke-width:0.5;" width="122" x="11.5" y="1069.6094"/><text fill="#000000" font-family="sans-serif" font-size="14" lengthAdjust="spacing" textLength="112" x="16.5" y="1095.3379">InvoiceGenerated</text><rect fill="#F1F1F1" height="40" rx="12.5" ry="12.5" style="stroke:#181818;stroke-width:0.5;" width="117" x="14" y="1187.6094"/><text fill="#000000" font-family="sans-serif" font-size="14" lengthAdjust="spacing" textLength="107" x="19" y="1213.3379">PaymentPending</text><rect fill="#F1F1F1" height="40" rx="12.5" ry="12.5" style="stroke:#181818;stroke-width:0.5;" width="124" x="10.5" y="1305.6094"/><text fill="#000000" font-family="sans-serif" font-size="14" lengthAdjust="spacing" textLength="114" x="15.5" y="1331.3379">PaymentReceived</text><rect fill="#F1F1F1" height="40" rx="12.5" ry="12.5" style="stroke:#181818;stroke-width:0.5;" width="96" x="24.5" y="1423.6094"/><text fill="#000000" font-family="sans-serif" font-size="14" lengthAdjust="spacing" textLength="86" x="29.5" y="1449.3379">OrderFulfilled</text><rect fill="#F1F1F1" height="40" rx="12.5" ry="12.5" style="stroke:#181818;stroke-width:0.5;" width="119" x="13" y="1541.6094"/><text fill="#000000" font-family="sans-serif" font-size="14" lengthAdjust="spacing" textLength="109" x="18" y="1567.3379">AnalyticsUpdated</text><ellipse cx="72.5" cy="1653.6094" fill="none" rx="11" ry="11" style="stroke:#222222;stroke-width:1.0;"/><ellipse cx="72.5" cy="1653.6094" fill="#222222" rx="6" ry="6" style="stroke:#222222;stroke-width:1.0;"/><!--link *start* to LeadCreated--><g id="link_*start*_LeadCreated"><path d="M224.5,64.7994 C224.5,79.0094 224.5,100.6294 224.5,119.3494 " fill="none" id="*start*-to-LeadCreated" style="stroke:#181818;stroke-width:1.0;"/><polygon fill="#181818" points="224.5,125.3494,228.5,116.3494,224.5,120.3494,220.5,116.3494,224.5,125.3494" style="stroke:#181818;stroke-width:1.0;"/></g><!--link LeadCreated to LeadQualified--><g id="link_LeadCreated_LeadQualified"><path d="M224.5,165.7694 C224.5,187.2594 224.5,215.9194 224.5,237.4294 " fill="none" id="LeadCreated-to-LeadQualified" style="stroke:#181818;stroke-width:1.0;"/><polygon fill="#181818" points="224.5,243.4294,228.5,234.4294,224.5,238.4294,220.5,234.4294,224.5,243.4294" style="stroke:#181818;stroke-width:1.0;"/><text fill="#000000" font-family="sans-serif" font-size="13" lengthAdjust="spacing" textLength="65" x="225.5" y="210.1045">qualify lead</text></g><!--link LeadQualified to CustomerCreated--><g id="link_LeadQualified_CustomerCreated"><path d="M224.5,283.7694 C224.5,305.2594 224.5,333.9194 224.5,355.4294 " fill="none" id="LeadQualified-to-CustomerCreated" style="stroke:#181818;stroke-width:1.0;"/><polygon fill="#181818" points="224.5,361.4294,228.5,352.4294,224.5,356.4294,220.5,352.4294,224.5,361.4294" style="stroke:#181818;stroke-width:1.0;"/><text fill="#000000" font-family="sans-serif" font-size="13" lengthAdjust="spacing" textLength="69" x="225.5" y="328.1045">convert lead</text></g><!--link CustomerCreated to OpportunityOpen--><g id="link_CustomerCreated_OpportunityOpen"><path d="M224.5,401.7694 C224.5,423.2594 224.5,451.9194 224.5,473.4294 " fill="none" id="CustomerCreated-to-OpportunityOpen" style="stroke:#181818;stroke-width:1.0;"/><polygon fill="#181818" points="224.5,479.4294,228.5,470.4294,224.5,474.4294,220.5,470.4294,224.5,479.4294" style="stroke:#181818;stroke-width:1.0;"/><text fill="#000000" font-family="sans-serif" font-size="13" lengthAdjust="spacing" textLength="64" x="225.5" y="446.1045">create deal</text></g><!--link OpportunityOpen to QuotationDraft--><g id="link_OpportunityOpen_QuotationDraft"><path d="M224.5,519.7694 C224.5,541.2594 224.5,569.9194 224.5,591.4294 " fill="none" id="OpportunityOpen-to-QuotationDraft" style="stroke:#181818;stroke-width:1.0;"/><polygon fill="#181818" points="224.5,597.4294,228.5,588.4294,224.5,592.4294,220.5,588.4294,224.5,597.4294" style="stroke:#181818;stroke-width:1.0;"/><text fill="#000000" font-family="sans-serif" font-size="13" lengthAdjust="spacing" textLength="93" x="225.5" y="564.1045">create quotation</text></g><!--link QuotationDraft to QuotationSent--><g id="link_QuotationDraft_QuotationSent"><path d="M211.42,637.7494 C205.6,646.6394 198.86,657.4594 193.5,667.6094 C185.21,683.2994 179.5405,696.2894 174.0905,709.8994 " fill="none" id="QuotationDraft-to-QuotationSent" style="stroke:#181818;stroke-width:1.0;"/><polygon fill="#181818" points="171.86,715.4694,178.919,708.6013,173.7187,710.8277,171.4923,705.6274,171.86,715.4694" style="stroke:#181818;stroke-width:1.0;"/><text fill="#000000" font-family="sans-serif" font-size="13" lengthAdjust="spacing" textLength="64" x="194.5" y="682.1045">send quote</text></g><!--link QuotationSent to QuotationAccepted--><g id="link_QuotationSent_QuotationAccepted"><path d="M113.92,750.7094 C96.77,758.1694 79.45,769.2894 69.5,785.6094 C60.77,799.9294 61.3934,813.509 64.8534,827.749 " fill="none" id="QuotationSent-to-QuotationAccepted" style="stroke:#181818;stroke-width:1.0;"/><polygon fill="#181818" points="66.27,833.5794,68.0319,823.8894,65.0895,828.7207,60.2581,825.7783,66.27,833.5794" style="stroke:#181818;stroke-width:1.0;"/><text fill="#000000" font-family="sans-serif" font-size="13" lengthAdjust="spacing" textLength="75" x="70.5" y="800.1045">accept quote</text></g><!--link QuotationSent to QuotationExpired--><g id="link_QuotationSent_QuotationExpired"><path d="M167.36,755.7694 C170.26,770.0894 175.9,789.5194 186.5,803.6094 C195.5,815.5694 203.2424,822.3969 215.5624,830.2069 " fill="none" id="QuotationSent-to-QuotationExpired" style="stroke:#181818;stroke-width:1.0;"/><polygon fill="#181818" points="220.63,833.4194,215.1703,825.2223,216.407,830.7423,210.887,831.979,220.63,833.4194" style="stroke:#181818;stroke-width:1.0;"/><text fill="#000000" font-family="sans-serif" font-size="13" lengthAdjust="spacing" textLength="71" x="187.5" y="800.1045">reject/expire</text></g><!--link QuotationExpired to QuotationDraft--><g id="link_QuotationExpired_QuotationDraft"><path d="M263.34,833.5494 C271.13,799.2294 283.64,725.2394 263.5,667.6094 C259.63,656.5194 256.0605,650.5589 248.6305,642.1789 " fill="none" id="QuotationExpired-to-QuotationDraft" style="stroke:#181818;stroke-width:1.0;"/><polygon fill="#181818" points="244.65,637.6894,247.6278,647.0773,247.9671,641.4306,253.6138,641.7699,244.65,637.6894" style="stroke:#181818;stroke-width:1.0;"/><text fill="#000000" font-family="sans-serif" font-size="13" lengthAdjust="spacing" textLength="69" x="275.5" y="741.1045">revise quote</text></g><!--link QuotationAccepted to SalesOrderOpen--><g id="link_QuotationAccepted_SalesOrderOpen"><path d="M72.5,873.7694 C72.5,895.2594 72.5,923.9194 72.5,945.4294 " fill="none" id="QuotationAccepted-to-SalesOrderOpen" style="stroke:#181818;stroke-width:1.0;"/><polygon fill="#181818" points="72.5,951.4294,76.5,942.4294,72.5,946.4294,68.5,942.4294,72.5,951.4294" style="stroke:#181818;stroke-width:1.0;"/><text fill="#000000" font-family="sans-serif" font-size="13" lengthAdjust="spacing" textLength="89" x="73.5" y="918.1045">convert to order</text></g><!--link SalesOrderOpen to InvoiceGenerated--><g id="link_SalesOrderOpen_InvoiceGenerated"><path d="M72.5,991.7694 C72.5,1013.2594 72.5,1041.9194 72.5,1063.4294 " fill="none" id="SalesOrderOpen-to-InvoiceGenerated" style="stroke:#181818;stroke-width:1.0;"/><polygon fill="#181818" points="72.5,1069.4294,76.5,1060.4294,72.5,1064.4294,68.5,1060.4294,72.5,1069.4294" style="stroke:#181818;stroke-width:1.0;"/><text fill="#000000" font-family="sans-serif" font-size="13" lengthAdjust="spacing" textLength="99" x="73.5" y="1036.1045">convert to invoice</text></g><!--link InvoiceGenerated to PaymentPending--><g id="link_InvoiceGenerated_PaymentPending"><path d="M72.5,1109.7694 C72.5,1131.2594 72.5,1159.9194 72.5,1181.4294 " fill="none" id="InvoiceGenerated-to-PaymentPending" style="stroke:#181818;stroke-width:1.0;"/><polygon fill="#181818" points="72.5,1187.4294,76.5,1178.4294,72.5,1182.4294,68.5,1178.4294,72.5,1187.4294" style="stroke:#181818;stroke-width:1.0;"/><text fill="#000000" font-family="sans-serif" font-size="13" lengthAdjust="spacing" textLength="84" x="73.5" y="1154.1045">await payment</text></g><!--link PaymentPending to PaymentReceived--><g id="link_PaymentPending_PaymentReceived"><path d="M72.5,1227.7694 C72.5,1249.2594 72.5,1277.9194 72.5,1299.4294 " fill="none" id="PaymentPending-to-PaymentReceived" style="stroke:#181818;stroke-width:1.0;"/><polygon fill="#181818" points="72.5,1305.4294,76.5,1296.4294,72.5,1300.4294,68.5,1296.4294,72.5,1305.4294" style="stroke:#181818;stroke-width:1.0;"/><text fill="#000000" font-family="sans-serif" font-size="13" lengthAdjust="spacing" textLength="93" x="73.5" y="1272.1045">payment posted</text></g><!--link PaymentReceived to OrderFulfilled--><g id="link_PaymentReceived_OrderFulfilled"><path d="M72.5,1345.7694 C72.5,1367.2594 72.5,1395.9194 72.5,1417.4294 " fill="none" id="PaymentReceived-to-OrderFulfilled" style="stroke:#181818;stroke-width:1.0;"/><polygon fill="#181818" points="72.5,1423.4294,76.5,1414.4294,72.5,1418.4294,68.5,1414.4294,72.5,1423.4294" style="stroke:#181818;stroke-width:1.0;"/><text fill="#000000" font-family="sans-serif" font-size="13" lengthAdjust="spacing" textLength="106" x="73.5" y="1390.1045">dispatch complete</text></g><!--link OrderFulfilled to AnalyticsUpdated--><g id="link_OrderFulfilled_AnalyticsUpdated"><path d="M72.5,1463.7694 C72.5,1485.2594 72.5,1513.9194 72.5,1535.4294 " fill="none" id="OrderFulfilled-to-AnalyticsUpdated" style="stroke:#181818;stroke-width:1.0;"/><polygon fill="#181818" points="72.5,1541.4294,76.5,1532.4294,72.5,1536.4294,68.5,1532.4294,72.5,1541.4294" style="stroke:#181818;stroke-width:1.0;"/><text fill="#000000" font-family="sans-serif" font-size="13" lengthAdjust="spacing" textLength="95" x="73.5" y="1508.1045">update analytics</text></g><!--link AnalyticsUpdated to *end*--><g id="link_AnalyticsUpdated_*end*"><path d="M72.5,1581.6994 C72.5,1600.2694 72.5,1621.7794 72.5,1636.4794 " fill="none" id="AnalyticsUpdated-to-*end*" style="stroke:#181818;stroke-width:1.0;"/><polygon fill="#181818" points="72.5,1642.4794,76.5,1633.4794,72.5,1637.4794,68.5,1633.4794,72.5,1642.4794" style="stroke:#181818;stroke-width:1.0;"/></g><!--SRC=[XP9BJsCn38Nt-HNUWbJD4gaB95GU6WbKQ8VLQ1OXSGUZD0c9RuVxxyTEMw0f4ZlBvto9NvmoS8Adn9pMuAcWOqhHF9D7m7Nc4JnMLoYtD1C7XCUh-U9k2KksZF2hs5X9LPZ0sGdC5dTWeuUb3LYD-Ntw1oQJSxX5wsS5XV3cK_okFGmsq8eaCuNN5eyG96yEHRNFXYh5Oja_CGMNuWOBRu5ULcIUSoeyHE9ndZ4gqbHfpWRJgqey34dQawukYrtn1_2wpvlESG0jCIfJKGQX19f3wS1yuHpcRIEsXTyZLszPLgL4mHTPsGzi2NDa-BALWXkgsF_oNeOoRNlpuh7ivxKRiHnBqhJf70hzZ9j43cymOkas8nXjLNFaKlJUZclfybu6Hl6lJkAV9OQyJPjE_aGiq25jsbyxC-HKzSfwGxi3hVTw22iAeJ6UQhRidgNGTGuey-WiIbr46qOcLn-pt_Krj4WEVQUO8u-2SlpcFm00]--></g></svg>