<?xml version="1.0" encoding="us-ascii" standalone="no"?><svg xmlns="http://www.w3.org/2000/svg" xmlns:xlink="http://www.w3.org/1999/xlink" contentStyleType="text/css" height="879px" preserveAspectRatio="none" style="width:889px;height:879px;background:#FFFFFF;" version="1.1" viewBox="0 0 889 879" width="889px" zoomAndPan="magnify"><defs/><g><text fill="#000000" font-family="sans-serif" font-size="14" font-weight="bold" lengthAdjust="spacing" textLength="262" x="306.5" y="24.5332">UEORMS State Transition - Module 12</text><ellipse cx="35" cy="54.6094" fill="#222222" rx="10" ry="10" style="stroke:#222222;stroke-width:1.0;"/><rect fill="#F1F1F1" height="40" rx="12.5" ry="12.5" style="stroke:#181818;stroke-width:0.5;" width="56" x="7" y="125.6094"/><text fill="#000000" font-family="sans-serif" font-size="14" lengthAdjust="spacing" textLength="46" x="12" y="151.3379">Startup</text><rect fill="#F1F1F1" height="40" rx="12.5" ry="12.5" style="stroke:#181818;stroke-width:0.5;" width="57" x="447.5" y="243.6094"/><text fill="#000000" font-family="sans-serif" font-size="14" lengthAdjust="spacing" textLength="47" x="452.5" y="269.3379">Healthy</text><rect fill="#F1F1F1" height="40" rx="12.5" ry="12.5" style="stroke:#181818;stroke-width:0.5;" width="73" x="370.5" y="597.6094"/><text fill="#000000" font-family="sans-serif" font-size="14" lengthAdjust="spacing" textLength="63" x="375.5" y="623.3379">Degraded</text><rect fill="#F1F1F1" height="40" rx="12.5" ry="12.5" style="stroke:#181818;stroke-width:0.5;" width="95" x="296.5" y="361.6094"/><text fill="#000000" font-family="sans-serif" font-size="14" lengthAdjust="spacing" textLength="85" x="301.5" y="387.3379">AccessCheck</text><rect fill="#F1F1F1" height="40" rx="12.5" ry="12.5" style="stroke:#181818;stroke-width:0.5;" width="77" x="368.5" y="479.6094"/><text fill="#000000" font-family="sans-serif" font-size="14" lengthAdjust="spacing" textLength="67" x="373.5" y="505.3379">Processed</text><rect fill="#F1F1F1" height="40" rx="12.5" ry="12.5" style="stroke:#181818;stroke-width:0.5;" width="97" x="120.5" y="479.6094"/><text fill="#000000" font-family="sans-serif" font-size="14" lengthAdjust="spacing" textLength="87" x="125.5" y="505.3379">SecurityEvent</text><rect fill="#F1F1F1" height="40" rx="12.5" ry="12.5" style="stroke:#181818;stroke-width:0.5;" width="82" x="625" y="715.6094"/><text fill="#000000" font-family="sans-serif" font-size="14" lengthAdjust="spacing" textLength="72" x="630" y="741.3379">Recovering</text><rect fill="#F1F1F1" height="40" rx="12.5" ry="12.5" style="stroke:#181818;stroke-width:0.5;" width="74" x="697" y="833.6094"/><text fill="#000000" font-family="sans-serif" font-size="14" lengthAdjust="spacing" textLength="64" x="702" y="859.3379">ManualFix</text><ellipse cx="610" cy="381.6094" fill="none" rx="11" ry="11" style="stroke:#222222;stroke-width:1.0;"/><ellipse cx="610" cy="381.6094" fill="#222222" rx="6" ry="6" style="stroke:#222222;stroke-width:1.0;"/><!--link *start* to Startup--><g id="link_*start*_Startup"><path d="M35,64.7994 C35,79.0094 35,100.6294 35,119.3494 " fill="none" id="*start*-to-Startup" style="stroke:#181818;stroke-width:1.0;"/><polygon fill="#181818" points="35,125.3494,39,116.3494,35,120.3494,31,116.3494,35,125.3494" style="stroke:#181818;stroke-width:1.0;"/></g><!--link Startup to Healthy--><g id="link_Startup_Healthy"><path d="M63.26,154.0394 C142.72,174.9394 361.7374,232.553 441.6074,253.563 " fill="none" id="Startup-to-Healthy" style="stroke:#181818;stroke-width:1.0;"/><polygon fill="#181818" points="447.41,255.0894,439.7237,248.9314,442.5745,253.8174,437.6885,256.6682,447.41,255.0894" style="stroke:#181818;stroke-width:1.0;"/><text fill="#000000" font-family="sans-serif" font-size="13" lengthAdjust="spacing" textLength="74" x="283" y="210.1045">checks pass</text></g><!--link Startup to Degraded--><g id="link_Startup_Degraded"><path d="M27.08,165.9394 C18.49,188.6794 6,227.7394 6,262.6094 C6,262.6094 6,262.6094 6,500.6094 C6,576.0694 265.3813,605.0145 364.3713,613.3745 " fill="none" id="Startup-to-Degraded" style="stroke:#181818;stroke-width:1.0;"/><polygon fill="#181818" points="370.35,613.8794,361.7185,609.1362,365.3677,613.4586,361.0453,617.1078,370.35,613.8794" style="stroke:#181818;stroke-width:1.0;"/><text fill="#000000" font-family="sans-serif" font-size="13" lengthAdjust="spacing" textLength="62" x="7" y="387.1045">checks fail</text></g><!--link Healthy to AccessCheck--><g id="link_Healthy_AccessCheck"><path d="M447.14,270.0894 C421.79,276.3694 385.66,289.1294 364,313.6094 C352.26,326.8794 348.2105,340.8644 346.2105,355.5344 " fill="none" id="Healthy-to-AccessCheck" style="stroke:#181818;stroke-width:1.0;"/><polygon fill="#181818" points="345.4,361.4794,350.5791,353.1022,346.0754,356.5252,342.6524,352.0215,345.4,361.4794" style="stroke:#181818;stroke-width:1.0;"/><text fill="#000000" font-family="sans-serif" font-size="13" lengthAdjust="spacing" textLength="84" x="365" y="328.1045">request arrives</text></g><!--link AccessCheck to Processed--><g id="link_AccessCheck_Processed"><path d="M338.32,401.8494 C335.31,415.8394 333.57,434.8394 341,449.6094 C347.16,461.8494 353.0389,468.3957 364.1589,476.0557 " fill="none" id="AccessCheck-to-Processed" style="stroke:#181818;stroke-width:1.0;"/><polygon fill="#181818" points="369.1,479.4594,363.9574,471.0597,364.9824,476.623,359.4192,477.6479,369.1,479.4594" style="stroke:#181818;stroke-width:1.0;"/><text fill="#000000" font-family="sans-serif" font-size="13" lengthAdjust="spacing" textLength="114" x="342" y="446.1045">pass auth/rbac/limit</text></g><!--link AccessCheck to SecurityEvent--><g id="link_AccessCheck_SecurityEvent"><path d="M296.46,395.3294 C272.59,403.2294 244.12,415.0794 222,431.6094 C204.65,444.5694 193.0982,459.4946 183.5882,474.2646 " fill="none" id="AccessCheck-to-SecurityEvent" style="stroke:#181818;stroke-width:1.0;"/><polygon fill="#181818" points="180.34,479.3094,188.5754,473.9077,183.0468,475.1054,181.8491,469.5768,180.34,479.3094" style="stroke:#181818;stroke-width:1.0;"/><text fill="#000000" font-family="sans-serif" font-size="13" lengthAdjust="spacing" textLength="104" x="223" y="446.1045">denied or throttled</text></g><!--link Processed to Healthy--><g id="link_Processed_Healthy"><path d="M435.64,479.5594 C445.38,471.5294 455.24,461.3094 461,449.6094 C488.18,394.3894 483.8829,324.5444 479.5829,289.6044 " fill="none" id="Processed-to-Healthy" style="stroke:#181818;stroke-width:1.0;"/><polygon fill="#181818" points="478.85,283.6494,475.9793,293.0706,479.4607,288.6119,483.9194,292.0934,478.85,283.6494" style="stroke:#181818;stroke-width:1.0;"/><text fill="#000000" font-family="sans-serif" font-size="13" lengthAdjust="spacing" textLength="86" x="482" y="387.1045">normal metrics</text></g><!--link Processed to Degraded--><g id="link_Processed_Degraded"><path d="M407,519.7694 C407,541.2594 407,569.9194 407,591.4294 " fill="none" id="Processed-to-Degraded" style="stroke:#181818;stroke-width:1.0;"/><polygon fill="#181818" points="407,597.4294,411,588.4294,407,592.4294,403,588.4294,407,597.4294" style="stroke:#181818;stroke-width:1.0;"/><text fill="#000000" font-family="sans-serif" font-size="13" lengthAdjust="spacing" textLength="99" x="408" y="564.1045">incident detected</text></g><!--link Degraded to Recovering--><g id="link_Degraded_Recovering"><path d="M443.56,634.9794 C491.39,656.4094 569.4837,691.3878 619.4537,713.7578 " fill="none" id="Degraded-to-Recovering" style="stroke:#181818;stroke-width:1.0;"/><polygon fill="#181818" points="624.93,716.2094,618.3499,708.8812,620.3664,714.1664,615.0812,716.1829,624.93,716.2094" style="stroke:#181818;stroke-width:1.0;"/><text fill="#000000" font-family="sans-serif" font-size="13" lengthAdjust="spacing" textLength="77" x="553" y="682.1045">auto recovery</text></g><!--link Recovering to Healthy--><g id="link_Recovering_Healthy"><path d="M672.97,715.6094 C680.67,692.8694 692,653.4894 692,618.6094 C692,380.6094 692,380.6094 692,380.6094 C692,349.2694 692.92,334.9794 670,313.6094 C624.14,270.8494 552.5098,264.0739 510.6998,263.7639 " fill="none" id="Recovering-to-Healthy" style="stroke:#181818;stroke-width:1.0;"/><polygon fill="#181818" points="504.7,263.7194,513.6701,267.786,509.6999,263.7564,513.7294,259.7862,504.7,263.7194" style="stroke:#181818;stroke-width:1.0;"/><text fill="#000000" font-family="sans-serif" font-size="13" lengthAdjust="spacing" textLength="55" x="693" y="505.1045">recovered</text></g><!--link Recovering to ManualFix--><g id="link_Recovering_ManualFix"><path d="M660.24,755.6294 C657.1,769.6894 655.26,788.8694 663,803.6094 C670.31,817.5294 678.4209,825.1993 691.5109,833.0293 " fill="none" id="Recovering-to-ManualFix" style="stroke:#181818;stroke-width:1.0;"/><polygon fill="#181818" points="696.66,836.1094,690.9897,828.0566,692.3691,833.5427,686.883,834.9221,696.66,836.1094" style="stroke:#181818;stroke-width:1.0;"/><text fill="#000000" font-family="sans-serif" font-size="13" lengthAdjust="spacing" textLength="111" x="664" y="800.1045">auto recovery failed</text></g><!--link ManualFix to Healthy--><g id="link_ManualFix_Healthy"><path d="M755.9,833.2794 C764.38,824.8594 773.57,814.4494 780,803.6094 C795.99,776.6594 802,767.9494 802,736.6094 C802,380.6094 802,380.6094 802,380.6094 C802,317.7594 590.1268,281.0181 510.5768,269.3781 " fill="none" id="ManualFix-to-Healthy" style="stroke:#181818;stroke-width:1.0;"/><polygon fill="#181818" points="504.64,268.5094,512.966,273.7703,509.5873,269.2333,514.1243,265.8546,504.64,268.5094" style="stroke:#181818;stroke-width:1.0;"/><text fill="#000000" font-family="sans-serif" font-size="13" lengthAdjust="spacing" textLength="78" x="803" y="564.1045">operator fixed</text></g><!--link SecurityEvent to Healthy--><g id="link_SecurityEvent_Healthy"><path d="M168.7,479.1594 C169.32,449.9294 174.75,394.5994 205,361.6094 C270.34,290.3394 385.7643,271.929 441.1343,266.929 " fill="none" id="SecurityEvent-to-Healthy" style="stroke:#181818;stroke-width:1.0;"/><polygon fill="#181818" points="447.11,266.3894,437.7867,263.215,442.1303,266.8391,438.5062,271.1826,447.11,266.3894" style="stroke:#181818;stroke-width:1.0;"/><text fill="#000000" font-family="sans-serif" font-size="13" lengthAdjust="spacing" textLength="72" x="206" y="387.1045">event logged</text></g><!--link Healthy to *end*--><g id="link_Healthy_*end*"><path d="M489.01,283.6594 C499.33,297.9194 514.7,317.3294 531,331.6094 C553.34,351.1794 579.0182,365.2365 594.7082,373.1165 " fill="none" id="Healthy-to-*end*" style="stroke:#181818;stroke-width:1.0;"/><polygon fill="#181818" points="600.07,375.8094,593.8226,368.1956,595.6019,373.5653,590.2321,375.3446,600.07,375.8094" style="stroke:#181818;stroke-width:1.0;"/><text fill="#000000" font-family="sans-serif" font-size="13" lengthAdjust="spacing" textLength="133" x="532" y="328.1045">maintenance shutdown</text></g><!--SRC=[PP8nJyCm48Lt_ugRaQeAnWv828fO8b0B4sAusjVaX6E7ywKq_nuxAZGfKwJtldlsFKTZ1nfX5rLZ2uw5h78Cfc57G6sd0pXALhWRPMNr16_hvqsrXQsY4hmAXiJ5XGLKqVKPkBunvltg0nQBsqA9zfqvVKVjYT1hCy0AR4FsCq67ASs81we57RapiaVsnlnE5kREMahfljWP4_hgAIcW21yecQbRw1U9HHWZot60lJPBsQ5TUcvP_mrioVR2EgmF53GFEGgSfwE0DfBxykICEQVEzmfHMlJGaWhRT85DbkDWSzCvtv7cwaladrlG3Tbu8E5GPpZVEEOzHsKm4sj-zed8MHT8XQ57_yZ7owontCoVWNbYx4XGy-PxFfOhpgkPipHgFjPr9gVFLNw85RJ8GIbWi0IfwTN5xs1-0000]--></g></svg>