<?xml version="1.0" encoding="us-ascii" standalone="no"?><svg xmlns="http://www.w3.org/2000/svg" xmlns:xlink="http://www.w3.org/1999/xlink" contentStyleType="text/css" height="758px" preserveAspectRatio="none" style="width:1728px;height:758px;background:#FFFFFF;" version="1.1" viewBox="0 0 1728 758" width="1728px" zoomAndPan="magnify"><defs/><g><line style="stroke:#181818;stroke-width:0.5;stroke-dasharray:5.0,5.0;" x1="27.5" x2="27.5" y1="82.6094" y2="751.9922"/><line style="stroke:#181818;stroke-width:0.5;stroke-dasharray:5.0,5.0;" x1="118.5" x2="118.5" y1="82.6094" y2="751.9922"/><line style="stroke:#181818;stroke-width:0.5;stroke-dasharray:5.0,5.0;" x1="279.5" x2="279.5" y1="82.6094" y2="751.9922"/><line style="stroke:#181818;stroke-width:0.5;stroke-dasharray:5.0,5.0;" x1="605.5" x2="605.5" y1="82.6094" y2="751.9922"/><line style="stroke:#181818;stroke-width:0.5;stroke-dasharray:5.0,5.0;" x1="803.5" x2="803.5" y1="82.6094" y2="751.9922"/><line style="stroke:#181818;stroke-width:0.5;stroke-dasharray:5.0,5.0;" x1="1026.5" x2="1026.5" y1="82.6094" y2="751.9922"/><line style="stroke:#181818;stroke-width:0.5;stroke-dasharray:5.0,5.0;" x1="1219" x2="1219" y1="82.6094" y2="751.9922"/><line style="stroke:#181818;stroke-width:0.5;stroke-dasharray:5.0,5.0;" x1="1425" x2="1425" y1="82.6094" y2="751.9922"/><line style="stroke:#181818;stroke-width:0.5;stroke-dasharray:5.0,5.0;" x1="1645" x2="1645" y1="82.6094" y2="751.9922"/><text fill="#000000" font-family="sans-serif" font-size="14" lengthAdjust="spacing" textLength="39" x="5" y="79.5332">Admin</text><ellipse cx="27.5" cy="13.5" fill="#E2E2F0" rx="8" ry="8" style="stroke:#181818;stroke-width:0.5;"/><path d="M27.5,21.5 L27.5,48.5 M14.5,29.5 L40.5,29.5 M27.5,48.5 L14.5,63.5 M27.5,48.5 L40.5,63.5 " fill="none" style="stroke:#181818;stroke-width:0.5;"/><text fill="#000000" font-family="sans-serif" font-size="14" lengthAdjust="spacing" textLength="111" x="60" y="79.5332">Finance Manager</text><ellipse cx="118.5" cy="13.5" fill="#E2E2F0" rx="8" ry="8" style="stroke:#181818;stroke-width:0.5;"/><path d="M118.5,21.5 L118.5,48.5 M105.5,29.5 L131.5,29.5 M118.5,48.5 L105.5,63.5 M118.5,48.5 L131.5,63.5 " fill="none" style="stroke:#181818;stroke-width:0.5;"/><text fill="#000000" font-family="sans-serif" font-size="14" lengthAdjust="spacing" textLength="114" x="219.5" y="79.5332">Web/Mobile Client</text><path d="M259,37 L259,61 M259,49 L276,49 " fill="none" style="stroke:#181818;stroke-width:0.5;"/><ellipse cx="288" cy="49" fill="#E2E2F0" rx="12" ry="12" style="stroke:#181818;stroke-width:0.5;"/><text fill="#000000" font-family="sans-serif" font-size="14" lengthAdjust="spacing" textLength="115" x="545" y="61.9238">Express API Layer</text><text fill="#000000" font-family="sans-serif" font-size="14" lengthAdjust="spacing" textLength="172" x="516.5" y="79.5332">(app.js route orchestration)</text><ellipse cx="605.5" cy="31.3906" fill="#E2E2F0" rx="12" ry="12" style="stroke:#181818;stroke-width:0.5;"/><polygon fill="#181818" points="601.5,19.3906,607.5,14.3906,605.5,19.3906,607.5,24.3906,601.5,19.3906" style="stroke:#181818;stroke-width:1.0;"/><text fill="#000000" font-family="sans-serif" font-size="14" lengthAdjust="spacing" textLength="118" x="741.5" y="79.5332">Integration Service</text><ellipse cx="803.5" cy="49" fill="#E2E2F0" rx="12" ry="12" style="stroke:#181818;stroke-width:0.5;"/><polygon fill="#181818" points="799.5,37,805.5,32,803.5,37,805.5,42,799.5,37" style="stroke:#181818;stroke-width:1.0;"/><text fill="#000000" font-family="sans-serif" font-size="14" lengthAdjust="spacing" textLength="167" x="940" y="79.5332">Integration Event Manager</text><ellipse cx="1026.5" cy="49" fill="#E2E2F0" rx="12" ry="12" style="stroke:#181818;stroke-width:0.5;"/><polygon fill="#181818" points="1022.5,37,1028.5,32,1026.5,37,1028.5,42,1022.5,37" style="stroke:#181818;stroke-width:1.0;"/><text fill="#000000" font-family="sans-serif" font-size="14" lengthAdjust="spacing" textLength="186" x="1123" y="79.5332">Reports + Reporting Services</text><ellipse cx="1219" cy="49" fill="#E2E2F0" rx="12" ry="12" style="stroke:#181818;stroke-width:0.5;"/><polygon fill="#181818" points="1215,37,1221,32,1219,37,1221,42,1215,37" style="stroke:#181818;stroke-width:1.0;"/><text fill="#000000" font-family="sans-serif" font-size="14" lengthAdjust="spacing" textLength="168" x="1338" y="79.5332">Data Import/Export Service</text><ellipse cx="1425" cy="49" fill="#E2E2F0" rx="12" ry="12" style="stroke:#181818;stroke-width:0.5;"/><polygon fill="#181818" points="1421,37,1427,32,1425,37,1427,42,1421,37" style="stroke:#181818;stroke-width:1.0;"/><text fill="#000000" font-family="sans-serif" font-size="14" lengthAdjust="spacing" textLength="146" x="1569" y="79.5332">PostgreSQL via Prisma</text><path d="M1627,29 C1627,19 1645,19 1645,19 C1645,19 1663,19 1663,29 L1663,55 C1663,65 1645,65 1645,65 C1645,65 1627,65 1627,55 L1627,29 " fill="#E2E2F0" style="stroke:#181818;stroke-width:1.5;"/><path d="M1627,29 C1627,39 1645,39 1645,39 C1645,39 1663,39 1663,29 " fill="none" style="stroke:#181818;stroke-width:1.5;"/><rect fill="#EEEEEE" height="3" style="stroke:#EEEEEE;stroke-width:1.0;" width="1716" x="5" y="111.7852"/><line style="stroke:#000000;stroke-width:1.0;" x1="5" x2="1721" y1="111.7852" y2="111.7852"/><line style="stroke:#000000;stroke-width:1.0;" x1="5" x2="1721" y1="114.7852" y2="114.7852"/><rect fill="#EEEEEE" height="24.3516" style="stroke:#000000;stroke-width:2.0;" width="327" x="699.5" y="100.6094"/><text fill="#000000" font-family="sans-serif" font-size="13" font-weight="bold" lengthAdjust="spacing" textLength="309" x="705.5" y="118.1045">12) Reporting, Import/Export, and Integration API</text><polygon fill="#181818" points="267.5,153.3125,277.5,157.3125,267.5,161.3125,271.5,157.3125" style="stroke:#181818;stroke-width:1.0;"/><line style="stroke:#181818;stroke-width:1.0;" x1="118.5" x2="273.5" y1="157.3125" y2="157.3125"/><text fill="#000000" font-family="sans-serif" font-size="13" font-weight="bold" lengthAdjust="spacing" textLength="7" x="125.5" y="152.4561">1</text><text fill="#000000" font-family="sans-serif" font-size="13" lengthAdjust="spacing" textLength="126" x="136.5" y="152.4561">Reports and analytics</text><polygon fill="#181818" points="593.5,183.6641,603.5,187.6641,593.5,191.6641,597.5,187.6641" style="stroke:#181818;stroke-width:1.0;"/><line style="stroke:#181818;stroke-width:1.0;" x1="279.5" x2="599.5" y1="187.6641" y2="187.6641"/><text fill="#000000" font-family="sans-serif" font-size="13" font-weight="bold" lengthAdjust="spacing" textLength="7" x="286.5" y="182.8076">2</text><text fill="#000000" font-family="sans-serif" font-size="13" lengthAdjust="spacing" textLength="169" x="297.5" y="182.8076">/api/reports and /api/reporting</text><polygon fill="#181818" points="1207,214.0156,1217,218.0156,1207,222.0156,1211,218.0156" style="stroke:#181818;stroke-width:1.0;"/><line style="stroke:#181818;stroke-width:1.0;" x1="605.5" x2="1213" y1="218.0156" y2="218.0156"/><text fill="#000000" font-family="sans-serif" font-size="13" font-weight="bold" lengthAdjust="spacing" textLength="7" x="612.5" y="213.1592">3</text><text fill="#000000" font-family="sans-serif" font-size="13" lengthAdjust="spacing" textLength="271" x="623.5" y="213.1592">financial/hr/inventory/custom/scheduled reports</text><polygon fill="#181818" points="1633,244.3672,1643,248.3672,1633,252.3672,1637,248.3672" style="stroke:#181818;stroke-width:1.0;"/><line style="stroke:#181818;stroke-width:1.0;" x1="1219" x2="1639" y1="248.3672" y2="248.3672"/><text fill="#000000" font-family="sans-serif" font-size="13" font-weight="bold" lengthAdjust="spacing" textLength="7" x="1226" y="243.5107">4</text><text fill="#000000" font-family="sans-serif" font-size="13" lengthAdjust="spacing" textLength="377" x="1237" y="243.5107">ReportTemplate, Report, ReportSchedule + source domain tables</text><polygon fill="#181818" points="1413,274.7188,1423,278.7188,1413,282.7188,1417,278.7188" style="stroke:#181818;stroke-width:1.0;"/><line style="stroke:#181818;stroke-width:1.0;" x1="1219" x2="1419" y1="278.7188" y2="278.7188"/><text fill="#000000" font-family="sans-serif" font-size="13" font-weight="bold" lengthAdjust="spacing" textLength="7" x="1226" y="273.8623">5</text><text fill="#000000" font-family="sans-serif" font-size="13" lengthAdjust="spacing" textLength="171" x="1237" y="273.8623">export pipeline (pdf/excel/csv)</text><polygon fill="#181818" points="616.5,305.0703,606.5,309.0703,616.5,313.0703,612.5,309.0703" style="stroke:#181818;stroke-width:1.0;"/><line style="stroke:#181818;stroke-width:1.0;stroke-dasharray:2.0,2.0;" x1="610.5" x2="1218" y1="309.0703" y2="309.0703"/><text fill="#000000" font-family="sans-serif" font-size="13" font-weight="bold" lengthAdjust="spacing" textLength="7" x="622.5" y="304.2139">6</text><text fill="#000000" font-family="sans-serif" font-size="13" lengthAdjust="spacing" textLength="109" x="633.5" y="304.2139">report payload/files</text><polygon fill="#181818" points="290.5,335.4219,280.5,339.4219,290.5,343.4219,286.5,339.4219" style="stroke:#181818;stroke-width:1.0;"/><line style="stroke:#181818;stroke-width:1.0;stroke-dasharray:2.0,2.0;" x1="284.5" x2="604.5" y1="339.4219" y2="339.4219"/><text fill="#000000" font-family="sans-serif" font-size="13" font-weight="bold" lengthAdjust="spacing" textLength="7" x="296.5" y="334.5654">7</text><text fill="#000000" font-family="sans-serif" font-size="13" lengthAdjust="spacing" textLength="90" x="307.5" y="334.5654">report response</text><polygon fill="#181818" points="267.5,365.7734,277.5,369.7734,267.5,373.7734,271.5,369.7734" style="stroke:#181818;stroke-width:1.0;"/><line style="stroke:#181818;stroke-width:1.0;" x1="27.5" x2="273.5" y1="369.7734" y2="369.7734"/><text fill="#000000" font-family="sans-serif" font-size="13" font-weight="bold" lengthAdjust="spacing" textLength="7" x="34.5" y="364.917">8</text><text fill="#000000" font-family="sans-serif" font-size="13" lengthAdjust="spacing" textLength="106" x="45.5" y="364.917">Bulk import/export</text><polygon fill="#181818" points="593.5,396.125,603.5,400.125,593.5,404.125,597.5,400.125" style="stroke:#181818;stroke-width:1.0;"/><line style="stroke:#181818;stroke-width:1.0;" x1="279.5" x2="599.5" y1="400.125" y2="400.125"/><text fill="#000000" font-family="sans-serif" font-size="13" font-weight="bold" lengthAdjust="spacing" textLength="7" x="286.5" y="395.2686">9</text><text fill="#000000" font-family="sans-serif" font-size="13" lengthAdjust="spacing" textLength="227" x="297.5" y="395.2686">/api/data/import/* and /api/data/export/*</text><polygon fill="#181818" points="1413,426.4766,1423,430.4766,1413,434.4766,1417,430.4766" style="stroke:#181818;stroke-width:1.0;"/><line style="stroke:#181818;stroke-width:1.0;" x1="605.5" x2="1419" y1="430.4766" y2="430.4766"/><text fill="#000000" font-family="sans-serif" font-size="13" font-weight="bold" lengthAdjust="spacing" textLength="14" x="612.5" y="425.6201">10</text><text fill="#000000" font-family="sans-serif" font-size="13" lengthAdjust="spacing" textLength="264" x="630.5" y="425.6201">parse/validate/import or export templates/data</text><polygon fill="#181818" points="1633,456.8281,1643,460.8281,1633,464.8281,1637,460.8281" style="stroke:#181818;stroke-width:1.0;"/><line style="stroke:#181818;stroke-width:1.0;" x1="1425" x2="1639" y1="460.8281" y2="460.8281"/><text fill="#000000" font-family="sans-serif" font-size="13" font-weight="bold" lengthAdjust="spacing" textLength="14" x="1432" y="455.9717">11</text><text fill="#000000" font-family="sans-serif" font-size="13" lengthAdjust="spacing" textLength="178" x="1450" y="455.9717">upsert/query operational tables</text><polygon fill="#181818" points="616.5,487.1797,606.5,491.1797,616.5,495.1797,612.5,491.1797" style="stroke:#181818;stroke-width:1.0;"/><line style="stroke:#181818;stroke-width:1.0;stroke-dasharray:2.0,2.0;" x1="610.5" x2="1424" y1="491.1797" y2="491.1797"/><text fill="#000000" font-family="sans-serif" font-size="13" font-weight="bold" lengthAdjust="spacing" textLength="14" x="622.5" y="486.3232">12</text><text fill="#000000" font-family="sans-serif" font-size="13" lengthAdjust="spacing" textLength="119" x="640.5" y="486.3232">import/export results</text><polygon fill="#181818" points="290.5,517.5313,280.5,521.5313,290.5,525.5313,286.5,521.5313" style="stroke:#181818;stroke-width:1.0;"/><line style="stroke:#181818;stroke-width:1.0;stroke-dasharray:2.0,2.0;" x1="284.5" x2="604.5" y1="521.5313" y2="521.5313"/><text fill="#000000" font-family="sans-serif" font-size="13" font-weight="bold" lengthAdjust="spacing" textLength="14" x="296.5" y="516.6748">13</text><text fill="#000000" font-family="sans-serif" font-size="13" lengthAdjust="spacing" textLength="117" x="314.5" y="516.6748">data utility response</text><polygon fill="#181818" points="267.5,547.8828,277.5,551.8828,267.5,555.8828,271.5,551.8828" style="stroke:#181818;stroke-width:1.0;"/><line style="stroke:#181818;stroke-width:1.0;" x1="27.5" x2="273.5" y1="551.8828" y2="551.8828"/><text fill="#000000" font-family="sans-serif" font-size="13" font-weight="bold" lengthAdjust="spacing" textLength="14" x="34.5" y="547.0264">14</text><text fill="#000000" font-family="sans-serif" font-size="13" lengthAdjust="spacing" textLength="156" x="52.5" y="547.0264">Manual integration controls</text><polygon fill="#181818" points="593.5,578.2344,603.5,582.2344,593.5,586.2344,597.5,582.2344" style="stroke:#181818;stroke-width:1.0;"/><line style="stroke:#181818;stroke-width:1.0;" x1="279.5" x2="599.5" y1="582.2344" y2="582.2344"/><text fill="#000000" font-family="sans-serif" font-size="13" font-weight="bold" lengthAdjust="spacing" textLength="14" x="286.5" y="577.3779">15</text><text fill="#000000" font-family="sans-serif" font-size="13" lengthAdjust="spacing" textLength="284" x="304.5" y="577.3779">/api/integration/sync-* /status /config /batch-sync</text><polygon fill="#181818" points="791.5,608.5859,801.5,612.5859,791.5,616.5859,795.5,612.5859" style="stroke:#181818;stroke-width:1.0;"/><line style="stroke:#181818;stroke-width:1.0;" x1="605.5" x2="797.5" y1="612.5859" y2="612.5859"/><text fill="#000000" font-family="sans-serif" font-size="13" font-weight="bold" lengthAdjust="spacing" textLength="14" x="612.5" y="607.7295">16</text><text fill="#000000" font-family="sans-serif" font-size="13" lengthAdjust="spacing" textLength="156" x="630.5" y="607.7295">cross-module sync actions</text><polygon fill="#181818" points="1633,638.9375,1643,642.9375,1633,646.9375,1637,642.9375" style="stroke:#181818;stroke-width:1.0;"/><line style="stroke:#181818;stroke-width:1.0;" x1="803.5" x2="1639" y1="642.9375" y2="642.9375"/><text fill="#000000" font-family="sans-serif" font-size="13" font-weight="bold" lengthAdjust="spacing" textLength="14" x="810.5" y="638.0811">17</text><text fill="#000000" font-family="sans-serif" font-size="13" lengthAdjust="spacing" textLength="172" x="828.5" y="638.0811">integration read/write + status</text><polygon fill="#181818" points="1014.5,669.2891,1024.5,673.2891,1014.5,677.2891,1018.5,673.2891" style="stroke:#181818;stroke-width:1.0;"/><line style="stroke:#181818;stroke-width:1.0;" x1="803.5" x2="1020.5" y1="673.2891" y2="673.2891"/><text fill="#000000" font-family="sans-serif" font-size="13" font-weight="bold" lengthAdjust="spacing" textLength="14" x="810.5" y="668.4326">18</text><text fill="#000000" font-family="sans-serif" font-size="13" lengthAdjust="spacing" textLength="181" x="828.5" y="668.4326">emit integration lifecycle events</text><polygon fill="#181818" points="616.5,699.6406,606.5,703.6406,616.5,707.6406,612.5,703.6406" style="stroke:#181818;stroke-width:1.0;"/><line style="stroke:#181818;stroke-width:1.0;stroke-dasharray:2.0,2.0;" x1="610.5" x2="802.5" y1="703.6406" y2="703.6406"/><text fill="#000000" font-family="sans-serif" font-size="13" font-weight="bold" lengthAdjust="spacing" textLength="14" x="622.5" y="698.7842">19</text><text fill="#000000" font-family="sans-serif" font-size="13" lengthAdjust="spacing" textLength="68" x="640.5" y="698.7842">sync status</text><polygon fill="#181818" points="290.5,729.9922,280.5,733.9922,290.5,737.9922,286.5,733.9922" style="stroke:#181818;stroke-width:1.0;"/><line style="stroke:#181818;stroke-width:1.0;stroke-dasharray:2.0,2.0;" x1="284.5" x2="604.5" y1="733.9922" y2="733.9922"/><text fill="#000000" font-family="sans-serif" font-size="13" font-weight="bold" lengthAdjust="spacing" textLength="14" x="296.5" y="729.1357">20</text><text fill="#000000" font-family="sans-serif" font-size="13" lengthAdjust="spacing" textLength="117" x="314.5" y="729.1357">integration response</text><!--SRC=[VLHDRnCn4BtxLmmvjQN1WcEb83MqI9MeA1I92vV9xYGnU6tZZz3brpFsUfDTKJZPEtxlpSppU5yuZxiE8PBz3T4d4fYYDQdRa1TxrH9ihOqR-oG4Dj5wk6uxPUf-yLuPD0t1FHhSaLy01k3OlTZOP5hqFIo-qaRUsutI1E-q8XCBQDYAnfhehOR5xPFp509SFzp11-p9VpDdwDohxm6yJP70-cPF8NgCofhpei7Oay2TYRGRJk6H_44rL413_7dSxO5hcDLU8kiKJlZFvAoF0Lx2i5DcD-g7Ggc04-C68y9TbwEIs-9bLb0-llieMbus60WM3pR4dQV7Jn_We10Ul0eT3j2r4AiLl7vpVaf-EPU-13GjJ9lA3gvM8jy2BDzMe-5ghBFWkMFTHzK4KOyPc7bN8D4fwIVGIO2pYunYy2Xs1Tio0Ggrt7kfJFRF-busAKJRoS2NrYPDBLHDCJ9Pv6PzBEiBTKvZfClwFQwFbS_s1viyJrfhErG6s3nDSxNYAolIuBbJZhGo16UktKfwQaZB9XpEJvnZqqDjuB3N5bkvLLcwT3eriA9uJ9qrWOGeBs7cyJhf7w26-ndAUDxWVFcouYvEDfVmm9CNezN7lXpwGFA0MZ6EAftVnTXmh1w6eYCgR_GvkK0i-pCHFqhhQ9WMrAEJ8_nOwAoDt7NIyHbNSYv8KMaL-_zwmyyiSJer6TNwPFunXHEa3BrfbXSWGyIO0aXcRjKEv0PZir_cqz6kuIcmHkDj2ClEbl792E1_5ci5KI6ZCzEAFF7z__8gbeahoIRmyU-GXwnJSSRKQajDtt0kogWJxTXKgQ5g_cNZl8ZHnJy0]--></g></svg>