<?xml version="1.0" encoding="us-ascii" standalone="no"?><svg xmlns="http://www.w3.org/2000/svg" xmlns:xlink="http://www.w3.org/1999/xlink" contentStyleType="text/css" height="1080px" preserveAspectRatio="none" style="width:454px;height:1080px;background:#FFFFFF;" version="1.1" viewBox="0 0 454 1080" width="454px" zoomAndPan="magnify"><defs/><g><text fill="#000000" font-family="sans-serif" font-size="14" font-weight="bold" lengthAdjust="spacing" textLength="379" x="30.75" y="24.5332">UEORMS State Transition - 9) Projects and Timesheets</text><ellipse cx="290.5" cy="54.6094" fill="#222222" rx="10" ry="10" style="stroke:#222222;stroke-width:1.0;"/><rect fill="#F1F1F1" height="40" rx="12.5" ry="12.5" style="stroke:#181818;stroke-width:0.5;" width="106" x="237.5" y="125.6094"/><text fill="#000000" font-family="sans-serif" font-size="14" lengthAdjust="spacing" textLength="96" x="242.5" y="151.3379">ProjectPlanned</text><rect fill="#F1F1F1" height="40" rx="12.5" ry="12.5" style="stroke:#181818;stroke-width:0.5;" width="92" x="244.5" y="243.6094"/><text fill="#000000" font-family="sans-serif" font-size="14" lengthAdjust="spacing" textLength="82" x="249.5" y="269.3379">ProjectActive</text><rect fill="#F1F1F1" height="40" rx="12.5" ry="12.5" style="stroke:#181818;stroke-width:0.5;" width="126" x="227.5" y="361.6094"/><text fill="#000000" font-family="sans-serif" font-size="14" lengthAdjust="spacing" textLength="116" x="232.5" y="387.3379">MembersAssigned</text><rect fill="#F1F1F1" height="40" rx="12.5" ry="12.5" style="stroke:#181818;stroke-width:0.5;" width="107" x="237" y="479.6094"/><text fill="#000000" font-family="sans-serif" font-size="14" lengthAdjust="spacing" textLength="97" x="242" y="505.3379">TimesheetDraft</text><rect fill="#F1F1F1" height="40" rx="12.5" ry="12.5" style="stroke:#181818;stroke-width:0.5;" width="139" x="151" y="597.6094"/><text fill="#000000" font-family="sans-serif" font-size="14" lengthAdjust="spacing" textLength="129" x="156" y="623.3379">TimesheetSubmitted</text><rect fill="#F1F1F1" height="40" rx="12.5" ry="12.5" style="stroke:#181818;stroke-width:0.5;" width="137" x="27" y="715.6094"/><text fill="#000000" font-family="sans-serif" font-size="14" lengthAdjust="spacing" textLength="127" x="32" y="741.3379">TimesheetApproved</text><rect fill="#F1F1F1" height="40" rx="12.5" ry="12.5" style="stroke:#181818;stroke-width:0.5;" width="132" x="246.5" y="715.6094"/><text fill="#000000" font-family="sans-serif" font-size="14" lengthAdjust="spacing" textLength="122" x="251.5" y="741.3379">TimesheetRejected</text><rect fill="#F1F1F1" height="40" rx="12.5" ry="12.5" style="stroke:#181818;stroke-width:0.5;" width="120" x="35.5" y="833.6094"/><text fill="#000000" font-family="sans-serif" font-size="14" lengthAdjust="spacing" textLength="110" x="40.5" y="859.3379">ProgressUpdated</text><rect fill="#F1F1F1" height="40" rx="12.5" ry="12.5" style="stroke:#181818;stroke-width:0.5;" width="177" x="7" y="951.6094"/><text fill="#000000" font-family="sans-serif" font-size="14" lengthAdjust="spacing" textLength="167" x="12" y="977.3379">ProjectDashboardUpdated</text><ellipse cx="95.5" cy="1063.6094" fill="none" rx="11" ry="11" style="stroke:#222222;stroke-width:1.0;"/><ellipse cx="95.5" cy="1063.6094" fill="#222222" rx="6" ry="6" style="stroke:#222222;stroke-width:1.0;"/><!--link *start* to ProjectPlanned--><g id="link_*start*_ProjectPlanned"><path d="M290.5,64.7994 C290.5,79.0094 290.5,100.6294 290.5,119.3494 " fill="none" id="*start*-to-ProjectPlanned" style="stroke:#181818;stroke-width:1.0;"/><polygon fill="#181818" points="290.5,125.3494,294.5,116.3494,290.5,120.3494,286.5,116.3494,290.5,125.3494" style="stroke:#181818;stroke-width:1.0;"/></g><!--link ProjectPlanned to ProjectActive--><g id="link_ProjectPlanned_ProjectActive"><path d="M290.5,165.7694 C290.5,187.2594 290.5,215.9194 290.5,237.4294 " fill="none" id="ProjectPlanned-to-ProjectActive" style="stroke:#181818;stroke-width:1.0;"/><polygon fill="#181818" points="290.5,243.4294,294.5,234.4294,290.5,238.4294,286.5,234.4294,290.5,243.4294" style="stroke:#181818;stroke-width:1.0;"/><text fill="#000000" font-family="sans-serif" font-size="13" lengthAdjust="spacing" textLength="96" x="291.5" y="210.1045">approve baseline</text></g><!--link ProjectActive to MembersAssigned--><g id="link_ProjectActive_MembersAssigned"><path d="M290.5,283.7694 C290.5,305.2594 290.5,333.9194 290.5,355.4294 " fill="none" id="ProjectActive-to-MembersAssigned" style="stroke:#181818;stroke-width:1.0;"/><polygon fill="#181818" points="290.5,361.4294,294.5,352.4294,290.5,356.4294,286.5,352.4294,290.5,361.4294" style="stroke:#181818;stroke-width:1.0;"/><text fill="#000000" font-family="sans-serif" font-size="13" lengthAdjust="spacing" textLength="99" x="291.5" y="328.1045">assign resources</text></g><!--link MembersAssigned to TimesheetDraft--><g id="link_MembersAssigned_TimesheetDraft"><path d="M290.5,401.7694 C290.5,423.2594 290.5,451.9194 290.5,473.4294 " fill="none" id="MembersAssigned-to-TimesheetDraft" style="stroke:#181818;stroke-width:1.0;"/><polygon fill="#181818" points="290.5,479.4294,294.5,470.4294,290.5,474.4294,286.5,470.4294,290.5,479.4294" style="stroke:#181818;stroke-width:1.0;"/><text fill="#000000" font-family="sans-serif" font-size="13" lengthAdjust="spacing" textLength="46" x="291.5" y="446.1045">log time</text></g><!--link TimesheetDraft to TimesheetSubmitted--><g id="link_TimesheetDraft_TimesheetSubmitted"><path d="M260.08,519.8294 C249.79,527.8194 239.22,537.9594 232.5,549.6094 C224.06,564.2494 221.6359,577.4488 220.8459,591.5388 " fill="none" id="TimesheetDraft-to-TimesheetSubmitted" style="stroke:#181818;stroke-width:1.0;"/><polygon fill="#181818" points="220.51,597.5294,225.0075,588.7674,220.7899,592.5372,217.0201,588.3196,220.51,597.5294" style="stroke:#181818;stroke-width:1.0;"/><text fill="#000000" font-family="sans-serif" font-size="13" lengthAdjust="spacing" textLength="100" x="233.5" y="564.1045">submit timesheet</text></g><!--link TimesheetSubmitted to TimesheetApproved--><g id="link_TimesheetSubmitted_TimesheetApproved"><path d="M158.75,637.6194 C143.22,644.8994 127.78,654.6694 116.5,667.6094 C104.8,681.0194 100.5518,695.0022 98.2518,709.6322 " fill="none" id="TimesheetSubmitted-to-TimesheetApproved" style="stroke:#181818;stroke-width:1.0;"/><polygon fill="#181818" points="97.32,715.5594,102.6692,707.2898,98.0965,710.62,94.7663,706.0474,97.32,715.5594" style="stroke:#181818;stroke-width:1.0;"/><text fill="#000000" font-family="sans-serif" font-size="13" lengthAdjust="spacing" textLength="105" x="117.5" y="682.1045">approve timesheet</text></g><!--link TimesheetSubmitted to TimesheetRejected--><g id="link_TimesheetSubmitted_TimesheetRejected"><path d="M222.35,637.7694 C224.54,652.0794 229.27,671.5194 239.5,685.6094 C248.29,697.7094 255.9639,704.5464 268.3639,712.3064 " fill="none" id="TimesheetSubmitted-to-TimesheetRejected" style="stroke:#181818;stroke-width:1.0;"/><polygon fill="#181818" points="273.45,715.4894,267.9427,707.3242,269.2115,712.8369,263.6988,714.1057,273.45,715.4894" style="stroke:#181818;stroke-width:1.0;"/><text fill="#000000" font-family="sans-serif" font-size="13" lengthAdjust="spacing" textLength="93" x="240.5" y="682.1045">reject timesheet</text></g><!--link TimesheetRejected to TimesheetDraft--><g id="link_TimesheetRejected_TimesheetDraft"><path d="M325.45,715.4794 C330.59,706.7594 335.9,696.0794 338.5,685.6094 C353.1,626.9494 361.34,605.5694 338.5,549.6094 C333.82,538.1394 329.4296,531.9782 320.6296,523.8582 " fill="none" id="TimesheetRejected-to-TimesheetDraft" style="stroke:#181818;stroke-width:1.0;"/><polygon fill="#181818" points="316.22,519.7894,320.1218,528.8324,319.8947,523.1801,325.5469,522.9529,316.22,519.7894" style="stroke:#181818;stroke-width:1.0;"/><text fill="#000000" font-family="sans-serif" font-size="13" lengthAdjust="spacing" textLength="92" x="354.5" y="623.1045">fix and resubmit</text></g><!--link TimesheetApproved to ProgressUpdated--><g id="link_TimesheetApproved_ProgressUpdated"><path d="M95.5,755.7694 C95.5,777.2594 95.5,805.9194 95.5,827.4294 " fill="none" id="TimesheetApproved-to-ProgressUpdated" style="stroke:#181818;stroke-width:1.0;"/><polygon fill="#181818" points="95.5,833.4294,99.5,824.4294,95.5,828.4294,91.5,824.4294,95.5,833.4294" style="stroke:#181818;stroke-width:1.0;"/><text fill="#000000" font-family="sans-serif" font-size="13" lengthAdjust="spacing" textLength="156" x="96.5" y="800.1045">update milestones/budgets</text></g><!--link ProgressUpdated to ProjectDashboardUpdated--><g id="link_ProgressUpdated_ProjectDashboardUpdated"><path d="M95.5,873.7694 C95.5,895.2594 95.5,923.9194 95.5,945.4294 " fill="none" id="ProgressUpdated-to-ProjectDashboardUpdated" style="stroke:#181818;stroke-width:1.0;"/><polygon fill="#181818" points="95.5,951.4294,99.5,942.4294,95.5,946.4294,91.5,942.4294,95.5,951.4294" style="stroke:#181818;stroke-width:1.0;"/><text fill="#000000" font-family="sans-serif" font-size="13" lengthAdjust="spacing" textLength="103" x="96.5" y="918.1045">refresh dashboard</text></g><!--link ProjectDashboardUpdated to *end*--><g id="link_ProjectDashboardUpdated_*end*"><path d="M95.5,991.6994 C95.5,1010.2694 95.5,1031.7794 95.5,1046.4794 " fill="none" id="ProjectDashboardUpdated-to-*end*" style="stroke:#181818;stroke-width:1.0;"/><polygon fill="#181818" points="95.5,1052.4794,99.5,1043.4794,95.5,1047.4794,91.5,1043.4794,95.5,1052.4794" style="stroke:#181818;stroke-width:1.0;"/></g><!--SRC=[ZP8zJyCm48Pt_ufRGOgOOK2ALCQAgcadn637byGe_f3lWk3VOxkq9A58RAzzptiVFhCFm1wKP_OMj8dOil5E34OZe0ty2HgfZIQKQpOy8XoVdlVR1XgMZ728qf79KQZW_WPsqR-b90JIQJWOYpGWCWdnSliALVLu1dQZT0wrM1xdH9rQUKTu01b2z4afIJWQXs89PCiMhS98DP7fSvfaAX8YafzYYoJMIBPT-jj4sN5oZRu7JfTY5Ld0pQIiOIvbgEZYAJ5nXLgOwzCmUZRN_yrxp7CNSopoclS2NPsmCnzbDUbXIWtnkxFl7VG9eMFGybHmAWgi6P7OEwGxDUa-htRDpdQuaJGeBwF-oHEnI_00-XmIVx4vJ_eruWi0]--></g></svg>