<?xml version="1.0" encoding="us-ascii" standalone="no"?><svg xmlns="http://www.w3.org/2000/svg" xmlns:xlink="http://www.w3.org/1999/xlink" contentStyleType="text/css" height="910px" preserveAspectRatio="none" style="width:1705px;height:910px;background:#FFFFFF;" version="1.1" viewBox="0 0 1705 910" width="1705px" zoomAndPan="magnify"><defs/><g><line style="stroke:#181818;stroke-width:0.5;stroke-dasharray:5.0,5.0;" x1="27" x2="27" y1="82.6094" y2="903.75"/><line style="stroke:#181818;stroke-width:0.5;stroke-dasharray:5.0,5.0;" x1="233" x2="233" y1="82.6094" y2="903.75"/><line style="stroke:#181818;stroke-width:0.5;stroke-dasharray:5.0,5.0;" x1="638" x2="638" y1="82.6094" y2="903.75"/><line style="stroke:#181818;stroke-width:0.5;stroke-dasharray:5.0,5.0;" x1="997" x2="997" y1="82.6094" y2="903.75"/><line style="stroke:#181818;stroke-width:0.5;stroke-dasharray:5.0,5.0;" x1="1204.5" x2="1204.5" y1="82.6094" y2="903.75"/><line style="stroke:#181818;stroke-width:0.5;stroke-dasharray:5.0,5.0;" x1="1336.5" x2="1336.5" y1="82.6094" y2="903.75"/><line style="stroke:#181818;stroke-width:0.5;stroke-dasharray:5.0,5.0;" x1="1622.5" x2="1622.5" y1="82.6094" y2="903.75"/><text fill="#000000" font-family="sans-serif" font-size="14" lengthAdjust="spacing" textLength="38" x="5" y="79.5332">Guest</text><ellipse cx="27" cy="13.5" fill="#E2E2F0" rx="8" ry="8" style="stroke:#181818;stroke-width:0.5;"/><path d="M27,21.5 L27,48.5 M14,29.5 L40,29.5 M27,48.5 L14,63.5 M27,48.5 L40,63.5 " fill="none" style="stroke:#181818;stroke-width:0.5;"/><text fill="#000000" font-family="sans-serif" font-size="14" lengthAdjust="spacing" textLength="114" x="173" y="79.5332">Web/Mobile Client</text><path d="M212.5,37 L212.5,61 M212.5,49 L229.5,49 " fill="none" style="stroke:#181818;stroke-width:0.5;"/><ellipse cx="241.5" cy="49" fill="#E2E2F0" rx="12" ry="12" style="stroke:#181818;stroke-width:0.5;"/><text fill="#000000" font-family="sans-serif" font-size="14" lengthAdjust="spacing" textLength="115" x="577.5" y="61.9238">Express API Layer</text><text fill="#000000" font-family="sans-serif" font-size="14" lengthAdjust="spacing" textLength="172" x="549" y="79.5332">(app.js route orchestration)</text><ellipse cx="638" cy="31.3906" fill="#E2E2F0" rx="12" ry="12" style="stroke:#181818;stroke-width:0.5;"/><polygon fill="#181818" points="634,19.3906,640,14.3906,638,19.3906,640,24.3906,634,19.3906" style="stroke:#181818;stroke-width:1.0;"/><text fill="#000000" font-family="sans-serif" font-size="14" lengthAdjust="spacing" textLength="83" x="952.5" y="61.9238">Auth + RBAC</text><text fill="#000000" font-family="sans-serif" font-size="14" lengthAdjust="spacing" textLength="239" x="874.5" y="79.5332">(requireAuth / permission middleware)</text><ellipse cx="997" cy="31.3906" fill="#E2E2F0" rx="12" ry="12" style="stroke:#181818;stroke-width:0.5;"/><polygon fill="#181818" points="993,19.3906,999,14.3906,997,19.3906,999,24.3906,993,19.3906" style="stroke:#181818;stroke-width:1.0;"/><text fill="#000000" font-family="sans-serif" font-size="14" lengthAdjust="spacing" textLength="144" x="1129.5" y="79.5332">Email Service + Queue</text><ellipse cx="1204.5" cy="49" fill="#E2E2F0" rx="12" ry="12" style="stroke:#181818;stroke-width:0.5;"/><polygon fill="#181818" points="1200.5,37,1206.5,32,1204.5,37,1206.5,42,1200.5,37" style="stroke:#181818;stroke-width:1.0;"/><text fill="#000000" font-family="sans-serif" font-size="14" lengthAdjust="spacing" textLength="88" x="1289.5" y="79.5332">Billing Service</text><ellipse cx="1336.5" cy="49" fill="#E2E2F0" rx="12" ry="12" style="stroke:#181818;stroke-width:0.5;"/><polygon fill="#181818" points="1332.5,37,1338.5,32,1336.5,37,1338.5,42,1332.5,37" style="stroke:#181818;stroke-width:1.0;"/><text fill="#000000" font-family="sans-serif" font-size="14" lengthAdjust="spacing" textLength="146" x="1546.5" y="79.5332">PostgreSQL via Prisma</text><path d="M1604.5,29 C1604.5,19 1622.5,19 1622.5,19 C1622.5,19 1640.5,19 1640.5,29 L1640.5,55 C1640.5,65 1622.5,65 1622.5,65 C1622.5,65 1604.5,65 1604.5,55 L1604.5,29 " fill="#E2E2F0" style="stroke:#181818;stroke-width:1.5;"/><path d="M1604.5,29 C1604.5,39 1622.5,39 1622.5,39 C1622.5,39 1640.5,39 1640.5,29 " fill="none" style="stroke:#181818;stroke-width:1.5;"/><rect fill="#EEEEEE" height="3" style="stroke:#EEEEEE;stroke-width:1.0;" width="1693.5" x="5" y="111.7852"/><line style="stroke:#000000;stroke-width:1.0;" x1="5" x2="1698.5" y1="111.7852" y2="111.7852"/><line style="stroke:#000000;stroke-width:1.0;" x1="5" x2="1698.5" y1="114.7852" y2="114.7852"/><rect fill="#EEEEEE" height="24.3516" style="stroke:#000000;stroke-width:2.0;" width="323" x="690.25" y="100.6094"/><text fill="#000000" font-family="sans-serif" font-size="13" font-weight="bold" lengthAdjust="spacing" textLength="305" x="696.25" y="118.1045">1) Onboarding, Authentication, and Subscription</text><polygon fill="#181818" points="221,153.3125,231,157.3125,221,161.3125,225,157.3125" style="stroke:#181818;stroke-width:1.0;"/><line style="stroke:#181818;stroke-width:1.0;" x1="27" x2="227" y1="157.3125" y2="157.3125"/><text fill="#000000" font-family="sans-serif" font-size="13" font-weight="bold" lengthAdjust="spacing" textLength="7" x="34" y="152.4561">1</text><text fill="#000000" font-family="sans-serif" font-size="13" lengthAdjust="spacing" textLength="171" x="45" y="152.4561">Register / Register+Checkout</text><polygon fill="#181818" points="626,183.6641,636,187.6641,626,191.6641,630,187.6641" style="stroke:#181818;stroke-width:1.0;"/><line style="stroke:#181818;stroke-width:1.0;" x1="233" x2="632" y1="187.6641" y2="187.6641"/><text fill="#000000" font-family="sans-serif" font-size="13" font-weight="bold" lengthAdjust="spacing" textLength="7" x="240" y="182.8076">2</text><text fill="#000000" font-family="sans-serif" font-size="13" lengthAdjust="spacing" textLength="259" x="251" y="182.8076">POST /api/auth/register or /register/checkout</text><polygon fill="#181818" points="1324.5,214.0156,1334.5,218.0156,1324.5,222.0156,1328.5,218.0156" style="stroke:#181818;stroke-width:1.0;"/><line style="stroke:#181818;stroke-width:1.0;" x1="638" x2="1330.5" y1="218.0156" y2="218.0156"/><text fill="#000000" font-family="sans-serif" font-size="13" font-weight="bold" lengthAdjust="spacing" textLength="7" x="645" y="213.1592">3</text><text fill="#000000" font-family="sans-serif" font-size="13" lengthAdjust="spacing" textLength="266" x="656" y="213.1592">fetch public plans / create pending registration</text><polygon fill="#181818" points="1610.5,244.3672,1620.5,248.3672,1610.5,252.3672,1614.5,248.3672" style="stroke:#181818;stroke-width:1.0;"/><line style="stroke:#181818;stroke-width:1.0;" x1="1336.5" x2="1616.5" y1="248.3672" y2="248.3672"/><text fill="#000000" font-family="sans-serif" font-size="13" font-weight="bold" lengthAdjust="spacing" textLength="7" x="1343.5" y="243.5107">4</text><text fill="#000000" font-family="sans-serif" font-size="13" lengthAdjust="spacing" textLength="251" x="1354.5" y="243.5107">Plan, PendingRegistration, Subscription init</text><polygon fill="#181818" points="1347.5,274.7188,1337.5,278.7188,1347.5,282.7188,1343.5,278.7188" style="stroke:#181818;stroke-width:1.0;"/><line style="stroke:#181818;stroke-width:1.0;stroke-dasharray:2.0,2.0;" x1="1341.5" x2="1621.5" y1="278.7188" y2="278.7188"/><text fill="#000000" font-family="sans-serif" font-size="13" font-weight="bold" lengthAdjust="spacing" textLength="7" x="1353.5" y="273.8623">5</text><text fill="#000000" font-family="sans-serif" font-size="13" lengthAdjust="spacing" textLength="151" x="1364.5" y="273.8623">plan + registration context</text><polygon fill="#181818" points="649,305.0703,639,309.0703,649,313.0703,645,309.0703" style="stroke:#181818;stroke-width:1.0;"/><line style="stroke:#181818;stroke-width:1.0;stroke-dasharray:2.0,2.0;" x1="643" x2="1335.5" y1="309.0703" y2="309.0703"/><text fill="#000000" font-family="sans-serif" font-size="13" font-weight="bold" lengthAdjust="spacing" textLength="7" x="655" y="304.2139">6</text><text fill="#000000" font-family="sans-serif" font-size="13" lengthAdjust="spacing" textLength="189" x="666" y="304.2139">plan decision + payment context</text><polygon fill="#181818" points="985,335.4219,995,339.4219,985,343.4219,989,339.4219" style="stroke:#181818;stroke-width:1.0;"/><line style="stroke:#181818;stroke-width:1.0;" x1="638" x2="991" y1="339.4219" y2="339.4219"/><text fill="#000000" font-family="sans-serif" font-size="13" font-weight="bold" lengthAdjust="spacing" textLength="7" x="645" y="334.5654">7</text><text fill="#000000" font-family="sans-serif" font-size="13" lengthAdjust="spacing" textLength="324" x="656" y="334.5654">create tenant/admin user + hash password + issue JWT</text><polygon fill="#181818" points="1610.5,365.7734,1620.5,369.7734,1610.5,373.7734,1614.5,369.7734" style="stroke:#181818;stroke-width:1.0;"/><line style="stroke:#181818;stroke-width:1.0;" x1="997" x2="1616.5" y1="369.7734" y2="369.7734"/><text fill="#000000" font-family="sans-serif" font-size="13" font-weight="bold" lengthAdjust="spacing" textLength="7" x="1004" y="364.917">8</text><text fill="#000000" font-family="sans-serif" font-size="13" lengthAdjust="spacing" textLength="208" x="1015" y="364.917">Tenant, User, Role/UserRole inserts</text><polygon fill="#181818" points="1008,396.125,998,400.125,1008,404.125,1004,400.125" style="stroke:#181818;stroke-width:1.0;"/><line style="stroke:#181818;stroke-width:1.0;stroke-dasharray:2.0,2.0;" x1="1002" x2="1621.5" y1="400.125" y2="400.125"/><text fill="#000000" font-family="sans-serif" font-size="13" font-weight="bold" lengthAdjust="spacing" textLength="7" x="1014" y="395.2686">9</text><text fill="#000000" font-family="sans-serif" font-size="13" lengthAdjust="spacing" textLength="124" x="1025" y="395.2686">user + tenant created</text><polygon fill="#181818" points="649,426.4766,639,430.4766,649,434.4766,645,430.4766" style="stroke:#181818;stroke-width:1.0;"/><line style="stroke:#181818;stroke-width:1.0;stroke-dasharray:2.0,2.0;" x1="643" x2="996" y1="430.4766" y2="430.4766"/><text fill="#000000" font-family="sans-serif" font-size="13" font-weight="bold" lengthAdjust="spacing" textLength="14" x="655" y="425.6201">10</text><text fill="#000000" font-family="sans-serif" font-size="13" lengthAdjust="spacing" textLength="90" x="673" y="425.6201">token + identity</text><polygon fill="#181818" points="1192.5,456.8281,1202.5,460.8281,1192.5,464.8281,1196.5,460.8281" style="stroke:#181818;stroke-width:1.0;"/><line style="stroke:#181818;stroke-width:1.0;" x1="638" x2="1198.5" y1="460.8281" y2="460.8281"/><text fill="#000000" font-family="sans-serif" font-size="13" font-weight="bold" lengthAdjust="spacing" textLength="14" x="645" y="455.9717">11</text><text fill="#000000" font-family="sans-serif" font-size="13" lengthAdjust="spacing" textLength="147" x="663" y="455.9717">send welcome/verification</text><polygon fill="#181818" points="244,487.1797,234,491.1797,244,495.1797,240,491.1797" style="stroke:#181818;stroke-width:1.0;"/><line style="stroke:#181818;stroke-width:1.0;stroke-dasharray:2.0,2.0;" x1="238" x2="637" y1="491.1797" y2="491.1797"/><text fill="#000000" font-family="sans-serif" font-size="13" font-weight="bold" lengthAdjust="spacing" textLength="14" x="250" y="486.3232">12</text><text fill="#000000" font-family="sans-serif" font-size="13" lengthAdjust="spacing" textLength="158" x="268" y="486.3232">onboarding success + JWT</text><polygon fill="#181818" points="221,517.5313,231,521.5313,221,525.5313,225,521.5313" style="stroke:#181818;stroke-width:1.0;"/><line style="stroke:#181818;stroke-width:1.0;" x1="27" x2="227" y1="521.5313" y2="521.5313"/><text fill="#000000" font-family="sans-serif" font-size="13" font-weight="bold" lengthAdjust="spacing" textLength="14" x="34" y="516.6748">13</text><text fill="#000000" font-family="sans-serif" font-size="13" lengthAdjust="spacing" textLength="31" x="52" y="516.6748">Login</text><polygon fill="#181818" points="626,547.8828,636,551.8828,626,555.8828,630,551.8828" style="stroke:#181818;stroke-width:1.0;"/><line style="stroke:#181818;stroke-width:1.0;" x1="233" x2="632" y1="551.8828" y2="551.8828"/><text fill="#000000" font-family="sans-serif" font-size="13" font-weight="bold" lengthAdjust="spacing" textLength="14" x="240" y="547.0264">14</text><text fill="#000000" font-family="sans-serif" font-size="13" lengthAdjust="spacing" textLength="120" x="258" y="547.0264">POST /api/auth/login</text><polygon fill="#181818" points="985,578.2344,995,582.2344,985,586.2344,989,582.2344" style="stroke:#181818;stroke-width:1.0;"/><line style="stroke:#181818;stroke-width:1.0;" x1="638" x2="991" y1="582.2344" y2="582.2344"/><text fill="#000000" font-family="sans-serif" font-size="13" font-weight="bold" lengthAdjust="spacing" textLength="14" x="645" y="577.3779">15</text><text fill="#000000" font-family="sans-serif" font-size="13" lengthAdjust="spacing" textLength="240" x="663" y="577.3779">validate credentials + roles + permissions</text><polygon fill="#181818" points="1610.5,608.5859,1620.5,612.5859,1610.5,616.5859,1614.5,612.5859" style="stroke:#181818;stroke-width:1.0;"/><line style="stroke:#181818;stroke-width:1.0;" x1="997" x2="1616.5" y1="612.5859" y2="612.5859"/><text fill="#000000" font-family="sans-serif" font-size="13" font-weight="bold" lengthAdjust="spacing" textLength="14" x="1004" y="607.7295">16</text><text fill="#000000" font-family="sans-serif" font-size="13" lengthAdjust="spacing" textLength="176" x="1022" y="607.7295">User + RolePermission lookup</text><polygon fill="#181818" points="1008,638.9375,998,642.9375,1008,646.9375,1004,642.9375" style="stroke:#181818;stroke-width:1.0;"/><line style="stroke:#181818;stroke-width:1.0;stroke-dasharray:2.0,2.0;" x1="1002" x2="1621.5" y1="642.9375" y2="642.9375"/><text fill="#000000" font-family="sans-serif" font-size="13" font-weight="bold" lengthAdjust="spacing" textLength="14" x="1014" y="638.0811">17</text><text fill="#000000" font-family="sans-serif" font-size="13" lengthAdjust="spacing" textLength="72" x="1032" y="638.0811">auth context</text><polygon fill="#181818" points="649,669.2891,639,673.2891,649,677.2891,645,673.2891" style="stroke:#181818;stroke-width:1.0;"/><line style="stroke:#181818;stroke-width:1.0;stroke-dasharray:2.0,2.0;" x1="643" x2="996" y1="673.2891" y2="673.2891"/><text fill="#000000" font-family="sans-serif" font-size="13" font-weight="bold" lengthAdjust="spacing" textLength="14" x="655" y="668.4326">18</text><text fill="#000000" font-family="sans-serif" font-size="13" lengthAdjust="spacing" textLength="80" x="673" y="668.4326">JWT + claims</text><polygon fill="#181818" points="244,699.6406,234,703.6406,244,707.6406,240,703.6406" style="stroke:#181818;stroke-width:1.0;"/><line style="stroke:#181818;stroke-width:1.0;stroke-dasharray:2.0,2.0;" x1="238" x2="637" y1="703.6406" y2="703.6406"/><text fill="#000000" font-family="sans-serif" font-size="13" font-weight="bold" lengthAdjust="spacing" textLength="14" x="250" y="698.7842">19</text><text fill="#000000" font-family="sans-serif" font-size="13" lengthAdjust="spacing" textLength="80" x="268" y="698.7842">login success</text><polygon fill="#181818" points="221,729.9922,231,733.9922,221,737.9922,225,733.9922" style="stroke:#181818;stroke-width:1.0;"/><line style="stroke:#181818;stroke-width:1.0;" x1="27" x2="227" y1="733.9922" y2="733.9922"/><text fill="#000000" font-family="sans-serif" font-size="13" font-weight="bold" lengthAdjust="spacing" textLength="14" x="34" y="729.1357">20</text><text fill="#000000" font-family="sans-serif" font-size="13" lengthAdjust="spacing" textLength="96" x="52" y="729.1357">Forgot password</text><polygon fill="#181818" points="626,760.3438,636,764.3438,626,768.3438,630,764.3438" style="stroke:#181818;stroke-width:1.0;"/><line style="stroke:#181818;stroke-width:1.0;" x1="233" x2="632" y1="764.3438" y2="764.3438"/><text fill="#000000" font-family="sans-serif" font-size="13" font-weight="bold" lengthAdjust="spacing" textLength="14" x="240" y="759.4873">21</text><text fill="#000000" font-family="sans-serif" font-size="13" lengthAdjust="spacing" textLength="363" x="258" y="759.4873">POST /api/auth/forgot-password -&gt; verify-otp -&gt; reset-password</text><polygon fill="#181818" points="985,790.6953,995,794.6953,985,798.6953,989,794.6953" style="stroke:#181818;stroke-width:1.0;"/><line style="stroke:#181818;stroke-width:1.0;" x1="638" x2="991" y1="794.6953" y2="794.6953"/><text fill="#000000" font-family="sans-serif" font-size="13" font-weight="bold" lengthAdjust="spacing" textLength="14" x="645" y="789.8389">22</text><text fill="#000000" font-family="sans-serif" font-size="13" lengthAdjust="spacing" textLength="85" x="663" y="789.8389">OTP reset flow</text><polygon fill="#181818" points="1610.5,821.0469,1620.5,825.0469,1610.5,829.0469,1614.5,825.0469" style="stroke:#181818;stroke-width:1.0;"/><line style="stroke:#181818;stroke-width:1.0;" x1="997" x2="1616.5" y1="825.0469" y2="825.0469"/><text fill="#000000" font-family="sans-serif" font-size="13" font-weight="bold" lengthAdjust="spacing" textLength="14" x="1004" y="820.1904">23</text><text fill="#000000" font-family="sans-serif" font-size="13" lengthAdjust="spacing" textLength="177" x="1022" y="820.1904">PasswordReset + User update</text><polygon fill="#181818" points="1192.5,851.3984,1202.5,855.3984,1192.5,859.3984,1196.5,855.3984" style="stroke:#181818;stroke-width:1.0;"/><line style="stroke:#181818;stroke-width:1.0;" x1="638" x2="1198.5" y1="855.3984" y2="855.3984"/><text fill="#000000" font-family="sans-serif" font-size="13" font-weight="bold" lengthAdjust="spacing" textLength="14" x="645" y="850.542">24</text><text fill="#000000" font-family="sans-serif" font-size="13" lengthAdjust="spacing" textLength="86" x="663" y="850.542">send OTP mail</text><polygon fill="#181818" points="244,881.75,234,885.75,244,889.75,240,885.75" style="stroke:#181818;stroke-width:1.0;"/><line style="stroke:#181818;stroke-width:1.0;stroke-dasharray:2.0,2.0;" x1="238" x2="637" y1="885.75" y2="885.75"/><text fill="#000000" font-family="sans-serif" font-size="13" font-weight="bold" lengthAdjust="spacing" textLength="14" x="250" y="880.8936">25</text><text fill="#000000" font-family="sans-serif" font-size="13" lengthAdjust="spacing" textLength="152" x="268" y="880.8936">password reset completed</text><!--SRC=[XLJBRjim4BppAxO-DR1TeLS3BX0dRT4YHHJ7GIwzKDJQPaEHB1zstA_ladhOWGta98gQsUNC3lN1EhvfE0Gq_o2uY8p7O7HiAdHiAsk4jJ6XCg-CSH6CW-yHVM2LYRhcxW2ZPwoANwQI2k56ITHX1DntIoQC3iue67rzjGwzX-lo1zpn0xhV-YEtzjCV3yx4W62Ss59XnuCq-YhN8Eonm7KCMnZ3Sd5zGrI7VwDqc3SBiEWQwJqHeP5rhN3F7NOr294u9oTfk5JmY6ud1LB5XuWHCpP_EG8NKYcfDpqqGxezLlF0A-uHHgNnOUFmyU4ETf93wQHlUCRUBXYRp-7p5Tphod1N4t6I3qJEI965Je3h6XvZvOMJDkt0VCwonJ3zqha8CrZYHlg0ZiJso_7D5iKBUSSw5E6JkpCexnzNK70h2nhbjd0zbuOtl1IYPoSEKNkrCrXZ45kmiL9IW5LSU-eg77AQaaMTP41RfXqMwwbKvNQH-XDd0cKBNPuW9s-LIYq38yRqJVlKaSPosW7IJF0r73iDMZEwHY7pzCTW-Q59PlICJbqV0s9qIW9ghaF1wqPgY9xi6SEMUnBElTyRLzCxPIeY_7nUiO7VQrnb-WIUY3c1fL5Of6LQa2vQ1TzBE-dTzMbxToUfJueFie9vmII7xXzb9Hnw7MruP-39NDYZ4gR1OeTEhhj0jS3Jw9WXVE2Z4EaIZhEc2p6xCnkftykJog1pOtTSoJfPIxhoiRbAhUWkONeUBwa_j_EfDIRPLnulipBc9TeBFgPp74TyRX_9esf2STduSqUoWDwCIpPyCsvZmf24zmnPP_Xq20xXyaWEKnDiUgC_7nw_Nx3kVbMs85Whip-tf-oeoumPjtP5czo-c8nKB__CphGFXspRKNwimXH2zXy0]--></g></svg>