<?xml version="1.0" encoding="us-ascii" standalone="no"?><svg xmlns="http://www.w3.org/2000/svg" xmlns:xlink="http://www.w3.org/1999/xlink" contentStyleType="text/css" height="1788px" preserveAspectRatio="none" style="width:700px;height:1788px;background:#FFFFFF;" version="1.1" viewBox="0 0 700 1788" width="700px" zoomAndPan="magnify"><defs/><g><text fill="#000000" font-family="sans-serif" font-size="14" font-weight="bold" lengthAdjust="spacing" textLength="429" x="128.75" y="24.5332">UEORMS State Transition - 8) Purchase and Accounts Payable</text><ellipse cx="531.5" cy="54.6094" fill="#222222" rx="10" ry="10" style="stroke:#222222;stroke-width:1.0;"/><rect fill="#F1F1F1" height="40" rx="12.5" ry="12.5" style="stroke:#181818;stroke-width:0.5;" width="94" x="484.5" y="125.6094"/><text fill="#000000" font-family="sans-serif" font-size="14" lengthAdjust="spacing" textLength="84" x="489.5" y="151.3379">VendorActive</text><rect fill="#F1F1F1" height="40" rx="12.5" ry="12.5" style="stroke:#181818;stroke-width:0.5;" width="111" x="476" y="243.6094"/><text fill="#000000" font-family="sans-serif" font-size="14" lengthAdjust="spacing" textLength="101" x="481" y="269.3379">RequisitionDraft</text><rect fill="#F1F1F1" height="40" rx="12.5" ry="12.5" style="stroke:#181818;stroke-width:0.5;" width="143" x="389" y="361.6094"/><text fill="#000000" font-family="sans-serif" font-size="14" lengthAdjust="spacing" textLength="133" x="394" y="387.3379">RequisitionSubmitted</text><rect fill="#F1F1F1" height="40" rx="12.5" ry="12.5" style="stroke:#181818;stroke-width:0.5;" width="141" x="263" y="479.6094"/><text fill="#000000" font-family="sans-serif" font-size="14" lengthAdjust="spacing" textLength="131" x="268" y="505.3379">RequisitionApproved</text><rect fill="#F1F1F1" height="40" rx="12.5" ry="12.5" style="stroke:#181818;stroke-width:0.5;" width="136" x="486.5" y="479.6094"/><text fill="#000000" font-family="sans-serif" font-size="14" lengthAdjust="spacing" textLength="126" x="491.5" y="505.3379">RequisitionRejected</text><rect fill="#F1F1F1" height="40" rx="12.5" ry="12.5" style="stroke:#181818;stroke-width:0.5;" width="61" x="303" y="597.6094"/><text fill="#000000" font-family="sans-serif" font-size="14" lengthAdjust="spacing" textLength="51" x="308" y="623.3379">PODraft</text><rect fill="#F1F1F1" height="40" rx="12.5" ry="12.5" style="stroke:#181818;stroke-width:0.5;" width="93" x="229" y="715.6094"/><text fill="#000000" font-family="sans-serif" font-size="14" lengthAdjust="spacing" textLength="83" x="234" y="741.3379">POSubmitted</text><rect fill="#F1F1F1" height="40" rx="12.5" ry="12.5" style="stroke:#181818;stroke-width:0.5;" width="91" x="158" y="833.6094"/><text fill="#000000" font-family="sans-serif" font-size="14" lengthAdjust="spacing" textLength="81" x="163" y="859.3379">POApproved</text><rect fill="#F1F1F1" height="40" rx="12.5" ry="12.5" style="stroke:#181818;stroke-width:0.5;" width="86" x="316.5" y="833.6094"/><text fill="#000000" font-family="sans-serif" font-size="14" lengthAdjust="spacing" textLength="76" x="321.5" y="859.3379">PORejected</text><rect fill="#F1F1F1" height="40" rx="12.5" ry="12.5" style="stroke:#181818;stroke-width:0.5;" width="144" x="131.5" y="951.6094"/><text fill="#000000" font-family="sans-serif" font-size="14" lengthAdjust="spacing" textLength="134" x="136.5" y="977.3379">GoodsReceiptPosted</text><rect fill="#F1F1F1" height="40" rx="12.5" ry="12.5" style="stroke:#181818;stroke-width:0.5;" width="59" x="174" y="1069.6094"/><text fill="#000000" font-family="sans-serif" font-size="14" lengthAdjust="spacing" textLength="49" x="179" y="1095.3379">BillDraft</text><rect fill="#F1F1F1" height="40" rx="12.5" ry="12.5" style="stroke:#181818;stroke-width:0.5;" width="130" x="65.5" y="1187.6094"/><text fill="#000000" font-family="sans-serif" font-size="14" lengthAdjust="spacing" textLength="120" x="70.5" y="1213.3379">ThreeWayMatched</text><rect fill="#F1F1F1" height="40" rx="12.5" ry="12.5" style="stroke:#181818;stroke-width:0.5;" width="89" x="49" y="1305.6094"/><text fill="#000000" font-family="sans-serif" font-size="14" lengthAdjust="spacing" textLength="79" x="54" y="1331.3379">BillApproved</text><rect fill="#F1F1F1" height="40" rx="12.5" ry="12.5" style="stroke:#181818;stroke-width:0.5;" width="84" x="203.5" y="1305.6094"/><text fill="#000000" font-family="sans-serif" font-size="14" lengthAdjust="spacing" textLength="74" x="208.5" y="1331.3379">BillRejected</text><rect fill="#F1F1F1" height="40" rx="12.5" ry="12.5" style="stroke:#181818;stroke-width:0.5;" width="132" x="27.5" y="1423.6094"/><text fill="#000000" font-family="sans-serif" font-size="14" lengthAdjust="spacing" textLength="122" x="32.5" y="1449.3379">PaymentScheduled</text><rect fill="#F1F1F1" height="40" rx="12.5" ry="12.5" style="stroke:#181818;stroke-width:0.5;" width="132" x="27.5" y="1541.6094"/><text fill="#000000" font-family="sans-serif" font-size="14" lengthAdjust="spacing" textLength="122" x="32.5" y="1567.3379">PaymentProcessed</text><rect fill="#F1F1F1" height="40" rx="12.5" ry="12.5" style="stroke:#181818;stroke-width:0.5;" width="173" x="7" y="1659.6094"/><text fill="#000000" font-family="sans-serif" font-size="14" lengthAdjust="spacing" textLength="163" x="12" y="1685.3379">VendorStatementUpdated</text><ellipse cx="93.5" cy="1771.6094" fill="none" rx="11" ry="11" style="stroke:#222222;stroke-width:1.0;"/><ellipse cx="93.5" cy="1771.6094" fill="#222222" rx="6" ry="6" style="stroke:#222222;stroke-width:1.0;"/><!--link *start* to VendorActive--><g id="link_*start*_VendorActive"><path d="M531.5,64.7994 C531.5,79.0094 531.5,100.6294 531.5,119.3494 " fill="none" id="*start*-to-VendorActive" style="stroke:#181818;stroke-width:1.0;"/><polygon fill="#181818" points="531.5,125.3494,535.5,116.3494,531.5,120.3494,527.5,116.3494,531.5,125.3494" style="stroke:#181818;stroke-width:1.0;"/></g><!--link VendorActive to RequisitionDraft--><g id="link_VendorActive_RequisitionDraft"><path d="M531.5,165.7694 C531.5,187.2594 531.5,215.9194 531.5,237.4294 " fill="none" id="VendorActive-to-RequisitionDraft" style="stroke:#181818;stroke-width:1.0;"/><polygon fill="#181818" points="531.5,243.4294,535.5,234.4294,531.5,238.4294,527.5,234.4294,531.5,243.4294" style="stroke:#181818;stroke-width:1.0;"/><text fill="#000000" font-family="sans-serif" font-size="13" lengthAdjust="spacing" textLength="99" x="532.5" y="210.1045">create requisition</text></g><!--link RequisitionDraft to RequisitionSubmitted--><g id="link_RequisitionDraft_RequisitionSubmitted"><path d="M500.56,283.7294 C490.09,291.7094 479.34,301.8694 472.5,313.6094 C463.99,328.2094 461.5772,341.4183 460.8072,355.5183 " fill="none" id="RequisitionDraft-to-RequisitionSubmitted" style="stroke:#181818;stroke-width:1.0;"/><polygon fill="#181818" points="460.48,361.5094,464.9648,352.7409,460.7526,356.5168,456.9767,352.3047,460.48,361.5094" style="stroke:#181818;stroke-width:1.0;"/><text fill="#000000" font-family="sans-serif" font-size="13" lengthAdjust="spacing" textLength="102" x="473.5" y="328.1045">submit requisition</text></g><!--link RequisitionSubmitted to RequisitionApproved--><g id="link_RequisitionSubmitted_RequisitionApproved"><path d="M395.75,401.7094 C380.15,408.9294 364.76,418.6594 353.5,431.6094 C341.87,444.9794 337.8281,458.9568 335.7881,473.5968 " fill="none" id="RequisitionSubmitted-to-RequisitionApproved" style="stroke:#181818;stroke-width:1.0;"/><polygon fill="#181818" points="334.96,479.5394,340.1638,471.1775,335.6501,474.5872,332.2404,470.0735,334.96,479.5394" style="stroke:#181818;stroke-width:1.0;"/><text fill="#000000" font-family="sans-serif" font-size="13" lengthAdjust="spacing" textLength="107" x="354.5" y="446.1045">approve requisition</text></g><!--link RequisitionSubmitted to RequisitionRejected--><g id="link_RequisitionSubmitted_RequisitionRejected"><path d="M462.3,401.8094 C464.46,416.1394 469.18,435.5894 479.5,449.6094 C488.44,461.7594 496.2499,468.6113 508.8699,476.3213 " fill="none" id="RequisitionSubmitted-to-RequisitionRejected" style="stroke:#181818;stroke-width:1.0;"/><polygon fill="#181818" points="513.99,479.4494,508.3952,471.3439,509.7233,476.8427,504.2245,478.1707,513.99,479.4494" style="stroke:#181818;stroke-width:1.0;"/><text fill="#000000" font-family="sans-serif" font-size="13" lengthAdjust="spacing" textLength="95" x="480.5" y="446.1045">reject requisition</text></g><!--link RequisitionRejected to RequisitionDraft--><g id="link_RequisitionRejected_RequisitionDraft"><path d="M567.45,479.4794 C572.59,470.7594 577.9,460.0794 580.5,449.6094 C595.1,390.9494 603.63,369.4494 580.5,313.6094 C575.71,302.0494 571.1829,295.8208 562.2029,287.7108 " fill="none" id="RequisitionRejected-to-RequisitionDraft" style="stroke:#181818;stroke-width:1.0;"/><polygon fill="#181818" points="557.75,283.6894,561.7483,292.6901,561.4607,287.0406,567.1103,286.753,557.75,283.6894" style="stroke:#181818;stroke-width:1.0;"/><text fill="#000000" font-family="sans-serif" font-size="13" lengthAdjust="spacing" textLength="96" x="596.5" y="387.1045">revise requisition</text></g><!--link RequisitionApproved to PODraft--><g id="link_RequisitionApproved_PODraft"><path d="M333.5,519.7694 C333.5,541.2594 333.5,569.9194 333.5,591.4294 " fill="none" id="RequisitionApproved-to-PODraft" style="stroke:#181818;stroke-width:1.0;"/><polygon fill="#181818" points="333.5,597.4294,337.5,588.4294,333.5,592.4294,329.5,588.4294,333.5,597.4294" style="stroke:#181818;stroke-width:1.0;"/><text fill="#000000" font-family="sans-serif" font-size="13" lengthAdjust="spacing" textLength="79" x="334.5" y="564.1045">convert to PO</text></g><!--link PODraft to POSubmitted--><g id="link_PODraft_POSubmitted"><path d="M320.3,637.6894 C314.45,646.5594 307.73,657.3994 302.5,667.6094 C294.49,683.2294 289.2377,696.1769 284.2377,709.7969 " fill="none" id="PODraft-to-POSubmitted" style="stroke:#181818;stroke-width:1.0;"/><polygon fill="#181818" points="282.17,715.4294,289.0265,708.3592,283.8931,710.7357,281.5166,705.6022,282.17,715.4294" style="stroke:#181818;stroke-width:1.0;"/><text fill="#000000" font-family="sans-serif" font-size="13" lengthAdjust="spacing" textLength="62" x="303.5" y="682.1045">submit PO</text></g><!--link POSubmitted to POApproved--><g id="link_POSubmitted_POApproved"><path d="M230.98,755.6794 C218.91,763.1594 207.31,773.0294 200.5,785.6094 C192.58,800.2494 193.1151,813.5875 196.3051,827.6775 " fill="none" id="POSubmitted-to-POApproved" style="stroke:#181818;stroke-width:1.0;"/><polygon fill="#181818" points="197.63,833.5294,199.5439,823.8683,196.5259,828.6528,191.7414,825.6348,197.63,833.5294" style="stroke:#181818;stroke-width:1.0;"/><text fill="#000000" font-family="sans-serif" font-size="13" lengthAdjust="spacing" textLength="67" x="201.5" y="800.1045">approve PO</text></g><!--link POSubmitted to PORejected--><g id="link_POSubmitted_PORejected"><path d="M283.21,755.7494 C289.29,769.6894 298.55,788.6694 309.5,803.6094 C317.4,814.3894 323.3481,820.8822 332.5681,829.4222 " fill="none" id="POSubmitted-to-PORejected" style="stroke:#181818;stroke-width:1.0;"/><polygon fill="#181818" points="336.97,833.4994,333.0854,824.449,333.3018,830.1017,327.6491,830.3181,336.97,833.4994" style="stroke:#181818;stroke-width:1.0;"/><text fill="#000000" font-family="sans-serif" font-size="13" lengthAdjust="spacing" textLength="55" x="310.5" y="800.1045">reject PO</text></g><!--link PORejected to PODraft--><g id="link_PORejected_PODraft"><path d="M365.26,833.3494 C374.54,799.0094 389.87,725.4194 370.5,667.6094 C366.84,656.6894 363.5345,650.8675 356.4845,642.4575 " fill="none" id="PORejected-to-PODraft" style="stroke:#181818;stroke-width:1.0;"/><polygon fill="#181818" points="352.63,637.8594,355.3464,647.3262,355.8421,641.6911,361.4772,642.1868,352.63,637.8594" style="stroke:#181818;stroke-width:1.0;"/><text fill="#000000" font-family="sans-serif" font-size="13" lengthAdjust="spacing" textLength="56" x="381.5" y="741.1045">revise PO</text></g><!--link POApproved to GoodsReceiptPosted--><g id="link_POApproved_GoodsReceiptPosted"><path d="M203.5,873.7694 C203.5,895.2594 203.5,923.9194 203.5,945.4294 " fill="none" id="POApproved-to-GoodsReceiptPosted" style="stroke:#181818;stroke-width:1.0;"/><polygon fill="#181818" points="203.5,951.4294,207.5,942.4294,203.5,946.4294,199.5,942.4294,203.5,951.4294" style="stroke:#181818;stroke-width:1.0;"/><text fill="#000000" font-family="sans-serif" font-size="13" lengthAdjust="spacing" textLength="78" x="204.5" y="918.1045">goods receipt</text></g><!--link GoodsReceiptPosted to BillDraft--><g id="link_GoodsReceiptPosted_BillDraft"><path d="M203.5,991.7694 C203.5,1013.2594 203.5,1041.9194 203.5,1063.4294 " fill="none" id="GoodsReceiptPosted-to-BillDraft" style="stroke:#181818;stroke-width:1.0;"/><polygon fill="#181818" points="203.5,1069.4294,207.5,1060.4294,203.5,1064.4294,199.5,1060.4294,203.5,1069.4294" style="stroke:#181818;stroke-width:1.0;"/><text fill="#000000" font-family="sans-serif" font-size="13" lengthAdjust="spacing" textLength="78" x="204.5" y="1036.1045">create AP bill</text></g><!--link BillDraft to ThreeWayMatched--><g id="link_BillDraft_ThreeWayMatched"><path d="M173.88,1101.3294 C157.01,1109.1394 137.34,1121.5494 127.5,1139.6094 C119.53,1154.2294 120.0721,1167.5682 123.2721,1181.6682 " fill="none" id="BillDraft-to-ThreeWayMatched" style="stroke:#181818;stroke-width:1.0;"/><polygon fill="#181818" points="124.6,1187.5194,126.5089,1177.8573,123.4934,1182.6434,118.7073,1179.6279,124.6,1187.5194" style="stroke:#181818;stroke-width:1.0;"/><text fill="#000000" font-family="sans-serif" font-size="13" lengthAdjust="spacing" textLength="121" x="128.5" y="1154.1045">perform 3-way match</text></g><!--link ThreeWayMatched to BillApproved--><g id="link_ThreeWayMatched_BillApproved"><path d="M109.42,1228.0694 C101.94,1236.3594 94.41,1246.6394 90.5,1257.6094 C84.99,1273.0694 85.4143,1285.9212 87.8443,1299.6512 " fill="none" id="ThreeWayMatched-to-BillApproved" style="stroke:#181818;stroke-width:1.0;"/><polygon fill="#181818" points="88.89,1305.5594,91.2603,1296,88.0186,1300.6359,83.3827,1297.3942,88.89,1305.5594" style="stroke:#181818;stroke-width:1.0;"/><text fill="#000000" font-family="sans-serif" font-size="13" lengthAdjust="spacing" textLength="64" x="91.5" y="1272.1045">approve bill</text></g><!--link ThreeWayMatched to BillRejected--><g id="link_ThreeWayMatched_BillRejected"><path d="M149.24,1227.7094 C162.43,1241.1294 180.51,1259.4994 196.5,1275.6094 C206.33,1285.5194 213.0627,1292.2614 222.1427,1301.3214 " fill="none" id="ThreeWayMatched-to-BillRejected" style="stroke:#181818;stroke-width:1.0;"/><polygon fill="#181818" points="226.39,1305.5594,222.8443,1296.3709,222.8506,1302.0277,217.1937,1302.034,226.39,1305.5594" style="stroke:#181818;stroke-width:1.0;"/><text fill="#000000" font-family="sans-serif" font-size="13" lengthAdjust="spacing" textLength="52" x="197.5" y="1272.1045">reject bill</text></g><!--link BillRejected to BillDraft--><g id="link_BillRejected_BillDraft"><path d="M251.68,1305.5394 C261.8,1270.8894 278.51,1195.9694 254.5,1139.6094 C249.54,1127.9694 244.8506,1121.7031 235.5906,1113.6631 " fill="none" id="BillRejected-to-BillDraft" style="stroke:#181818;stroke-width:1.0;"/><polygon fill="#181818" points="231.06,1109.7294,235.2334,1118.6503,234.8355,1113.0074,240.4783,1112.6095,231.06,1109.7294" style="stroke:#181818;stroke-width:1.0;"/><text fill="#000000" font-family="sans-serif" font-size="13" lengthAdjust="spacing" textLength="119" x="268.5" y="1213.1045">correct and resubmit</text></g><!--link BillApproved to PaymentScheduled--><g id="link_BillApproved_PaymentScheduled"><path d="M93.5,1345.7694 C93.5,1367.2594 93.5,1395.9194 93.5,1417.4294 " fill="none" id="BillApproved-to-PaymentScheduled" style="stroke:#181818;stroke-width:1.0;"/><polygon fill="#181818" points="93.5,1423.4294,97.5,1414.4294,93.5,1418.4294,89.5,1414.4294,93.5,1423.4294" style="stroke:#181818;stroke-width:1.0;"/><text fill="#000000" font-family="sans-serif" font-size="13" lengthAdjust="spacing" textLength="106" x="94.5" y="1390.1045">schedule payment</text></g><!--link PaymentScheduled to PaymentProcessed--><g id="link_PaymentScheduled_PaymentProcessed"><path d="M93.5,1463.7694 C93.5,1485.2594 93.5,1513.9194 93.5,1535.4294 " fill="none" id="PaymentScheduled-to-PaymentProcessed" style="stroke:#181818;stroke-width:1.0;"/><polygon fill="#181818" points="93.5,1541.4294,97.5,1532.4294,93.5,1536.4294,89.5,1532.4294,93.5,1541.4294" style="stroke:#181818;stroke-width:1.0;"/><text fill="#000000" font-family="sans-serif" font-size="13" lengthAdjust="spacing" textLength="100" x="94.5" y="1508.1045">execute payment</text></g><!--link PaymentProcessed to VendorStatementUpdated--><g id="link_PaymentProcessed_VendorStatementUpdated"><path d="M93.5,1581.7694 C93.5,1603.2594 93.5,1631.9194 93.5,1653.4294 " fill="none" id="PaymentProcessed-to-VendorStatementUpdated" style="stroke:#181818;stroke-width:1.0;"/><polygon fill="#181818" points="93.5,1659.4294,97.5,1650.4294,93.5,1654.4294,89.5,1650.4294,93.5,1659.4294" style="stroke:#181818;stroke-width:1.0;"/><text fill="#000000" font-family="sans-serif" font-size="13" lengthAdjust="spacing" textLength="136" x="94.5" y="1626.1045">update aging/statement</text></g><!--link VendorStatementUpdated to *end*--><g id="link_VendorStatementUpdated_*end*"><path d="M93.5,1699.6994 C93.5,1718.2694 93.5,1739.7794 93.5,1754.4794 " fill="none" id="VendorStatementUpdated-to-*end*" style="stroke:#181818;stroke-width:1.0;"/><polygon fill="#181818" points="93.5,1760.4794,97.5,1751.4794,93.5,1755.4794,89.5,1751.4794,93.5,1760.4794" style="stroke:#181818;stroke-width:1.0;"/></g><!--SRC=[bLInJiD03DtlAxo2L36m80Qa8X1JrIXfOK0CrulR7afomUSKylVadBOXJJAmEVPxp_Qxkx0hWHri7BFB8RM4XgqhrDwc29YNN4EAtf0j9SsMCuJryp9U992mPeGLwSBRK8KPt5r1L97PQu-WYnJcnhYgO0-HhlKcGwNUhpzWDdk0LonIH_Ecsm7Ltm-fnlXLsLRrYVIMuHuCOMX7NKKDK1VKfDhabXdJXkubdg9to0k9ULcIEuY2RiD_IyJusPWg4YJXbC8PEE40uS7woVxdIGCxMfvjSyK1YSCXHqjrohUO4Ny4qrybMewOC8eRRYgmtbxTPCTr1D8R_iMvrCTeiBbqaVEju2ua6uvarGWaC1zjbbtSbta4coQhkb80hlQ4-ARhXMQp5_qIQUieXzlPjwuX3tbrYJgr6F53UapXXxwSH-fvqnlVKNYByee8szDHlURYfgvpB3W9xQgiFSXZ36LRKmFC7s94pg3tGiGVD1KFU1saUxRoyaDnNQQwNQoI2FJE5hiRVwgh2NoGQlu4wXS0]--></g></svg>