<?xml version="1.0" encoding="us-ascii" standalone="no"?><svg xmlns="http://www.w3.org/2000/svg" xmlns:xlink="http://www.w3.org/1999/xlink" contentStyleType="text/css" height="1115px" preserveAspectRatio="none" style="width:573px;height:1115px;background:#FFFFFF;" version="1.1" viewBox="0 0 573 1115" width="573px" zoomAndPan="magnify"><defs/><g><text fill="#000000" font-family="sans-serif" font-size="14" font-weight="bold" lengthAdjust="spacing" textLength="417" x="71" y="24.5332">UEORMS State Transition - 12) Governance and Compliance</text><ellipse cx="354" cy="54.6094" fill="#222222" rx="10" ry="10" style="stroke:#222222;stroke-width:1.0;"/><rect fill="#F1F1F1" height="40" rx="12.5" ry="12.5" style="stroke:#181818;stroke-width:0.5;" width="78" x="315" y="125.6094"/><text fill="#000000" font-family="sans-serif" font-size="14" lengthAdjust="spacing" textLength="68" x="320" y="151.3379">PolicyDraft</text><rect fill="#F1F1F1" height="40" rx="12.5" ry="12.5" style="stroke:#181818;stroke-width:0.5;" width="108" x="168" y="243.6094"/><text fill="#000000" font-family="sans-serif" font-size="14" lengthAdjust="spacing" textLength="98" x="173" y="269.3379">PolicyApproved</text><rect fill="#F1F1F1" height="40" rx="12.5" ry="12.5" style="stroke:#181818;stroke-width:0.5;" width="103" x="370.5" y="243.6094"/><text fill="#000000" font-family="sans-serif" font-size="14" lengthAdjust="spacing" textLength="93" x="375.5" y="269.3379">PolicyRejected</text><rect fill="#F1F1F1" height="40" rx="12.5" ry="12.5" style="stroke:#181818;stroke-width:0.5;" width="107" x="168.5" y="361.6094"/><text fill="#000000" font-family="sans-serif" font-size="14" lengthAdjust="spacing" textLength="97" x="173.5" y="387.3379">ControlMapped</text><rect fill="#F1F1F1" height="40" rx="12.5" ry="12.5" style="stroke:#181818;stroke-width:0.5;" width="130" x="157" y="479.6094"/><text fill="#000000" font-family="sans-serif" font-size="14" lengthAdjust="spacing" textLength="120" x="162" y="505.3379">EvidenceCollection</text><rect fill="#F1F1F1" height="40" rx="12.5" ry="12.5" style="stroke:#181818;stroke-width:0.5;" width="124" x="160" y="597.6094"/><text fill="#000000" font-family="sans-serif" font-size="14" lengthAdjust="spacing" textLength="114" x="165" y="623.3379">ComplianceCheck</text><rect fill="#F1F1F1" height="40" rx="12.5" ry="12.5" style="stroke:#181818;stroke-width:0.5;" width="73" x="23.5" y="715.6094"/><text fill="#000000" font-family="sans-serif" font-size="14" lengthAdjust="spacing" textLength="63" x="28.5" y="741.3379">Compliant</text><rect fill="#F1F1F1" height="40" rx="12.5" ry="12.5" style="stroke:#181818;stroke-width:0.5;" width="98" x="173" y="715.6094"/><text fill="#000000" font-family="sans-serif" font-size="14" lengthAdjust="spacing" textLength="88" x="178" y="741.3379">NonCompliant</text><rect fill="#F1F1F1" height="40" rx="12.5" ry="12.5" style="stroke:#181818;stroke-width:0.5;" width="141" x="143.5" y="833.6094"/><text fill="#000000" font-family="sans-serif" font-size="14" lengthAdjust="spacing" textLength="131" x="148.5" y="859.3379">RemediationPlanned</text><rect fill="#F1F1F1" height="40" rx="12.5" ry="12.5" style="stroke:#181818;stroke-width:0.5;" width="157" x="133.5" y="951.6094"/><text fill="#000000" font-family="sans-serif" font-size="14" lengthAdjust="spacing" textLength="147" x="138.5" y="977.3379">RemediationInProgress</text><rect fill="#F1F1F1" height="40" rx="12.5" ry="12.5" style="stroke:#181818;stroke-width:0.5;" width="117" x="225.5" y="1069.6094"/><text fill="#000000" font-family="sans-serif" font-size="14" lengthAdjust="spacing" textLength="107" x="230.5" y="1095.3379">RecheckPending</text><rect fill="#F1F1F1" height="40" rx="12.5" ry="12.5" style="stroke:#181818;stroke-width:0.5;" width="83" x="8.5" y="833.6094"/><text fill="#000000" font-family="sans-serif" font-size="14" lengthAdjust="spacing" textLength="73" x="13.5" y="859.3379">AuditReady</text><rect fill="#F1F1F1" height="40" rx="12.5" ry="12.5" style="stroke:#181818;stroke-width:0.5;" width="86" x="7" y="951.6094"/><text fill="#000000" font-family="sans-serif" font-size="14" lengthAdjust="spacing" textLength="76" x="12" y="977.3379">AuditClosed</text><ellipse cx="50" cy="1089.6094" fill="none" rx="11" ry="11" style="stroke:#222222;stroke-width:1.0;"/><ellipse cx="50" cy="1089.6094" fill="#222222" rx="6" ry="6" style="stroke:#222222;stroke-width:1.0;"/><!--link *start* to PolicyDraft--><g id="link_*start*_PolicyDraft"><path d="M354,64.7994 C354,79.0094 354,100.6294 354,119.3494 " fill="none" id="*start*-to-PolicyDraft" style="stroke:#181818;stroke-width:1.0;"/><polygon fill="#181818" points="354,125.3494,358,116.3494,354,120.3494,350,116.3494,354,125.3494" style="stroke:#181818;stroke-width:1.0;"/></g><!--link PolicyDraft to PolicyApproved--><g id="link_PolicyDraft_PolicyApproved"><path d="M314.97,156.0594 C292.13,163.4094 264.27,175.7694 246,195.6094 C233.78,208.8794 228.8798,222.9185 225.9098,237.5985 " fill="none" id="PolicyDraft-to-PolicyApproved" style="stroke:#181818;stroke-width:1.0;"/><polygon fill="#181818" points="224.72,243.4794,230.4253,235.4513,225.7115,238.5787,222.5841,233.8649,224.72,243.4794" style="stroke:#181818;stroke-width:1.0;"/><text fill="#000000" font-family="sans-serif" font-size="13" lengthAdjust="spacing" textLength="90" x="247" y="210.1045">review approved</text></g><!--link PolicyDraft to PolicyRejected--><g id="link_PolicyDraft_PolicyRejected"><path d="M348.24,165.6294 C345.1,179.6894 343.26,198.8694 351,213.6094 C357.54,226.0794 363.8105,232.7331 375.5105,240.2931 " fill="none" id="PolicyDraft-to-PolicyRejected" style="stroke:#181818;stroke-width:1.0;"/><polygon fill="#181818" points="380.55,243.5494,375.1616,235.3053,376.3504,240.8358,370.8199,242.0246,380.55,243.5494" style="stroke:#181818;stroke-width:1.0;"/><text fill="#000000" font-family="sans-serif" font-size="13" lengthAdjust="spacing" textLength="85" x="352" y="210.1045">review rejected</text></g><!--link PolicyRejected to PolicyDraft--><g id="link_PolicyRejected_PolicyDraft"><path d="M435.56,243.4194 C443.63,229.4594 450.73,210.4694 442,195.6094 C431.37,177.5194 416.9164,167.9078 398.6664,160.3778 " fill="none" id="PolicyRejected-to-PolicyDraft" style="stroke:#181818;stroke-width:1.0;"/><polygon fill="#181818" points="393.12,158.0894,399.914,165.2197,397.742,159.9964,402.9653,157.8245,393.12,158.0894" style="stroke:#181818;stroke-width:1.0;"/><text fill="#000000" font-family="sans-serif" font-size="13" lengthAdjust="spacing" textLength="118" x="447" y="210.1045">update and resubmit</text></g><!--link PolicyApproved to ControlMapped--><g id="link_PolicyApproved_ControlMapped"><path d="M222,283.7694 C222,305.2594 222,333.9194 222,355.4294 " fill="none" id="PolicyApproved-to-ControlMapped" style="stroke:#181818;stroke-width:1.0;"/><polygon fill="#181818" points="222,361.4294,226,352.4294,222,356.4294,218,352.4294,222,361.4294" style="stroke:#181818;stroke-width:1.0;"/><text fill="#000000" font-family="sans-serif" font-size="13" lengthAdjust="spacing" textLength="143" x="223" y="328.1045">map controls to modules</text></g><!--link ControlMapped to EvidenceCollection--><g id="link_ControlMapped_EvidenceCollection"><path d="M222,401.7694 C222,423.2594 222,451.9194 222,473.4294 " fill="none" id="ControlMapped-to-EvidenceCollection" style="stroke:#181818;stroke-width:1.0;"/><polygon fill="#181818" points="222,479.4294,226,470.4294,222,474.4294,218,470.4294,222,479.4294" style="stroke:#181818;stroke-width:1.0;"/><text fill="#000000" font-family="sans-serif" font-size="13" lengthAdjust="spacing" textLength="115" x="223" y="446.1045">start evidence cycle</text></g><!--link EvidenceCollection to ComplianceCheck--><g id="link_EvidenceCollection_ComplianceCheck"><path d="M222,519.7694 C222,541.2594 222,569.9194 222,591.4294 " fill="none" id="EvidenceCollection-to-ComplianceCheck" style="stroke:#181818;stroke-width:1.0;"/><polygon fill="#181818" points="222,597.4294,226,588.4294,222,592.4294,218,588.4294,222,597.4294" style="stroke:#181818;stroke-width:1.0;"/><text fill="#000000" font-family="sans-serif" font-size="13" lengthAdjust="spacing" textLength="134" x="223" y="564.1045">run compliance checks</text></g><!--link ComplianceCheck to Compliant--><g id="link_ComplianceCheck_Compliant"><path d="M173.35,637.6694 C156,645.6094 136.84,655.7694 121,667.6094 C102.73,681.2694 89.3044,696.2373 77.8744,710.7373 " fill="none" id="ComplianceCheck-to-Compliant" style="stroke:#181818;stroke-width:1.0;"/><polygon fill="#181818" points="74.16,715.4494,82.8729,710.8576,77.2553,711.5227,76.5902,705.9051,74.16,715.4494" style="stroke:#181818;stroke-width:1.0;"/><text fill="#000000" font-family="sans-serif" font-size="13" lengthAdjust="spacing" textLength="91" x="122" y="682.1045">all checks pass</text></g><!--link ComplianceCheck to NonCompliant--><g id="link_ComplianceCheck_NonCompliant"><path d="M222,637.7694 C222,659.2594 222,687.9194 222,709.4294 " fill="none" id="ComplianceCheck-to-NonCompliant" style="stroke:#181818;stroke-width:1.0;"/><polygon fill="#181818" points="222,715.4294,226,706.4294,222,710.4294,218,706.4294,222,715.4294" style="stroke:#181818;stroke-width:1.0;"/><text fill="#000000" font-family="sans-serif" font-size="13" lengthAdjust="spacing" textLength="98" x="223" y="682.1045">findings detected</text></g><!--link NonCompliant to RemediationPlanned--><g id="link_NonCompliant_RemediationPlanned"><path d="M220.68,755.7694 C219.2,777.2594 217.2246,805.9337 215.7346,827.4437 " fill="none" id="NonCompliant-to-RemediationPlanned" style="stroke:#181818;stroke-width:1.0;"/><polygon fill="#181818" points="215.32,833.4294,219.9324,824.7273,215.6655,828.4413,211.9515,824.1745,215.32,833.4294" style="stroke:#181818;stroke-width:1.0;"/><text fill="#000000" font-family="sans-serif" font-size="13" lengthAdjust="spacing" textLength="109" x="220" y="800.1045">assign remediation</text></g><!--link RemediationPlanned to RemediationInProgress--><g id="link_RemediationPlanned_RemediationInProgress"><path d="M213.67,873.7694 C213.3,895.2594 212.8032,923.9203 212.4332,945.4303 " fill="none" id="RemediationPlanned-to-RemediationInProgress" style="stroke:#181818;stroke-width:1.0;"/><polygon fill="#181818" points="212.33,951.4294,216.4842,942.4995,212.416,946.4301,208.4854,942.3619,212.33,951.4294" style="stroke:#181818;stroke-width:1.0;"/><text fill="#000000" font-family="sans-serif" font-size="13" lengthAdjust="spacing" textLength="117" x="215" y="918.1045">execute remediation</text></g><!--link RemediationInProgress to RecheckPending--><g id="link_RemediationInProgress_RecheckPending"><path d="M205.25,991.6994 C201.47,1005.7994 198.97,1024.9894 207,1039.6094 C213.94,1052.2494 220.5417,1058.9847 232.7917,1066.4247 " fill="none" id="RemediationInProgress-to-RecheckPending" style="stroke:#181818;stroke-width:1.0;"/><polygon fill="#181818" points="237.92,1069.5394,232.304,1061.4486,233.6464,1066.9438,228.1512,1068.2863,237.92,1069.5394" style="stroke:#181818;stroke-width:1.0;"/><text fill="#000000" font-family="sans-serif" font-size="13" lengthAdjust="spacing" textLength="124" x="208" y="1036.1045">remediation complete</text></g><!--link RecheckPending to ComplianceCheck--><g id="link_RecheckPending_ComplianceCheck"><path d="M309.6,1069.5994 C319.31,1061.2994 329.75,1050.8894 337,1039.6094 C353.94,1013.2394 359,1003.9494 359,972.6094 C359,734.6094 359,734.6094 359,734.6094 C359,702.1594 352.74,690.7494 330,667.6094 C317.3,654.6894 306.0515,647.2993 289.5615,639.9593 " fill="none" id="RecheckPending-to-ComplianceCheck" style="stroke:#181818;stroke-width:1.0;"/><polygon fill="#181818" points="284.08,637.5194,290.6756,644.8336,288.6479,639.5526,293.9289,637.5249,284.08,637.5194" style="stroke:#181818;stroke-width:1.0;"/><text fill="#000000" font-family="sans-serif" font-size="13" lengthAdjust="spacing" textLength="79" x="360" y="859.1045">re-run checks</text></g><!--link Compliant to AuditReady--><g id="link_Compliant_AuditReady"><path d="M58.35,755.7694 C56.5,777.2594 54.0269,805.9417 52.1669,827.4517 " fill="none" id="Compliant-to-AuditReady" style="stroke:#181818;stroke-width:1.0;"/><polygon fill="#181818" points="51.65,833.4294,56.4105,824.8074,52.0807,828.448,48.4402,824.1182,51.65,833.4294" style="stroke:#181818;stroke-width:1.0;"/><text fill="#000000" font-family="sans-serif" font-size="13" lengthAdjust="spacing" textLength="130" x="57" y="800.1045">compile audit package</text></g><!--link AuditReady to AuditClosed--><g id="link_AuditReady_AuditClosed"><path d="M50,873.7694 C50,895.2594 50,923.9194 50,945.4294 " fill="none" id="AuditReady-to-AuditClosed" style="stroke:#181818;stroke-width:1.0;"/><polygon fill="#181818" points="50,951.4294,54,942.4294,50,946.4294,46,942.4294,50,951.4294" style="stroke:#181818;stroke-width:1.0;"/><text fill="#000000" font-family="sans-serif" font-size="13" lengthAdjust="spacing" textLength="85" x="51" y="918.1045">audit accepted</text></g><!--link AuditClosed to *end*--><g id="link_AuditClosed_*end*"><path d="M50,991.7694 C50,1016.5994 50,1053.0294 50,1072.4094 " fill="none" id="AuditClosed-to-*end*" style="stroke:#181818;stroke-width:1.0;"/><polygon fill="#181818" points="50,1078.4094,54,1069.4094,50,1073.4094,46,1069.4094,50,1078.4094" style="stroke:#181818;stroke-width:1.0;"/></g><!--SRC=[TPCzJyCm48Pt_ufRGUe08mDI5Ih4KAXQc123Qn-fgMDRzgNGVyzTqbPfr6x9tVFUnskROWAAi8v4iG7hCXfoCQYDimZO9Dg3nMAoIrsO77c4ZzdRShw25Mb2UCyw52TPcC3T_Gqynntce8D1qC525PladVmgzNdx1PF98ooYTsR_bFKtgS7t83TDANCT2m-GSUVm5_GXSaMmn1yUVIZ8XuWQ0QC1MD0cAvl8j1bBksuSAJMQGrHL39IZd_CeNQD69p1zh8YBJRIjnwBEEL7ETkmdMr15xtk7MLv8Pm8yfC3iZKTrWUnR7rsiDcYsicKRkFan2aR2qlgS6sfbLUtz0OMaosN-DOQXvDi5wq9T-29GRwWw8qIon0QjqpBkmkiGEdkulgi3MthAgGlSIFuI5ZdMV0o5A-0VcfPFvag90TjNwJPRO3TlTn5EQ6yLBw16r1LpSTBvsvkgpfUTjjRH4hNTCobr7Ry9BK7sr6nrZMg0d1ILZwNtfKErCPZ4pM5IO7uawXy0]--></g></svg>