<?xml version="1.0" encoding="us-ascii" standalone="no"?><svg xmlns="http://www.w3.org/2000/svg" xmlns:xlink="http://www.w3.org/1999/xlink" contentStyleType="text/css" height="3113px" preserveAspectRatio="none" style="width:1222px;height:3113px;background:#FFFFFF;" version="1.1" viewBox="0 0 1222 3113" width="1222px" zoomAndPan="magnify"><defs/><g><text fill="#000000" font-family="Courier" font-size="14" font-weight="bold" lengthAdjust="spacing" textLength="497" x="361" y="34.5332">UEORMS&#160;Navigation&#160;Chart&#160;-&#160;Part&#160;2B:&#160;Routed&#160;Pages&#160;(Purchase&#160;to&#160;Admin)</text><rect fill="#F1F1F1" height="37.6094" rx="12.5" ry="12.5" style="stroke:#181818;stroke-width:1.5;" width="188" x="10" y="1556.4531"/><text fill="#000000" font-family="Courier" font-size="14" lengthAdjust="spacing" textLength="168" x="20" y="1580.9863">UEORMS&#160;Navigation&#160;Chart</text><rect fill="#F1F1F1" height="37.6094" rx="12.5" ry="12.5" style="stroke:#181818;stroke-width:1.5;" width="239" x="248" y="1383.625"/><text fill="#000000" font-family="Courier" font-size="14" lengthAdjust="spacing" textLength="219" x="258" y="1408.1582">Routed&#160;Page&#160;Inventory&#160;(111&#160;Total)</text><rect fill="#F1F1F1" height="37.6094" rx="12.5" ry="12.5" style="stroke:#181818;stroke-width:1.5;" width="152" x="537" y="289.0469"/><text fill="#000000" font-family="Courier" font-size="14" lengthAdjust="spacing" textLength="132" x="547" y="313.5801">Purchase&#160;and&#160;AP&#160;(9)</text><rect fill="#F1F1F1" height="37.6094" rx="12.5" ry="12.5" style="stroke:#181818;stroke-width:1.5;" width="79" x="739" y="58.6094"/><text fill="#000000" font-family="Courier" font-size="14" lengthAdjust="spacing" textLength="59" x="749" y="83.1426">/ap/aging</text><path d="M689,307.8516 L699,307.8516 C714,307.8516 714,77.4141 729,77.4141 L739,77.4141 " fill="none" style="stroke:#181818;stroke-width:1.0;"/><rect fill="#F1F1F1" height="37.6094" rx="12.5" ry="12.5" style="stroke:#181818;stroke-width:1.5;" width="68" x="739" y="116.2188"/><text fill="#000000" font-family="Courier" font-size="14" lengthAdjust="spacing" textLength="48" x="749" y="140.752">/ap/bills</text><path d="M689,307.8516 L699,307.8516 C714,307.8516 714,135.0234 729,135.0234 L739,135.0234 " fill="none" style="stroke:#181818;stroke-width:1.0;"/><rect fill="#F1F1F1" height="37.6094" rx="12.5" ry="12.5" style="stroke:#181818;stroke-width:1.5;" width="105" x="739" y="173.8281"/><text fill="#000000" font-family="Courier" font-size="14" lengthAdjust="spacing" textLength="85" x="749" y="198.3613">/ap/payments</text><path d="M689,307.8516 L699,307.8516 C714,307.8516 714,192.6328 729,192.6328 L739,192.6328 " fill="none" style="stroke:#181818;stroke-width:1.0;"/><rect fill="#F1F1F1" height="37.6094" rx="12.5" ry="12.5" style="stroke:#181818;stroke-width:1.5;" width="142" x="739" y="231.4375"/><text fill="#000000" font-family="Courier" font-size="14" lengthAdjust="spacing" textLength="122" x="749" y="255.9707">/purchase/analytics</text><path d="M689,307.8516 L699,307.8516 C714,307.8516 714,250.2422 729,250.2422 L739,250.2422 " fill="none" style="stroke:#181818;stroke-width:1.0;"/><rect fill="#F1F1F1" height="37.6094" rx="12.5" ry="12.5" style="stroke:#181818;stroke-width:1.5;" width="159" x="739" y="289.0469"/><text fill="#000000" font-family="Courier" font-size="14" lengthAdjust="spacing" textLength="139" x="749" y="313.5801">/purchase/evaluations</text><path d="M689,307.8516 L699,307.8516 C714,307.8516 714,307.8516 729,307.8516 L739,307.8516 " fill="none" style="stroke:#181818;stroke-width:1.0;"/><rect fill="#F1F1F1" height="37.6094" rx="12.5" ry="12.5" style="stroke:#181818;stroke-width:1.5;" width="128" x="739" y="346.6563"/><text fill="#000000" font-family="Courier" font-size="14" lengthAdjust="spacing" textLength="108" x="749" y="371.1895">/purchase/orders</text><path d="M689,307.8516 L699,307.8516 C714,307.8516 714,365.4609 729,365.4609 L739,365.4609 " fill="none" style="stroke:#181818;stroke-width:1.0;"/><rect fill="#F1F1F1" height="37.6094" rx="12.5" ry="12.5" style="stroke:#181818;stroke-width:1.5;" width="137" x="739" y="404.2656"/><text fill="#000000" font-family="Courier" font-size="14" lengthAdjust="spacing" textLength="117" x="749" y="428.7988">/purchase/receipts</text><path d="M689,307.8516 L699,307.8516 C714,307.8516 714,423.0703 729,423.0703 L739,423.0703 " fill="none" style="stroke:#181818;stroke-width:1.0;"/><rect fill="#F1F1F1" height="37.6094" rx="12.5" ry="12.5" style="stroke:#181818;stroke-width:1.5;" width="159" x="739" y="461.875"/><text fill="#000000" font-family="Courier" font-size="14" lengthAdjust="spacing" textLength="139" x="749" y="486.4082">/purchase/requisitions</text><path d="M689,307.8516 L699,307.8516 C714,307.8516 714,480.6797 729,480.6797 L739,480.6797 " fill="none" style="stroke:#181818;stroke-width:1.0;"/><rect fill="#F1F1F1" height="37.6094" rx="12.5" ry="12.5" style="stroke:#181818;stroke-width:1.5;" width="138" x="739" y="519.4844"/><text fill="#000000" font-family="Courier" font-size="14" lengthAdjust="spacing" textLength="118" x="749" y="544.0176">/purchase/vendors</text><path d="M689,307.8516 L699,307.8516 C714,307.8516 714,538.2891 729,538.2891 L739,538.2891 " fill="none" style="stroke:#181818;stroke-width:1.0;"/><path d="M487,1402.4297 L497,1402.4297 C512,1402.4297 512,307.8516 527,307.8516 L537,307.8516 " fill="none" style="stroke:#181818;stroke-width:1.0;"/><rect fill="#F1F1F1" height="37.6094" rx="12.5" ry="12.5" style="stroke:#181818;stroke-width:1.5;" width="198" x="537" y="692.3125"/><text fill="#000000" font-family="Courier" font-size="14" lengthAdjust="spacing" textLength="178" x="547" y="716.8457">Projects&#160;and&#160;Timesheets&#160;(5)</text><rect fill="#F1F1F1" height="37.6094" rx="12.5" ry="12.5" style="stroke:#181818;stroke-width:1.5;" width="74" x="785" y="577.0938"/><text fill="#000000" font-family="Courier" font-size="14" lengthAdjust="spacing" textLength="54" x="795" y="601.627">/projects</text><path d="M735,711.1172 L745,711.1172 C760,711.1172 760,595.8984 775,595.8984 L785,595.8984 " fill="none" style="stroke:#181818;stroke-width:1.0;"/><rect fill="#F1F1F1" height="37.6094" rx="12.5" ry="12.5" style="stroke:#181818;stroke-width:1.5;" width="93" x="785" y="634.7031"/><text fill="#000000" font-family="Courier" font-size="14" lengthAdjust="spacing" textLength="73" x="795" y="659.2363">/projects/:id</text><path d="M735,711.1172 L745,711.1172 C760,711.1172 760,653.5078 775,653.5078 L785,653.5078 " fill="none" style="stroke:#181818;stroke-width:1.0;"/><rect fill="#F1F1F1" height="37.6094" rx="12.5" ry="12.5" style="stroke:#181818;stroke-width:1.5;" width="205" x="785" y="692.3125"/><text fill="#000000" font-family="Courier" font-size="14" lengthAdjust="spacing" textLength="185" x="795" y="716.8457">/projects/timesheet/approvals</text><path d="M735,711.1172 L745,711.1172 C760,711.1172 760,711.1172 775,711.1172 L785,711.1172 " fill="none" style="stroke:#181818;stroke-width:1.0;"/><rect fill="#F1F1F1" height="37.6094" rx="12.5" ry="12.5" style="stroke:#181818;stroke-width:1.5;" width="175" x="785" y="749.9219"/><text fill="#000000" font-family="Courier" font-size="14" lengthAdjust="spacing" textLength="155" x="795" y="774.4551">/projects/timesheet/entry</text><path d="M735,711.1172 L745,711.1172 C760,711.1172 760,768.7266 775,768.7266 L785,768.7266 " fill="none" style="stroke:#181818;stroke-width:1.0;"/><rect fill="#F1F1F1" height="37.6094" rx="12.5" ry="12.5" style="stroke:#181818;stroke-width:1.5;" width="161" x="785" y="807.5313"/><text fill="#000000" font-family="Courier" font-size="14" lengthAdjust="spacing" textLength="141" x="795" y="832.0645">/projects/timesheet/my</text><path d="M735,711.1172 L745,711.1172 C760,711.1172 760,826.3359 775,826.3359 L785,826.3359 " fill="none" style="stroke:#181818;stroke-width:1.0;"/><path d="M487,1402.4297 L497,1402.4297 C512,1402.4297 512,711.1172 527,711.1172 L537,711.1172 " fill="none" style="stroke:#181818;stroke-width:1.0;"/><rect fill="#F1F1F1" height="37.6094" rx="12.5" ry="12.5" style="stroke:#181818;stroke-width:1.5;" width="187" x="537" y="1095.5781"/><text fill="#000000" font-family="Courier" font-size="14" lengthAdjust="spacing" textLength="167" x="547" y="1120.1113">Assets&#160;and&#160;Documents&#160;(9)</text><rect fill="#F1F1F1" height="37.6094" rx="12.5" ry="12.5" style="stroke:#181818;stroke-width:1.5;" width="65" x="774" y="865.1406"/><text fill="#000000" font-family="Courier" font-size="14" lengthAdjust="spacing" textLength="45" x="784" y="889.6738">/assets</text><path d="M724,1114.3828 L734,1114.3828 C749,1114.3828 749,883.9453 764,883.9453 L774,883.9453 " fill="none" style="stroke:#181818;stroke-width:1.0;"/><rect fill="#F1F1F1" height="37.6094" rx="12.5" ry="12.5" style="stroke:#181818;stroke-width:1.5;" width="111" x="774" y="922.75"/><text fill="#000000" font-family="Courier" font-size="14" lengthAdjust="spacing" textLength="91" x="784" y="947.2832">/assets/:id/edit</text><path d="M724,1114.3828 L734,1114.3828 C749,1114.3828 749,941.5547 764,941.5547 L774,941.5547 " fill="none" style="stroke:#181818;stroke-width:1.0;"/><rect fill="#F1F1F1" height="37.6094" rx="12.5" ry="12.5" style="stroke:#181818;stroke-width:1.5;" width="136" x="774" y="980.3594"/><text fill="#000000" font-family="Courier" font-size="14" lengthAdjust="spacing" textLength="116" x="784" y="1004.8926">/assets/allocations</text><path d="M724,1114.3828 L734,1114.3828 C749,1114.3828 749,999.1641 764,999.1641 L774,999.1641 " fill="none" style="stroke:#181818;stroke-width:1.0;"/><rect fill="#F1F1F1" height="37.6094" rx="12.5" ry="12.5" style="stroke:#181818;stroke-width:1.5;" width="135" x="774" y="1037.9688"/><text fill="#000000" font-family="Courier" font-size="14" lengthAdjust="spacing" textLength="115" x="784" y="1062.502">/assets/categories</text><path d="M724,1114.3828 L734,1114.3828 C749,1114.3828 749,1056.7734 764,1056.7734 L774,1056.7734 " fill="none" style="stroke:#181818;stroke-width:1.0;"/><rect fill="#F1F1F1" height="37.6094" rx="12.5" ry="12.5" style="stroke:#181818;stroke-width:1.5;" width="147" x="774" y="1095.5781"/><text fill="#000000" font-family="Courier" font-size="14" lengthAdjust="spacing" textLength="127" x="784" y="1120.1113">/assets/depreciation</text><path d="M724,1114.3828 L734,1114.3828 C749,1114.3828 749,1114.3828 764,1114.3828 L774,1114.3828 " fill="none" style="stroke:#181818;stroke-width:1.0;"/><rect fill="#F1F1F1" height="37.6094" rx="12.5" ry="12.5" style="stroke:#181818;stroke-width:1.5;" width="86" x="774" y="1153.1875"/><text fill="#000000" font-family="Courier" font-size="14" lengthAdjust="spacing" textLength="66" x="784" y="1177.7207">/assets/list</text><path d="M724,1114.3828 L734,1114.3828 C749,1114.3828 749,1171.9922 764,1171.9922 L774,1171.9922 " fill="none" style="stroke:#181818;stroke-width:1.0;"/><rect fill="#F1F1F1" height="37.6094" rx="12.5" ry="12.5" style="stroke:#181818;stroke-width:1.5;" width="150" x="774" y="1210.7969"/><text fill="#000000" font-family="Courier" font-size="14" lengthAdjust="spacing" textLength="130" x="784" y="1235.3301">/assets/maintenance</text><path d="M724,1114.3828 L734,1114.3828 C749,1114.3828 749,1229.6016 764,1229.6016 L774,1229.6016 " fill="none" style="stroke:#181818;stroke-width:1.0;"/><rect fill="#F1F1F1" height="37.6094" rx="12.5" ry="12.5" style="stroke:#181818;stroke-width:1.5;" width="94" x="774" y="1268.4063"/><text fill="#000000" font-family="Courier" font-size="14" lengthAdjust="spacing" textLength="74" x="784" y="1292.9395">/assets/new</text><path d="M724,1114.3828 L734,1114.3828 C749,1114.3828 749,1287.2109 764,1287.2109 L774,1287.2109 " fill="none" style="stroke:#181818;stroke-width:1.0;"/><rect fill="#F1F1F1" height="37.6094" rx="12.5" ry="12.5" style="stroke:#181818;stroke-width:1.5;" width="93" x="774" y="1326.0156"/><text fill="#000000" font-family="Courier" font-size="14" lengthAdjust="spacing" textLength="73" x="784" y="1350.5488">/documents</text><path d="M724,1114.3828 L734,1114.3828 C749,1114.3828 749,1344.8203 764,1344.8203 L774,1344.8203 " fill="none" style="stroke:#181818;stroke-width:1.0;"/><path d="M487,1402.4297 L497,1402.4297 C512,1402.4297 512,1114.3828 527,1114.3828 L537,1114.3828 " fill="none" style="stroke:#181818;stroke-width:1.0;"/><rect fill="#F1F1F1" height="37.6094" rx="12.5" ry="12.5" style="stroke:#181818;stroke-width:1.5;" width="139" x="537" y="1441.2344"/><text fill="#000000" font-family="Courier" font-size="14" lengthAdjust="spacing" textLength="119" x="547" y="1465.7676">Communication&#160;(3)</text><rect fill="#F1F1F1" height="37.6094" rx="12.5" ry="12.5" style="stroke:#181818;stroke-width:1.5;" width="223" x="726" y="1383.625"/><text fill="#000000" font-family="Courier" font-size="14" lengthAdjust="spacing" textLength="203" x="736" y="1408.1582">/communication/announcements</text><path d="M676,1460.0391 L686,1460.0391 C701,1460.0391 701,1402.4297 716,1402.4297 L726,1402.4297 " fill="none" style="stroke:#181818;stroke-width:1.0;"/><rect fill="#F1F1F1" height="37.6094" rx="12.5" ry="12.5" style="stroke:#181818;stroke-width:1.5;" width="179" x="726" y="1441.2344"/><text fill="#000000" font-family="Courier" font-size="14" lengthAdjust="spacing" textLength="159" x="736" y="1465.7676">/communication/channels</text><path d="M676,1460.0391 L686,1460.0391 C701,1460.0391 701,1460.0391 716,1460.0391 L726,1460.0391 " fill="none" style="stroke:#181818;stroke-width:1.0;"/><rect fill="#F1F1F1" height="37.6094" rx="12.5" ry="12.5" style="stroke:#181818;stroke-width:1.5;" width="186" x="726" y="1498.8438"/><text fill="#000000" font-family="Courier" font-size="14" lengthAdjust="spacing" textLength="166" x="736" y="1523.377">/communication/messages</text><path d="M676,1460.0391 L686,1460.0391 C701,1460.0391 701,1517.6484 716,1517.6484 L726,1517.6484 " fill="none" style="stroke:#181818;stroke-width:1.0;"/><path d="M487,1402.4297 L497,1402.4297 C512,1402.4297 512,1460.0391 527,1460.0391 L537,1460.0391 " fill="none" style="stroke:#181818;stroke-width:1.0;"/><rect fill="#F1F1F1" height="37.6094" rx="12.5" ry="12.5" style="stroke:#181818;stroke-width:1.5;" width="194" x="537" y="1671.6719"/><text fill="#000000" font-family="Courier" font-size="14" lengthAdjust="spacing" textLength="174" x="547" y="1696.2051">Workflow&#160;and&#160;Approvals&#160;(5)</text><rect fill="#F1F1F1" height="37.6094" rx="12.5" ry="12.5" style="stroke:#181818;stroke-width:1.5;" width="152" x="781" y="1556.4531"/><text fill="#000000" font-family="Courier" font-size="14" lengthAdjust="spacing" textLength="132" x="791" y="1580.9863">/approval-dashboard</text><path d="M731,1690.4766 L741,1690.4766 C756,1690.4766 756,1575.2578 771,1575.2578 L781,1575.2578 " fill="none" style="stroke:#181818;stroke-width:1.0;"/><rect fill="#F1F1F1" height="37.6094" rx="12.5" ry="12.5" style="stroke:#181818;stroke-width:1.5;" width="124" x="781" y="1614.0625"/><text fill="#000000" font-family="Courier" font-size="14" lengthAdjust="spacing" textLength="104" x="791" y="1638.5957">/approval-queue</text><path d="M731,1690.4766 L741,1690.4766 C756,1690.4766 756,1632.8672 771,1632.8672 L781,1632.8672 " fill="none" style="stroke:#181818;stroke-width:1.0;"/><rect fill="#F1F1F1" height="37.6094" rx="12.5" ry="12.5" style="stroke:#181818;stroke-width:1.5;" width="86" x="781" y="1671.6719"/><text fill="#000000" font-family="Courier" font-size="14" lengthAdjust="spacing" textLength="66" x="791" y="1696.2051">/approvals</text><path d="M731,1690.4766 L741,1690.4766 C756,1690.4766 756,1690.4766 771,1690.4766 L781,1690.4766 " fill="none" style="stroke:#181818;stroke-width:1.0;"/><rect fill="#F1F1F1" height="37.6094" rx="12.5" ry="12.5" style="stroke:#181818;stroke-width:1.5;" width="158" x="781" y="1729.2813"/><text fill="#000000" font-family="Courier" font-size="14" lengthAdjust="spacing" textLength="138" x="791" y="1753.8145">/approvals/dashboard</text><path d="M731,1690.4766 L741,1690.4766 C756,1690.4766 756,1748.0859 771,1748.0859 L781,1748.0859 " fill="none" style="stroke:#181818;stroke-width:1.0;"/><rect fill="#F1F1F1" height="37.6094" rx="12.5" ry="12.5" style="stroke:#181818;stroke-width:1.5;" width="84" x="781" y="1786.8906"/><text fill="#000000" font-family="Courier" font-size="14" lengthAdjust="spacing" textLength="64" x="791" y="1811.4238">/workflows</text><path d="M731,1690.4766 L741,1690.4766 C756,1690.4766 756,1805.6953 771,1805.6953 L781,1805.6953 " fill="none" style="stroke:#181818;stroke-width:1.0;"/><path d="M487,1402.4297 L497,1402.4297 C512,1402.4297 512,1690.4766 527,1690.4766 L537,1690.4766 " fill="none" style="stroke:#181818;stroke-width:1.0;"/><rect fill="#F1F1F1" height="37.6094" rx="12.5" ry="12.5" style="stroke:#181818;stroke-width:1.5;" width="156" x="537" y="2046.1328"/><text fill="#000000" font-family="Courier" font-size="14" lengthAdjust="spacing" textLength="136" x="547" y="2070.666">Reports&#160;and&#160;Audit&#160;(8)</text><rect fill="#F1F1F1" height="37.6094" rx="12.5" ry="12.5" style="stroke:#181818;stroke-width:1.5;" width="55" x="743" y="1844.5"/><text fill="#000000" font-family="Courier" font-size="14" lengthAdjust="spacing" textLength="35" x="753" y="1869.0332">/audit</text><path d="M693,2064.9375 L703,2064.9375 C718,2064.9375 718,1863.3047 733,1863.3047 L743,1863.3047 " fill="none" style="stroke:#181818;stroke-width:1.0;"/><rect fill="#F1F1F1" height="37.6094" rx="12.5" ry="12.5" style="stroke:#181818;stroke-width:1.5;" width="69" x="743" y="1902.1094"/><text fill="#000000" font-family="Courier" font-size="14" lengthAdjust="spacing" textLength="49" x="753" y="1926.6426">/reports</text><path d="M693,2064.9375 L703,2064.9375 C718,2064.9375 718,1920.9141 733,1920.9141 L743,1920.9141 " fill="none" style="stroke:#181818;stroke-width:1.0;"/><rect fill="#F1F1F1" height="37.6094" rx="12.5" ry="12.5" style="stroke:#181818;stroke-width:1.5;" width="118" x="743" y="1959.7188"/><text fill="#000000" font-family="Courier" font-size="14" lengthAdjust="spacing" textLength="98" x="753" y="1984.252">/reports/custom</text><path d="M693,2064.9375 L703,2064.9375 C718,2064.9375 718,1978.5234 733,1978.5234 L743,1978.5234 " fill="none" style="stroke:#181818;stroke-width:1.0;"/><rect fill="#F1F1F1" height="37.6094" rx="12.5" ry="12.5" style="stroke:#181818;stroke-width:1.5;" width="219" x="743" y="2017.3281"/><text fill="#000000" font-family="Courier" font-size="14" lengthAdjust="spacing" textLength="199" x="753" y="2041.8613">/reports/financial/balance-sheet</text><path d="M693,2064.9375 L703,2064.9375 C718,2064.9375 718,2036.1328 733,2036.1328 L743,2036.1328 " fill="none" style="stroke:#181818;stroke-width:1.0;"/><rect fill="#F1F1F1" height="37.6094" rx="12.5" ry="12.5" style="stroke:#181818;stroke-width:1.5;" width="191" x="743" y="2074.9375"/><text fill="#000000" font-family="Courier" font-size="14" lengthAdjust="spacing" textLength="171" x="753" y="2099.4707">/reports/financial/profit-loss</text><path d="M693,2064.9375 L703,2064.9375 C718,2064.9375 718,2093.7422 733,2093.7422 L743,2093.7422 " fill="none" style="stroke:#181818;stroke-width:1.0;"/><rect fill="#F1F1F1" height="37.6094" rx="12.5" ry="12.5" style="stroke:#181818;stroke-width:1.5;" width="145" x="743" y="2132.5469"/><text fill="#000000" font-family="Courier" font-size="14" lengthAdjust="spacing" textLength="125" x="753" y="2157.0801">/reports/hr/analytics</text><path d="M693,2064.9375 L703,2064.9375 C718,2064.9375 718,2151.3516 733,2151.3516 L743,2151.3516 " fill="none" style="stroke:#181818;stroke-width:1.0;"/><rect fill="#F1F1F1" height="37.6094" rx="12.5" ry="12.5" style="stroke:#181818;stroke-width:1.5;" width="131" x="743" y="2190.1563"/><text fill="#000000" font-family="Courier" font-size="14" lengthAdjust="spacing" textLength="111" x="753" y="2214.6895">/reports/inventory</text><path d="M693,2064.9375 L703,2064.9375 C718,2064.9375 718,2208.9609 733,2208.9609 L743,2208.9609 " fill="none" style="stroke:#181818;stroke-width:1.0;"/><rect fill="#F1F1F1" height="37.6094" rx="12.5" ry="12.5" style="stroke:#181818;stroke-width:1.5;" width="130" x="743" y="2247.7656"/><text fill="#000000" font-family="Courier" font-size="14" lengthAdjust="spacing" textLength="110" x="753" y="2272.2988">/reports/saved/:id</text><path d="M693,2064.9375 L703,2064.9375 C718,2064.9375 718,2266.5703 733,2266.5703 L743,2266.5703 " fill="none" style="stroke:#181818;stroke-width:1.0;"/><path d="M487,1402.4297 L497,1402.4297 C512,1402.4297 512,2064.9375 527,2064.9375 L537,2064.9375 " fill="none" style="stroke:#181818;stroke-width:1.0;"/><rect fill="#F1F1F1" height="37.6094" rx="12.5" ry="12.5" style="stroke:#181818;stroke-width:1.5;" width="204" x="537" y="2507.0078"/><text fill="#000000" font-family="Courier" font-size="14" lengthAdjust="spacing" textLength="184" x="547" y="2531.541">System&#160;and&#160;Admin&#160;Config&#160;(8)</text><rect fill="#F1F1F1" height="37.6094" rx="12.5" ry="12.5" style="stroke:#181818;stroke-width:1.5;" width="81" x="791" y="2305.375"/><text fill="#000000" font-family="Courier" font-size="14" lengthAdjust="spacing" textLength="61" x="801" y="2329.9082">/company</text><path d="M741,2525.8125 L751,2525.8125 C766,2525.8125 766,2324.1797 781,2324.1797 L791,2324.1797 " fill="none" style="stroke:#181818;stroke-width:1.0;"/><rect fill="#F1F1F1" height="37.6094" rx="12.5" ry="12.5" style="stroke:#181818;stroke-width:1.5;" width="120" x="791" y="2362.9844"/><text fill="#000000" font-family="Courier" font-size="14" lengthAdjust="spacing" textLength="100" x="801" y="2387.5176">/company/setup</text><path d="M741,2525.8125 L751,2525.8125 C766,2525.8125 766,2381.7891 781,2381.7891 L791,2381.7891 " fill="none" style="stroke:#181818;stroke-width:1.0;"/><rect fill="#F1F1F1" height="37.6094" rx="12.5" ry="12.5" style="stroke:#181818;stroke-width:1.5;" width="103" x="791" y="2420.5938"/><text fill="#000000" font-family="Courier" font-size="14" lengthAdjust="spacing" textLength="83" x="801" y="2445.127">/departments</text><path d="M741,2525.8125 L751,2525.8125 C766,2525.8125 766,2439.3984 781,2439.3984 L791,2439.3984 " fill="none" style="stroke:#181818;stroke-width:1.0;"/><rect fill="#F1F1F1" height="37.6094" rx="12.5" ry="12.5" style="stroke:#181818;stroke-width:1.5;" width="99" x="791" y="2478.2031"/><text fill="#000000" font-family="Courier" font-size="14" lengthAdjust="spacing" textLength="79" x="801" y="2502.7363">/notifications</text><path d="M741,2525.8125 L751,2525.8125 C766,2525.8125 766,2497.0078 781,2497.0078 L791,2497.0078 " fill="none" style="stroke:#181818;stroke-width:1.0;"/><rect fill="#F1F1F1" height="37.6094" rx="12.5" ry="12.5" style="stroke:#181818;stroke-width:1.5;" width="99" x="791" y="2535.8125"/><text fill="#000000" font-family="Courier" font-size="14" lengthAdjust="spacing" textLength="79" x="801" y="2560.3457">/permissions</text><path d="M741,2525.8125 L751,2525.8125 C766,2525.8125 766,2554.6172 781,2554.6172 L791,2554.6172 " fill="none" style="stroke:#181818;stroke-width:1.0;"/><rect fill="#F1F1F1" height="37.6094" rx="12.5" ry="12.5" style="stroke:#181818;stroke-width:1.5;" width="135" x="791" y="2593.4219"/><text fill="#000000" font-family="Courier" font-size="14" lengthAdjust="spacing" textLength="115" x="801" y="2617.9551">/role-management</text><path d="M741,2525.8125 L751,2525.8125 C766,2525.8125 766,2612.2266 781,2612.2266 L791,2612.2266 " fill="none" style="stroke:#181818;stroke-width:1.0;"/><rect fill="#F1F1F1" height="37.6094" rx="12.5" ry="12.5" style="stroke:#181818;stroke-width:1.5;" width="55" x="791" y="2651.0313"/><text fill="#000000" font-family="Courier" font-size="14" lengthAdjust="spacing" textLength="35" x="801" y="2675.5645">/roles</text><path d="M741,2525.8125 L751,2525.8125 C766,2525.8125 766,2669.8359 781,2669.8359 L791,2669.8359 " fill="none" style="stroke:#181818;stroke-width:1.0;"/><rect fill="#F1F1F1" height="37.6094" rx="12.5" ry="12.5" style="stroke:#181818;stroke-width:1.5;" width="119" x="791" y="2708.6406"/><text fill="#000000" font-family="Courier" font-size="14" lengthAdjust="spacing" textLength="99" x="801" y="2733.1738">/system-options</text><path d="M741,2525.8125 L751,2525.8125 C766,2525.8125 766,2727.4453 781,2727.4453 L791,2727.4453 " fill="none" style="stroke:#181818;stroke-width:1.0;"/><path d="M487,1402.4297 L497,1402.4297 C512,1402.4297 512,2525.8125 527,2525.8125 L537,2525.8125 " fill="none" style="stroke:#181818;stroke-width:1.0;"/><path d="M198,1575.2578 L208,1575.2578 C223,1575.2578 223,1402.4297 238,1402.4297 L248,1402.4297 " fill="none" style="stroke:#181818;stroke-width:1.0;"/><rect fill="#F1F1F1" height="37.6094" rx="12.5" ry="12.5" style="stroke:#181818;stroke-width:1.5;" width="132" x="248" y="2910.2734"/><text fill="#000000" font-family="Courier" font-size="14" lengthAdjust="spacing" textLength="112" x="258" y="2934.8066">Route&#160;Alias&#160;Notes</text><rect fill="#F1F1F1" height="37.6094" rx="12.5" ry="12.5" style="stroke:#181818;stroke-width:1.5;" width="219" x="430" y="2910.2734"/><text fill="#000000" font-family="Courier" font-size="14" lengthAdjust="spacing" textLength="199" x="440" y="2934.8066">Same&#160;target&#160;component&#160;aliases</text><rect fill="#F1F1F1" height="37.6094" rx="12.5" ry="12.5" style="stroke:#181818;stroke-width:1.5;" width="321" x="699" y="2766.25"/><text fill="#000000" font-family="Courier" font-size="14" lengthAdjust="spacing" textLength="301" x="709" y="2790.7832">/warehouse&#160;and&#160;/warehouses&#160;-&gt;&#160;WarehouseList</text><path d="M649,2929.0781 L659,2929.0781 C674,2929.0781 674,2785.0547 689,2785.0547 L699,2785.0547 " fill="none" style="stroke:#181818;stroke-width:1.0;"/><rect fill="#F1F1F1" height="37.6094" rx="12.5" ry="12.5" style="stroke:#181818;stroke-width:1.5;" width="485" x="699" y="2823.8594"/><text fill="#000000" font-family="Courier" font-size="14" lengthAdjust="spacing" textLength="465" x="709" y="2848.3926">/accounting/charts&#160;and&#160;/accounting/chart-of-accounts&#160;-&gt;&#160;ChartOfAccounts</text><path d="M649,2929.0781 L659,2929.0781 C674,2929.0781 674,2842.6641 689,2842.6641 L699,2842.6641 " fill="none" style="stroke:#181818;stroke-width:1.0;"/><rect fill="#F1F1F1" height="37.6094" rx="12.5" ry="12.5" style="stroke:#181818;stroke-width:1.5;" width="456" x="699" y="2881.4688"/><text fill="#000000" font-family="Courier" font-size="14" lengthAdjust="spacing" textLength="436" x="709" y="2906.002">/accounting/ledger&#160;and&#160;/accounting/general-ledger&#160;-&gt;&#160;GeneralLedger</text><path d="M649,2929.0781 L659,2929.0781 C674,2929.0781 674,2900.2734 689,2900.2734 L699,2900.2734 " fill="none" style="stroke:#181818;stroke-width:1.0;"/><rect fill="#F1F1F1" height="37.6094" rx="12.5" ry="12.5" style="stroke:#181818;stroke-width:1.5;" width="429" x="699" y="2939.0781"/><text fill="#000000" font-family="Courier" font-size="14" lengthAdjust="spacing" textLength="409" x="709" y="2963.6113">/accounting/journal&#160;and&#160;/accounting/journal-entry&#160;-&gt;&#160;JournalEntry</text><path d="M649,2929.0781 L659,2929.0781 C674,2929.0781 674,2957.8828 689,2957.8828 L699,2957.8828 " fill="none" style="stroke:#181818;stroke-width:1.0;"/><rect fill="#F1F1F1" height="37.6094" rx="12.5" ry="12.5" style="stroke:#181818;stroke-width:1.5;" width="426" x="699" y="2996.6875"/><text fill="#000000" font-family="Courier" font-size="14" lengthAdjust="spacing" textLength="406" x="709" y="3021.2207">/subscription/pricing&#160;and&#160;/subscription/billing&#160;-&gt;&#160;BillingDashboard</text><path d="M649,2929.0781 L659,2929.0781 C674,2929.0781 674,3015.4922 689,3015.4922 L699,3015.4922 " fill="none" style="stroke:#181818;stroke-width:1.0;"/><rect fill="#F1F1F1" height="37.6094" rx="12.5" ry="12.5" style="stroke:#181818;stroke-width:1.5;" width="511" x="699" y="3054.2969"/><text fill="#000000" font-family="Courier" font-size="14" lengthAdjust="spacing" textLength="491" x="709" y="3078.8301">/approval-dashboard&#160;and&#160;/approvals/dashboard&#160;-&gt;&#160;ApprovalDashboardSimple</text><path d="M649,2929.0781 L659,2929.0781 C674,2929.0781 674,3073.1016 689,3073.1016 L699,3073.1016 " fill="none" style="stroke:#181818;stroke-width:1.0;"/><path d="M380,2929.0781 L390,2929.0781 C405,2929.0781 405,2929.0781 420,2929.0781 L430,2929.0781 " fill="none" style="stroke:#181818;stroke-width:1.0;"/><path d="M198,1575.2578 L208,1575.2578 C223,1575.2578 223,2929.0781 238,2929.0781 L248,2929.0781 " fill="none" style="stroke:#181818;stroke-width:1.0;"/><!--SRC=[TLNPajew47ttL_GZKEKmaALoURWLPikTAPXG0vCyJWcxCKfaoT7257z_Mx8DNeOtzpcjusxrec_6CcrpBjES5V1oz-DvkNvzOWUUCSkLV5qH-pgzZYot0YiUpZpSxCa1Ol1-CBsUmRDo5bEoCpGmM3cTx9b1i0hcAVrc64Nc3vS5qoo7N4cLxBNA4NPC66nGAUwO4_PUIVl4YBzHJdFKKJIw54Gq6ZL_3W_oWD8gVOJ1P3A1ZR9C3Cbf1AUWc4nXleB1Fm4VmPWLOvPncPtDBHV2dCs27NDIhP6YKXepoSJHygH7u8495wBiKKgdg7kenWHvOT_1_pfk-BjAb6YgIYbOQVKR4sj2SXkUezaZaZduN2TPL1uTSppZQHUozNdAdK3AnLnseNlHnyjq7ZYO6uDLTBSgSU4scnK8TClmWOqnvRQDCY5KqhhPYY0GCqNTqi5JBEXoUJZIPWGt7V6SSMbHCfbWcv3uLW5f7Nr8wqRbkPEy30W67-jyaYPERIAL8yrc3xKzgA1IedYVfAiqVgx27tyf_MSdr5lPnNLv6dMkInQdpEotYkcqI_nrwB03cguzxXv_gtvSXl6CXT9LGUUEgWI3hwS8tBbgklHhM-F46Qlo3hZZ_k8v4-Cj4xu4SUYWYruKw8xRM2ZJbT_htcJM5A_NGmStx81fFGkmFXgBUPcSNrzKPxdZMID7gb31vB5jZQbNN54t2XP-nJPABfNbEzvktW9rperf85e9Z7EAFmlzqa1h3nEYYrLH2vKB4EQ2CmDFobQjilORbFPyXXPyX4gI7Z3lTT9wOnhtobLRyMmQYF-5NxMrQ4nAab0lMzgMlcdh5kZ1iTh55HQamgx-iPjNK5zCO9gXxebbA55JprOqANqlaKK0-Zg_wSMWslU4AZmEwyhhF9R0NMDz6RSrYURXNgczU487Iw4Muny7pv38TVbvUsdKJaDKnTEVBgzIZ_59PitpGc0KVQCDNptIKRIYeR0lomKSwFtmwsRoONer_VJXu-1USxZ7BKo-mDLaDhcQNNs6X_K6F3sC1jzNYyCK3EMR8AHKIistpcSoZ1xPWS6plw8SP-2jmMOvXFLT3SATF72jP6Z5nv_BqWd-KtPTA1kSltoAhsd-rwWfCFYvZ6xBHvoE9Ygbsvd1o-O-_XejcCmSjVKCK4OtlZ3wE8E7f_y1]--></g></svg>