<?xml version="1.0" encoding="us-ascii" standalone="no"?><svg xmlns="http://www.w3.org/2000/svg" xmlns:xlink="http://www.w3.org/1999/xlink" contentStyleType="text/css" height="879px" preserveAspectRatio="none" style="width:624px;height:879px;background:#FFFFFF;" version="1.1" viewBox="0 0 624 879" width="624px" zoomAndPan="magnify"><defs/><g><text fill="#000000" font-family="sans-serif" font-size="14" font-weight="bold" lengthAdjust="spacing" textLength="373" x="118.5" y="24.5332">UEORMS State Transition - 2) Subscription and Billing</text><ellipse cx="310" cy="54.6094" fill="#222222" rx="10" ry="10" style="stroke:#222222;stroke-width:1.0;"/><rect fill="#F1F1F1" height="40" rx="12.5" ry="12.5" style="stroke:#181818;stroke-width:0.5;" width="95" x="262.5" y="125.6094"/><text fill="#000000" font-family="sans-serif" font-size="14" lengthAdjust="spacing" textLength="85" x="267.5" y="151.3379">PlanBrowsing</text><rect fill="#F1F1F1" height="40" rx="12.5" ry="12.5" style="stroke:#181818;stroke-width:0.5;" width="76" x="218" y="243.6094"/><text fill="#000000" font-family="sans-serif" font-size="14" lengthAdjust="spacing" textLength="66" x="223" y="269.3379">TrialActive</text><rect fill="#F1F1F1" height="40" rx="12.5" ry="12.5" style="stroke:#181818;stroke-width:0.5;" width="126" x="247" y="361.6094"/><text fill="#000000" font-family="sans-serif" font-size="14" lengthAdjust="spacing" textLength="116" x="252" y="387.3379">SubscriptionActive</text><rect fill="#F1F1F1" height="40" rx="12.5" ry="12.5" style="stroke:#181818;stroke-width:0.5;" width="146" x="7" y="479.6094"/><text fill="#000000" font-family="sans-serif" font-size="14" lengthAdjust="spacing" textLength="136" x="12" y="505.3379">SubscriptionChanged</text><rect fill="#F1F1F1" height="40" rx="12.5" ry="12.5" style="stroke:#181818;stroke-width:0.5;" width="122" x="188" y="479.6094"/><text fill="#000000" font-family="sans-serif" font-size="14" lengthAdjust="spacing" textLength="112" x="193" y="505.3379">InvoiceGenerated</text><rect fill="#F1F1F1" height="40" rx="12.5" ry="12.5" style="stroke:#181818;stroke-width:0.5;" width="83" x="217.5" y="597.6094"/><text fill="#000000" font-family="sans-serif" font-size="14" lengthAdjust="spacing" textLength="73" x="222.5" y="623.3379">InvoiceSent</text><rect fill="#F1F1F1" height="40" rx="12.5" ry="12.5" style="stroke:#181818;stroke-width:0.5;" width="117" x="239.5" y="715.6094"/><text fill="#000000" font-family="sans-serif" font-size="14" lengthAdjust="spacing" textLength="107" x="244.5" y="741.3379">PaymentPending</text><rect fill="#F1F1F1" height="40" rx="12.5" ry="12.5" style="stroke:#181818;stroke-width:0.5;" width="50" x="392" y="833.6094"/><text fill="#000000" font-family="sans-serif" font-size="14" lengthAdjust="spacing" textLength="28" x="403" y="859.3379">Paid</text><rect fill="#F1F1F1" height="40" rx="12.5" ry="12.5" style="stroke:#181818;stroke-width:0.5;" width="50" x="249" y="833.6094"/><text fill="#000000" font-family="sans-serif" font-size="14" lengthAdjust="spacing" textLength="39" x="254.5" y="859.3379">Failed</text><rect fill="#F1F1F1" height="40" rx="12.5" ry="12.5" style="stroke:#181818;stroke-width:0.5;" width="123" x="345.5" y="479.6094"/><text fill="#000000" font-family="sans-serif" font-size="14" lengthAdjust="spacing" textLength="113" x="350.5" y="505.3379">CancelRequested</text><rect fill="#F1F1F1" height="40" rx="12.5" ry="12.5" style="stroke:#181818;stroke-width:0.5;" width="73" x="370.5" y="597.6094"/><text fill="#000000" font-family="sans-serif" font-size="14" lengthAdjust="spacing" textLength="63" x="375.5" y="623.3379">Cancelled</text><ellipse cx="407" cy="735.6094" fill="none" rx="11" ry="11" style="stroke:#222222;stroke-width:1.0;"/><ellipse cx="407" cy="735.6094" fill="#222222" rx="6" ry="6" style="stroke:#222222;stroke-width:1.0;"/><!--link *start* to PlanBrowsing--><g id="link_*start*_PlanBrowsing"><path d="M310,64.7994 C310,79.0094 310,100.6294 310,119.3494 " fill="none" id="*start*-to-PlanBrowsing" style="stroke:#181818;stroke-width:1.0;"/><polygon fill="#181818" points="310,125.3494,314,116.3494,310,120.3494,306,116.3494,310,125.3494" style="stroke:#181818;stroke-width:1.0;"/></g><!--link PlanBrowsing to TrialActive--><g id="link_PlanBrowsing_TrialActive"><path d="M299.74,166.0194 C295.1,174.9694 289.64,185.7594 285,195.6094 C277.49,211.5494 271.9128,224.3972 266.2528,237.8772 " fill="none" id="PlanBrowsing-to-TrialActive" style="stroke:#181818;stroke-width:1.0;"/><polygon fill="#181818" points="263.93,243.4094,271.1023,236.6597,265.8657,238.7993,263.7262,233.5626,263.93,243.4094" style="stroke:#181818;stroke-width:1.0;"/><text fill="#000000" font-family="sans-serif" font-size="13" lengthAdjust="spacing" textLength="51" x="286" y="210.1045">start trial</text></g><!--link PlanBrowsing to SubscriptionActive--><g id="link_PlanBrowsing_SubscriptionActive"><path d="M326.24,165.7894 C332.46,174.3394 338.81,184.8994 342,195.6094 C359.24,253.5394 359.24,273.6794 342,331.6094 C338.81,342.3194 335.9897,348.0274 329.7697,356.5774 " fill="none" id="PlanBrowsing-to-SubscriptionActive" style="stroke:#181818;stroke-width:1.0;"/><polygon fill="#181818" points="326.24,361.4294,334.7692,356.5046,329.1814,357.3861,328.2999,351.7983,326.24,361.4294" style="stroke:#181818;stroke-width:1.0;"/><text fill="#000000" font-family="sans-serif" font-size="13" lengthAdjust="spacing" textLength="54" x="356" y="269.1045">paid start</text></g><!--link TrialActive to SubscriptionActive--><g id="link_TrialActive_SubscriptionActive"><path d="M264.92,283.7694 C274.92,305.2594 288.5285,334.4796 298.5385,355.9896 " fill="none" id="TrialActive-to-SubscriptionActive" style="stroke:#181818;stroke-width:1.0;"/><polygon fill="#181818" points="301.07,361.4294,300.8993,351.582,298.9604,356.8962,293.6462,354.9573,301.07,361.4294" style="stroke:#181818;stroke-width:1.0;"/><text fill="#000000" font-family="sans-serif" font-size="13" lengthAdjust="spacing" textLength="46" x="288" y="328.1045">upgrade</text></g><!--link SubscriptionActive to SubscriptionChanged--><g id="link_SubscriptionActive_SubscriptionChanged"><path d="M246.79,387.1194 C185.26,392.9694 98.03,405.6894 77,431.6094 C66.29,444.8094 67.1534,458.9713 71.2634,473.6613 " fill="none" id="SubscriptionActive-to-SubscriptionChanged" style="stroke:#181818;stroke-width:1.0;"/><polygon fill="#181818" points="72.88,479.4394,74.3072,469.6945,71.5328,474.6243,66.603,471.85,72.88,479.4394" style="stroke:#181818;stroke-width:1.0;"/><text fill="#000000" font-family="sans-serif" font-size="13" lengthAdjust="spacing" textLength="70" x="78" y="446.1045">change plan</text></g><!--link SubscriptionChanged to SubscriptionActive--><g id="link_SubscriptionChanged_SubscriptionActive"><path d="M108.69,479.3894 C130.48,465.2294 161.45,446.0194 190,431.6094 C211.8,420.6094 231.0856,412.3235 252.5156,403.9035 " fill="none" id="SubscriptionChanged-to-SubscriptionActive" style="stroke:#181818;stroke-width:1.0;"/><polygon fill="#181818" points="258.1,401.7094,248.2606,401.2777,253.4463,403.5378,251.1861,408.7236,258.1,401.7094" style="stroke:#181818;stroke-width:1.0;"/><text fill="#000000" font-family="sans-serif" font-size="13" lengthAdjust="spacing" textLength="76" x="191" y="446.1045">cycle applied</text></g><!--link SubscriptionActive to InvoiceGenerated--><g id="link_SubscriptionActive_InvoiceGenerated"><path d="M299.93,401.7694 C288.62,423.2594 273.1923,452.6087 261.8823,474.1187 " fill="none" id="SubscriptionActive-to-InvoiceGenerated" style="stroke:#181818;stroke-width:1.0;"/><polygon fill="#181818" points="259.09,479.4294,266.8189,473.325,261.417,475.0038,259.7381,469.6019,259.09,479.4294" style="stroke:#181818;stroke-width:1.0;"/><text fill="#000000" font-family="sans-serif" font-size="13" lengthAdjust="spacing" textLength="55" x="285" y="446.1045">billing run</text></g><!--link InvoiceGenerated to InvoiceSent--><g id="link_InvoiceGenerated_InvoiceSent"><path d="M250.65,519.7694 C252.5,541.2594 254.9731,569.9417 256.8331,591.4517 " fill="none" id="InvoiceGenerated-to-InvoiceSent" style="stroke:#181818;stroke-width:1.0;"/><polygon fill="#181818" points="257.35,597.4294,260.5598,588.1182,256.9193,592.448,252.5895,588.8074,257.35,597.4294" style="stroke:#181818;stroke-width:1.0;"/><text fill="#000000" font-family="sans-serif" font-size="13" lengthAdjust="spacing" textLength="74" x="256" y="564.1045">email invoice</text></g><!--link InvoiceSent to PaymentPending--><g id="link_InvoiceSent_PaymentPending"><path d="M265.44,637.7694 C272.67,659.2594 282.4084,688.2321 289.6384,709.7421 " fill="none" id="InvoiceSent-to-PaymentPending" style="stroke:#181818;stroke-width:1.0;"/><polygon fill="#181818" points="291.55,715.4294,292.4741,705.624,289.957,710.6899,284.891,708.1728,291.55,715.4294" style="stroke:#181818;stroke-width:1.0;"/><text fill="#000000" font-family="sans-serif" font-size="13" lengthAdjust="spacing" textLength="67" x="282" y="682.1045">due window</text></g><!--link PaymentPending to Paid--><g id="link_PaymentPending_Paid"><path d="M317.65,755.7694 C339.7,777.2594 370.9641,807.7306 393.0241,829.2406 " fill="none" id="PaymentPending-to-Paid" style="stroke:#181818;stroke-width:1.0;"/><polygon fill="#181818" points="397.32,833.4294,393.6687,824.2823,393.7401,829.9387,388.0837,830.0102,397.32,833.4294" style="stroke:#181818;stroke-width:1.0;"/><text fill="#000000" font-family="sans-serif" font-size="13" lengthAdjust="spacing" textLength="103" x="365" y="800.1045">payment success</text></g><!--link PaymentPending to Failed--><g id="link_PaymentPending_Failed"><path d="M239.38,746.3194 C216.57,753.2694 192.68,765.1894 179,785.6094 C158.73,815.8794 208.4932,835.1482 243.0232,844.8382 " fill="none" id="PaymentPending-to-Failed" style="stroke:#181818;stroke-width:1.0;"/><polygon fill="#181818" points="248.8,846.4594,241.2155,840.1764,243.986,845.1084,239.054,847.8789,248.8,846.4594" style="stroke:#181818;stroke-width:1.0;"/><text fill="#000000" font-family="sans-serif" font-size="13" lengthAdjust="spacing" textLength="84" x="180" y="800.1045">payment failed</text></g><!--link Failed to PaymentPending--><g id="link_Failed_PaymentPending"><path d="M277.97,833.4294 C282.42,811.9194 288.3734,783.1347 292.8234,761.6447 " fill="none" id="Failed-to-PaymentPending" style="stroke:#181818;stroke-width:1.0;"/><polygon fill="#181818" points="294.04,755.7694,288.2982,763.7713,293.0261,760.6655,296.132,765.3935,294.04,755.7694" style="stroke:#181818;stroke-width:1.0;"/><text fill="#000000" font-family="sans-serif" font-size="13" lengthAdjust="spacing" textLength="26" x="289" y="800.1045">retry</text></g><!--link Paid to SubscriptionActive--><g id="link_Paid_SubscriptionActive"><path d="M442.15,839.2394 C473.21,820.6894 522,784.0094 522,736.6094 C522,498.6094 522,498.6094 522,498.6094 C522,430.0094 441.4211,402.8044 378.9311,391.3144 " fill="none" id="Paid-to-SubscriptionActive" style="stroke:#181818;stroke-width:1.0;"/><polygon fill="#181818" points="373.03,390.2294,381.1583,395.791,377.9476,391.1336,382.605,387.9229,373.03,390.2294" style="stroke:#181818;stroke-width:1.0;"/><text fill="#000000" font-family="sans-serif" font-size="13" lengthAdjust="spacing" textLength="93" x="523" y="623.1045">continue service</text></g><!--link SubscriptionActive to CancelRequested--><g id="link_SubscriptionActive_CancelRequested"><path d="M326.02,401.7694 C343.99,423.2594 369.132,453.3158 387.112,474.8258 " fill="none" id="SubscriptionActive-to-CancelRequested" style="stroke:#181818;stroke-width:1.0;"/><polygon fill="#181818" points="390.96,479.4294,388.2569,469.9587,387.7533,475.5931,382.1189,475.0894,390.96,479.4294" style="stroke:#181818;stroke-width:1.0;"/><text fill="#000000" font-family="sans-serif" font-size="13" lengthAdjust="spacing" textLength="85" x="365" y="446.1045">request cancel</text></g><!--link CancelRequested to Cancelled--><g id="link_CancelRequested_Cancelled"><path d="M407,519.7694 C407,541.2594 407,569.9194 407,591.4294 " fill="none" id="CancelRequested-to-Cancelled" style="stroke:#181818;stroke-width:1.0;"/><polygon fill="#181818" points="407,597.4294,411,588.4294,407,592.4294,403,588.4294,407,597.4294" style="stroke:#181818;stroke-width:1.0;"/><text fill="#000000" font-family="sans-serif" font-size="13" lengthAdjust="spacing" textLength="51" x="408" y="564.1045">term end</text></g><!--link Cancelled to *end*--><g id="link_Cancelled_*end*"><path d="M407,637.7694 C407,662.5994 407,699.0294 407,718.4094 " fill="none" id="Cancelled-to-*end*" style="stroke:#181818;stroke-width:1.0;"/><polygon fill="#181818" points="407,724.4094,411,715.4094,407,719.4094,403,715.4094,407,724.4094" style="stroke:#181818;stroke-width:1.0;"/></g><!--SRC=[TL8zJyCm4DtzAsu5gGjZ1oHQ0M90L4sP48Dh7-r9pjdObrJvzpWEQgCssIxlm-_oRF41nCFUY_WQB4KqGfxLaIm2ra4wi9XCf51W8N48dyyVs_SAAj62i8kQ4_KiBE3X3gfcVzQ3PWihSexueDJN_JSi5e-mSPfNqPzIZuu_2hkBfDrJtg95M48I7GManswbuwYp8sYoWqsDZvhLD-4GjKKrGLvxraVD1xJPPCe48M-afXIpQQOpkK0TWYEqSvblt7eo-8gCCLVS1-w74Y4sh6xeaQT2bYp7MfC36Z0rvie5wAxEymRPzcSkmJO89sBhJ-gA6-HaIx65WTGOWobDALzoAewrFmLG__XaTaI9dIePywrv5kAyPCBOzdyqKznQiq6tnTy6qz1R76OmXL7NWejfs5imrf1NKnUmb-INg_u0]--></g></svg>