<?xml version="1.0" encoding="us-ascii" standalone="no"?><svg xmlns="http://www.w3.org/2000/svg" xmlns:xlink="http://www.w3.org/1999/xlink" contentStyleType="text/css" height="941px" preserveAspectRatio="none" style="width:2630px;height:941px;background:#FFFFFF;" version="1.1" viewBox="0 0 2630 941" width="2630px" zoomAndPan="magnify"><defs/><g><line style="stroke:#181818;stroke-width:0.5;stroke-dasharray:5.0,5.0;" x1="39" x2="39" y1="82.6094" y2="934.1016"/><line style="stroke:#181818;stroke-width:0.5;stroke-dasharray:5.0,5.0;" x1="125.5" x2="125.5" y1="82.6094" y2="934.1016"/><line style="stroke:#181818;stroke-width:0.5;stroke-dasharray:5.0,5.0;" x1="319.5" x2="319.5" y1="82.6094" y2="934.1016"/><line style="stroke:#181818;stroke-width:0.5;stroke-dasharray:5.0,5.0;" x1="669.5" x2="669.5" y1="82.6094" y2="934.1016"/><line style="stroke:#181818;stroke-width:0.5;stroke-dasharray:5.0,5.0;" x1="885.5" x2="885.5" y1="82.6094" y2="934.1016"/><line style="stroke:#181818;stroke-width:0.5;stroke-dasharray:5.0,5.0;" x1="1111.5" x2="1111.5" y1="82.6094" y2="934.1016"/><line style="stroke:#181818;stroke-width:0.5;stroke-dasharray:5.0,5.0;" x1="1259.5" x2="1259.5" y1="82.6094" y2="934.1016"/><line style="stroke:#181818;stroke-width:0.5;stroke-dasharray:5.0,5.0;" x1="1406.5" x2="1406.5" y1="82.6094" y2="934.1016"/><line style="stroke:#181818;stroke-width:0.5;stroke-dasharray:5.0,5.0;" x1="1614.5" x2="1614.5" y1="82.6094" y2="934.1016"/><line style="stroke:#181818;stroke-width:0.5;stroke-dasharray:5.0,5.0;" x1="1749" x2="1749" y1="82.6094" y2="934.1016"/><line style="stroke:#181818;stroke-width:0.5;stroke-dasharray:5.0,5.0;" x1="1861.5" x2="1861.5" y1="82.6094" y2="934.1016"/><line style="stroke:#181818;stroke-width:0.5;stroke-dasharray:5.0,5.0;" x1="2041" x2="2041" y1="82.6094" y2="934.1016"/><line style="stroke:#181818;stroke-width:0.5;stroke-dasharray:5.0,5.0;" x1="2256.5" x2="2256.5" y1="82.6094" y2="934.1016"/><line style="stroke:#181818;stroke-width:0.5;stroke-dasharray:5.0,5.0;" x1="2547" x2="2547" y1="82.6094" y2="934.1016"/><text fill="#000000" font-family="sans-serif" font-size="14" lengthAdjust="spacing" textLength="62" x="5" y="79.5332">Employee</text><ellipse cx="39" cy="13.5" fill="#E2E2F0" rx="8" ry="8" style="stroke:#181818;stroke-width:0.5;"/><path d="M39,21.5 L39,48.5 M26,29.5 L52,29.5 M39,48.5 L26,63.5 M39,48.5 L52,63.5 " fill="none" style="stroke:#181818;stroke-width:0.5;"/><text fill="#000000" font-family="sans-serif" font-size="14" lengthAdjust="spacing" textLength="79" x="83" y="79.5332">HR Manager</text><ellipse cx="125.5" cy="13.5" fill="#E2E2F0" rx="8" ry="8" style="stroke:#181818;stroke-width:0.5;"/><path d="M125.5,21.5 L125.5,48.5 M112.5,29.5 L138.5,29.5 M125.5,48.5 L112.5,63.5 M125.5,48.5 L138.5,63.5 " fill="none" style="stroke:#181818;stroke-width:0.5;"/><text fill="#000000" font-family="sans-serif" font-size="14" lengthAdjust="spacing" textLength="114" x="259.5" y="79.5332">Web/Mobile Client</text><path d="M299,37 L299,61 M299,49 L316,49 " fill="none" style="stroke:#181818;stroke-width:0.5;"/><ellipse cx="328" cy="49" fill="#E2E2F0" rx="12" ry="12" style="stroke:#181818;stroke-width:0.5;"/><text fill="#000000" font-family="sans-serif" font-size="14" lengthAdjust="spacing" textLength="115" x="609" y="61.9238">Express API Layer</text><text fill="#000000" font-family="sans-serif" font-size="14" lengthAdjust="spacing" textLength="172" x="580.5" y="79.5332">(app.js route orchestration)</text><ellipse cx="669.5" cy="31.3906" fill="#E2E2F0" rx="12" ry="12" style="stroke:#181818;stroke-width:0.5;"/><polygon fill="#181818" points="665.5,19.3906,671.5,14.3906,669.5,19.3906,671.5,24.3906,665.5,19.3906" style="stroke:#181818;stroke-width:1.0;"/><text fill="#000000" font-family="sans-serif" font-size="14" lengthAdjust="spacing" textLength="228" x="768.5" y="79.5332">Workflow Engine + Approval Service</text><ellipse cx="885.5" cy="49" fill="#E2E2F0" rx="12" ry="12" style="stroke:#181818;stroke-width:0.5;"/><polygon fill="#181818" points="881.5,37,887.5,32,885.5,37,887.5,42,881.5,37" style="stroke:#181818;stroke-width:1.0;"/><text fill="#000000" font-family="sans-serif" font-size="14" lengthAdjust="spacing" textLength="120" x="1048.5" y="79.5332">Notification Service</text><ellipse cx="1111.5" cy="49" fill="#E2E2F0" rx="12" ry="12" style="stroke:#181818;stroke-width:0.5;"/><polygon fill="#181818" points="1107.5,37,1113.5,32,1111.5,37,1113.5,42,1107.5,37" style="stroke:#181818;stroke-width:1.0;"/><text fill="#000000" font-family="sans-serif" font-size="14" lengthAdjust="spacing" textLength="144" x="1184.5" y="79.5332">Email Service + Queue</text><ellipse cx="1259.5" cy="49" fill="#E2E2F0" rx="12" ry="12" style="stroke:#181818;stroke-width:0.5;"/><polygon fill="#181818" points="1255.5,37,1261.5,32,1259.5,37,1261.5,42,1255.5,37" style="stroke:#181818;stroke-width:1.0;"/><text fill="#000000" font-family="sans-serif" font-size="14" lengthAdjust="spacing" textLength="118" x="1344.5" y="79.5332">Integration Service</text><ellipse cx="1406.5" cy="49" fill="#E2E2F0" rx="12" ry="12" style="stroke:#181818;stroke-width:0.5;"/><polygon fill="#181818" points="1402.5,37,1408.5,32,1406.5,37,1408.5,42,1402.5,37" style="stroke:#181818;stroke-width:1.0;"/><text fill="#000000" font-family="sans-serif" font-size="14" lengthAdjust="spacing" textLength="167" x="1528" y="79.5332">Integration Event Manager</text><ellipse cx="1614.5" cy="49" fill="#E2E2F0" rx="12" ry="12" style="stroke:#181818;stroke-width:0.5;"/><polygon fill="#181818" points="1610.5,37,1616.5,32,1614.5,37,1616.5,42,1610.5,37" style="stroke:#181818;stroke-width:1.0;"/><text fill="#000000" font-family="sans-serif" font-size="14" lengthAdjust="spacing" textLength="70" x="1711" y="79.5332">HR Service</text><ellipse cx="1749" cy="49" fill="#E2E2F0" rx="12" ry="12" style="stroke:#181818;stroke-width:0.5;"/><polygon fill="#181818" points="1745,37,1751,32,1749,37,1751,42,1745,37" style="stroke:#181818;stroke-width:1.0;"/><text fill="#000000" font-family="sans-serif" font-size="14" lengthAdjust="spacing" textLength="123" x="1797" y="79.5332">Attendance Service</text><ellipse cx="1861.5" cy="49" fill="#E2E2F0" rx="12" ry="12" style="stroke:#181818;stroke-width:0.5;"/><polygon fill="#181818" points="1857.5,37,1863.5,32,1861.5,37,1863.5,42,1857.5,37" style="stroke:#181818;stroke-width:1.0;"/><text fill="#000000" font-family="sans-serif" font-size="14" lengthAdjust="spacing" textLength="204" x="1936" y="79.5332">Payroll + Disbursement Services</text><ellipse cx="2041" cy="49" fill="#E2E2F0" rx="12" ry="12" style="stroke:#181818;stroke-width:0.5;"/><polygon fill="#181818" points="2037,37,2043,32,2041,37,2043,42,2037,37" style="stroke:#181818;stroke-width:1.0;"/><text fill="#000000" font-family="sans-serif" font-size="14" lengthAdjust="spacing" textLength="195" x="2156" y="79.5332">Finance + Accounting Services</text><ellipse cx="2256.5" cy="49" fill="#E2E2F0" rx="12" ry="12" style="stroke:#181818;stroke-width:0.5;"/><polygon fill="#181818" points="2252.5,37,2258.5,32,2256.5,37,2258.5,42,2252.5,37" style="stroke:#181818;stroke-width:1.0;"/><text fill="#000000" font-family="sans-serif" font-size="14" lengthAdjust="spacing" textLength="146" x="2471" y="79.5332">PostgreSQL via Prisma</text><path d="M2529,29 C2529,19 2547,19 2547,19 C2547,19 2565,19 2565,29 L2565,55 C2565,65 2547,65 2547,65 C2547,65 2529,65 2529,55 L2529,29 " fill="#E2E2F0" style="stroke:#181818;stroke-width:1.5;"/><path d="M2529,29 C2529,39 2547,39 2547,39 C2547,39 2565,39 2565,29 " fill="none" style="stroke:#181818;stroke-width:1.5;"/><rect fill="#EEEEEE" height="3" style="stroke:#EEEEEE;stroke-width:1.0;" width="2618" x="5" y="111.7852"/><line style="stroke:#000000;stroke-width:1.0;" x1="5" x2="2623" y1="111.7852" y2="111.7852"/><line style="stroke:#000000;stroke-width:1.0;" x1="5" x2="2623" y1="114.7852" y2="114.7852"/><rect fill="#EEEEEE" height="24.3516" style="stroke:#000000;stroke-width:2.0;" width="278" x="1175" y="100.6094"/><text fill="#000000" font-family="sans-serif" font-size="13" font-weight="bold" lengthAdjust="spacing" textLength="260" x="1181" y="118.1045">5) HR, Attendance, Payroll, Disbursement</text><polygon fill="#181818" points="307.5,153.3125,317.5,157.3125,307.5,161.3125,311.5,157.3125" style="stroke:#181818;stroke-width:1.0;"/><line style="stroke:#181818;stroke-width:1.0;" x1="125.5" x2="313.5" y1="157.3125" y2="157.3125"/><text fill="#000000" font-family="sans-serif" font-size="13" font-weight="bold" lengthAdjust="spacing" textLength="7" x="132.5" y="152.4561">1</text><text fill="#000000" font-family="sans-serif" font-size="13" lengthAdjust="spacing" textLength="159" x="143.5" y="152.4561">Employee/Leave operations</text><polygon fill="#181818" points="657.5,183.6641,667.5,187.6641,657.5,191.6641,661.5,187.6641" style="stroke:#181818;stroke-width:1.0;"/><line style="stroke:#181818;stroke-width:1.0;" x1="319.5" x2="663.5" y1="187.6641" y2="187.6641"/><text fill="#000000" font-family="sans-serif" font-size="13" font-weight="bold" lengthAdjust="spacing" textLength="7" x="326.5" y="182.8076">2</text><text fill="#000000" font-family="sans-serif" font-size="13" lengthAdjust="spacing" textLength="302" x="337.5" y="182.8076">/api/employees, /api/leave-types, /api/leave-requests</text><polygon fill="#181818" points="1737,214.0156,1747,218.0156,1737,222.0156,1741,218.0156" style="stroke:#181818;stroke-width:1.0;"/><line style="stroke:#181818;stroke-width:1.0;" x1="669.5" x2="1743" y1="218.0156" y2="218.0156"/><text fill="#000000" font-family="sans-serif" font-size="13" font-weight="bold" lengthAdjust="spacing" textLength="7" x="676.5" y="213.1592">3</text><text fill="#000000" font-family="sans-serif" font-size="13" lengthAdjust="spacing" textLength="178" x="687.5" y="213.1592">employee + leave service flows</text><polygon fill="#181818" points="2535,244.3672,2545,248.3672,2535,252.3672,2539,248.3672" style="stroke:#181818;stroke-width:1.0;"/><line style="stroke:#181818;stroke-width:1.0;" x1="1749" x2="2541" y1="248.3672" y2="248.3672"/><text fill="#000000" font-family="sans-serif" font-size="13" font-weight="bold" lengthAdjust="spacing" textLength="7" x="1756" y="243.5107">4</text><text fill="#000000" font-family="sans-serif" font-size="13" lengthAdjust="spacing" textLength="329" x="1767" y="243.5107">Employee, LeaveType, LeaveRequest, Task, WorkReport</text><polygon fill="#181818" points="1760,274.7188,1750,278.7188,1760,282.7188,1756,278.7188" style="stroke:#181818;stroke-width:1.0;"/><line style="stroke:#181818;stroke-width:1.0;stroke-dasharray:2.0,2.0;" x1="1754" x2="2546" y1="278.7188" y2="278.7188"/><text fill="#000000" font-family="sans-serif" font-size="13" font-weight="bold" lengthAdjust="spacing" textLength="7" x="1766" y="273.8623">5</text><text fill="#000000" font-family="sans-serif" font-size="13" lengthAdjust="spacing" textLength="115" x="1777" y="273.8623">HR transaction data</text><polygon fill="#181818" points="896.5,305.0703,886.5,309.0703,896.5,313.0703,892.5,309.0703" style="stroke:#181818;stroke-width:1.0;"/><line style="stroke:#181818;stroke-width:1.0;" x1="890.5" x2="1748" y1="309.0703" y2="309.0703"/><text fill="#000000" font-family="sans-serif" font-size="13" font-weight="bold" lengthAdjust="spacing" textLength="7" x="902.5" y="304.2139">6</text><text fill="#000000" font-family="sans-serif" font-size="13" lengthAdjust="spacing" textLength="173" x="913.5" y="304.2139">leave approval workflow trigger</text><polygon fill="#181818" points="1099.5,335.4219,1109.5,339.4219,1099.5,343.4219,1103.5,339.4219" style="stroke:#181818;stroke-width:1.0;"/><line style="stroke:#181818;stroke-width:1.0;" x1="885.5" x2="1105.5" y1="339.4219" y2="339.4219"/><text fill="#000000" font-family="sans-serif" font-size="13" font-weight="bold" lengthAdjust="spacing" textLength="7" x="892.5" y="334.5654">7</text><text fill="#000000" font-family="sans-serif" font-size="13" lengthAdjust="spacing" textLength="191" x="903.5" y="334.5654">approver + requester notifications</text><polygon fill="#181818" points="330.5,365.7734,320.5,369.7734,330.5,373.7734,326.5,369.7734" style="stroke:#181818;stroke-width:1.0;"/><line style="stroke:#181818;stroke-width:1.0;stroke-dasharray:2.0,2.0;" x1="324.5" x2="668.5" y1="369.7734" y2="369.7734"/><text fill="#000000" font-family="sans-serif" font-size="13" font-weight="bold" lengthAdjust="spacing" textLength="7" x="336.5" y="364.917">8</text><text fill="#000000" font-family="sans-serif" font-size="13" lengthAdjust="spacing" textLength="54" x="347.5" y="364.917">HR result</text><polygon fill="#181818" points="307.5,396.125,317.5,400.125,307.5,404.125,311.5,400.125" style="stroke:#181818;stroke-width:1.0;"/><line style="stroke:#181818;stroke-width:1.0;" x1="39" x2="313.5" y1="400.125" y2="400.125"/><text fill="#000000" font-family="sans-serif" font-size="13" font-weight="bold" lengthAdjust="spacing" textLength="7" x="46" y="395.2686">9</text><text fill="#000000" font-family="sans-serif" font-size="13" lengthAdjust="spacing" textLength="169" x="57" y="395.2686">Clock in/out, view attendance</text><polygon fill="#181818" points="657.5,426.4766,667.5,430.4766,657.5,434.4766,661.5,430.4766" style="stroke:#181818;stroke-width:1.0;"/><line style="stroke:#181818;stroke-width:1.0;" x1="319.5" x2="663.5" y1="430.4766" y2="430.4766"/><text fill="#000000" font-family="sans-serif" font-size="13" font-weight="bold" lengthAdjust="spacing" textLength="14" x="326.5" y="425.6201">10</text><text fill="#000000" font-family="sans-serif" font-size="13" lengthAdjust="spacing" textLength="255" x="344.5" y="425.6201">/api/attendance/clock-in, /clock-out, /reports</text><polygon fill="#181818" points="1849.5,456.8281,1859.5,460.8281,1849.5,464.8281,1853.5,460.8281" style="stroke:#181818;stroke-width:1.0;"/><line style="stroke:#181818;stroke-width:1.0;" x1="669.5" x2="1855.5" y1="460.8281" y2="460.8281"/><text fill="#000000" font-family="sans-serif" font-size="13" font-weight="bold" lengthAdjust="spacing" textLength="14" x="676.5" y="455.9717">11</text><text fill="#000000" font-family="sans-serif" font-size="13" lengthAdjust="spacing" textLength="218" x="694.5" y="455.9717">time tracking, shifts, overtime, reports</text><polygon fill="#181818" points="2535,487.1797,2545,491.1797,2535,495.1797,2539,491.1797" style="stroke:#181818;stroke-width:1.0;"/><line style="stroke:#181818;stroke-width:1.0;" x1="1861.5" x2="2541" y1="491.1797" y2="491.1797"/><text fill="#000000" font-family="sans-serif" font-size="13" font-weight="bold" lengthAdjust="spacing" textLength="14" x="1868.5" y="486.3232">12</text><text fill="#000000" font-family="sans-serif" font-size="13" lengthAdjust="spacing" textLength="466" x="1886.5" y="486.3232">Attendance, TimeTracking, ShiftAssignment, OvertimeRecord, AttendanceReport</text><polygon fill="#181818" points="896.5,517.5313,886.5,521.5313,896.5,525.5313,892.5,521.5313" style="stroke:#181818;stroke-width:1.0;"/><line style="stroke:#181818;stroke-width:1.0;" x1="890.5" x2="1860.5" y1="521.5313" y2="521.5313"/><text fill="#000000" font-family="sans-serif" font-size="13" font-weight="bold" lengthAdjust="spacing" textLength="14" x="902.5" y="516.6748">13</text><text fill="#000000" font-family="sans-serif" font-size="13" lengthAdjust="spacing" textLength="153" x="920.5" y="516.6748">overtime approval requests</text><polygon fill="#181818" points="1122.5,547.8828,1112.5,551.8828,1122.5,555.8828,1118.5,551.8828" style="stroke:#181818;stroke-width:1.0;"/><line style="stroke:#181818;stroke-width:1.0;" x1="1116.5" x2="1860.5" y1="551.8828" y2="551.8828"/><text fill="#000000" font-family="sans-serif" font-size="13" font-weight="bold" lengthAdjust="spacing" textLength="14" x="1128.5" y="547.0264">14</text><text fill="#000000" font-family="sans-serif" font-size="13" lengthAdjust="spacing" textLength="115" x="1146.5" y="547.0264">attendance/ot alerts</text><polygon fill="#181818" points="330.5,578.2344,320.5,582.2344,330.5,586.2344,326.5,582.2344" style="stroke:#181818;stroke-width:1.0;"/><line style="stroke:#181818;stroke-width:1.0;stroke-dasharray:2.0,2.0;" x1="324.5" x2="668.5" y1="582.2344" y2="582.2344"/><text fill="#000000" font-family="sans-serif" font-size="13" font-weight="bold" lengthAdjust="spacing" textLength="14" x="336.5" y="577.3779">15</text><text fill="#000000" font-family="sans-serif" font-size="13" lengthAdjust="spacing" textLength="104" x="354.5" y="577.3779">attendance status</text><polygon fill="#181818" points="307.5,608.5859,317.5,612.5859,307.5,616.5859,311.5,612.5859" style="stroke:#181818;stroke-width:1.0;"/><line style="stroke:#181818;stroke-width:1.0;" x1="125.5" x2="313.5" y1="612.5859" y2="612.5859"/><text fill="#000000" font-family="sans-serif" font-size="13" font-weight="bold" lengthAdjust="spacing" textLength="14" x="132.5" y="607.7295">16</text><text fill="#000000" font-family="sans-serif" font-size="13" lengthAdjust="spacing" textLength="65" x="150.5" y="607.7295">Run payroll</text><polygon fill="#181818" points="657.5,638.9375,667.5,642.9375,657.5,646.9375,661.5,642.9375" style="stroke:#181818;stroke-width:1.0;"/><line style="stroke:#181818;stroke-width:1.0;" x1="319.5" x2="663.5" y1="642.9375" y2="642.9375"/><text fill="#000000" font-family="sans-serif" font-size="13" font-weight="bold" lengthAdjust="spacing" textLength="14" x="326.5" y="638.0811">17</text><text fill="#000000" font-family="sans-serif" font-size="13" lengthAdjust="spacing" textLength="308" x="344.5" y="638.0811">/api/payroll/cycles, generate-payslips, disbursements</text><polygon fill="#181818" points="2029,669.2891,2039,673.2891,2029,677.2891,2033,673.2891" style="stroke:#181818;stroke-width:1.0;"/><line style="stroke:#181818;stroke-width:1.0;" x1="669.5" x2="2035" y1="673.2891" y2="673.2891"/><text fill="#000000" font-family="sans-serif" font-size="13" font-weight="bold" lengthAdjust="spacing" textLength="14" x="676.5" y="668.4326">18</text><text fill="#000000" font-family="sans-serif" font-size="13" lengthAdjust="spacing" textLength="260" x="694.5" y="668.4326">payroll cycle calculation + payslip generation</text><polygon fill="#181818" points="2535,699.6406,2545,703.6406,2535,707.6406,2539,703.6406" style="stroke:#181818;stroke-width:1.0;"/><line style="stroke:#181818;stroke-width:1.0;" x1="2041" x2="2541" y1="703.6406" y2="703.6406"/><text fill="#000000" font-family="sans-serif" font-size="13" font-weight="bold" lengthAdjust="spacing" textLength="14" x="2048" y="698.7842">19</text><text fill="#000000" font-family="sans-serif" font-size="13" lengthAdjust="spacing" textLength="464" x="2066" y="698.7842">PayrollCycle, Payslip, SalaryComponent, TaxConfiguration, SalaryDisbursement</text><polygon fill="#181818" points="896.5,729.9922,886.5,733.9922,896.5,737.9922,892.5,733.9922" style="stroke:#181818;stroke-width:1.0;"/><line style="stroke:#181818;stroke-width:1.0;" x1="890.5" x2="2040" y1="733.9922" y2="733.9922"/><text fill="#000000" font-family="sans-serif" font-size="13" font-weight="bold" lengthAdjust="spacing" textLength="14" x="902.5" y="729.1357">20</text><text fill="#000000" font-family="sans-serif" font-size="13" lengthAdjust="spacing" textLength="245" x="920.5" y="729.1357">payslip/finance approvals where configured</text><polygon fill="#181818" points="1417.5,760.3438,1407.5,764.3438,1417.5,768.3438,1413.5,764.3438" style="stroke:#181818;stroke-width:1.0;"/><line style="stroke:#181818;stroke-width:1.0;" x1="1411.5" x2="2040" y1="764.3438" y2="764.3438"/><text fill="#000000" font-family="sans-serif" font-size="13" font-weight="bold" lengthAdjust="spacing" textLength="14" x="1423.5" y="759.4873">21</text><text fill="#000000" font-family="sans-serif" font-size="13" lengthAdjust="spacing" textLength="106" x="1441.5" y="759.4873">sync payroll to GL</text><polygon fill="#181818" points="1602.5,790.6953,1612.5,794.6953,1602.5,798.6953,1606.5,794.6953" style="stroke:#181818;stroke-width:1.0;"/><line style="stroke:#181818;stroke-width:1.0;" x1="1406.5" x2="1608.5" y1="794.6953" y2="794.6953"/><text fill="#000000" font-family="sans-serif" font-size="13" font-weight="bold" lengthAdjust="spacing" textLength="14" x="1413.5" y="789.8389">22</text><text fill="#000000" font-family="sans-serif" font-size="13" lengthAdjust="spacing" textLength="166" x="1431.5" y="789.8389">emit payroll:cycle:processed</text><polygon fill="#181818" points="2244.5,821.0469,2254.5,825.0469,2244.5,829.0469,2248.5,825.0469" style="stroke:#181818;stroke-width:1.0;"/><line style="stroke:#181818;stroke-width:1.0;" x1="1614.5" x2="2250.5" y1="825.0469" y2="825.0469"/><text fill="#000000" font-family="sans-serif" font-size="13" font-weight="bold" lengthAdjust="spacing" textLength="14" x="1621.5" y="820.1904">23</text><text fill="#000000" font-family="sans-serif" font-size="13" lengthAdjust="spacing" textLength="177" x="1639.5" y="820.1904">payroll accounting sync trigger</text><polygon fill="#181818" points="1270.5,851.3984,1260.5,855.3984,1270.5,859.3984,1266.5,855.3984" style="stroke:#181818;stroke-width:1.0;"/><line style="stroke:#181818;stroke-width:1.0;" x1="1264.5" x2="2040" y1="855.3984" y2="855.3984"/><text fill="#000000" font-family="sans-serif" font-size="13" font-weight="bold" lengthAdjust="spacing" textLength="14" x="1276.5" y="850.542">24</text><text fill="#000000" font-family="sans-serif" font-size="13" lengthAdjust="spacing" textLength="169" x="1294.5" y="850.542">payslip/disbursement notices</text><polygon fill="#181818" points="680.5,881.75,670.5,885.75,680.5,889.75,676.5,885.75" style="stroke:#181818;stroke-width:1.0;"/><line style="stroke:#181818;stroke-width:1.0;stroke-dasharray:2.0,2.0;" x1="674.5" x2="2040" y1="885.75" y2="885.75"/><text fill="#000000" font-family="sans-serif" font-size="13" font-weight="bold" lengthAdjust="spacing" textLength="14" x="686.5" y="880.8936">25</text><text fill="#000000" font-family="sans-serif" font-size="13" lengthAdjust="spacing" textLength="85" x="704.5" y="880.8936">payroll outputs</text><polygon fill="#181818" points="330.5,912.1016,320.5,916.1016,330.5,920.1016,326.5,916.1016" style="stroke:#181818;stroke-width:1.0;"/><line style="stroke:#181818;stroke-width:1.0;stroke-dasharray:2.0,2.0;" x1="324.5" x2="668.5" y1="916.1016" y2="916.1016"/><text fill="#000000" font-family="sans-serif" font-size="13" font-weight="bold" lengthAdjust="spacing" textLength="14" x="336.5" y="911.2451">26</text><text fill="#000000" font-family="sans-serif" font-size="13" lengthAdjust="spacing" textLength="102" x="354.5" y="911.2451">payroll completed</text><!--SRC=[RLLDKzim4BthLsmvbS6fJxraXiv028KPQ25aXailYhDnL1J9bUH0-kkx-hASmWLawUtRrTktogVEy7R7mQ7-2yxqo7ZljEftApHiAzO86wtTIhynnXkd3SntdTG7nFHvShE0UwvuY-O4k8MRnJrRwLwjkJd0oJEkwdkz4X9X9WKg5p1noHgjdD4IJkPldK5huUBX5kxu0SqlzPbttPVV5epk7O8spHQjCzm9hKu31s4BmRCsBnkfNs6kMg4Gpk2YwupUSmbFQFQYmH3pV5r2VcWdDg89Z4UWS70O5RVZOg0XviSU-uWC9mLugnosvZrXtFyODz-J44VwXPtBtXOy2JockrcKemlda9HMLDWO4hSBx84VwB-aug-4NVN6uiwdJI4sn2HC2ReMAX2Jbar33NL2jSSX2S7MtF4LjqY9j7MjmQV7EzWB3Wz6s1qFsAjBnixFuUifrLz1gRlAYQlZsixF6Ja99j-IMM0w6A- -GxudJtGOHRGiGGZi7JI5cdUYnWItLVoMFchY3jr_EmR_zEGjotmiKP3SKyZ1TFk00flwxrrcgJIFlBeSLLL1A6j9_6cvYCGLBBbzgS1xT86TDevHu2HdeZ_aQsLfchmXl9Q9_lcQZcDsdjtycetkZ6Z9Cen018sU9NW4eg6wqxrehKPMJzSSwqhPQFfwwHZBbpdIVIPrym92rJIA5VKLNu4F_VjO-t9UDpvw8XHf7fU1fJP1YK7qQ0WATsA7Nf3cXUnMWTsAZQD- -Jlvemg6m1YHsp1sr9A0ou7YoLDSM2jQvPrLmS_4jS16c_NOZAazXJgq8ESkNIYM6P2b0-NgsW6NEDnoh6b1WNNSqRY_i_kYLz2beVnGv7HODuT6Ua-tgFn4u8GEh1GTRQr78pLedL-3QQQ7m00Dbqqluxjq1eaaiz8cou5Py_Gzyz5XZdq02SublVqplUkq2e8l-TjCgure-qYK8UE17vC7rLF-UfEUeIo-XTSj6gesCU9w71hVLWgt1zKCztCQlj-nT4Qe_CQ6GHSkuwP1XodbeHVE4l60evZy71RLU7aMGxOyagDoucz7kSou7s4iAL713-tD6MXKkluZ-moD8v4bEYgL_GC0]--></g></svg>